%TF.GenerationSoftware,KiCad,Pcbnew,(5.1.8)-1*%
%TF.CreationDate,2021-08-17T23:37:39+02:00*%
%TF.ProjectId,USB_TLL,5553425f-544c-44c2-9e6b-696361645f70,rev?*%
%TF.SameCoordinates,Original*%
%TF.FileFunction,Copper,L2,Bot*%
%TF.FilePolarity,Positive*%
%FSLAX46Y46*%
G04 Gerber Fmt 4.6, Leading zero omitted, Abs format (unit mm)*
G04 Created by KiCad (PCBNEW (5.1.8)-1) date 2021-08-17 23:37:39*
%MOMM*%
%LPD*%
G01*
G04 APERTURE LIST*
%TA.AperFunction,ComponentPad*%
%ADD10O,1.950000X1.700000*%
%TD*%
%TA.AperFunction,ComponentPad*%
%ADD11O,3.500000X1.900000*%
%TD*%
%TA.AperFunction,ViaPad*%
%ADD12C,0.800000*%
%TD*%
%TA.AperFunction,Conductor*%
%ADD13C,1.016000*%
%TD*%
%TA.AperFunction,Conductor*%
%ADD14C,0.254000*%
%TD*%
%TA.AperFunction,Conductor*%
%ADD15C,0.100000*%
%TD*%
G04 APERTURE END LIST*
D10*
%TO.P,J2,5*%
%TO.N,GND*%
X141224000Y-71976000D03*
%TO.P,J2,4*%
%TO.N,+5V*%
X141224000Y-69476000D03*
%TO.P,J2,3*%
%TO.N,Net-(C3-Pad1)*%
X141224000Y-66976000D03*
%TO.P,J2,2*%
%TO.N,Net-(J2-Pad2)*%
X141224000Y-64476000D03*
%TO.P,J2,1*%
%TO.N,Net-(J2-Pad1)*%
%TA.AperFunction,ComponentPad*%
G36*
G01*
X140499000Y-61126000D02*
X141949000Y-61126000D01*
G75*
G02*
X142199000Y-61376000I0J-250000D01*
G01*
X142199000Y-62576000D01*
G75*
G02*
X141949000Y-62826000I-250000J0D01*
G01*
X140499000Y-62826000D01*
G75*
G02*
X140249000Y-62576000I0J250000D01*
G01*
X140249000Y-61376000D01*
G75*
G02*
X140499000Y-61126000I250000J0D01*
G01*
G37*
%TD.AperFunction*%
%TD*%
D11*
%TO.P,J1,5*%
%TO.N,GND*%
X92625000Y-61610000D03*
X92625000Y-73010000D03*
%TD*%
D12*
%TO.N,GND*%
X107247999Y-69147999D03*
X108712000Y-78740000D03*
%TO.N,+5V*%
X106680000Y-76708000D03*
X106934000Y-66802000D03*
X114300000Y-69850000D03*
%TO.N,Net-(R2-Pad2)*%
X121920000Y-64516000D03*
X110845000Y-66955000D03*
%TO.N,Net-(Tx1-Pad1)*%
X119055000Y-68255000D03*
X119888000Y-75184000D03*
%TD*%
D13*
%TO.N,GND*%
X108712000Y-78740000D02*
X108712000Y-77020304D01*
X107356008Y-75664312D02*
X107356008Y-69147999D01*
X108712000Y-77020304D02*
X107356008Y-75664312D01*
%TO.N,+5V*%
X106139998Y-76167998D02*
X106680000Y-76708000D01*
X106139998Y-67596002D02*
X106139998Y-76167998D01*
X106934000Y-66802000D02*
X106139998Y-67596002D01*
X109982000Y-69850000D02*
X106934000Y-66802000D01*
X114300000Y-69850000D02*
X109982000Y-69850000D01*
%TO.N,Net-(R2-Pad2)*%
X113284000Y-64516000D02*
X110845000Y-66955000D01*
X121920000Y-64516000D02*
X113284000Y-64516000D01*
%TO.N,Net-(Tx1-Pad1)*%
X119888000Y-69088000D02*
X119055000Y-68255000D01*
X119888000Y-75184000D02*
X119888000Y-69088000D01*
%TD*%
D14*
%TO.N,GND*%
X142850000Y-79350000D02*
X88290000Y-79350000D01*
X88290000Y-69493288D01*
X91440000Y-69493288D01*
X91440000Y-69726712D01*
X91485539Y-69955652D01*
X91574866Y-70171308D01*
X91704550Y-70365394D01*
X91869606Y-70530450D01*
X92063692Y-70660134D01*
X92279348Y-70749461D01*
X92508288Y-70795000D01*
X92741712Y-70795000D01*
X92970652Y-70749461D01*
X93186308Y-70660134D01*
X93380394Y-70530450D01*
X93545450Y-70365394D01*
X93675134Y-70171308D01*
X93764461Y-69955652D01*
X93810000Y-69726712D01*
X93810000Y-69493288D01*
X93764461Y-69264348D01*
X93675134Y-69048692D01*
X93545450Y-68854606D01*
X93380394Y-68689550D01*
X93186308Y-68559866D01*
X92970652Y-68470539D01*
X92741712Y-68425000D01*
X92508288Y-68425000D01*
X92279348Y-68470539D01*
X92063692Y-68559866D01*
X91869606Y-68689550D01*
X91704550Y-68854606D01*
X91574866Y-69048692D01*
X91485539Y-69264348D01*
X91440000Y-69493288D01*
X88290000Y-69493288D01*
X88290000Y-67596002D01*
X104991469Y-67596002D01*
X104996998Y-67652141D01*
X104996999Y-76111849D01*
X104991469Y-76167998D01*
X105013537Y-76392065D01*
X105078453Y-76606061D01*
X105078896Y-76607521D01*
X105185031Y-76806087D01*
X105259373Y-76896673D01*
X105288421Y-76932067D01*
X105327866Y-76980131D01*
X105371476Y-77015921D01*
X105911479Y-77555924D01*
X106041911Y-77662967D01*
X106240476Y-77769102D01*
X106455932Y-77834461D01*
X106679999Y-77856529D01*
X106904067Y-77834461D01*
X107119523Y-77769102D01*
X107318088Y-77662967D01*
X107492133Y-77520133D01*
X107634967Y-77346088D01*
X107741102Y-77147523D01*
X107806461Y-76932067D01*
X107828529Y-76707999D01*
X107806461Y-76483932D01*
X107741102Y-76268476D01*
X107634967Y-76069911D01*
X107527924Y-75939479D01*
X107282998Y-75694553D01*
X107282998Y-68767443D01*
X109134077Y-70618523D01*
X109169867Y-70662133D01*
X109343911Y-70804968D01*
X109542477Y-70911103D01*
X109692574Y-70956635D01*
X109757932Y-70976461D01*
X109778517Y-70978488D01*
X109925854Y-70993000D01*
X109925861Y-70993000D01*
X109982000Y-70998529D01*
X110038139Y-70993000D01*
X114356146Y-70993000D01*
X114524067Y-70976461D01*
X114739523Y-70911103D01*
X114938089Y-70804968D01*
X115112133Y-70662133D01*
X115254968Y-70488089D01*
X115361103Y-70289523D01*
X115426461Y-70074067D01*
X115448530Y-69850000D01*
X115426461Y-69625933D01*
X115361103Y-69410477D01*
X115254968Y-69211911D01*
X115112133Y-69037867D01*
X114938089Y-68895032D01*
X114739523Y-68788897D01*
X114524067Y-68723539D01*
X114356146Y-68707000D01*
X110455446Y-68707000D01*
X110003446Y-68255000D01*
X117906471Y-68255000D01*
X117928539Y-68479067D01*
X117993898Y-68694523D01*
X118100033Y-68893088D01*
X118207076Y-69023521D01*
X118745001Y-69561447D01*
X118745000Y-75240145D01*
X118761539Y-75408066D01*
X118826897Y-75623522D01*
X118933032Y-75822088D01*
X119075867Y-75996133D01*
X119249911Y-76138968D01*
X119448477Y-76245103D01*
X119663933Y-76310461D01*
X119888000Y-76332530D01*
X120112066Y-76310461D01*
X120327522Y-76245103D01*
X120526088Y-76138968D01*
X120700133Y-75996133D01*
X120842968Y-75822089D01*
X120949103Y-75623523D01*
X121014461Y-75408067D01*
X121031000Y-75240146D01*
X121031000Y-69144139D01*
X121036529Y-69088000D01*
X121031000Y-69031861D01*
X121031000Y-69031854D01*
X121014461Y-68863933D01*
X120949103Y-68648477D01*
X120842968Y-68449911D01*
X120700133Y-68275867D01*
X120656523Y-68240077D01*
X119823521Y-67407076D01*
X119693088Y-67300033D01*
X119494523Y-67193898D01*
X119279067Y-67128539D01*
X119055000Y-67106471D01*
X118830933Y-67128539D01*
X118615477Y-67193898D01*
X118416912Y-67300033D01*
X118242867Y-67442867D01*
X118100033Y-67616912D01*
X117993898Y-67815477D01*
X117928539Y-68030933D01*
X117906471Y-68255000D01*
X110003446Y-68255000D01*
X108703446Y-66955000D01*
X109696471Y-66955000D01*
X109718539Y-67179067D01*
X109783898Y-67394523D01*
X109890033Y-67593088D01*
X110032867Y-67767133D01*
X110206912Y-67909967D01*
X110405477Y-68016102D01*
X110620933Y-68081461D01*
X110845000Y-68103529D01*
X111069067Y-68081461D01*
X111284523Y-68016102D01*
X111483088Y-67909967D01*
X111613521Y-67802924D01*
X113757446Y-65659000D01*
X121976146Y-65659000D01*
X122144067Y-65642461D01*
X122359523Y-65577103D01*
X122558089Y-65470968D01*
X122732133Y-65328133D01*
X122874968Y-65154089D01*
X122981103Y-64955523D01*
X123046461Y-64740067D01*
X123068530Y-64516000D01*
X123064591Y-64476000D01*
X139606815Y-64476000D01*
X139635487Y-64767111D01*
X139720401Y-65047034D01*
X139858294Y-65305014D01*
X140043866Y-65531134D01*
X140269986Y-65716706D01*
X140287374Y-65726000D01*
X140269986Y-65735294D01*
X140043866Y-65920866D01*
X139858294Y-66146986D01*
X139720401Y-66404966D01*
X139635487Y-66684889D01*
X139606815Y-66976000D01*
X139635487Y-67267111D01*
X139720401Y-67547034D01*
X139858294Y-67805014D01*
X140043866Y-68031134D01*
X140269986Y-68216706D01*
X140287374Y-68226000D01*
X140269986Y-68235294D01*
X140043866Y-68420866D01*
X139858294Y-68646986D01*
X139720401Y-68904966D01*
X139635487Y-69184889D01*
X139606815Y-69476000D01*
X139635487Y-69767111D01*
X139720401Y-70047034D01*
X139858294Y-70305014D01*
X140043866Y-70531134D01*
X140269986Y-70716706D01*
X140527966Y-70854599D01*
X140807889Y-70939513D01*
X141026050Y-70961000D01*
X141421950Y-70961000D01*
X141640111Y-70939513D01*
X141920034Y-70854599D01*
X142178014Y-70716706D01*
X142404134Y-70531134D01*
X142589706Y-70305014D01*
X142727599Y-70047034D01*
X142812513Y-69767111D01*
X142841185Y-69476000D01*
X142812513Y-69184889D01*
X142727599Y-68904966D01*
X142589706Y-68646986D01*
X142404134Y-68420866D01*
X142178014Y-68235294D01*
X142160626Y-68226000D01*
X142178014Y-68216706D01*
X142404134Y-68031134D01*
X142589706Y-67805014D01*
X142727599Y-67547034D01*
X142812513Y-67267111D01*
X142841185Y-66976000D01*
X142812513Y-66684889D01*
X142727599Y-66404966D01*
X142589706Y-66146986D01*
X142404134Y-65920866D01*
X142178014Y-65735294D01*
X142160626Y-65726000D01*
X142178014Y-65716706D01*
X142404134Y-65531134D01*
X142589706Y-65305014D01*
X142727599Y-65047034D01*
X142812513Y-64767111D01*
X142841185Y-64476000D01*
X142812513Y-64184889D01*
X142727599Y-63904966D01*
X142589706Y-63646986D01*
X142404134Y-63420866D01*
X142340663Y-63368777D01*
X142442386Y-63314405D01*
X142576962Y-63203962D01*
X142687405Y-63069386D01*
X142769472Y-62915850D01*
X142820008Y-62749254D01*
X142837072Y-62576000D01*
X142837072Y-61376000D01*
X142820008Y-61202746D01*
X142769472Y-61036150D01*
X142687405Y-60882614D01*
X142576962Y-60748038D01*
X142442386Y-60637595D01*
X142288850Y-60555528D01*
X142122254Y-60504992D01*
X141949000Y-60487928D01*
X140499000Y-60487928D01*
X140325746Y-60504992D01*
X140159150Y-60555528D01*
X140005614Y-60637595D01*
X139871038Y-60748038D01*
X139760595Y-60882614D01*
X139678528Y-61036150D01*
X139627992Y-61202746D01*
X139610928Y-61376000D01*
X139610928Y-62576000D01*
X139627992Y-62749254D01*
X139678528Y-62915850D01*
X139760595Y-63069386D01*
X139871038Y-63203962D01*
X140005614Y-63314405D01*
X140107337Y-63368777D01*
X140043866Y-63420866D01*
X139858294Y-63646986D01*
X139720401Y-63904966D01*
X139635487Y-64184889D01*
X139606815Y-64476000D01*
X123064591Y-64476000D01*
X123046461Y-64291933D01*
X122981103Y-64076477D01*
X122874968Y-63877911D01*
X122732133Y-63703867D01*
X122558089Y-63561032D01*
X122359523Y-63454897D01*
X122144067Y-63389539D01*
X121976146Y-63373000D01*
X113340139Y-63373000D01*
X113284000Y-63367471D01*
X113227861Y-63373000D01*
X113227854Y-63373000D01*
X113080517Y-63387512D01*
X113059932Y-63389539D01*
X112994574Y-63409365D01*
X112844477Y-63454897D01*
X112645911Y-63561032D01*
X112471867Y-63703867D01*
X112436077Y-63747477D01*
X109997076Y-66186479D01*
X109890033Y-66316912D01*
X109783898Y-66515477D01*
X109718539Y-66730933D01*
X109696471Y-66955000D01*
X108703446Y-66955000D01*
X107781925Y-66033480D01*
X107746133Y-65989867D01*
X107572088Y-65847033D01*
X107373523Y-65740898D01*
X107158067Y-65675539D01*
X106934000Y-65653471D01*
X106933999Y-65653471D01*
X106709932Y-65675539D01*
X106494476Y-65740898D01*
X106295910Y-65847033D01*
X106165477Y-65954077D01*
X106165474Y-65954080D01*
X106121867Y-65989867D01*
X106086079Y-66033475D01*
X105371480Y-66748075D01*
X105327865Y-66783869D01*
X105185030Y-66957914D01*
X105078895Y-67156480D01*
X105037708Y-67292256D01*
X105023894Y-67337795D01*
X105013537Y-67371936D01*
X104996998Y-67539857D01*
X104996998Y-67539863D01*
X104991469Y-67596002D01*
X88290000Y-67596002D01*
X88290000Y-64893288D01*
X91440000Y-64893288D01*
X91440000Y-65126712D01*
X91485539Y-65355652D01*
X91574866Y-65571308D01*
X91704550Y-65765394D01*
X91869606Y-65930450D01*
X92063692Y-66060134D01*
X92279348Y-66149461D01*
X92508288Y-66195000D01*
X92741712Y-66195000D01*
X92970652Y-66149461D01*
X93186308Y-66060134D01*
X93380394Y-65930450D01*
X93545450Y-65765394D01*
X93675134Y-65571308D01*
X93764461Y-65355652D01*
X93810000Y-65126712D01*
X93810000Y-64893288D01*
X93764461Y-64664348D01*
X93675134Y-64448692D01*
X93545450Y-64254606D01*
X93380394Y-64089550D01*
X93186308Y-63959866D01*
X92970652Y-63870539D01*
X92741712Y-63825000D01*
X92508288Y-63825000D01*
X92279348Y-63870539D01*
X92063692Y-63959866D01*
X91869606Y-64089550D01*
X91704550Y-64254606D01*
X91574866Y-64448692D01*
X91485539Y-64664348D01*
X91440000Y-64893288D01*
X88290000Y-64893288D01*
X88290000Y-55270000D01*
X142850001Y-55270000D01*
X142850000Y-79350000D01*
%TA.AperFunction,Conductor*%
D15*
G36*
X142850000Y-79350000D02*
G01*
X88290000Y-79350000D01*
X88290000Y-69493288D01*
X91440000Y-69493288D01*
X91440000Y-69726712D01*
X91485539Y-69955652D01*
X91574866Y-70171308D01*
X91704550Y-70365394D01*
X91869606Y-70530450D01*
X92063692Y-70660134D01*
X92279348Y-70749461D01*
X92508288Y-70795000D01*
X92741712Y-70795000D01*
X92970652Y-70749461D01*
X93186308Y-70660134D01*
X93380394Y-70530450D01*
X93545450Y-70365394D01*
X93675134Y-70171308D01*
X93764461Y-69955652D01*
X93810000Y-69726712D01*
X93810000Y-69493288D01*
X93764461Y-69264348D01*
X93675134Y-69048692D01*
X93545450Y-68854606D01*
X93380394Y-68689550D01*
X93186308Y-68559866D01*
X92970652Y-68470539D01*
X92741712Y-68425000D01*
X92508288Y-68425000D01*
X92279348Y-68470539D01*
X92063692Y-68559866D01*
X91869606Y-68689550D01*
X91704550Y-68854606D01*
X91574866Y-69048692D01*
X91485539Y-69264348D01*
X91440000Y-69493288D01*
X88290000Y-69493288D01*
X88290000Y-67596002D01*
X104991469Y-67596002D01*
X104996998Y-67652141D01*
X104996999Y-76111849D01*
X104991469Y-76167998D01*
X105013537Y-76392065D01*
X105078453Y-76606061D01*
X105078896Y-76607521D01*
X105185031Y-76806087D01*
X105259373Y-76896673D01*
X105288421Y-76932067D01*
X105327866Y-76980131D01*
X105371476Y-77015921D01*
X105911479Y-77555924D01*
X106041911Y-77662967D01*
X106240476Y-77769102D01*
X106455932Y-77834461D01*
X106679999Y-77856529D01*
X106904067Y-77834461D01*
X107119523Y-77769102D01*
X107318088Y-77662967D01*
X107492133Y-77520133D01*
X107634967Y-77346088D01*
X107741102Y-77147523D01*
X107806461Y-76932067D01*
X107828529Y-76707999D01*
X107806461Y-76483932D01*
X107741102Y-76268476D01*
X107634967Y-76069911D01*
X107527924Y-75939479D01*
X107282998Y-75694553D01*
X107282998Y-68767443D01*
X109134077Y-70618523D01*
X109169867Y-70662133D01*
X109343911Y-70804968D01*
X109542477Y-70911103D01*
X109692574Y-70956635D01*
X109757932Y-70976461D01*
X109778517Y-70978488D01*
X109925854Y-70993000D01*
X109925861Y-70993000D01*
X109982000Y-70998529D01*
X110038139Y-70993000D01*
X114356146Y-70993000D01*
X114524067Y-70976461D01*
X114739523Y-70911103D01*
X114938089Y-70804968D01*
X115112133Y-70662133D01*
X115254968Y-70488089D01*
X115361103Y-70289523D01*
X115426461Y-70074067D01*
X115448530Y-69850000D01*
X115426461Y-69625933D01*
X115361103Y-69410477D01*
X115254968Y-69211911D01*
X115112133Y-69037867D01*
X114938089Y-68895032D01*
X114739523Y-68788897D01*
X114524067Y-68723539D01*
X114356146Y-68707000D01*
X110455446Y-68707000D01*
X110003446Y-68255000D01*
X117906471Y-68255000D01*
X117928539Y-68479067D01*
X117993898Y-68694523D01*
X118100033Y-68893088D01*
X118207076Y-69023521D01*
X118745001Y-69561447D01*
X118745000Y-75240145D01*
X118761539Y-75408066D01*
X118826897Y-75623522D01*
X118933032Y-75822088D01*
X119075867Y-75996133D01*
X119249911Y-76138968D01*
X119448477Y-76245103D01*
X119663933Y-76310461D01*
X119888000Y-76332530D01*
X120112066Y-76310461D01*
X120327522Y-76245103D01*
X120526088Y-76138968D01*
X120700133Y-75996133D01*
X120842968Y-75822089D01*
X120949103Y-75623523D01*
X121014461Y-75408067D01*
X121031000Y-75240146D01*
X121031000Y-69144139D01*
X121036529Y-69088000D01*
X121031000Y-69031861D01*
X121031000Y-69031854D01*
X121014461Y-68863933D01*
X120949103Y-68648477D01*
X120842968Y-68449911D01*
X120700133Y-68275867D01*
X120656523Y-68240077D01*
X119823521Y-67407076D01*
X119693088Y-67300033D01*
X119494523Y-67193898D01*
X119279067Y-67128539D01*
X119055000Y-67106471D01*
X118830933Y-67128539D01*
X118615477Y-67193898D01*
X118416912Y-67300033D01*
X118242867Y-67442867D01*
X118100033Y-67616912D01*
X117993898Y-67815477D01*
X117928539Y-68030933D01*
X117906471Y-68255000D01*
X110003446Y-68255000D01*
X108703446Y-66955000D01*
X109696471Y-66955000D01*
X109718539Y-67179067D01*
X109783898Y-67394523D01*
X109890033Y-67593088D01*
X110032867Y-67767133D01*
X110206912Y-67909967D01*
X110405477Y-68016102D01*
X110620933Y-68081461D01*
X110845000Y-68103529D01*
X111069067Y-68081461D01*
X111284523Y-68016102D01*
X111483088Y-67909967D01*
X111613521Y-67802924D01*
X113757446Y-65659000D01*
X121976146Y-65659000D01*
X122144067Y-65642461D01*
X122359523Y-65577103D01*
X122558089Y-65470968D01*
X122732133Y-65328133D01*
X122874968Y-65154089D01*
X122981103Y-64955523D01*
X123046461Y-64740067D01*
X123068530Y-64516000D01*
X123064591Y-64476000D01*
X139606815Y-64476000D01*
X139635487Y-64767111D01*
X139720401Y-65047034D01*
X139858294Y-65305014D01*
X140043866Y-65531134D01*
X140269986Y-65716706D01*
X140287374Y-65726000D01*
X140269986Y-65735294D01*
X140043866Y-65920866D01*
X139858294Y-66146986D01*
X139720401Y-66404966D01*
X139635487Y-66684889D01*
X139606815Y-66976000D01*
X139635487Y-67267111D01*
X139720401Y-67547034D01*
X139858294Y-67805014D01*
X140043866Y-68031134D01*
X140269986Y-68216706D01*
X140287374Y-68226000D01*
X140269986Y-68235294D01*
X140043866Y-68420866D01*
X139858294Y-68646986D01*
X139720401Y-68904966D01*
X139635487Y-69184889D01*
X139606815Y-69476000D01*
X139635487Y-69767111D01*
X139720401Y-70047034D01*
X139858294Y-70305014D01*
X140043866Y-70531134D01*
X140269986Y-70716706D01*
X140527966Y-70854599D01*
X140807889Y-70939513D01*
X141026050Y-70961000D01*
X141421950Y-70961000D01*
X141640111Y-70939513D01*
X141920034Y-70854599D01*
X142178014Y-70716706D01*
X142404134Y-70531134D01*
X142589706Y-70305014D01*
X142727599Y-70047034D01*
X142812513Y-69767111D01*
X142841185Y-69476000D01*
X142812513Y-69184889D01*
X142727599Y-68904966D01*
X142589706Y-68646986D01*
X142404134Y-68420866D01*
X142178014Y-68235294D01*
X142160626Y-68226000D01*
X142178014Y-68216706D01*
X142404134Y-68031134D01*
X142589706Y-67805014D01*
X142727599Y-67547034D01*
X142812513Y-67267111D01*
X142841185Y-66976000D01*
X142812513Y-66684889D01*
X142727599Y-66404966D01*
X142589706Y-66146986D01*
X142404134Y-65920866D01*
X142178014Y-65735294D01*
X142160626Y-65726000D01*
X142178014Y-65716706D01*
X142404134Y-65531134D01*
X142589706Y-65305014D01*
X142727599Y-65047034D01*
X142812513Y-64767111D01*
X142841185Y-64476000D01*
X142812513Y-64184889D01*
X142727599Y-63904966D01*
X142589706Y-63646986D01*
X142404134Y-63420866D01*
X142340663Y-63368777D01*
X142442386Y-63314405D01*
X142576962Y-63203962D01*
X142687405Y-63069386D01*
X142769472Y-62915850D01*
X142820008Y-62749254D01*
X142837072Y-62576000D01*
X142837072Y-61376000D01*
X142820008Y-61202746D01*
X142769472Y-61036150D01*
X142687405Y-60882614D01*
X142576962Y-60748038D01*
X142442386Y-60637595D01*
X142288850Y-60555528D01*
X142122254Y-60504992D01*
X141949000Y-60487928D01*
X140499000Y-60487928D01*
X140325746Y-60504992D01*
X140159150Y-60555528D01*
X140005614Y-60637595D01*
X139871038Y-60748038D01*
X139760595Y-60882614D01*
X139678528Y-61036150D01*
X139627992Y-61202746D01*
X139610928Y-61376000D01*
X139610928Y-62576000D01*
X139627992Y-62749254D01*
X139678528Y-62915850D01*
X139760595Y-63069386D01*
X139871038Y-63203962D01*
X140005614Y-63314405D01*
X140107337Y-63368777D01*
X140043866Y-63420866D01*
X139858294Y-63646986D01*
X139720401Y-63904966D01*
X139635487Y-64184889D01*
X139606815Y-64476000D01*
X123064591Y-64476000D01*
X123046461Y-64291933D01*
X122981103Y-64076477D01*
X122874968Y-63877911D01*
X122732133Y-63703867D01*
X122558089Y-63561032D01*
X122359523Y-63454897D01*
X122144067Y-63389539D01*
X121976146Y-63373000D01*
X113340139Y-63373000D01*
X113284000Y-63367471D01*
X113227861Y-63373000D01*
X113227854Y-63373000D01*
X113080517Y-63387512D01*
X113059932Y-63389539D01*
X112994574Y-63409365D01*
X112844477Y-63454897D01*
X112645911Y-63561032D01*
X112471867Y-63703867D01*
X112436077Y-63747477D01*
X109997076Y-66186479D01*
X109890033Y-66316912D01*
X109783898Y-66515477D01*
X109718539Y-66730933D01*
X109696471Y-66955000D01*
X108703446Y-66955000D01*
X107781925Y-66033480D01*
X107746133Y-65989867D01*
X107572088Y-65847033D01*
X107373523Y-65740898D01*
X107158067Y-65675539D01*
X106934000Y-65653471D01*
X106933999Y-65653471D01*
X106709932Y-65675539D01*
X106494476Y-65740898D01*
X106295910Y-65847033D01*
X106165477Y-65954077D01*
X106165474Y-65954080D01*
X106121867Y-65989867D01*
X106086079Y-66033475D01*
X105371480Y-66748075D01*
X105327865Y-66783869D01*
X105185030Y-66957914D01*
X105078895Y-67156480D01*
X105037708Y-67292256D01*
X105023894Y-67337795D01*
X105013537Y-67371936D01*
X104996998Y-67539857D01*
X104996998Y-67539863D01*
X104991469Y-67596002D01*
X88290000Y-67596002D01*
X88290000Y-64893288D01*
X91440000Y-64893288D01*
X91440000Y-65126712D01*
X91485539Y-65355652D01*
X91574866Y-65571308D01*
X91704550Y-65765394D01*
X91869606Y-65930450D01*
X92063692Y-66060134D01*
X92279348Y-66149461D01*
X92508288Y-66195000D01*
X92741712Y-66195000D01*
X92970652Y-66149461D01*
X93186308Y-66060134D01*
X93380394Y-65930450D01*
X93545450Y-65765394D01*
X93675134Y-65571308D01*
X93764461Y-65355652D01*
X93810000Y-65126712D01*
X93810000Y-64893288D01*
X93764461Y-64664348D01*
X93675134Y-64448692D01*
X93545450Y-64254606D01*
X93380394Y-64089550D01*
X93186308Y-63959866D01*
X92970652Y-63870539D01*
X92741712Y-63825000D01*
X92508288Y-63825000D01*
X92279348Y-63870539D01*
X92063692Y-63959866D01*
X91869606Y-64089550D01*
X91704550Y-64254606D01*
X91574866Y-64448692D01*
X91485539Y-64664348D01*
X91440000Y-64893288D01*
X88290000Y-64893288D01*
X88290000Y-55270000D01*
X142850001Y-55270000D01*
X142850000Y-79350000D01*
G37*
%TD.AperFunction*%
%TD*%
M02*
