%TF.GenerationSoftware,KiCad,Pcbnew,(5.1.8)-1*%
%TF.CreationDate,2021-06-13T11:57:15+02:00*%
%TF.ProjectId,Assignment3,41737369-676e-46d6-956e-74332e6b6963,rev?*%
%TF.SameCoordinates,Original*%
%TF.FileFunction,Legend,Top*%
%TF.FilePolarity,Positive*%
%FSLAX46Y46*%
G04 Gerber Fmt 4.6, Leading zero omitted, Abs format (unit mm)*
G04 Created by KiCad (PCBNEW (5.1.8)-1) date 2021-06-13 11:57:15*
%MOMM*%
%LPD*%
G01*
G04 APERTURE LIST*
%ADD10C,0.120000*%
%ADD11C,0.150000*%
G04 APERTURE END LIST*
D10*
%TO.C,IC1*%
X117415000Y-60840000D02*
X104945000Y-60840000D01*
X117415000Y-71240000D02*
X117415000Y-60840000D01*
X104945000Y-71240000D02*
X117415000Y-71240000D01*
X104945000Y-60840000D02*
X104945000Y-71240000D01*
X113715000Y-60900000D02*
X112180000Y-60900000D01*
X113715000Y-71180000D02*
X113715000Y-60900000D01*
X108645000Y-71180000D02*
X113715000Y-71180000D01*
X108645000Y-60900000D02*
X108645000Y-71180000D01*
X110180000Y-60900000D02*
X108645000Y-60900000D01*
X112180000Y-60900000D02*
G75*
G02*
X110180000Y-60900000I-1000000J0D01*
G01*
%TO.C,Q3*%
X87410000Y-85570000D02*
X87410000Y-87070000D01*
X87410000Y-87070000D02*
X87510000Y-87070000D01*
X87510000Y-87070000D02*
X87510000Y-88970000D01*
X94310000Y-85570000D02*
X94310000Y-87070000D01*
X94310000Y-87070000D02*
X94210000Y-87070000D01*
X94210000Y-87070000D02*
X94210000Y-88170000D01*
%TO.C,IC2*%
X131860000Y-85570000D02*
X131860000Y-87070000D01*
X131860000Y-87070000D02*
X131960000Y-87070000D01*
X131960000Y-87070000D02*
X131960000Y-88970000D01*
X138760000Y-85570000D02*
X138760000Y-87070000D01*
X138760000Y-87070000D02*
X138660000Y-87070000D01*
X138660000Y-87070000D02*
X138660000Y-88170000D01*
%TO.C,Battery1*%
X124850000Y-102690000D02*
X125350000Y-102690000D01*
X124850000Y-101950000D02*
X124850000Y-102690000D01*
X131543000Y-98813000D02*
X131496000Y-98859000D01*
X133840000Y-96515000D02*
X133805000Y-96551000D01*
X131736000Y-99029000D02*
X131701000Y-99064000D01*
X134045000Y-96721000D02*
X133998000Y-96767000D01*
X135370000Y-92529000D02*
X135370000Y-102450000D01*
X125090000Y-92529000D02*
X125090000Y-102450000D01*
X125090000Y-102450000D02*
X135370000Y-102450000D01*
X125090000Y-92529000D02*
X135370000Y-92529000D01*
X125090000Y-95489000D02*
X135370000Y-95489000D01*
X125090000Y-100390000D02*
X135370000Y-100390000D01*
X125090000Y-101890000D02*
X135370000Y-101890000D01*
X134450000Y-97790000D02*
G75*
G03*
X134450000Y-97790000I-1680000J0D01*
G01*
X127718805Y-99470253D02*
G75*
G02*
X127006000Y-99325000I-28805J1680253D01*
G01*
X126154574Y-98473042D02*
G75*
G02*
X126155000Y-97106000I1535426J683042D01*
G01*
X127006958Y-96254574D02*
G75*
G02*
X128374000Y-96255000I683042J-1535426D01*
G01*
X129225426Y-97106958D02*
G75*
G02*
X129225000Y-98474000I-1535426J-683042D01*
G01*
X128373318Y-99324756D02*
G75*
G02*
X127690000Y-99470000I-683318J1534756D01*
G01*
%TO.C,R5*%
X132532742Y-46242500D02*
X133007258Y-46242500D01*
X132532742Y-45197500D02*
X133007258Y-45197500D01*
%TO.C,R4*%
X119832742Y-46242500D02*
X120307258Y-46242500D01*
X119832742Y-45197500D02*
X120307258Y-45197500D01*
%TO.C,R3*%
X104592742Y-46242500D02*
X105067258Y-46242500D01*
X104592742Y-45197500D02*
X105067258Y-45197500D01*
%TO.C,R2*%
X91892742Y-48782500D02*
X92367258Y-48782500D01*
X91892742Y-47737500D02*
X92367258Y-47737500D01*
%TO.C,R1*%
X100850000Y-50970000D02*
X100850000Y-55710000D01*
X96110000Y-50970000D02*
X96110000Y-55710000D01*
X99720000Y-55710000D02*
X100850000Y-55710000D01*
X96110000Y-55710000D02*
X97240000Y-55710000D01*
X98221000Y-50970000D02*
X98740000Y-50970000D01*
X96110000Y-50970000D02*
X96441000Y-50970000D01*
X100520000Y-50970000D02*
X100850000Y-50970000D01*
%TO.C,Q2*%
X126080000Y-51630000D02*
X126080000Y-53780000D01*
X129300000Y-51205000D02*
X129300000Y-53780000D01*
X126990000Y-53780000D02*
X126080000Y-53780000D01*
X129300000Y-53780000D02*
X128390000Y-53780000D01*
%TO.C,Q1*%
X107175000Y-51730000D02*
X105025000Y-51730000D01*
X107600000Y-54950000D02*
X105025000Y-54950000D01*
X105025000Y-52640000D02*
X105025000Y-51730000D01*
X105025000Y-54950000D02*
X105025000Y-54040000D01*
%TO.C,D3*%
X103345000Y-80745000D02*
X105630000Y-80745000D01*
X103345000Y-79275000D02*
X103345000Y-80745000D01*
X105630000Y-79275000D02*
X103345000Y-79275000D01*
%TO.C,D2*%
X95205000Y-60745000D02*
X95205000Y-63030000D01*
X96675000Y-60745000D02*
X95205000Y-60745000D01*
X96675000Y-63030000D02*
X96675000Y-60745000D01*
%TO.C,D1*%
X97745000Y-72175000D02*
X97745000Y-74460000D01*
X99215000Y-72175000D02*
X97745000Y-72175000D01*
X99215000Y-74460000D02*
X99215000Y-72175000D01*
%TO.C,C5*%
X115500000Y-89040580D02*
X115500000Y-88759420D01*
X114480000Y-89040580D02*
X114480000Y-88759420D01*
%TO.C,C4*%
X142700000Y-52405000D02*
X138790000Y-52405000D01*
X142700000Y-54275000D02*
X142700000Y-52405000D01*
X138790000Y-54275000D02*
X142700000Y-54275000D01*
%TO.C,C3*%
X135820000Y-66180580D02*
X135820000Y-65899420D01*
X134800000Y-66180580D02*
X134800000Y-65899420D01*
%TO.C,C2*%
X128450000Y-63359420D02*
X128450000Y-63640580D01*
X129470000Y-63359420D02*
X129470000Y-63640580D01*
%TO.C,C1*%
X141150000Y-58279420D02*
X141150000Y-58560580D01*
X142170000Y-58279420D02*
X142170000Y-58560580D01*
%TO.C,External_POT1*%
X84920000Y-54610000D02*
G75*
G03*
X84920000Y-54610000I-1680000J0D01*
G01*
X84920000Y-59690000D02*
G75*
G03*
X84920000Y-59690000I-1680000J0D01*
G01*
X79140000Y-46930000D02*
X79140000Y-62290000D01*
X80640000Y-46930000D02*
X80640000Y-62290000D01*
X85541000Y-46930000D02*
X85541000Y-62290000D01*
X88501000Y-46930000D02*
X88501000Y-62290000D01*
X78580000Y-46930000D02*
X78580000Y-62290000D01*
X88501000Y-46930000D02*
X78580000Y-46930000D01*
X88501000Y-62290000D02*
X78580000Y-62290000D01*
X84309000Y-55885000D02*
X84263000Y-55838000D01*
X82001000Y-53576000D02*
X81966000Y-53541000D01*
X84515000Y-55680000D02*
X84479000Y-55645000D01*
X82217000Y-53383000D02*
X82171000Y-53336000D01*
X84309000Y-60965000D02*
X84263000Y-60918000D01*
X82001000Y-58656000D02*
X81966000Y-58621000D01*
X84515000Y-60760000D02*
X84479000Y-60725000D01*
X82217000Y-58463000D02*
X82171000Y-58416000D01*
X79080000Y-46690000D02*
X78340000Y-46690000D01*
X78340000Y-46690000D02*
X78340000Y-47190000D01*
X81705244Y-50213318D02*
G75*
G02*
X81560000Y-49530000I1534756J683318D01*
G01*
X83923042Y-51065426D02*
G75*
G02*
X82556000Y-51065000I-683042J1535426D01*
G01*
X84775426Y-48846958D02*
G75*
G02*
X84775000Y-50214000I-1535426J-683042D01*
G01*
X82556958Y-47994574D02*
G75*
G02*
X83924000Y-47995000I683042J-1535426D01*
G01*
X81559747Y-49558805D02*
G75*
G02*
X81705000Y-48846000I1680253J28805D01*
G01*
%TO.C,Motor1*%
X100160000Y-97790000D02*
G75*
G03*
X100160000Y-97790000I-1680000J0D01*
G01*
X90800000Y-101890000D02*
X101080000Y-101890000D01*
X90800000Y-100390000D02*
X101080000Y-100390000D01*
X90800000Y-95489000D02*
X101080000Y-95489000D01*
X90800000Y-92529000D02*
X101080000Y-92529000D01*
X90800000Y-102450000D02*
X101080000Y-102450000D01*
X90800000Y-92529000D02*
X90800000Y-102450000D01*
X101080000Y-92529000D02*
X101080000Y-102450000D01*
X99755000Y-96721000D02*
X99708000Y-96767000D01*
X97446000Y-99029000D02*
X97411000Y-99064000D01*
X99550000Y-96515000D02*
X99515000Y-96551000D01*
X97253000Y-98813000D02*
X97206000Y-98859000D01*
X90560000Y-101950000D02*
X90560000Y-102690000D01*
X90560000Y-102690000D02*
X91060000Y-102690000D01*
X94083318Y-99324756D02*
G75*
G02*
X93400000Y-99470000I-683318J1534756D01*
G01*
X94935426Y-97106958D02*
G75*
G02*
X94935000Y-98474000I-1535426J-683042D01*
G01*
X92716958Y-96254574D02*
G75*
G02*
X94084000Y-96255000I683042J-1535426D01*
G01*
X91864574Y-98473042D02*
G75*
G02*
X91865000Y-97106000I1535426J683042D01*
G01*
X93428805Y-99470253D02*
G75*
G02*
X92716000Y-99325000I-28805J1680253D01*
G01*
%TO.C,IC1*%
D11*
X110203809Y-60352380D02*
X110203809Y-59352380D01*
X111251428Y-60257142D02*
X111203809Y-60304761D01*
X111060952Y-60352380D01*
X110965714Y-60352380D01*
X110822857Y-60304761D01*
X110727619Y-60209523D01*
X110680000Y-60114285D01*
X110632380Y-59923809D01*
X110632380Y-59780952D01*
X110680000Y-59590476D01*
X110727619Y-59495238D01*
X110822857Y-59400000D01*
X110965714Y-59352380D01*
X111060952Y-59352380D01*
X111203809Y-59400000D01*
X111251428Y-59447619D01*
X112203809Y-60352380D02*
X111632380Y-60352380D01*
X111918095Y-60352380D02*
X111918095Y-59352380D01*
X111822857Y-59495238D01*
X111727619Y-59590476D01*
X111632380Y-59638095D01*
%TO.C,Q3*%
X86907619Y-83915238D02*
X86860000Y-84010476D01*
X86764761Y-84105714D01*
X86621904Y-84248571D01*
X86574285Y-84343809D01*
X86574285Y-84439047D01*
X86812380Y-84391428D02*
X86764761Y-84486666D01*
X86669523Y-84581904D01*
X86479047Y-84629523D01*
X86145714Y-84629523D01*
X85955238Y-84581904D01*
X85860000Y-84486666D01*
X85812380Y-84391428D01*
X85812380Y-84200952D01*
X85860000Y-84105714D01*
X85955238Y-84010476D01*
X86145714Y-83962857D01*
X86479047Y-83962857D01*
X86669523Y-84010476D01*
X86764761Y-84105714D01*
X86812380Y-84200952D01*
X86812380Y-84391428D01*
X85812380Y-83629523D02*
X85812380Y-83010476D01*
X86193333Y-83343809D01*
X86193333Y-83200952D01*
X86240952Y-83105714D01*
X86288571Y-83058095D01*
X86383809Y-83010476D01*
X86621904Y-83010476D01*
X86717142Y-83058095D01*
X86764761Y-83105714D01*
X86812380Y-83200952D01*
X86812380Y-83486666D01*
X86764761Y-83581904D01*
X86717142Y-83629523D01*
%TO.C,IC2*%
X131262380Y-84796190D02*
X130262380Y-84796190D01*
X131167142Y-83748571D02*
X131214761Y-83796190D01*
X131262380Y-83939047D01*
X131262380Y-84034285D01*
X131214761Y-84177142D01*
X131119523Y-84272380D01*
X131024285Y-84320000D01*
X130833809Y-84367619D01*
X130690952Y-84367619D01*
X130500476Y-84320000D01*
X130405238Y-84272380D01*
X130310000Y-84177142D01*
X130262380Y-84034285D01*
X130262380Y-83939047D01*
X130310000Y-83796190D01*
X130357619Y-83748571D01*
X130357619Y-83367619D02*
X130310000Y-83320000D01*
X130262380Y-83224761D01*
X130262380Y-82986666D01*
X130310000Y-82891428D01*
X130357619Y-82843809D01*
X130452857Y-82796190D01*
X130548095Y-82796190D01*
X130690952Y-82843809D01*
X131262380Y-83415238D01*
X131262380Y-82796190D01*
%TO.C,Battery1*%
X127682380Y-91458571D02*
X127825238Y-91506190D01*
X127872857Y-91553809D01*
X127920476Y-91649047D01*
X127920476Y-91791904D01*
X127872857Y-91887142D01*
X127825238Y-91934761D01*
X127730000Y-91982380D01*
X127349047Y-91982380D01*
X127349047Y-90982380D01*
X127682380Y-90982380D01*
X127777619Y-91030000D01*
X127825238Y-91077619D01*
X127872857Y-91172857D01*
X127872857Y-91268095D01*
X127825238Y-91363333D01*
X127777619Y-91410952D01*
X127682380Y-91458571D01*
X127349047Y-91458571D01*
X128777619Y-91982380D02*
X128777619Y-91458571D01*
X128730000Y-91363333D01*
X128634761Y-91315714D01*
X128444285Y-91315714D01*
X128349047Y-91363333D01*
X128777619Y-91934761D02*
X128682380Y-91982380D01*
X128444285Y-91982380D01*
X128349047Y-91934761D01*
X128301428Y-91839523D01*
X128301428Y-91744285D01*
X128349047Y-91649047D01*
X128444285Y-91601428D01*
X128682380Y-91601428D01*
X128777619Y-91553809D01*
X129110952Y-91315714D02*
X129491904Y-91315714D01*
X129253809Y-90982380D02*
X129253809Y-91839523D01*
X129301428Y-91934761D01*
X129396666Y-91982380D01*
X129491904Y-91982380D01*
X129682380Y-91315714D02*
X130063333Y-91315714D01*
X129825238Y-90982380D02*
X129825238Y-91839523D01*
X129872857Y-91934761D01*
X129968095Y-91982380D01*
X130063333Y-91982380D01*
X130777619Y-91934761D02*
X130682380Y-91982380D01*
X130491904Y-91982380D01*
X130396666Y-91934761D01*
X130349047Y-91839523D01*
X130349047Y-91458571D01*
X130396666Y-91363333D01*
X130491904Y-91315714D01*
X130682380Y-91315714D01*
X130777619Y-91363333D01*
X130825238Y-91458571D01*
X130825238Y-91553809D01*
X130349047Y-91649047D01*
X131253809Y-91982380D02*
X131253809Y-91315714D01*
X131253809Y-91506190D02*
X131301428Y-91410952D01*
X131349047Y-91363333D01*
X131444285Y-91315714D01*
X131539523Y-91315714D01*
X131777619Y-91315714D02*
X132015714Y-91982380D01*
X132253809Y-91315714D02*
X132015714Y-91982380D01*
X131920476Y-92220476D01*
X131872857Y-92268095D01*
X131777619Y-92315714D01*
X133158571Y-91982380D02*
X132587142Y-91982380D01*
X132872857Y-91982380D02*
X132872857Y-90982380D01*
X132777619Y-91125238D01*
X132682380Y-91220476D01*
X132587142Y-91268095D01*
%TO.C,R5*%
X132603333Y-44742380D02*
X132270000Y-44266190D01*
X132031904Y-44742380D02*
X132031904Y-43742380D01*
X132412857Y-43742380D01*
X132508095Y-43790000D01*
X132555714Y-43837619D01*
X132603333Y-43932857D01*
X132603333Y-44075714D01*
X132555714Y-44170952D01*
X132508095Y-44218571D01*
X132412857Y-44266190D01*
X132031904Y-44266190D01*
X133508095Y-43742380D02*
X133031904Y-43742380D01*
X132984285Y-44218571D01*
X133031904Y-44170952D01*
X133127142Y-44123333D01*
X133365238Y-44123333D01*
X133460476Y-44170952D01*
X133508095Y-44218571D01*
X133555714Y-44313809D01*
X133555714Y-44551904D01*
X133508095Y-44647142D01*
X133460476Y-44694761D01*
X133365238Y-44742380D01*
X133127142Y-44742380D01*
X133031904Y-44694761D01*
X132984285Y-44647142D01*
%TO.C,R4*%
X119903333Y-44742380D02*
X119570000Y-44266190D01*
X119331904Y-44742380D02*
X119331904Y-43742380D01*
X119712857Y-43742380D01*
X119808095Y-43790000D01*
X119855714Y-43837619D01*
X119903333Y-43932857D01*
X119903333Y-44075714D01*
X119855714Y-44170952D01*
X119808095Y-44218571D01*
X119712857Y-44266190D01*
X119331904Y-44266190D01*
X120760476Y-44075714D02*
X120760476Y-44742380D01*
X120522380Y-43694761D02*
X120284285Y-44409047D01*
X120903333Y-44409047D01*
%TO.C,R3*%
X104663333Y-44742380D02*
X104330000Y-44266190D01*
X104091904Y-44742380D02*
X104091904Y-43742380D01*
X104472857Y-43742380D01*
X104568095Y-43790000D01*
X104615714Y-43837619D01*
X104663333Y-43932857D01*
X104663333Y-44075714D01*
X104615714Y-44170952D01*
X104568095Y-44218571D01*
X104472857Y-44266190D01*
X104091904Y-44266190D01*
X104996666Y-43742380D02*
X105615714Y-43742380D01*
X105282380Y-44123333D01*
X105425238Y-44123333D01*
X105520476Y-44170952D01*
X105568095Y-44218571D01*
X105615714Y-44313809D01*
X105615714Y-44551904D01*
X105568095Y-44647142D01*
X105520476Y-44694761D01*
X105425238Y-44742380D01*
X105139523Y-44742380D01*
X105044285Y-44694761D01*
X104996666Y-44647142D01*
%TO.C,R2*%
X91963333Y-47282380D02*
X91630000Y-46806190D01*
X91391904Y-47282380D02*
X91391904Y-46282380D01*
X91772857Y-46282380D01*
X91868095Y-46330000D01*
X91915714Y-46377619D01*
X91963333Y-46472857D01*
X91963333Y-46615714D01*
X91915714Y-46710952D01*
X91868095Y-46758571D01*
X91772857Y-46806190D01*
X91391904Y-46806190D01*
X92344285Y-46377619D02*
X92391904Y-46330000D01*
X92487142Y-46282380D01*
X92725238Y-46282380D01*
X92820476Y-46330000D01*
X92868095Y-46377619D01*
X92915714Y-46472857D01*
X92915714Y-46568095D01*
X92868095Y-46710952D01*
X92296666Y-47282380D01*
X92915714Y-47282380D01*
%TO.C,R1*%
X98313333Y-49542380D02*
X97980000Y-49066190D01*
X97741904Y-49542380D02*
X97741904Y-48542380D01*
X98122857Y-48542380D01*
X98218095Y-48590000D01*
X98265714Y-48637619D01*
X98313333Y-48732857D01*
X98313333Y-48875714D01*
X98265714Y-48970952D01*
X98218095Y-49018571D01*
X98122857Y-49066190D01*
X97741904Y-49066190D01*
X99265714Y-49542380D02*
X98694285Y-49542380D01*
X98980000Y-49542380D02*
X98980000Y-48542380D01*
X98884761Y-48685238D01*
X98789523Y-48780476D01*
X98694285Y-48828095D01*
%TO.C,Q2*%
X130737619Y-52800238D02*
X130690000Y-52895476D01*
X130594761Y-52990714D01*
X130451904Y-53133571D01*
X130404285Y-53228809D01*
X130404285Y-53324047D01*
X130642380Y-53276428D02*
X130594761Y-53371666D01*
X130499523Y-53466904D01*
X130309047Y-53514523D01*
X129975714Y-53514523D01*
X129785238Y-53466904D01*
X129690000Y-53371666D01*
X129642380Y-53276428D01*
X129642380Y-53085952D01*
X129690000Y-52990714D01*
X129785238Y-52895476D01*
X129975714Y-52847857D01*
X130309047Y-52847857D01*
X130499523Y-52895476D01*
X130594761Y-52990714D01*
X130642380Y-53085952D01*
X130642380Y-53276428D01*
X129737619Y-52466904D02*
X129690000Y-52419285D01*
X129642380Y-52324047D01*
X129642380Y-52085952D01*
X129690000Y-51990714D01*
X129737619Y-51943095D01*
X129832857Y-51895476D01*
X129928095Y-51895476D01*
X130070952Y-51943095D01*
X130642380Y-52514523D01*
X130642380Y-51895476D01*
%TO.C,Q1*%
X106004761Y-56387619D02*
X105909523Y-56340000D01*
X105814285Y-56244761D01*
X105671428Y-56101904D01*
X105576190Y-56054285D01*
X105480952Y-56054285D01*
X105528571Y-56292380D02*
X105433333Y-56244761D01*
X105338095Y-56149523D01*
X105290476Y-55959047D01*
X105290476Y-55625714D01*
X105338095Y-55435238D01*
X105433333Y-55340000D01*
X105528571Y-55292380D01*
X105719047Y-55292380D01*
X105814285Y-55340000D01*
X105909523Y-55435238D01*
X105957142Y-55625714D01*
X105957142Y-55959047D01*
X105909523Y-56149523D01*
X105814285Y-56244761D01*
X105719047Y-56292380D01*
X105528571Y-56292380D01*
X106909523Y-56292380D02*
X106338095Y-56292380D01*
X106623809Y-56292380D02*
X106623809Y-55292380D01*
X106528571Y-55435238D01*
X106433333Y-55530476D01*
X106338095Y-55578095D01*
%TO.C,D3*%
X104091904Y-79032380D02*
X104091904Y-78032380D01*
X104330000Y-78032380D01*
X104472857Y-78080000D01*
X104568095Y-78175238D01*
X104615714Y-78270476D01*
X104663333Y-78460952D01*
X104663333Y-78603809D01*
X104615714Y-78794285D01*
X104568095Y-78889523D01*
X104472857Y-78984761D01*
X104330000Y-79032380D01*
X104091904Y-79032380D01*
X104996666Y-78032380D02*
X105615714Y-78032380D01*
X105282380Y-78413333D01*
X105425238Y-78413333D01*
X105520476Y-78460952D01*
X105568095Y-78508571D01*
X105615714Y-78603809D01*
X105615714Y-78841904D01*
X105568095Y-78937142D01*
X105520476Y-78984761D01*
X105425238Y-79032380D01*
X105139523Y-79032380D01*
X105044285Y-78984761D01*
X104996666Y-78937142D01*
%TO.C,D2*%
X97822380Y-62968095D02*
X96822380Y-62968095D01*
X96822380Y-62730000D01*
X96870000Y-62587142D01*
X96965238Y-62491904D01*
X97060476Y-62444285D01*
X97250952Y-62396666D01*
X97393809Y-62396666D01*
X97584285Y-62444285D01*
X97679523Y-62491904D01*
X97774761Y-62587142D01*
X97822380Y-62730000D01*
X97822380Y-62968095D01*
X96917619Y-62015714D02*
X96870000Y-61968095D01*
X96822380Y-61872857D01*
X96822380Y-61634761D01*
X96870000Y-61539523D01*
X96917619Y-61491904D01*
X97012857Y-61444285D01*
X97108095Y-61444285D01*
X97250952Y-61491904D01*
X97822380Y-62063333D01*
X97822380Y-61444285D01*
%TO.C,D1*%
X100362380Y-74398095D02*
X99362380Y-74398095D01*
X99362380Y-74160000D01*
X99410000Y-74017142D01*
X99505238Y-73921904D01*
X99600476Y-73874285D01*
X99790952Y-73826666D01*
X99933809Y-73826666D01*
X100124285Y-73874285D01*
X100219523Y-73921904D01*
X100314761Y-74017142D01*
X100362380Y-74160000D01*
X100362380Y-74398095D01*
X100362380Y-72874285D02*
X100362380Y-73445714D01*
X100362380Y-73160000D02*
X99362380Y-73160000D01*
X99505238Y-73255238D01*
X99600476Y-73350476D01*
X99648095Y-73445714D01*
%TO.C,C5*%
X113917142Y-89066666D02*
X113964761Y-89114285D01*
X114012380Y-89257142D01*
X114012380Y-89352380D01*
X113964761Y-89495238D01*
X113869523Y-89590476D01*
X113774285Y-89638095D01*
X113583809Y-89685714D01*
X113440952Y-89685714D01*
X113250476Y-89638095D01*
X113155238Y-89590476D01*
X113060000Y-89495238D01*
X113012380Y-89352380D01*
X113012380Y-89257142D01*
X113060000Y-89114285D01*
X113107619Y-89066666D01*
X113012380Y-88161904D02*
X113012380Y-88638095D01*
X113488571Y-88685714D01*
X113440952Y-88638095D01*
X113393333Y-88542857D01*
X113393333Y-88304761D01*
X113440952Y-88209523D01*
X113488571Y-88161904D01*
X113583809Y-88114285D01*
X113821904Y-88114285D01*
X113917142Y-88161904D01*
X113964761Y-88209523D01*
X114012380Y-88304761D01*
X114012380Y-88542857D01*
X113964761Y-88638095D01*
X113917142Y-88685714D01*
%TO.C,C4*%
X140223333Y-55447142D02*
X140175714Y-55494761D01*
X140032857Y-55542380D01*
X139937619Y-55542380D01*
X139794761Y-55494761D01*
X139699523Y-55399523D01*
X139651904Y-55304285D01*
X139604285Y-55113809D01*
X139604285Y-54970952D01*
X139651904Y-54780476D01*
X139699523Y-54685238D01*
X139794761Y-54590000D01*
X139937619Y-54542380D01*
X140032857Y-54542380D01*
X140175714Y-54590000D01*
X140223333Y-54637619D01*
X141080476Y-54875714D02*
X141080476Y-55542380D01*
X140842380Y-54494761D02*
X140604285Y-55209047D01*
X141223333Y-55209047D01*
%TO.C,C3*%
X134237142Y-66206666D02*
X134284761Y-66254285D01*
X134332380Y-66397142D01*
X134332380Y-66492380D01*
X134284761Y-66635238D01*
X134189523Y-66730476D01*
X134094285Y-66778095D01*
X133903809Y-66825714D01*
X133760952Y-66825714D01*
X133570476Y-66778095D01*
X133475238Y-66730476D01*
X133380000Y-66635238D01*
X133332380Y-66492380D01*
X133332380Y-66397142D01*
X133380000Y-66254285D01*
X133427619Y-66206666D01*
X133332380Y-65873333D02*
X133332380Y-65254285D01*
X133713333Y-65587619D01*
X133713333Y-65444761D01*
X133760952Y-65349523D01*
X133808571Y-65301904D01*
X133903809Y-65254285D01*
X134141904Y-65254285D01*
X134237142Y-65301904D01*
X134284761Y-65349523D01*
X134332380Y-65444761D01*
X134332380Y-65730476D01*
X134284761Y-65825714D01*
X134237142Y-65873333D01*
%TO.C,C2*%
X130747142Y-63666666D02*
X130794761Y-63714285D01*
X130842380Y-63857142D01*
X130842380Y-63952380D01*
X130794761Y-64095238D01*
X130699523Y-64190476D01*
X130604285Y-64238095D01*
X130413809Y-64285714D01*
X130270952Y-64285714D01*
X130080476Y-64238095D01*
X129985238Y-64190476D01*
X129890000Y-64095238D01*
X129842380Y-63952380D01*
X129842380Y-63857142D01*
X129890000Y-63714285D01*
X129937619Y-63666666D01*
X129937619Y-63285714D02*
X129890000Y-63238095D01*
X129842380Y-63142857D01*
X129842380Y-62904761D01*
X129890000Y-62809523D01*
X129937619Y-62761904D01*
X130032857Y-62714285D01*
X130128095Y-62714285D01*
X130270952Y-62761904D01*
X130842380Y-63333333D01*
X130842380Y-62714285D01*
%TO.C,C1*%
X143447142Y-58586666D02*
X143494761Y-58634285D01*
X143542380Y-58777142D01*
X143542380Y-58872380D01*
X143494761Y-59015238D01*
X143399523Y-59110476D01*
X143304285Y-59158095D01*
X143113809Y-59205714D01*
X142970952Y-59205714D01*
X142780476Y-59158095D01*
X142685238Y-59110476D01*
X142590000Y-59015238D01*
X142542380Y-58872380D01*
X142542380Y-58777142D01*
X142590000Y-58634285D01*
X142637619Y-58586666D01*
X143542380Y-57634285D02*
X143542380Y-58205714D01*
X143542380Y-57920000D02*
X142542380Y-57920000D01*
X142685238Y-58015238D01*
X142780476Y-58110476D01*
X142828095Y-58205714D01*
%TO.C,REF\u002A\u002A*%
X145406666Y-98162380D02*
X145073333Y-97686190D01*
X144835238Y-98162380D02*
X144835238Y-97162380D01*
X145216190Y-97162380D01*
X145311428Y-97210000D01*
X145359047Y-97257619D01*
X145406666Y-97352857D01*
X145406666Y-97495714D01*
X145359047Y-97590952D01*
X145311428Y-97638571D01*
X145216190Y-97686190D01*
X144835238Y-97686190D01*
X145835238Y-97638571D02*
X146168571Y-97638571D01*
X146311428Y-98162380D02*
X145835238Y-98162380D01*
X145835238Y-97162380D01*
X146311428Y-97162380D01*
X147073333Y-97638571D02*
X146740000Y-97638571D01*
X146740000Y-98162380D02*
X146740000Y-97162380D01*
X147216190Y-97162380D01*
X147740000Y-97162380D02*
X147740000Y-97400476D01*
X147501904Y-97305238D02*
X147740000Y-97400476D01*
X147978095Y-97305238D01*
X147597142Y-97590952D02*
X147740000Y-97400476D01*
X147882857Y-97590952D01*
X148501904Y-97162380D02*
X148501904Y-97400476D01*
X148263809Y-97305238D02*
X148501904Y-97400476D01*
X148740000Y-97305238D01*
X148359047Y-97590952D02*
X148501904Y-97400476D01*
X148644761Y-97590952D01*
X77406666Y-98162380D02*
X77073333Y-97686190D01*
X76835238Y-98162380D02*
X76835238Y-97162380D01*
X77216190Y-97162380D01*
X77311428Y-97210000D01*
X77359047Y-97257619D01*
X77406666Y-97352857D01*
X77406666Y-97495714D01*
X77359047Y-97590952D01*
X77311428Y-97638571D01*
X77216190Y-97686190D01*
X76835238Y-97686190D01*
X77835238Y-97638571D02*
X78168571Y-97638571D01*
X78311428Y-98162380D02*
X77835238Y-98162380D01*
X77835238Y-97162380D01*
X78311428Y-97162380D01*
X79073333Y-97638571D02*
X78740000Y-97638571D01*
X78740000Y-98162380D02*
X78740000Y-97162380D01*
X79216190Y-97162380D01*
X79740000Y-97162380D02*
X79740000Y-97400476D01*
X79501904Y-97305238D02*
X79740000Y-97400476D01*
X79978095Y-97305238D01*
X79597142Y-97590952D02*
X79740000Y-97400476D01*
X79882857Y-97590952D01*
X80501904Y-97162380D02*
X80501904Y-97400476D01*
X80263809Y-97305238D02*
X80501904Y-97400476D01*
X80740000Y-97305238D01*
X80359047Y-97590952D02*
X80501904Y-97400476D01*
X80644761Y-97590952D01*
X145406666Y-38162380D02*
X145073333Y-37686190D01*
X144835238Y-38162380D02*
X144835238Y-37162380D01*
X145216190Y-37162380D01*
X145311428Y-37210000D01*
X145359047Y-37257619D01*
X145406666Y-37352857D01*
X145406666Y-37495714D01*
X145359047Y-37590952D01*
X145311428Y-37638571D01*
X145216190Y-37686190D01*
X144835238Y-37686190D01*
X145835238Y-37638571D02*
X146168571Y-37638571D01*
X146311428Y-38162380D02*
X145835238Y-38162380D01*
X145835238Y-37162380D01*
X146311428Y-37162380D01*
X147073333Y-37638571D02*
X146740000Y-37638571D01*
X146740000Y-38162380D02*
X146740000Y-37162380D01*
X147216190Y-37162380D01*
X147740000Y-37162380D02*
X147740000Y-37400476D01*
X147501904Y-37305238D02*
X147740000Y-37400476D01*
X147978095Y-37305238D01*
X147597142Y-37590952D02*
X147740000Y-37400476D01*
X147882857Y-37590952D01*
X148501904Y-37162380D02*
X148501904Y-37400476D01*
X148263809Y-37305238D02*
X148501904Y-37400476D01*
X148740000Y-37305238D01*
X148359047Y-37590952D02*
X148501904Y-37400476D01*
X148644761Y-37590952D01*
X77406666Y-38162380D02*
X77073333Y-37686190D01*
X76835238Y-38162380D02*
X76835238Y-37162380D01*
X77216190Y-37162380D01*
X77311428Y-37210000D01*
X77359047Y-37257619D01*
X77406666Y-37352857D01*
X77406666Y-37495714D01*
X77359047Y-37590952D01*
X77311428Y-37638571D01*
X77216190Y-37686190D01*
X76835238Y-37686190D01*
X77835238Y-37638571D02*
X78168571Y-37638571D01*
X78311428Y-38162380D02*
X77835238Y-38162380D01*
X77835238Y-37162380D01*
X78311428Y-37162380D01*
X79073333Y-37638571D02*
X78740000Y-37638571D01*
X78740000Y-38162380D02*
X78740000Y-37162380D01*
X79216190Y-37162380D01*
X79740000Y-37162380D02*
X79740000Y-37400476D01*
X79501904Y-37305238D02*
X79740000Y-37400476D01*
X79978095Y-37305238D01*
X79597142Y-37590952D02*
X79740000Y-37400476D01*
X79882857Y-37590952D01*
X80501904Y-37162380D02*
X80501904Y-37400476D01*
X80263809Y-37305238D02*
X80501904Y-37400476D01*
X80740000Y-37305238D01*
X80359047Y-37590952D02*
X80501904Y-37400476D01*
X80644761Y-37590952D01*
%TO.C,External_POT1*%
X89428571Y-59681428D02*
X89428571Y-59348095D01*
X89952380Y-59205238D02*
X89952380Y-59681428D01*
X88952380Y-59681428D01*
X88952380Y-59205238D01*
X89952380Y-58871904D02*
X89285714Y-58348095D01*
X89285714Y-58871904D02*
X89952380Y-58348095D01*
X89285714Y-58110000D02*
X89285714Y-57729047D01*
X88952380Y-57967142D02*
X89809523Y-57967142D01*
X89904761Y-57919523D01*
X89952380Y-57824285D01*
X89952380Y-57729047D01*
X89904761Y-57014761D02*
X89952380Y-57110000D01*
X89952380Y-57300476D01*
X89904761Y-57395714D01*
X89809523Y-57443333D01*
X89428571Y-57443333D01*
X89333333Y-57395714D01*
X89285714Y-57300476D01*
X89285714Y-57110000D01*
X89333333Y-57014761D01*
X89428571Y-56967142D01*
X89523809Y-56967142D01*
X89619047Y-57443333D01*
X89952380Y-56538571D02*
X89285714Y-56538571D01*
X89476190Y-56538571D02*
X89380952Y-56490952D01*
X89333333Y-56443333D01*
X89285714Y-56348095D01*
X89285714Y-56252857D01*
X89285714Y-55919523D02*
X89952380Y-55919523D01*
X89380952Y-55919523D02*
X89333333Y-55871904D01*
X89285714Y-55776666D01*
X89285714Y-55633809D01*
X89333333Y-55538571D01*
X89428571Y-55490952D01*
X89952380Y-55490952D01*
X89952380Y-54586190D02*
X89428571Y-54586190D01*
X89333333Y-54633809D01*
X89285714Y-54729047D01*
X89285714Y-54919523D01*
X89333333Y-55014761D01*
X89904761Y-54586190D02*
X89952380Y-54681428D01*
X89952380Y-54919523D01*
X89904761Y-55014761D01*
X89809523Y-55062380D01*
X89714285Y-55062380D01*
X89619047Y-55014761D01*
X89571428Y-54919523D01*
X89571428Y-54681428D01*
X89523809Y-54586190D01*
X89952380Y-53967142D02*
X89904761Y-54062380D01*
X89809523Y-54110000D01*
X88952380Y-54110000D01*
X90047619Y-53824285D02*
X90047619Y-53062380D01*
X89952380Y-52824285D02*
X88952380Y-52824285D01*
X88952380Y-52443333D01*
X89000000Y-52348095D01*
X89047619Y-52300476D01*
X89142857Y-52252857D01*
X89285714Y-52252857D01*
X89380952Y-52300476D01*
X89428571Y-52348095D01*
X89476190Y-52443333D01*
X89476190Y-52824285D01*
X88952380Y-51633809D02*
X88952380Y-51443333D01*
X89000000Y-51348095D01*
X89095238Y-51252857D01*
X89285714Y-51205238D01*
X89619047Y-51205238D01*
X89809523Y-51252857D01*
X89904761Y-51348095D01*
X89952380Y-51443333D01*
X89952380Y-51633809D01*
X89904761Y-51729047D01*
X89809523Y-51824285D01*
X89619047Y-51871904D01*
X89285714Y-51871904D01*
X89095238Y-51824285D01*
X89000000Y-51729047D01*
X88952380Y-51633809D01*
X88952380Y-50919523D02*
X88952380Y-50348095D01*
X89952380Y-50633809D02*
X88952380Y-50633809D01*
X89952380Y-49490952D02*
X89952380Y-50062380D01*
X89952380Y-49776666D02*
X88952380Y-49776666D01*
X89095238Y-49871904D01*
X89190476Y-49967142D01*
X89238095Y-50062380D01*
%TO.C,Motor1*%
X93630476Y-91982380D02*
X93630476Y-90982380D01*
X93963809Y-91696666D01*
X94297142Y-90982380D01*
X94297142Y-91982380D01*
X94916190Y-91982380D02*
X94820952Y-91934761D01*
X94773333Y-91887142D01*
X94725714Y-91791904D01*
X94725714Y-91506190D01*
X94773333Y-91410952D01*
X94820952Y-91363333D01*
X94916190Y-91315714D01*
X95059047Y-91315714D01*
X95154285Y-91363333D01*
X95201904Y-91410952D01*
X95249523Y-91506190D01*
X95249523Y-91791904D01*
X95201904Y-91887142D01*
X95154285Y-91934761D01*
X95059047Y-91982380D01*
X94916190Y-91982380D01*
X95535238Y-91315714D02*
X95916190Y-91315714D01*
X95678095Y-90982380D02*
X95678095Y-91839523D01*
X95725714Y-91934761D01*
X95820952Y-91982380D01*
X95916190Y-91982380D01*
X96392380Y-91982380D02*
X96297142Y-91934761D01*
X96249523Y-91887142D01*
X96201904Y-91791904D01*
X96201904Y-91506190D01*
X96249523Y-91410952D01*
X96297142Y-91363333D01*
X96392380Y-91315714D01*
X96535238Y-91315714D01*
X96630476Y-91363333D01*
X96678095Y-91410952D01*
X96725714Y-91506190D01*
X96725714Y-91791904D01*
X96678095Y-91887142D01*
X96630476Y-91934761D01*
X96535238Y-91982380D01*
X96392380Y-91982380D01*
X97154285Y-91982380D02*
X97154285Y-91315714D01*
X97154285Y-91506190D02*
X97201904Y-91410952D01*
X97249523Y-91363333D01*
X97344761Y-91315714D01*
X97440000Y-91315714D01*
X98297142Y-91982380D02*
X97725714Y-91982380D01*
X98011428Y-91982380D02*
X98011428Y-90982380D01*
X97916190Y-91125238D01*
X97820952Y-91220476D01*
X97725714Y-91268095D01*
%TD*%
M02*
