%TF.GenerationSoftware,KiCad,Pcbnew,(5.1.8)-1*%
%TF.CreationDate,2021-06-13T11:57:15+02:00*%
%TF.ProjectId,Assignment3,41737369-676e-46d6-956e-74332e6b6963,rev?*%
%TF.SameCoordinates,Original*%
%TF.FileFunction,Paste,Top*%
%TF.FilePolarity,Positive*%
%FSLAX46Y46*%
G04 Gerber Fmt 4.6, Leading zero omitted, Abs format (unit mm)*
G04 Created by KiCad (PCBNEW (5.1.8)-1) date 2021-06-13 11:57:15*
%MOMM*%
%LPD*%
G01*
G04 APERTURE LIST*
%ADD10R,3.100000X1.600000*%
%ADD11R,3.100000X3.200000*%
%ADD12R,1.500000X1.600000*%
%ADD13R,1.300000X2.000000*%
%ADD14R,2.000000X2.000000*%
%ADD15R,0.700000X1.000000*%
%ADD16R,1.000000X0.700000*%
G04 APERTURE END LIST*
D10*
%TO.C,IC1*%
X115625000Y-62230000D03*
X106735000Y-69850000D03*
X115625000Y-64770000D03*
X106735000Y-67310000D03*
X115625000Y-67310000D03*
X106735000Y-64770000D03*
X115625000Y-69850000D03*
X106735000Y-62230000D03*
%TD*%
D11*
%TO.C,Q3*%
X92560000Y-83770000D03*
X89160000Y-80270000D03*
X89160000Y-83770000D03*
X92560000Y-80270000D03*
D12*
X93160000Y-88170000D03*
X88560000Y-88170000D03*
%TD*%
D11*
%TO.C,IC2*%
X137010000Y-83770000D03*
X133610000Y-80270000D03*
X133610000Y-83770000D03*
X137010000Y-80270000D03*
D12*
X137610000Y-88170000D03*
X133010000Y-88170000D03*
%TD*%
%TO.C,R5*%
G36*
G01*
X133195000Y-45995000D02*
X133195000Y-45445000D01*
G75*
G02*
X133395000Y-45245000I200000J0D01*
G01*
X133795000Y-45245000D01*
G75*
G02*
X133995000Y-45445000I0J-200000D01*
G01*
X133995000Y-45995000D01*
G75*
G02*
X133795000Y-46195000I-200000J0D01*
G01*
X133395000Y-46195000D01*
G75*
G02*
X133195000Y-45995000I0J200000D01*
G01*
G37*
G36*
G01*
X131545000Y-45995000D02*
X131545000Y-45445000D01*
G75*
G02*
X131745000Y-45245000I200000J0D01*
G01*
X132145000Y-45245000D01*
G75*
G02*
X132345000Y-45445000I0J-200000D01*
G01*
X132345000Y-45995000D01*
G75*
G02*
X132145000Y-46195000I-200000J0D01*
G01*
X131745000Y-46195000D01*
G75*
G02*
X131545000Y-45995000I0J200000D01*
G01*
G37*
%TD*%
%TO.C,R4*%
G36*
G01*
X120495000Y-45995000D02*
X120495000Y-45445000D01*
G75*
G02*
X120695000Y-45245000I200000J0D01*
G01*
X121095000Y-45245000D01*
G75*
G02*
X121295000Y-45445000I0J-200000D01*
G01*
X121295000Y-45995000D01*
G75*
G02*
X121095000Y-46195000I-200000J0D01*
G01*
X120695000Y-46195000D01*
G75*
G02*
X120495000Y-45995000I0J200000D01*
G01*
G37*
G36*
G01*
X118845000Y-45995000D02*
X118845000Y-45445000D01*
G75*
G02*
X119045000Y-45245000I200000J0D01*
G01*
X119445000Y-45245000D01*
G75*
G02*
X119645000Y-45445000I0J-200000D01*
G01*
X119645000Y-45995000D01*
G75*
G02*
X119445000Y-46195000I-200000J0D01*
G01*
X119045000Y-46195000D01*
G75*
G02*
X118845000Y-45995000I0J200000D01*
G01*
G37*
%TD*%
%TO.C,R3*%
G36*
G01*
X105255000Y-45995000D02*
X105255000Y-45445000D01*
G75*
G02*
X105455000Y-45245000I200000J0D01*
G01*
X105855000Y-45245000D01*
G75*
G02*
X106055000Y-45445000I0J-200000D01*
G01*
X106055000Y-45995000D01*
G75*
G02*
X105855000Y-46195000I-200000J0D01*
G01*
X105455000Y-46195000D01*
G75*
G02*
X105255000Y-45995000I0J200000D01*
G01*
G37*
G36*
G01*
X103605000Y-45995000D02*
X103605000Y-45445000D01*
G75*
G02*
X103805000Y-45245000I200000J0D01*
G01*
X104205000Y-45245000D01*
G75*
G02*
X104405000Y-45445000I0J-200000D01*
G01*
X104405000Y-45995000D01*
G75*
G02*
X104205000Y-46195000I-200000J0D01*
G01*
X103805000Y-46195000D01*
G75*
G02*
X103605000Y-45995000I0J200000D01*
G01*
G37*
%TD*%
%TO.C,R2*%
G36*
G01*
X92555000Y-48535000D02*
X92555000Y-47985000D01*
G75*
G02*
X92755000Y-47785000I200000J0D01*
G01*
X93155000Y-47785000D01*
G75*
G02*
X93355000Y-47985000I0J-200000D01*
G01*
X93355000Y-48535000D01*
G75*
G02*
X93155000Y-48735000I-200000J0D01*
G01*
X92755000Y-48735000D01*
G75*
G02*
X92555000Y-48535000I0J200000D01*
G01*
G37*
G36*
G01*
X90905000Y-48535000D02*
X90905000Y-47985000D01*
G75*
G02*
X91105000Y-47785000I200000J0D01*
G01*
X91505000Y-47785000D01*
G75*
G02*
X91705000Y-47985000I0J-200000D01*
G01*
X91705000Y-48535000D01*
G75*
G02*
X91505000Y-48735000I-200000J0D01*
G01*
X91105000Y-48735000D01*
G75*
G02*
X90905000Y-48535000I0J200000D01*
G01*
G37*
%TD*%
D13*
%TO.C,R1*%
X97330000Y-51340000D03*
D14*
X98480000Y-55340000D03*
D13*
X99630000Y-51340000D03*
%TD*%
D15*
%TO.C,Q2*%
X127690000Y-53905000D03*
X126740000Y-51505000D03*
X128640000Y-51505000D03*
%TD*%
D16*
%TO.C,Q1*%
X104900000Y-53340000D03*
X107300000Y-52390000D03*
X107300000Y-54290000D03*
%TD*%
%TO.C,D3*%
G36*
G01*
X105180000Y-80266250D02*
X105180000Y-79753750D01*
G75*
G02*
X105398750Y-79535000I218750J0D01*
G01*
X105836250Y-79535000D01*
G75*
G02*
X106055000Y-79753750I0J-218750D01*
G01*
X106055000Y-80266250D01*
G75*
G02*
X105836250Y-80485000I-218750J0D01*
G01*
X105398750Y-80485000D01*
G75*
G02*
X105180000Y-80266250I0J218750D01*
G01*
G37*
G36*
G01*
X103605000Y-80266250D02*
X103605000Y-79753750D01*
G75*
G02*
X103823750Y-79535000I218750J0D01*
G01*
X104261250Y-79535000D01*
G75*
G02*
X104480000Y-79753750I0J-218750D01*
G01*
X104480000Y-80266250D01*
G75*
G02*
X104261250Y-80485000I-218750J0D01*
G01*
X103823750Y-80485000D01*
G75*
G02*
X103605000Y-80266250I0J218750D01*
G01*
G37*
%TD*%
%TO.C,D2*%
G36*
G01*
X95683750Y-62580000D02*
X96196250Y-62580000D01*
G75*
G02*
X96415000Y-62798750I0J-218750D01*
G01*
X96415000Y-63236250D01*
G75*
G02*
X96196250Y-63455000I-218750J0D01*
G01*
X95683750Y-63455000D01*
G75*
G02*
X95465000Y-63236250I0J218750D01*
G01*
X95465000Y-62798750D01*
G75*
G02*
X95683750Y-62580000I218750J0D01*
G01*
G37*
G36*
G01*
X95683750Y-61005000D02*
X96196250Y-61005000D01*
G75*
G02*
X96415000Y-61223750I0J-218750D01*
G01*
X96415000Y-61661250D01*
G75*
G02*
X96196250Y-61880000I-218750J0D01*
G01*
X95683750Y-61880000D01*
G75*
G02*
X95465000Y-61661250I0J218750D01*
G01*
X95465000Y-61223750D01*
G75*
G02*
X95683750Y-61005000I218750J0D01*
G01*
G37*
%TD*%
%TO.C,D1*%
G36*
G01*
X98223750Y-74010000D02*
X98736250Y-74010000D01*
G75*
G02*
X98955000Y-74228750I0J-218750D01*
G01*
X98955000Y-74666250D01*
G75*
G02*
X98736250Y-74885000I-218750J0D01*
G01*
X98223750Y-74885000D01*
G75*
G02*
X98005000Y-74666250I0J218750D01*
G01*
X98005000Y-74228750D01*
G75*
G02*
X98223750Y-74010000I218750J0D01*
G01*
G37*
G36*
G01*
X98223750Y-72435000D02*
X98736250Y-72435000D01*
G75*
G02*
X98955000Y-72653750I0J-218750D01*
G01*
X98955000Y-73091250D01*
G75*
G02*
X98736250Y-73310000I-218750J0D01*
G01*
X98223750Y-73310000D01*
G75*
G02*
X98005000Y-73091250I0J218750D01*
G01*
X98005000Y-72653750D01*
G75*
G02*
X98223750Y-72435000I218750J0D01*
G01*
G37*
%TD*%
%TO.C,C5*%
G36*
G01*
X115240000Y-88575000D02*
X114740000Y-88575000D01*
G75*
G02*
X114515000Y-88350000I0J225000D01*
G01*
X114515000Y-87900000D01*
G75*
G02*
X114740000Y-87675000I225000J0D01*
G01*
X115240000Y-87675000D01*
G75*
G02*
X115465000Y-87900000I0J-225000D01*
G01*
X115465000Y-88350000D01*
G75*
G02*
X115240000Y-88575000I-225000J0D01*
G01*
G37*
G36*
G01*
X115240000Y-90125000D02*
X114740000Y-90125000D01*
G75*
G02*
X114515000Y-89900000I0J225000D01*
G01*
X114515000Y-89450000D01*
G75*
G02*
X114740000Y-89225000I225000J0D01*
G01*
X115240000Y-89225000D01*
G75*
G02*
X115465000Y-89450000I0J-225000D01*
G01*
X115465000Y-89900000D01*
G75*
G02*
X115240000Y-90125000I-225000J0D01*
G01*
G37*
%TD*%
%TO.C,C4*%
G36*
G01*
X139740000Y-52914999D02*
X139740000Y-53765001D01*
G75*
G02*
X139490001Y-54015000I-249999J0D01*
G01*
X138589999Y-54015000D01*
G75*
G02*
X138340000Y-53765001I0J249999D01*
G01*
X138340000Y-52914999D01*
G75*
G02*
X138589999Y-52665000I249999J0D01*
G01*
X139490001Y-52665000D01*
G75*
G02*
X139740000Y-52914999I0J-249999D01*
G01*
G37*
G36*
G01*
X142440000Y-52914999D02*
X142440000Y-53765001D01*
G75*
G02*
X142190001Y-54015000I-249999J0D01*
G01*
X141289999Y-54015000D01*
G75*
G02*
X141040000Y-53765001I0J249999D01*
G01*
X141040000Y-52914999D01*
G75*
G02*
X141289999Y-52665000I249999J0D01*
G01*
X142190001Y-52665000D01*
G75*
G02*
X142440000Y-52914999I0J-249999D01*
G01*
G37*
%TD*%
%TO.C,C3*%
G36*
G01*
X135560000Y-65715000D02*
X135060000Y-65715000D01*
G75*
G02*
X134835000Y-65490000I0J225000D01*
G01*
X134835000Y-65040000D01*
G75*
G02*
X135060000Y-64815000I225000J0D01*
G01*
X135560000Y-64815000D01*
G75*
G02*
X135785000Y-65040000I0J-225000D01*
G01*
X135785000Y-65490000D01*
G75*
G02*
X135560000Y-65715000I-225000J0D01*
G01*
G37*
G36*
G01*
X135560000Y-67265000D02*
X135060000Y-67265000D01*
G75*
G02*
X134835000Y-67040000I0J225000D01*
G01*
X134835000Y-66590000D01*
G75*
G02*
X135060000Y-66365000I225000J0D01*
G01*
X135560000Y-66365000D01*
G75*
G02*
X135785000Y-66590000I0J-225000D01*
G01*
X135785000Y-67040000D01*
G75*
G02*
X135560000Y-67265000I-225000J0D01*
G01*
G37*
%TD*%
%TO.C,C2*%
G36*
G01*
X128710000Y-63825000D02*
X129210000Y-63825000D01*
G75*
G02*
X129435000Y-64050000I0J-225000D01*
G01*
X129435000Y-64500000D01*
G75*
G02*
X129210000Y-64725000I-225000J0D01*
G01*
X128710000Y-64725000D01*
G75*
G02*
X128485000Y-64500000I0J225000D01*
G01*
X128485000Y-64050000D01*
G75*
G02*
X128710000Y-63825000I225000J0D01*
G01*
G37*
G36*
G01*
X128710000Y-62275000D02*
X129210000Y-62275000D01*
G75*
G02*
X129435000Y-62500000I0J-225000D01*
G01*
X129435000Y-62950000D01*
G75*
G02*
X129210000Y-63175000I-225000J0D01*
G01*
X128710000Y-63175000D01*
G75*
G02*
X128485000Y-62950000I0J225000D01*
G01*
X128485000Y-62500000D01*
G75*
G02*
X128710000Y-62275000I225000J0D01*
G01*
G37*
%TD*%
%TO.C,C1*%
G36*
G01*
X141410000Y-58745000D02*
X141910000Y-58745000D01*
G75*
G02*
X142135000Y-58970000I0J-225000D01*
G01*
X142135000Y-59420000D01*
G75*
G02*
X141910000Y-59645000I-225000J0D01*
G01*
X141410000Y-59645000D01*
G75*
G02*
X141185000Y-59420000I0J225000D01*
G01*
X141185000Y-58970000D01*
G75*
G02*
X141410000Y-58745000I225000J0D01*
G01*
G37*
G36*
G01*
X141410000Y-57195000D02*
X141910000Y-57195000D01*
G75*
G02*
X142135000Y-57420000I0J-225000D01*
G01*
X142135000Y-57870000D01*
G75*
G02*
X141910000Y-58095000I-225000J0D01*
G01*
X141410000Y-58095000D01*
G75*
G02*
X141185000Y-57870000I0J225000D01*
G01*
X141185000Y-57420000D01*
G75*
G02*
X141410000Y-57195000I225000J0D01*
G01*
G37*
%TD*%
M02*
