%TF.GenerationSoftware,KiCad,Pcbnew,(5.1.8)-1*%
%TF.CreationDate,2021-07-02T06:17:22+02:00*%
%TF.ProjectId,Assignment2,41737369-676e-46d6-956e-74322e6b6963,rev?*%
%TF.SameCoordinates,Original*%
%TF.FileFunction,Soldermask,Top*%
%TF.FilePolarity,Negative*%
%FSLAX46Y46*%
G04 Gerber Fmt 4.6, Leading zero omitted, Abs format (unit mm)*
G04 Created by KiCad (PCBNEW (5.1.8)-1) date 2021-07-02 06:17:22*
%MOMM*%
%LPD*%
G01*
G04 APERTURE LIST*
%ADD10O,1.905000X2.000000*%
%ADD11R,1.905000X2.000000*%
%ADD12O,3.500000X3.500000*%
%ADD13C,3.200000*%
%ADD14C,1.600000*%
%ADD15O,1.600000X1.600000*%
%ADD16R,1.600000X1.600000*%
%ADD17R,2.200000X2.200000*%
%ADD18O,2.200000X2.200000*%
%ADD19O,1.050000X1.500000*%
%ADD20R,1.050000X1.500000*%
%ADD21R,1.500000X1.050000*%
%ADD22O,1.500000X1.050000*%
%ADD23C,1.440000*%
%ADD24C,2.600000*%
%ADD25R,2.600000X2.600000*%
G04 APERTURE END LIST*
D10*
%TO.C,Q3*%
X88320000Y-88900000D03*
X85780000Y-88900000D03*
D11*
X83240000Y-88900000D03*
D12*
X85780000Y-72240000D03*
%TD*%
D10*
%TO.C,IC2*%
X142930000Y-88900000D03*
X140390000Y-88900000D03*
D11*
X137850000Y-88900000D03*
D12*
X140390000Y-72240000D03*
%TD*%
D13*
%TO.C,REF\u002A\u002A*%
X146740000Y-101910000D03*
%TD*%
%TO.C,REF\u002A\u002A*%
X78740000Y-101910000D03*
%TD*%
%TO.C,REF\u002A\u002A*%
X146740000Y-41910000D03*
%TD*%
%TO.C,REF\u002A\u002A*%
X78740000Y-41910000D03*
%TD*%
D14*
%TO.C,C3*%
X135310000Y-66040000D03*
D15*
X135310000Y-58540000D03*
%TD*%
D14*
%TO.C,C2*%
X128960000Y-63500000D03*
D15*
X128960000Y-71000000D03*
%TD*%
%TO.C,C1*%
X141660000Y-65920000D03*
D14*
X141660000Y-58420000D03*
%TD*%
D15*
%TO.C,C5*%
X114990000Y-96400000D03*
D14*
X114990000Y-88900000D03*
%TD*%
D16*
%TO.C,C4*%
X140390000Y-53340000D03*
D14*
X135390000Y-53340000D03*
%TD*%
D15*
%TO.C,D1*%
X98480000Y-81280000D03*
D16*
X98480000Y-73660000D03*
%TD*%
%TO.C,D2*%
X95940000Y-62230000D03*
D15*
X95940000Y-69850000D03*
%TD*%
D17*
%TO.C,D3*%
X104830000Y-80010000D03*
D18*
X114990000Y-80010000D03*
%TD*%
%TO.C,IC1*%
G36*
G01*
X107730000Y-64285000D02*
X107730000Y-63985000D01*
G75*
G02*
X107880000Y-63835000I150000J0D01*
G01*
X109530000Y-63835000D01*
G75*
G02*
X109680000Y-63985000I0J-150000D01*
G01*
X109680000Y-64285000D01*
G75*
G02*
X109530000Y-64435000I-150000J0D01*
G01*
X107880000Y-64435000D01*
G75*
G02*
X107730000Y-64285000I0J150000D01*
G01*
G37*
G36*
G01*
X107730000Y-65555000D02*
X107730000Y-65255000D01*
G75*
G02*
X107880000Y-65105000I150000J0D01*
G01*
X109530000Y-65105000D01*
G75*
G02*
X109680000Y-65255000I0J-150000D01*
G01*
X109680000Y-65555000D01*
G75*
G02*
X109530000Y-65705000I-150000J0D01*
G01*
X107880000Y-65705000D01*
G75*
G02*
X107730000Y-65555000I0J150000D01*
G01*
G37*
G36*
G01*
X107730000Y-66825000D02*
X107730000Y-66525000D01*
G75*
G02*
X107880000Y-66375000I150000J0D01*
G01*
X109530000Y-66375000D01*
G75*
G02*
X109680000Y-66525000I0J-150000D01*
G01*
X109680000Y-66825000D01*
G75*
G02*
X109530000Y-66975000I-150000J0D01*
G01*
X107880000Y-66975000D01*
G75*
G02*
X107730000Y-66825000I0J150000D01*
G01*
G37*
G36*
G01*
X107730000Y-68095000D02*
X107730000Y-67795000D01*
G75*
G02*
X107880000Y-67645000I150000J0D01*
G01*
X109530000Y-67645000D01*
G75*
G02*
X109680000Y-67795000I0J-150000D01*
G01*
X109680000Y-68095000D01*
G75*
G02*
X109530000Y-68245000I-150000J0D01*
G01*
X107880000Y-68245000D01*
G75*
G02*
X107730000Y-68095000I0J150000D01*
G01*
G37*
G36*
G01*
X112680000Y-68095000D02*
X112680000Y-67795000D01*
G75*
G02*
X112830000Y-67645000I150000J0D01*
G01*
X114480000Y-67645000D01*
G75*
G02*
X114630000Y-67795000I0J-150000D01*
G01*
X114630000Y-68095000D01*
G75*
G02*
X114480000Y-68245000I-150000J0D01*
G01*
X112830000Y-68245000D01*
G75*
G02*
X112680000Y-68095000I0J150000D01*
G01*
G37*
G36*
G01*
X112680000Y-66825000D02*
X112680000Y-66525000D01*
G75*
G02*
X112830000Y-66375000I150000J0D01*
G01*
X114480000Y-66375000D01*
G75*
G02*
X114630000Y-66525000I0J-150000D01*
G01*
X114630000Y-66825000D01*
G75*
G02*
X114480000Y-66975000I-150000J0D01*
G01*
X112830000Y-66975000D01*
G75*
G02*
X112680000Y-66825000I0J150000D01*
G01*
G37*
G36*
G01*
X112680000Y-65555000D02*
X112680000Y-65255000D01*
G75*
G02*
X112830000Y-65105000I150000J0D01*
G01*
X114480000Y-65105000D01*
G75*
G02*
X114630000Y-65255000I0J-150000D01*
G01*
X114630000Y-65555000D01*
G75*
G02*
X114480000Y-65705000I-150000J0D01*
G01*
X112830000Y-65705000D01*
G75*
G02*
X112680000Y-65555000I0J150000D01*
G01*
G37*
G36*
G01*
X112680000Y-64285000D02*
X112680000Y-63985000D01*
G75*
G02*
X112830000Y-63835000I150000J0D01*
G01*
X114480000Y-63835000D01*
G75*
G02*
X114630000Y-63985000I0J-150000D01*
G01*
X114630000Y-64285000D01*
G75*
G02*
X114480000Y-64435000I-150000J0D01*
G01*
X112830000Y-64435000D01*
G75*
G02*
X112680000Y-64285000I0J150000D01*
G01*
G37*
%TD*%
D19*
%TO.C,Q1*%
X104830000Y-53340000D03*
X103560000Y-53340000D03*
D20*
X106100000Y-53340000D03*
%TD*%
D21*
%TO.C,Q2*%
X127690000Y-52705000D03*
D22*
X127690000Y-55245000D03*
X127690000Y-53975000D03*
%TD*%
D14*
%TO.C,R2*%
X92130000Y-45720000D03*
D15*
X99750000Y-45720000D03*
%TD*%
%TO.C,R3*%
X112450000Y-45720000D03*
D14*
X104830000Y-45720000D03*
%TD*%
%TO.C,R4*%
X120070000Y-45720000D03*
D15*
X127690000Y-45720000D03*
%TD*%
%TO.C,R5*%
X140390000Y-45720000D03*
D14*
X132770000Y-45720000D03*
%TD*%
D23*
%TO.C,R1*%
X98480000Y-53340000D03*
X95940000Y-53340000D03*
X93400000Y-53340000D03*
%TD*%
D24*
%TO.C,Battery1*%
X132770000Y-97790000D03*
D25*
X127690000Y-97790000D03*
%TD*%
%TO.C,External_POT1*%
X83240000Y-49530000D03*
D24*
X83240000Y-54610000D03*
X83240000Y-59690000D03*
%TD*%
D25*
%TO.C,Motor1*%
X93400000Y-97790000D03*
D24*
X98480000Y-97790000D03*
%TD*%
M02*
