%TF.GenerationSoftware,KiCad,Pcbnew,(5.1.8)-1*%
%TF.CreationDate,2021-07-02T06:17:21+02:00*%
%TF.ProjectId,Assignment2,41737369-676e-46d6-956e-74322e6b6963,rev?*%
%TF.SameCoordinates,Original*%
%TF.FileFunction,Copper,L1,Top*%
%TF.FilePolarity,Positive*%
%FSLAX46Y46*%
G04 Gerber Fmt 4.6, Leading zero omitted, Abs format (unit mm)*
G04 Created by KiCad (PCBNEW (5.1.8)-1) date 2021-07-02 06:17:21*
%MOMM*%
%LPD*%
G01*
G04 APERTURE LIST*
%TA.AperFunction,NonConductor*%
%ADD10C,0.300000*%
%TD*%
%TA.AperFunction,ComponentPad*%
%ADD11O,1.905000X2.000000*%
%TD*%
%TA.AperFunction,ComponentPad*%
%ADD12R,1.905000X2.000000*%
%TD*%
%TA.AperFunction,ComponentPad*%
%ADD13C,1.600000*%
%TD*%
%TA.AperFunction,ComponentPad*%
%ADD14O,1.600000X1.600000*%
%TD*%
%TA.AperFunction,ComponentPad*%
%ADD15R,1.600000X1.600000*%
%TD*%
%TA.AperFunction,ComponentPad*%
%ADD16R,2.200000X2.200000*%
%TD*%
%TA.AperFunction,ComponentPad*%
%ADD17O,2.200000X2.200000*%
%TD*%
%TA.AperFunction,ComponentPad*%
%ADD18O,1.050000X1.500000*%
%TD*%
%TA.AperFunction,ComponentPad*%
%ADD19R,1.050000X1.500000*%
%TD*%
%TA.AperFunction,ComponentPad*%
%ADD20R,1.500000X1.050000*%
%TD*%
%TA.AperFunction,ComponentPad*%
%ADD21O,1.500000X1.050000*%
%TD*%
%TA.AperFunction,ComponentPad*%
%ADD22C,1.440000*%
%TD*%
%TA.AperFunction,ComponentPad*%
%ADD23C,2.600000*%
%TD*%
%TA.AperFunction,ComponentPad*%
%ADD24R,2.600000X2.600000*%
%TD*%
%TA.AperFunction,Conductor*%
%ADD25C,0.508000*%
%TD*%
G04 APERTURE END LIST*
D10*
X87235714Y-39972142D02*
X87450000Y-40043571D01*
X87807142Y-40043571D01*
X87950000Y-39972142D01*
X88021428Y-39900714D01*
X88092857Y-39757857D01*
X88092857Y-39615000D01*
X88021428Y-39472142D01*
X87950000Y-39400714D01*
X87807142Y-39329285D01*
X87521428Y-39257857D01*
X87378571Y-39186428D01*
X87307142Y-39115000D01*
X87235714Y-38972142D01*
X87235714Y-38829285D01*
X87307142Y-38686428D01*
X87378571Y-38615000D01*
X87521428Y-38543571D01*
X87878571Y-38543571D01*
X88092857Y-38615000D01*
X88521428Y-39043571D02*
X89092857Y-39043571D01*
X88735714Y-38543571D02*
X88735714Y-39829285D01*
X88807142Y-39972142D01*
X88950000Y-40043571D01*
X89092857Y-40043571D01*
X90235714Y-39043571D02*
X90235714Y-40043571D01*
X89592857Y-39043571D02*
X89592857Y-39829285D01*
X89664285Y-39972142D01*
X89807142Y-40043571D01*
X90021428Y-40043571D01*
X90164285Y-39972142D01*
X90235714Y-39900714D01*
X91592857Y-40043571D02*
X91592857Y-38543571D01*
X91592857Y-39972142D02*
X91450000Y-40043571D01*
X91164285Y-40043571D01*
X91021428Y-39972142D01*
X90950000Y-39900714D01*
X90878571Y-39757857D01*
X90878571Y-39329285D01*
X90950000Y-39186428D01*
X91021428Y-39115000D01*
X91164285Y-39043571D01*
X91450000Y-39043571D01*
X91592857Y-39115000D01*
X92878571Y-39972142D02*
X92735714Y-40043571D01*
X92450000Y-40043571D01*
X92307142Y-39972142D01*
X92235714Y-39829285D01*
X92235714Y-39257857D01*
X92307142Y-39115000D01*
X92450000Y-39043571D01*
X92735714Y-39043571D01*
X92878571Y-39115000D01*
X92950000Y-39257857D01*
X92950000Y-39400714D01*
X92235714Y-39543571D01*
X93592857Y-39043571D02*
X93592857Y-40043571D01*
X93592857Y-39186428D02*
X93664285Y-39115000D01*
X93807142Y-39043571D01*
X94021428Y-39043571D01*
X94164285Y-39115000D01*
X94235714Y-39257857D01*
X94235714Y-40043571D01*
X94735714Y-39043571D02*
X95307142Y-39043571D01*
X94950000Y-38543571D02*
X94950000Y-39829285D01*
X95021428Y-39972142D01*
X95164285Y-40043571D01*
X95307142Y-40043571D01*
X96950000Y-40043571D02*
X96950000Y-38543571D01*
X97807142Y-40043571D01*
X97807142Y-38543571D01*
X98735714Y-40043571D02*
X98592857Y-39972142D01*
X98521428Y-39900714D01*
X98450000Y-39757857D01*
X98450000Y-39329285D01*
X98521428Y-39186428D01*
X98592857Y-39115000D01*
X98735714Y-39043571D01*
X98950000Y-39043571D01*
X99092857Y-39115000D01*
X99164285Y-39186428D01*
X99235714Y-39329285D01*
X99235714Y-39757857D01*
X99164285Y-39900714D01*
X99092857Y-39972142D01*
X98950000Y-40043571D01*
X98735714Y-40043571D01*
X99878571Y-39900714D02*
X99950000Y-39972142D01*
X99878571Y-40043571D01*
X99807142Y-39972142D01*
X99878571Y-39900714D01*
X99878571Y-40043571D01*
X99878571Y-39115000D02*
X99950000Y-39186428D01*
X99878571Y-39257857D01*
X99807142Y-39186428D01*
X99878571Y-39115000D01*
X99878571Y-39257857D01*
X101664285Y-38686428D02*
X101735714Y-38615000D01*
X101878571Y-38543571D01*
X102235714Y-38543571D01*
X102378571Y-38615000D01*
X102450000Y-38686428D01*
X102521428Y-38829285D01*
X102521428Y-38972142D01*
X102450000Y-39186428D01*
X101592857Y-40043571D01*
X102521428Y-40043571D01*
X103950000Y-40043571D02*
X103092857Y-40043571D01*
X103521428Y-40043571D02*
X103521428Y-38543571D01*
X103378571Y-38757857D01*
X103235714Y-38900714D01*
X103092857Y-38972142D01*
X105235714Y-39043571D02*
X105235714Y-40043571D01*
X104878571Y-38472142D02*
X104521428Y-39543571D01*
X105450000Y-39543571D01*
X106807142Y-40043571D02*
X105950000Y-40043571D01*
X106378571Y-40043571D02*
X106378571Y-38543571D01*
X106235714Y-38757857D01*
X106092857Y-38900714D01*
X105950000Y-38972142D01*
X108235714Y-40043571D02*
X107378571Y-40043571D01*
X107807142Y-40043571D02*
X107807142Y-38543571D01*
X107664285Y-38757857D01*
X107521428Y-38900714D01*
X107378571Y-38972142D01*
X109664285Y-40043571D02*
X108807142Y-40043571D01*
X109235714Y-40043571D02*
X109235714Y-38543571D01*
X109092857Y-38757857D01*
X108950000Y-38900714D01*
X108807142Y-38972142D01*
X110950000Y-38543571D02*
X110664285Y-38543571D01*
X110521428Y-38615000D01*
X110450000Y-38686428D01*
X110307142Y-38900714D01*
X110235714Y-39186428D01*
X110235714Y-39757857D01*
X110307142Y-39900714D01*
X110378571Y-39972142D01*
X110521428Y-40043571D01*
X110807142Y-40043571D01*
X110950000Y-39972142D01*
X111021428Y-39900714D01*
X111092857Y-39757857D01*
X111092857Y-39400714D01*
X111021428Y-39257857D01*
X110950000Y-39186428D01*
X110807142Y-39115000D01*
X110521428Y-39115000D01*
X110378571Y-39186428D01*
X110307142Y-39257857D01*
X110235714Y-39400714D01*
X111592857Y-38543571D02*
X112521428Y-38543571D01*
X112021428Y-39115000D01*
X112235714Y-39115000D01*
X112378571Y-39186428D01*
X112450000Y-39257857D01*
X112521428Y-39400714D01*
X112521428Y-39757857D01*
X112450000Y-39900714D01*
X112378571Y-39972142D01*
X112235714Y-40043571D01*
X111807142Y-40043571D01*
X111664285Y-39972142D01*
X111592857Y-39900714D01*
X113807142Y-38543571D02*
X113521428Y-38543571D01*
X113378571Y-38615000D01*
X113307142Y-38686428D01*
X113164285Y-38900714D01*
X113092857Y-39186428D01*
X113092857Y-39757857D01*
X113164285Y-39900714D01*
X113235714Y-39972142D01*
X113378571Y-40043571D01*
X113664285Y-40043571D01*
X113807142Y-39972142D01*
X113878571Y-39900714D01*
X113950000Y-39757857D01*
X113950000Y-39400714D01*
X113878571Y-39257857D01*
X113807142Y-39186428D01*
X113664285Y-39115000D01*
X113378571Y-39115000D01*
X113235714Y-39186428D01*
X113164285Y-39257857D01*
X113092857Y-39400714D01*
X115735714Y-40043571D02*
X115735714Y-38543571D01*
X116092857Y-38543571D01*
X116307142Y-38615000D01*
X116450000Y-38757857D01*
X116521428Y-38900714D01*
X116592857Y-39186428D01*
X116592857Y-39400714D01*
X116521428Y-39686428D01*
X116450000Y-39829285D01*
X116307142Y-39972142D01*
X116092857Y-40043571D01*
X115735714Y-40043571D01*
X117878571Y-40043571D02*
X117878571Y-39257857D01*
X117807142Y-39115000D01*
X117664285Y-39043571D01*
X117378571Y-39043571D01*
X117235714Y-39115000D01*
X117878571Y-39972142D02*
X117735714Y-40043571D01*
X117378571Y-40043571D01*
X117235714Y-39972142D01*
X117164285Y-39829285D01*
X117164285Y-39686428D01*
X117235714Y-39543571D01*
X117378571Y-39472142D01*
X117735714Y-39472142D01*
X117878571Y-39400714D01*
X118378571Y-39043571D02*
X118950000Y-39043571D01*
X118592857Y-38543571D02*
X118592857Y-39829285D01*
X118664285Y-39972142D01*
X118807142Y-40043571D01*
X118950000Y-40043571D01*
X120021428Y-39972142D02*
X119878571Y-40043571D01*
X119592857Y-40043571D01*
X119450000Y-39972142D01*
X119378571Y-39829285D01*
X119378571Y-39257857D01*
X119450000Y-39115000D01*
X119592857Y-39043571D01*
X119878571Y-39043571D01*
X120021428Y-39115000D01*
X120092857Y-39257857D01*
X120092857Y-39400714D01*
X119378571Y-39543571D01*
X121878571Y-39900714D02*
X121950000Y-39972142D01*
X121878571Y-40043571D01*
X121807142Y-39972142D01*
X121878571Y-39900714D01*
X121878571Y-40043571D01*
X121878571Y-39115000D02*
X121950000Y-39186428D01*
X121878571Y-39257857D01*
X121807142Y-39186428D01*
X121878571Y-39115000D01*
X121878571Y-39257857D01*
X124521428Y-40043571D02*
X123664285Y-40043571D01*
X124092857Y-40043571D02*
X124092857Y-38543571D01*
X123950000Y-38757857D01*
X123807142Y-38900714D01*
X123664285Y-38972142D01*
X125021428Y-38543571D02*
X125950000Y-38543571D01*
X125450000Y-39115000D01*
X125664285Y-39115000D01*
X125807142Y-39186428D01*
X125878571Y-39257857D01*
X125950000Y-39400714D01*
X125950000Y-39757857D01*
X125878571Y-39900714D01*
X125807142Y-39972142D01*
X125664285Y-40043571D01*
X125235714Y-40043571D01*
X125092857Y-39972142D01*
X125021428Y-39900714D01*
X127664285Y-38472142D02*
X126378571Y-40400714D01*
X128450000Y-38543571D02*
X128592857Y-38543571D01*
X128735714Y-38615000D01*
X128807142Y-38686428D01*
X128878571Y-38829285D01*
X128950000Y-39115000D01*
X128950000Y-39472142D01*
X128878571Y-39757857D01*
X128807142Y-39900714D01*
X128735714Y-39972142D01*
X128592857Y-40043571D01*
X128450000Y-40043571D01*
X128307142Y-39972142D01*
X128235714Y-39900714D01*
X128164285Y-39757857D01*
X128092857Y-39472142D01*
X128092857Y-39115000D01*
X128164285Y-38829285D01*
X128235714Y-38686428D01*
X128307142Y-38615000D01*
X128450000Y-38543571D01*
X130235714Y-38543571D02*
X129950000Y-38543571D01*
X129807142Y-38615000D01*
X129735714Y-38686428D01*
X129592857Y-38900714D01*
X129521428Y-39186428D01*
X129521428Y-39757857D01*
X129592857Y-39900714D01*
X129664285Y-39972142D01*
X129807142Y-40043571D01*
X130092857Y-40043571D01*
X130235714Y-39972142D01*
X130307142Y-39900714D01*
X130378571Y-39757857D01*
X130378571Y-39400714D01*
X130307142Y-39257857D01*
X130235714Y-39186428D01*
X130092857Y-39115000D01*
X129807142Y-39115000D01*
X129664285Y-39186428D01*
X129592857Y-39257857D01*
X129521428Y-39400714D01*
X132092857Y-38472142D02*
X130807142Y-40400714D01*
X132521428Y-38686428D02*
X132592857Y-38615000D01*
X132735714Y-38543571D01*
X133092857Y-38543571D01*
X133235714Y-38615000D01*
X133307142Y-38686428D01*
X133378571Y-38829285D01*
X133378571Y-38972142D01*
X133307142Y-39186428D01*
X132450000Y-40043571D01*
X133378571Y-40043571D01*
X134307142Y-38543571D02*
X134450000Y-38543571D01*
X134592857Y-38615000D01*
X134664285Y-38686428D01*
X134735714Y-38829285D01*
X134807142Y-39115000D01*
X134807142Y-39472142D01*
X134735714Y-39757857D01*
X134664285Y-39900714D01*
X134592857Y-39972142D01*
X134450000Y-40043571D01*
X134307142Y-40043571D01*
X134164285Y-39972142D01*
X134092857Y-39900714D01*
X134021428Y-39757857D01*
X133950000Y-39472142D01*
X133950000Y-39115000D01*
X134021428Y-38829285D01*
X134092857Y-38686428D01*
X134164285Y-38615000D01*
X134307142Y-38543571D01*
X135378571Y-38686428D02*
X135450000Y-38615000D01*
X135592857Y-38543571D01*
X135950000Y-38543571D01*
X136092857Y-38615000D01*
X136164285Y-38686428D01*
X136235714Y-38829285D01*
X136235714Y-38972142D01*
X136164285Y-39186428D01*
X135307142Y-40043571D01*
X136235714Y-40043571D01*
X137664285Y-40043571D02*
X136807142Y-40043571D01*
X137235714Y-40043571D02*
X137235714Y-38543571D01*
X137092857Y-38757857D01*
X136950000Y-38900714D01*
X136807142Y-38972142D01*
X97307142Y-41807857D02*
X97521428Y-41879285D01*
X97592857Y-41950714D01*
X97664285Y-42093571D01*
X97664285Y-42307857D01*
X97592857Y-42450714D01*
X97521428Y-42522142D01*
X97378571Y-42593571D01*
X96807142Y-42593571D01*
X96807142Y-41093571D01*
X97307142Y-41093571D01*
X97449999Y-41165000D01*
X97521428Y-41236428D01*
X97592857Y-41379285D01*
X97592857Y-41522142D01*
X97521428Y-41665000D01*
X97449999Y-41736428D01*
X97307142Y-41807857D01*
X96807142Y-41807857D01*
X98307142Y-42593571D02*
X98307142Y-41593571D01*
X98307142Y-41879285D02*
X98378571Y-41736428D01*
X98449999Y-41665000D01*
X98592857Y-41593571D01*
X98735714Y-41593571D01*
X99878571Y-42593571D02*
X99878571Y-41807857D01*
X99807142Y-41665000D01*
X99664285Y-41593571D01*
X99378571Y-41593571D01*
X99235714Y-41665000D01*
X99878571Y-42522142D02*
X99735714Y-42593571D01*
X99378571Y-42593571D01*
X99235714Y-42522142D01*
X99164285Y-42379285D01*
X99164285Y-42236428D01*
X99235714Y-42093571D01*
X99378571Y-42022142D01*
X99735714Y-42022142D01*
X99878571Y-41950714D01*
X100592857Y-42593571D02*
X100592857Y-41593571D01*
X100592857Y-41093571D02*
X100521428Y-41165000D01*
X100592857Y-41236428D01*
X100664285Y-41165000D01*
X100592857Y-41093571D01*
X100592857Y-41236428D01*
X102449999Y-42593571D02*
X102449999Y-41093571D01*
X102949999Y-42165000D01*
X103449999Y-41093571D01*
X103449999Y-42593571D01*
X104378571Y-42593571D02*
X104235714Y-42522142D01*
X104164285Y-42450714D01*
X104092857Y-42307857D01*
X104092857Y-41879285D01*
X104164285Y-41736428D01*
X104235714Y-41665000D01*
X104378571Y-41593571D01*
X104592857Y-41593571D01*
X104735714Y-41665000D01*
X104807142Y-41736428D01*
X104878571Y-41879285D01*
X104878571Y-42307857D01*
X104807142Y-42450714D01*
X104735714Y-42522142D01*
X104592857Y-42593571D01*
X104378571Y-42593571D01*
X105307142Y-41593571D02*
X105878571Y-41593571D01*
X105521428Y-41093571D02*
X105521428Y-42379285D01*
X105592857Y-42522142D01*
X105735714Y-42593571D01*
X105878571Y-42593571D01*
X106592857Y-42593571D02*
X106449999Y-42522142D01*
X106378571Y-42450714D01*
X106307142Y-42307857D01*
X106307142Y-41879285D01*
X106378571Y-41736428D01*
X106449999Y-41665000D01*
X106592857Y-41593571D01*
X106807142Y-41593571D01*
X106949999Y-41665000D01*
X107021428Y-41736428D01*
X107092857Y-41879285D01*
X107092857Y-42307857D01*
X107021428Y-42450714D01*
X106949999Y-42522142D01*
X106807142Y-42593571D01*
X106592857Y-42593571D01*
X107735714Y-42593571D02*
X107735714Y-41593571D01*
X107735714Y-41879285D02*
X107807142Y-41736428D01*
X107878571Y-41665000D01*
X108021428Y-41593571D01*
X108164285Y-41593571D01*
X109735714Y-42522142D02*
X109949999Y-42593571D01*
X110307142Y-42593571D01*
X110449999Y-42522142D01*
X110521428Y-42450714D01*
X110592857Y-42307857D01*
X110592857Y-42165000D01*
X110521428Y-42022142D01*
X110449999Y-41950714D01*
X110307142Y-41879285D01*
X110021428Y-41807857D01*
X109878571Y-41736428D01*
X109807142Y-41665000D01*
X109735714Y-41522142D01*
X109735714Y-41379285D01*
X109807142Y-41236428D01*
X109878571Y-41165000D01*
X110021428Y-41093571D01*
X110378571Y-41093571D01*
X110592857Y-41165000D01*
X111235714Y-41593571D02*
X111235714Y-43093571D01*
X111235714Y-41665000D02*
X111378571Y-41593571D01*
X111664285Y-41593571D01*
X111807142Y-41665000D01*
X111878571Y-41736428D01*
X111949999Y-41879285D01*
X111949999Y-42307857D01*
X111878571Y-42450714D01*
X111807142Y-42522142D01*
X111664285Y-42593571D01*
X111378571Y-42593571D01*
X111235714Y-42522142D01*
X113164285Y-42522142D02*
X113021428Y-42593571D01*
X112735714Y-42593571D01*
X112592857Y-42522142D01*
X112521428Y-42379285D01*
X112521428Y-41807857D01*
X112592857Y-41665000D01*
X112735714Y-41593571D01*
X113021428Y-41593571D01*
X113164285Y-41665000D01*
X113235714Y-41807857D01*
X113235714Y-41950714D01*
X112521428Y-42093571D01*
X114449999Y-42522142D02*
X114307142Y-42593571D01*
X114021428Y-42593571D01*
X113878571Y-42522142D01*
X113807142Y-42379285D01*
X113807142Y-41807857D01*
X113878571Y-41665000D01*
X114021428Y-41593571D01*
X114307142Y-41593571D01*
X114449999Y-41665000D01*
X114521428Y-41807857D01*
X114521428Y-41950714D01*
X113807142Y-42093571D01*
X115807142Y-42593571D02*
X115807142Y-41093571D01*
X115807142Y-42522142D02*
X115664285Y-42593571D01*
X115378571Y-42593571D01*
X115235714Y-42522142D01*
X115164285Y-42450714D01*
X115092857Y-42307857D01*
X115092857Y-41879285D01*
X115164285Y-41736428D01*
X115235714Y-41665000D01*
X115378571Y-41593571D01*
X115664285Y-41593571D01*
X115807142Y-41665000D01*
X118521428Y-42450714D02*
X118449999Y-42522142D01*
X118235714Y-42593571D01*
X118092857Y-42593571D01*
X117878571Y-42522142D01*
X117735714Y-42379285D01*
X117664285Y-42236428D01*
X117592857Y-41950714D01*
X117592857Y-41736428D01*
X117664285Y-41450714D01*
X117735714Y-41307857D01*
X117878571Y-41165000D01*
X118092857Y-41093571D01*
X118235714Y-41093571D01*
X118449999Y-41165000D01*
X118521428Y-41236428D01*
X119378571Y-42593571D02*
X119235714Y-42522142D01*
X119164285Y-42450714D01*
X119092857Y-42307857D01*
X119092857Y-41879285D01*
X119164285Y-41736428D01*
X119235714Y-41665000D01*
X119378571Y-41593571D01*
X119592857Y-41593571D01*
X119735714Y-41665000D01*
X119807142Y-41736428D01*
X119878571Y-41879285D01*
X119878571Y-42307857D01*
X119807142Y-42450714D01*
X119735714Y-42522142D01*
X119592857Y-42593571D01*
X119378571Y-42593571D01*
X120521428Y-41593571D02*
X120521428Y-42593571D01*
X120521428Y-41736428D02*
X120592857Y-41665000D01*
X120735714Y-41593571D01*
X120949999Y-41593571D01*
X121092857Y-41665000D01*
X121164285Y-41807857D01*
X121164285Y-42593571D01*
X121664285Y-41593571D02*
X122235714Y-41593571D01*
X121878571Y-41093571D02*
X121878571Y-42379285D01*
X121949999Y-42522142D01*
X122092857Y-42593571D01*
X122235714Y-42593571D01*
X122735714Y-42593571D02*
X122735714Y-41593571D01*
X122735714Y-41879285D02*
X122807142Y-41736428D01*
X122878571Y-41665000D01*
X123021428Y-41593571D01*
X123164285Y-41593571D01*
X123878571Y-42593571D02*
X123735714Y-42522142D01*
X123664285Y-42450714D01*
X123592857Y-42307857D01*
X123592857Y-41879285D01*
X123664285Y-41736428D01*
X123735714Y-41665000D01*
X123878571Y-41593571D01*
X124092857Y-41593571D01*
X124235714Y-41665000D01*
X124307142Y-41736428D01*
X124378571Y-41879285D01*
X124378571Y-42307857D01*
X124307142Y-42450714D01*
X124235714Y-42522142D01*
X124092857Y-42593571D01*
X123878571Y-42593571D01*
X125235714Y-42593571D02*
X125092857Y-42522142D01*
X125021428Y-42379285D01*
X125021428Y-41093571D01*
X126021428Y-42593571D02*
X125878571Y-42522142D01*
X125807142Y-42379285D01*
X125807142Y-41093571D01*
X127164285Y-42522142D02*
X127021428Y-42593571D01*
X126735714Y-42593571D01*
X126592857Y-42522142D01*
X126521428Y-42379285D01*
X126521428Y-41807857D01*
X126592857Y-41665000D01*
X126735714Y-41593571D01*
X127021428Y-41593571D01*
X127164285Y-41665000D01*
X127235714Y-41807857D01*
X127235714Y-41950714D01*
X126521428Y-42093571D01*
X127878571Y-42593571D02*
X127878571Y-41593571D01*
X127878571Y-41879285D02*
X127950000Y-41736428D01*
X128021428Y-41665000D01*
X128164285Y-41593571D01*
X128307142Y-41593571D01*
D11*
%TO.P,Q3,3*%
%TO.N,0*%
X88320000Y-88900000D03*
%TO.P,Q3,2*%
%TO.N,Net-(C5-Pad2)*%
X85780000Y-88900000D03*
D12*
%TO.P,Q3,1*%
%TO.N,Net-(Q3-Pad1)*%
X83240000Y-88900000D03*
%TD*%
D11*
%TO.P,IC2,3*%
%TO.N,+9V*%
X142930000Y-88900000D03*
%TO.P,IC2,2*%
%TO.N,0*%
X140390000Y-88900000D03*
D12*
%TO.P,IC2,1*%
%TO.N,Net-(Battery1-Pad1)*%
X137850000Y-88900000D03*
%TD*%
D13*
%TO.P,C3,1*%
%TO.N,0*%
X135310000Y-66040000D03*
D14*
%TO.P,C3,2*%
%TO.N,Net-(C3-Pad2)*%
X135310000Y-58540000D03*
%TD*%
D13*
%TO.P,C2,1*%
%TO.N,Net-(C2-Pad1)*%
X128960000Y-63500000D03*
D14*
%TO.P,C2,2*%
%TO.N,0*%
X128960000Y-71000000D03*
%TD*%
%TO.P,C1,2*%
%TO.N,0*%
X141660000Y-65920000D03*
D13*
%TO.P,C1,1*%
%TO.N,+9V*%
X141660000Y-58420000D03*
%TD*%
D14*
%TO.P,C5,2*%
%TO.N,Net-(C5-Pad2)*%
X114990000Y-96400000D03*
D13*
%TO.P,C5,1*%
%TO.N,Net-(Battery1-Pad1)*%
X114990000Y-88900000D03*
%TD*%
D15*
%TO.P,C4,1*%
%TO.N,+9V*%
X140390000Y-53340000D03*
D13*
%TO.P,C4,2*%
%TO.N,0*%
X135390000Y-53340000D03*
%TD*%
D14*
%TO.P,D1,2*%
%TO.N,Net-(D1-Pad2)*%
X98480000Y-81280000D03*
D15*
%TO.P,D1,1*%
%TO.N,Net-(C3-Pad2)*%
X98480000Y-73660000D03*
%TD*%
%TO.P,D2,1*%
%TO.N,Net-(D2-Pad1)*%
X95940000Y-62230000D03*
D14*
%TO.P,D2,2*%
%TO.N,Net-(C3-Pad2)*%
X95940000Y-69850000D03*
%TD*%
D16*
%TO.P,D3,1*%
%TO.N,Net-(Battery1-Pad1)*%
X104830000Y-80010000D03*
D17*
%TO.P,D3,2*%
%TO.N,Net-(C5-Pad2)*%
X114990000Y-80010000D03*
%TD*%
%TO.P,IC1,1*%
%TO.N,0*%
%TA.AperFunction,SMDPad,CuDef*%
G36*
G01*
X107730000Y-64285000D02*
X107730000Y-63985000D01*
G75*
G02*
X107880000Y-63835000I150000J0D01*
G01*
X109530000Y-63835000D01*
G75*
G02*
X109680000Y-63985000I0J-150000D01*
G01*
X109680000Y-64285000D01*
G75*
G02*
X109530000Y-64435000I-150000J0D01*
G01*
X107880000Y-64435000D01*
G75*
G02*
X107730000Y-64285000I0J150000D01*
G01*
G37*
%TD.AperFunction*%
%TO.P,IC1,2*%
%TO.N,Net-(C3-Pad2)*%
%TA.AperFunction,SMDPad,CuDef*%
G36*
G01*
X107730000Y-65555000D02*
X107730000Y-65255000D01*
G75*
G02*
X107880000Y-65105000I150000J0D01*
G01*
X109530000Y-65105000D01*
G75*
G02*
X109680000Y-65255000I0J-150000D01*
G01*
X109680000Y-65555000D01*
G75*
G02*
X109530000Y-65705000I-150000J0D01*
G01*
X107880000Y-65705000D01*
G75*
G02*
X107730000Y-65555000I0J150000D01*
G01*
G37*
%TD.AperFunction*%
%TO.P,IC1,3*%
%TO.N,Net-(IC1-Pad3)*%
%TA.AperFunction,SMDPad,CuDef*%
G36*
G01*
X107730000Y-66825000D02*
X107730000Y-66525000D01*
G75*
G02*
X107880000Y-66375000I150000J0D01*
G01*
X109530000Y-66375000D01*
G75*
G02*
X109680000Y-66525000I0J-150000D01*
G01*
X109680000Y-66825000D01*
G75*
G02*
X109530000Y-66975000I-150000J0D01*
G01*
X107880000Y-66975000D01*
G75*
G02*
X107730000Y-66825000I0J150000D01*
G01*
G37*
%TD.AperFunction*%
%TO.P,IC1,4*%
%TO.N,+9V*%
%TA.AperFunction,SMDPad,CuDef*%
G36*
G01*
X107730000Y-68095000D02*
X107730000Y-67795000D01*
G75*
G02*
X107880000Y-67645000I150000J0D01*
G01*
X109530000Y-67645000D01*
G75*
G02*
X109680000Y-67795000I0J-150000D01*
G01*
X109680000Y-68095000D01*
G75*
G02*
X109530000Y-68245000I-150000J0D01*
G01*
X107880000Y-68245000D01*
G75*
G02*
X107730000Y-68095000I0J150000D01*
G01*
G37*
%TD.AperFunction*%
%TO.P,IC1,5*%
%TO.N,Net-(C2-Pad1)*%
%TA.AperFunction,SMDPad,CuDef*%
G36*
G01*
X112680000Y-68095000D02*
X112680000Y-67795000D01*
G75*
G02*
X112830000Y-67645000I150000J0D01*
G01*
X114480000Y-67645000D01*
G75*
G02*
X114630000Y-67795000I0J-150000D01*
G01*
X114630000Y-68095000D01*
G75*
G02*
X114480000Y-68245000I-150000J0D01*
G01*
X112830000Y-68245000D01*
G75*
G02*
X112680000Y-68095000I0J150000D01*
G01*
G37*
%TD.AperFunction*%
%TO.P,IC1,6*%
%TO.N,Net-(C3-Pad2)*%
%TA.AperFunction,SMDPad,CuDef*%
G36*
G01*
X112680000Y-66825000D02*
X112680000Y-66525000D01*
G75*
G02*
X112830000Y-66375000I150000J0D01*
G01*
X114480000Y-66375000D01*
G75*
G02*
X114630000Y-66525000I0J-150000D01*
G01*
X114630000Y-66825000D01*
G75*
G02*
X114480000Y-66975000I-150000J0D01*
G01*
X112830000Y-66975000D01*
G75*
G02*
X112680000Y-66825000I0J150000D01*
G01*
G37*
%TD.AperFunction*%
%TO.P,IC1,7*%
%TO.N,Net-(External_POT1-Pad3)*%
%TA.AperFunction,SMDPad,CuDef*%
G36*
G01*
X112680000Y-65555000D02*
X112680000Y-65255000D01*
G75*
G02*
X112830000Y-65105000I150000J0D01*
G01*
X114480000Y-65105000D01*
G75*
G02*
X114630000Y-65255000I0J-150000D01*
G01*
X114630000Y-65555000D01*
G75*
G02*
X114480000Y-65705000I-150000J0D01*
G01*
X112830000Y-65705000D01*
G75*
G02*
X112680000Y-65555000I0J150000D01*
G01*
G37*
%TD.AperFunction*%
%TO.P,IC1,8*%
%TO.N,+9V*%
%TA.AperFunction,SMDPad,CuDef*%
G36*
G01*
X112680000Y-64285000D02*
X112680000Y-63985000D01*
G75*
G02*
X112830000Y-63835000I150000J0D01*
G01*
X114480000Y-63835000D01*
G75*
G02*
X114630000Y-63985000I0J-150000D01*
G01*
X114630000Y-64285000D01*
G75*
G02*
X114480000Y-64435000I-150000J0D01*
G01*
X112830000Y-64435000D01*
G75*
G02*
X112680000Y-64285000I0J150000D01*
G01*
G37*
%TD.AperFunction*%
%TD*%
D18*
%TO.P,Q1,2*%
%TO.N,Net-(Q1-Pad2)*%
X104830000Y-53340000D03*
%TO.P,Q1,3*%
%TO.N,+9V*%
X103560000Y-53340000D03*
D19*
%TO.P,Q1,1*%
%TO.N,Net-(Q1-Pad1)*%
X106100000Y-53340000D03*
%TD*%
D20*
%TO.P,Q2,1*%
%TO.N,Net-(Q1-Pad1)*%
X127690000Y-52705000D03*
D21*
%TO.P,Q2,3*%
%TO.N,0*%
X127690000Y-55245000D03*
%TO.P,Q2,2*%
%TO.N,Net-(Q1-Pad2)*%
X127690000Y-53975000D03*
%TD*%
D13*
%TO.P,R2,1*%
%TO.N,Net-(External_POT1-Pad3)*%
X92130000Y-45720000D03*
D14*
%TO.P,R2,2*%
%TO.N,+9V*%
X99750000Y-45720000D03*
%TD*%
%TO.P,R3,2*%
%TO.N,Net-(IC1-Pad3)*%
X112450000Y-45720000D03*
D13*
%TO.P,R3,1*%
%TO.N,Net-(Q1-Pad2)*%
X104830000Y-45720000D03*
%TD*%
%TO.P,R4,1*%
%TO.N,Net-(Q1-Pad1)*%
X120070000Y-45720000D03*
D14*
%TO.P,R4,2*%
%TO.N,Net-(Q3-Pad1)*%
X127690000Y-45720000D03*
%TD*%
%TO.P,R5,2*%
%TO.N,0*%
X140390000Y-45720000D03*
D13*
%TO.P,R5,1*%
%TO.N,Net-(Q3-Pad1)*%
X132770000Y-45720000D03*
%TD*%
D22*
%TO.P,R1,1*%
%TO.N,Net-(D1-Pad2)*%
X98480000Y-53340000D03*
%TO.P,R1,2*%
%TO.N,Net-(External_POT1-Pad3)*%
X95940000Y-53340000D03*
%TO.P,R1,3*%
%TO.N,Net-(D2-Pad1)*%
X93400000Y-53340000D03*
%TD*%
D23*
%TO.P,Battery1,2*%
%TO.N,0*%
X132770000Y-97790000D03*
D24*
%TO.P,Battery1,1*%
%TO.N,Net-(Battery1-Pad1)*%
X127690000Y-97790000D03*
%TD*%
%TO.P,External_POT1,1*%
%TO.N,Net-(D1-Pad2)*%
X83240000Y-49530000D03*
D23*
%TO.P,External_POT1,2*%
%TO.N,Net-(D2-Pad1)*%
X83240000Y-54610000D03*
%TO.P,External_POT1,3*%
%TO.N,Net-(External_POT1-Pad3)*%
X83240000Y-59690000D03*
%TD*%
D24*
%TO.P,Motor1,1*%
%TO.N,Net-(Battery1-Pad1)*%
X93400000Y-97790000D03*
D23*
%TO.P,Motor1,2*%
%TO.N,Net-(C5-Pad2)*%
X98480000Y-97790000D03*
%TD*%
D25*
%TO.N,0*%
X78799601Y-57780399D02*
X76890000Y-59690000D01*
X84156609Y-57780399D02*
X78799601Y-57780399D01*
X90511210Y-64135000D02*
X84156609Y-57780399D01*
X108705000Y-64135000D02*
X90511210Y-64135000D01*
X86710390Y-90509610D02*
X88320000Y-88900000D01*
X81799828Y-90509610D02*
X86710390Y-90509610D01*
X76890000Y-85599782D02*
X81799828Y-90509610D01*
X76890000Y-59690000D02*
X76890000Y-85599782D01*
%TO.N,Net-(C2-Pad1)*%
X113655000Y-67945000D02*
X121975000Y-67945000D01*
X126420000Y-63500000D02*
X128960000Y-63500000D01*
X121975000Y-67945000D02*
X126420000Y-63500000D01*
%TO.N,+9V*%
X140390000Y-56805998D02*
X140390000Y-53340000D01*
X140217999Y-56977999D02*
X140390000Y-56805998D01*
X141660000Y-58420000D02*
X140217999Y-56977999D01*
X103542990Y-54627010D02*
X109875980Y-60960000D01*
X112660220Y-64135000D02*
X113655000Y-64135000D01*
X111917990Y-64877230D02*
X112660220Y-64135000D01*
X111917990Y-65873864D02*
X111917990Y-64877230D01*
X109846854Y-67945000D02*
X111917990Y-65873864D01*
X108705000Y-67945000D02*
X109846854Y-67945000D01*
X113655000Y-62295000D02*
X113655000Y-64135000D01*
X112320000Y-60960000D02*
X113655000Y-62295000D01*
X109875980Y-60960000D02*
X112320000Y-60960000D01*
X114990000Y-60960000D02*
X113655000Y-62295000D01*
X116260000Y-60960000D02*
X114990000Y-60960000D01*
X120242001Y-56977999D02*
X116260000Y-60960000D01*
X120242001Y-56977999D02*
X129132001Y-56977999D01*
X129132001Y-56977999D02*
X131500000Y-54610000D01*
X138827999Y-54902001D02*
X140390000Y-53340000D01*
X134640239Y-54902001D02*
X138827999Y-54902001D01*
X134348238Y-54610000D02*
X134640239Y-54902001D01*
X131500000Y-54610000D02*
X134348238Y-54610000D01*
%TO.N,Net-(IC1-Pad3)*%
X110289610Y-66065390D02*
X109680000Y-66675000D01*
X110289610Y-63181465D02*
X110289610Y-66065390D01*
X102272990Y-55164845D02*
X110289610Y-63181465D01*
X102272990Y-52581904D02*
X102272990Y-55164845D01*
X109134894Y-45720000D02*
X102272990Y-52581904D01*
X109680000Y-66675000D02*
X108705000Y-66675000D01*
X112450000Y-45720000D02*
X109134894Y-45720000D01*
%TO.N,Net-(External_POT1-Pad3)*%
X135986609Y-57130399D02*
X136719601Y-57863391D01*
X136719601Y-57863391D02*
X136719601Y-59216609D01*
X134633391Y-57130399D02*
X135986609Y-57130399D01*
X133035517Y-58728273D02*
X134633391Y-57130399D01*
X120866609Y-75069601D02*
X97349601Y-75069601D01*
X124841727Y-58728273D02*
X133035517Y-58728273D01*
X118165000Y-65405000D02*
X124841727Y-58728273D01*
X136719601Y-59216609D02*
X120866609Y-75069601D01*
X113655000Y-65405000D02*
X118165000Y-65405000D01*
X83240000Y-60960000D02*
X83240000Y-59690000D01*
X93174820Y-64998610D02*
X88548610Y-64998610D01*
X97349601Y-69173391D02*
X93174820Y-64998610D01*
X97349601Y-70526609D02*
X97349601Y-69173391D01*
X96983105Y-70893105D02*
X97349601Y-70526609D01*
X96983105Y-74703105D02*
X96983105Y-70893105D01*
X88548610Y-64998610D02*
X83240000Y-59690000D01*
X97349601Y-75069601D02*
X96983105Y-74703105D01*
%TO.N,Net-(C3-Pad2)*%
X110543738Y-69007010D02*
X112875748Y-66675000D01*
X107502230Y-69007010D02*
X110543738Y-69007010D01*
X106967990Y-66362758D02*
X106967990Y-68472770D01*
X112875748Y-66675000D02*
X113655000Y-66675000D01*
X114630000Y-66675000D02*
X113655000Y-66675000D01*
X106967990Y-68472770D02*
X107222610Y-68727390D01*
X107222610Y-68727390D02*
X107502230Y-69007010D01*
X101780760Y-73660000D02*
X106967990Y-68472770D01*
X98480000Y-73660000D02*
X101780760Y-73660000D01*
X113655000Y-66675000D02*
X122023672Y-66675000D01*
X126062282Y-62636390D02*
X126062282Y-62587718D01*
X122023672Y-66675000D02*
X126062282Y-62636390D01*
X131759601Y-62090399D02*
X135310000Y-58540000D01*
X126559601Y-62090399D02*
X131759601Y-62090399D01*
X126062282Y-62587718D02*
X126559601Y-62090399D01*
X107925748Y-65405000D02*
X108705000Y-65405000D01*
X106967990Y-66362758D02*
X107925748Y-65405000D01*
%TD*%
M02*
