%TF.GenerationSoftware,KiCad,Pcbnew,(5.1.8)-1*%
%TF.CreationDate,2021-07-02T06:17:21+02:00*%
%TF.ProjectId,Assignment2,41737369-676e-46d6-956e-74322e6b6963,rev?*%
%TF.SameCoordinates,Original*%
%TF.FileFunction,Copper,L2,Bot*%
%TF.FilePolarity,Positive*%
%FSLAX46Y46*%
G04 Gerber Fmt 4.6, Leading zero omitted, Abs format (unit mm)*
G04 Created by KiCad (PCBNEW (5.1.8)-1) date 2021-07-02 06:17:21*
%MOMM*%
%LPD*%
G01*
G04 APERTURE LIST*
%TA.AperFunction,ComponentPad*%
%ADD10O,1.905000X2.000000*%
%TD*%
%TA.AperFunction,ComponentPad*%
%ADD11R,1.905000X2.000000*%
%TD*%
%TA.AperFunction,ComponentPad*%
%ADD12C,1.600000*%
%TD*%
%TA.AperFunction,ComponentPad*%
%ADD13O,1.600000X1.600000*%
%TD*%
%TA.AperFunction,ComponentPad*%
%ADD14R,1.600000X1.600000*%
%TD*%
%TA.AperFunction,ComponentPad*%
%ADD15R,2.200000X2.200000*%
%TD*%
%TA.AperFunction,ComponentPad*%
%ADD16O,2.200000X2.200000*%
%TD*%
%TA.AperFunction,ComponentPad*%
%ADD17O,1.050000X1.500000*%
%TD*%
%TA.AperFunction,ComponentPad*%
%ADD18R,1.050000X1.500000*%
%TD*%
%TA.AperFunction,ComponentPad*%
%ADD19R,1.500000X1.050000*%
%TD*%
%TA.AperFunction,ComponentPad*%
%ADD20O,1.500000X1.050000*%
%TD*%
%TA.AperFunction,ComponentPad*%
%ADD21C,1.440000*%
%TD*%
%TA.AperFunction,ComponentPad*%
%ADD22C,2.600000*%
%TD*%
%TA.AperFunction,ComponentPad*%
%ADD23R,2.600000X2.600000*%
%TD*%
%TA.AperFunction,Conductor*%
%ADD24C,0.508000*%
%TD*%
%TA.AperFunction,Conductor*%
%ADD25C,3.048000*%
%TD*%
%TA.AperFunction,Conductor*%
%ADD26C,0.250000*%
%TD*%
G04 APERTURE END LIST*
D10*
%TO.P,Q3,3*%
%TO.N,0*%
X88320000Y-88900000D03*
%TO.P,Q3,2*%
%TO.N,Net-(C5-Pad2)*%
X85780000Y-88900000D03*
D11*
%TO.P,Q3,1*%
%TO.N,Net-(Q3-Pad1)*%
X83240000Y-88900000D03*
%TD*%
D10*
%TO.P,IC2,3*%
%TO.N,+9V*%
X142930000Y-88900000D03*
%TO.P,IC2,2*%
%TO.N,0*%
X140390000Y-88900000D03*
D11*
%TO.P,IC2,1*%
%TO.N,Net-(Battery1-Pad1)*%
X137850000Y-88900000D03*
%TD*%
D12*
%TO.P,C3,1*%
%TO.N,0*%
X135310000Y-66040000D03*
D13*
%TO.P,C3,2*%
%TO.N,Net-(C3-Pad2)*%
X135310000Y-58540000D03*
%TD*%
D12*
%TO.P,C2,1*%
%TO.N,Net-(C2-Pad1)*%
X128960000Y-63500000D03*
D13*
%TO.P,C2,2*%
%TO.N,0*%
X128960000Y-71000000D03*
%TD*%
%TO.P,C1,2*%
%TO.N,0*%
X141660000Y-65920000D03*
D12*
%TO.P,C1,1*%
%TO.N,+9V*%
X141660000Y-58420000D03*
%TD*%
D13*
%TO.P,C5,2*%
%TO.N,Net-(C5-Pad2)*%
X114990000Y-96400000D03*
D12*
%TO.P,C5,1*%
%TO.N,Net-(Battery1-Pad1)*%
X114990000Y-88900000D03*
%TD*%
D14*
%TO.P,C4,1*%
%TO.N,+9V*%
X140390000Y-53340000D03*
D12*
%TO.P,C4,2*%
%TO.N,0*%
X135390000Y-53340000D03*
%TD*%
D13*
%TO.P,D1,2*%
%TO.N,Net-(D1-Pad2)*%
X98480000Y-81280000D03*
D14*
%TO.P,D1,1*%
%TO.N,Net-(C3-Pad2)*%
X98480000Y-73660000D03*
%TD*%
%TO.P,D2,1*%
%TO.N,Net-(D2-Pad1)*%
X95940000Y-62230000D03*
D13*
%TO.P,D2,2*%
%TO.N,Net-(C3-Pad2)*%
X95940000Y-69850000D03*
%TD*%
D15*
%TO.P,D3,1*%
%TO.N,Net-(Battery1-Pad1)*%
X104830000Y-80010000D03*
D16*
%TO.P,D3,2*%
%TO.N,Net-(C5-Pad2)*%
X114990000Y-80010000D03*
%TD*%
D17*
%TO.P,Q1,2*%
%TO.N,Net-(Q1-Pad2)*%
X104830000Y-53340000D03*
%TO.P,Q1,3*%
%TO.N,+9V*%
X103560000Y-53340000D03*
D18*
%TO.P,Q1,1*%
%TO.N,Net-(Q1-Pad1)*%
X106100000Y-53340000D03*
%TD*%
D19*
%TO.P,Q2,1*%
%TO.N,Net-(Q1-Pad1)*%
X127690000Y-52705000D03*
D20*
%TO.P,Q2,3*%
%TO.N,0*%
X127690000Y-55245000D03*
%TO.P,Q2,2*%
%TO.N,Net-(Q1-Pad2)*%
X127690000Y-53975000D03*
%TD*%
D12*
%TO.P,R2,1*%
%TO.N,Net-(External_POT1-Pad3)*%
X92130000Y-45720000D03*
D13*
%TO.P,R2,2*%
%TO.N,+9V*%
X99750000Y-45720000D03*
%TD*%
%TO.P,R3,2*%
%TO.N,Net-(IC1-Pad3)*%
X112450000Y-45720000D03*
D12*
%TO.P,R3,1*%
%TO.N,Net-(Q1-Pad2)*%
X104830000Y-45720000D03*
%TD*%
%TO.P,R4,1*%
%TO.N,Net-(Q1-Pad1)*%
X120070000Y-45720000D03*
D13*
%TO.P,R4,2*%
%TO.N,Net-(Q3-Pad1)*%
X127690000Y-45720000D03*
%TD*%
%TO.P,R5,2*%
%TO.N,0*%
X140390000Y-45720000D03*
D12*
%TO.P,R5,1*%
%TO.N,Net-(Q3-Pad1)*%
X132770000Y-45720000D03*
%TD*%
D21*
%TO.P,R1,1*%
%TO.N,Net-(D1-Pad2)*%
X98480000Y-53340000D03*
%TO.P,R1,2*%
%TO.N,Net-(External_POT1-Pad3)*%
X95940000Y-53340000D03*
%TO.P,R1,3*%
%TO.N,Net-(D2-Pad1)*%
X93400000Y-53340000D03*
%TD*%
D22*
%TO.P,Battery1,2*%
%TO.N,0*%
X132770000Y-97790000D03*
D23*
%TO.P,Battery1,1*%
%TO.N,Net-(Battery1-Pad1)*%
X127690000Y-97790000D03*
%TD*%
%TO.P,External_POT1,1*%
%TO.N,Net-(D1-Pad2)*%
X83240000Y-49530000D03*
D22*
%TO.P,External_POT1,2*%
%TO.N,Net-(D2-Pad1)*%
X83240000Y-54610000D03*
%TO.P,External_POT1,3*%
%TO.N,Net-(External_POT1-Pad3)*%
X83240000Y-59690000D03*
%TD*%
D23*
%TO.P,Motor1,1*%
%TO.N,Net-(Battery1-Pad1)*%
X93400000Y-97790000D03*
D22*
%TO.P,Motor1,2*%
%TO.N,Net-(C5-Pad2)*%
X98480000Y-97790000D03*
%TD*%
D24*
%TO.N,0*%
X132770000Y-97790000D02*
X136580000Y-97790000D01*
X140390000Y-93980000D02*
X140390000Y-88900000D01*
X136580000Y-97790000D02*
X140390000Y-93980000D01*
X135430000Y-65920000D02*
X135310000Y-66040000D01*
X141660000Y-65920000D02*
X135430000Y-65920000D01*
X135310000Y-66040000D02*
X135310000Y-67310000D01*
X131620000Y-71000000D02*
X128960000Y-71000000D01*
X135310000Y-67310000D02*
X131620000Y-71000000D01*
X135310000Y-67310000D02*
X135310000Y-76200000D01*
X135310000Y-76200000D02*
X140390000Y-81280000D01*
X140390000Y-81280000D02*
X140390000Y-88900000D01*
X133485000Y-55245000D02*
X127690000Y-55245000D01*
X135390000Y-53340000D02*
X133485000Y-55245000D01*
X135390000Y-53340000D02*
X140390000Y-48340000D01*
X140390000Y-48340000D02*
X140390000Y-45720000D01*
X101426390Y-78382282D02*
X103608672Y-76200000D01*
X101426390Y-80419820D02*
X101426390Y-78382282D01*
X92946210Y-88900000D02*
X101426390Y-80419820D01*
X88320000Y-88900000D02*
X92946210Y-88900000D01*
X123760000Y-76200000D02*
X128960000Y-71000000D01*
X103608672Y-76200000D02*
X123760000Y-76200000D01*
X135310000Y-66040000D02*
X137850000Y-63500000D01*
X137850000Y-55800000D02*
X135390000Y-53340000D01*
X137850000Y-63500000D02*
X137850000Y-55800000D01*
%TO.N,+9V*%
X140390000Y-57150000D02*
X141660000Y-58420000D01*
X140390000Y-53340000D02*
X140390000Y-57150000D01*
X141660000Y-58420000D02*
X142930000Y-58420000D01*
X143222001Y-88607999D02*
X142930000Y-88900000D01*
X143222001Y-58712001D02*
X143222001Y-88607999D01*
X142930000Y-58420000D02*
X143222001Y-58712001D01*
X99750000Y-45720000D02*
X99750000Y-48260000D01*
X103542990Y-52052990D02*
X103542990Y-53340000D01*
X99750000Y-48260000D02*
X103542990Y-52052990D01*
%TO.N,Net-(D1-Pad2)*%
X94670000Y-49530000D02*
X98480000Y-53340000D01*
X94670000Y-43180000D02*
X94670000Y-49530000D01*
X93400000Y-41910000D02*
X94670000Y-43180000D01*
X89590000Y-41910000D02*
X93400000Y-41910000D01*
X83240000Y-48260000D02*
X89590000Y-41910000D01*
X83240000Y-49530000D02*
X83240000Y-48260000D01*
X98480000Y-81280000D02*
X98480000Y-78740000D01*
X98480000Y-78740000D02*
X101020000Y-76200000D01*
X101020000Y-76200000D02*
X101020000Y-60960000D01*
X101020000Y-60960000D02*
X98480000Y-58420000D01*
X98480000Y-58420000D02*
X98480000Y-53340000D01*
%TO.N,Net-(D2-Pad1)*%
X95940000Y-62230000D02*
X95940000Y-60960000D01*
X95940000Y-60960000D02*
X93400000Y-58420000D01*
X93400000Y-58420000D02*
X93400000Y-53340000D01*
X93400000Y-53340000D02*
X89590000Y-53340000D01*
X89590000Y-53340000D02*
X88320000Y-54610000D01*
X88320000Y-54610000D02*
X83240000Y-54610000D01*
%TO.N,Net-(Q1-Pad2)*%
X104847010Y-52581904D02*
X104830000Y-52564894D01*
X104847010Y-54627010D02*
X104847010Y-52581904D01*
X104830000Y-52564894D02*
X104830000Y-45720000D01*
X106100000Y-55880000D02*
X104847010Y-54627010D01*
X107370000Y-55880000D02*
X106100000Y-55880000D01*
X109275000Y-53975000D02*
X107370000Y-55880000D01*
X127690000Y-53975000D02*
X109275000Y-53975000D01*
%TO.N,Net-(Q1-Pad1)*%
X106100000Y-53340000D02*
X106100000Y-48260000D01*
X106100000Y-48260000D02*
X111180000Y-43180000D01*
X117530000Y-43180000D02*
X120070000Y-45720000D01*
X111180000Y-43180000D02*
X117530000Y-43180000D01*
X120070000Y-45720000D02*
X122610000Y-45720000D01*
X127690000Y-50800000D02*
X127690000Y-52705000D01*
X122610000Y-45720000D02*
X127690000Y-50800000D01*
X106735000Y-52705000D02*
X127690000Y-52705000D01*
X106100000Y-53340000D02*
X106735000Y-52705000D01*
%TO.N,Net-(Q3-Pad1)*%
X127690000Y-45720000D02*
X132770000Y-45720000D01*
X83240000Y-88900000D02*
X83240000Y-87630000D01*
X83240000Y-87630000D02*
X76890000Y-81280000D01*
X76890000Y-52182718D02*
X88432718Y-40640000D01*
X76890000Y-81280000D02*
X76890000Y-52182718D01*
X88432718Y-40640000D02*
X126420000Y-40640000D01*
X127690000Y-41910000D02*
X127690000Y-45720000D01*
X126420000Y-40640000D02*
X127690000Y-41910000D01*
%TO.N,Net-(Battery1-Pad1)*%
X93400000Y-97790000D02*
X93400000Y-93980000D01*
X93400000Y-93980000D02*
X98480000Y-88900000D01*
X101020000Y-88900000D02*
X114990000Y-88900000D01*
X98480000Y-88900000D02*
X101020000Y-88900000D01*
X127690000Y-97790000D02*
X130230000Y-95250000D01*
X130230000Y-95250000D02*
X135310000Y-95250000D01*
X135310000Y-95250000D02*
X137850000Y-92710000D01*
X137850000Y-92710000D02*
X137850000Y-88900000D01*
D25*
X123880000Y-97790000D02*
X114990000Y-88900000D01*
X127690000Y-97790000D02*
X123880000Y-97790000D01*
X127690000Y-97790000D02*
X131022001Y-94457999D01*
X131022001Y-94457999D02*
X136102001Y-94457999D01*
X137405490Y-90183724D02*
X137405490Y-88900000D01*
X137850000Y-90628234D02*
X137405490Y-90183724D01*
X137850000Y-92710000D02*
X137850000Y-90628234D01*
X136102001Y-94457999D02*
X137850000Y-92710000D01*
X93400000Y-95776052D02*
X93400000Y-97790000D01*
X100276052Y-88900000D02*
X93400000Y-95776052D01*
X114990000Y-88900000D02*
X100276052Y-88900000D01*
X104830000Y-80010000D02*
X104830000Y-85090000D01*
X101020000Y-88900000D02*
X100276052Y-88900000D01*
X104830000Y-85090000D02*
X101020000Y-88900000D01*
D24*
%TO.N,Net-(External_POT1-Pad3)*%
X83240000Y-59690000D02*
X83240000Y-62230000D01*
X83240000Y-62230000D02*
X85780000Y-64770000D01*
X85780000Y-64770000D02*
X97210000Y-64770000D01*
X97210000Y-64770000D02*
X98480000Y-63500000D01*
X98480000Y-63500000D02*
X98480000Y-60960000D01*
X95940000Y-58420000D02*
X95940000Y-53340000D01*
X98480000Y-60960000D02*
X95940000Y-58420000D01*
X95940000Y-53340000D02*
X95940000Y-52070000D01*
X95940000Y-52070000D02*
X92130000Y-48260000D01*
X92130000Y-48260000D02*
X92130000Y-45720000D01*
D26*
%TO.N,Net-(C3-Pad2)*%
X98480000Y-73660000D02*
X97210000Y-73660000D01*
X95940000Y-72390000D02*
X95940000Y-69850000D01*
X97210000Y-73660000D02*
X95940000Y-72390000D01*
D24*
%TO.N,Net-(C5-Pad2)*%
X93400000Y-102870000D02*
X90860000Y-102870000D01*
X90860000Y-102870000D02*
X85780000Y-97790000D01*
X85780000Y-93980000D02*
X85780000Y-88900000D01*
X85780000Y-97790000D02*
X85780000Y-93980000D01*
X101020000Y-85138672D02*
X92178672Y-93980000D01*
X92178672Y-93980000D02*
X85780000Y-93980000D01*
X101020000Y-85090000D02*
X102290000Y-83820000D01*
X101020000Y-85138672D02*
X101020000Y-85090000D01*
X114990000Y-80010000D02*
X112450000Y-77470000D01*
X102290000Y-83820000D02*
X102290000Y-78740000D01*
X102290000Y-78740000D02*
X103560000Y-77470000D01*
X103560000Y-77470000D02*
X104830000Y-77470000D01*
X104830000Y-77470000D02*
X104072718Y-77470000D01*
X112450000Y-77470000D02*
X104830000Y-77470000D01*
D25*
X113600000Y-97790000D02*
X114990000Y-96400000D01*
X98480000Y-97790000D02*
X113600000Y-97790000D01*
D24*
X98480000Y-97790000D02*
X93400000Y-102870000D01*
%TD*%
M02*
