M48
; DRILL file {KiCad (5.1.8)-1} date 07/02/21 06:18:33
; FORMAT={-:-/ absolute / inch / decimal}
; #@! TF.CreationDate,2021-07-02T06:18:33+02:00
; #@! TF.GenerationSoftware,Kicad,Pcbnew,(5.1.8)-1
; #@! TF.FileFunction,Plated,1,2,PTH
FMAT,2
INCH
T1C0.0295
T2C0.0315
T3C0.0433
T4C0.0512
%
G90
G05
T1
X4.0772Y-2.1
X4.1272Y-2.1
X4.1772Y-2.1
X5.0272Y-2.075
X5.0272Y-2.125
X5.0272Y-2.175
T2
X4.7272Y-1.8
X5.0272Y-1.8
X5.5772Y-2.3
X5.5772Y-2.5953
X3.6272Y-1.8
X3.9272Y-1.8
X5.3272Y-2.3047
X5.3272Y-2.6
X5.2272Y-1.8
X5.5272Y-1.8
X3.8772Y-2.9
X3.8772Y-3.2
X5.0772Y-2.5
X5.0772Y-2.7953
X4.1272Y-1.8
X4.4272Y-1.8
X5.3303Y-2.1
X5.5272Y-2.1
X3.6772Y-2.1
X3.7772Y-2.1
X3.8772Y-2.1
X4.5272Y-3.5
X4.5272Y-3.7953
X3.7772Y-2.45
X3.7772Y-2.75
T3
X4.1272Y-3.15
X4.5272Y-3.15
X3.2772Y-3.5
X3.3772Y-3.5
X3.4772Y-3.5
X5.4272Y-3.5
X5.5272Y-3.5
X5.6272Y-3.5
T4
X3.6772Y-3.85
X3.8772Y-3.85
X5.0272Y-3.85
X5.2272Y-3.85
X3.2772Y-1.95
X3.2772Y-2.15
X3.2772Y-2.35
T0
M30
