%TF.GenerationSoftware,KiCad,Pcbnew,(5.1.10)-1*%
%TF.CreationDate,2021-11-21T12:30:28+02:00*%
%TF.ProjectId,217243401_Crawler_2021,32313732-3433-4343-9031-5f437261776c,rev?*%
%TF.SameCoordinates,Original*%
%TF.FileFunction,Legend,Top*%
%TF.FilePolarity,Positive*%
%FSLAX46Y46*%
G04 Gerber Fmt 4.6, Leading zero omitted, Abs format (unit mm)*
G04 Created by KiCad (PCBNEW (5.1.10)-1) date 2021-11-21 12:30:28*
%MOMM*%
%LPD*%
G01*
G04 APERTURE LIST*
%TA.AperFunction,Profile*%
%ADD10C,0.050000*%
%TD*%
%ADD11C,0.120000*%
%ADD12C,0.100000*%
%ADD13C,0.150000*%
G04 APERTURE END LIST*
D10*
X76835000Y-46355000D02*
X171835000Y-46355000D01*
X73025000Y-150165000D02*
X73025000Y-50165000D01*
X171835000Y-153975000D02*
X76835000Y-153975000D01*
X175645000Y-50165000D02*
X175645000Y-150165000D01*
X171835000Y-46355000D02*
G75*
G02*
X175645000Y-50165000I0J-3810000D01*
G01*
X175645000Y-150165000D02*
G75*
G02*
X171835000Y-153975000I-3810000J0D01*
G01*
X76835000Y-153975000D02*
G75*
G02*
X73025000Y-150165000I0J3810000D01*
G01*
X73025000Y-50165000D02*
G75*
G02*
X76835000Y-46355000I3810000J0D01*
G01*
D11*
%TO.C,C1*%
X107496000Y-72456646D02*
X108496000Y-72456646D01*
X107996000Y-72956646D02*
X107996000Y-71956646D01*
X110272000Y-62396000D02*
X111470000Y-62396000D01*
X110009000Y-62436000D02*
X111733000Y-62436000D01*
X109809000Y-62476000D02*
X111933000Y-62476000D01*
X109641000Y-62516000D02*
X112101000Y-62516000D01*
X109493000Y-62556000D02*
X112249000Y-62556000D01*
X109361000Y-62596000D02*
X112381000Y-62596000D01*
X109241000Y-62636000D02*
X112501000Y-62636000D01*
X109129000Y-62676000D02*
X112613000Y-62676000D01*
X109025000Y-62716000D02*
X112717000Y-62716000D01*
X108927000Y-62756000D02*
X112815000Y-62756000D01*
X108834000Y-62796000D02*
X112908000Y-62796000D01*
X108746000Y-62836000D02*
X112996000Y-62836000D01*
X108662000Y-62876000D02*
X113080000Y-62876000D01*
X108582000Y-62916000D02*
X113160000Y-62916000D01*
X108506000Y-62956000D02*
X113236000Y-62956000D01*
X108432000Y-62996000D02*
X113310000Y-62996000D01*
X108361000Y-63036000D02*
X113381000Y-63036000D01*
X108292000Y-63076000D02*
X113450000Y-63076000D01*
X108226000Y-63116000D02*
X113516000Y-63116000D01*
X108162000Y-63156000D02*
X113580000Y-63156000D01*
X108101000Y-63196000D02*
X113641000Y-63196000D01*
X108041000Y-63236000D02*
X113701000Y-63236000D01*
X107982000Y-63276000D02*
X113760000Y-63276000D01*
X107926000Y-63316000D02*
X113816000Y-63316000D01*
X107871000Y-63356000D02*
X113871000Y-63356000D01*
X107817000Y-63396000D02*
X113925000Y-63396000D01*
X107765000Y-63436000D02*
X113977000Y-63436000D01*
X107715000Y-63476000D02*
X114027000Y-63476000D01*
X107665000Y-63516000D02*
X114077000Y-63516000D01*
X107617000Y-63556000D02*
X114125000Y-63556000D01*
X107570000Y-63596000D02*
X114172000Y-63596000D01*
X107524000Y-63636000D02*
X114218000Y-63636000D01*
X107479000Y-63676000D02*
X114263000Y-63676000D01*
X107435000Y-63716000D02*
X114307000Y-63716000D01*
X112112000Y-63756000D02*
X114349000Y-63756000D01*
X107393000Y-63756000D02*
X109630000Y-63756000D01*
X112112000Y-63796000D02*
X114391000Y-63796000D01*
X107351000Y-63796000D02*
X109630000Y-63796000D01*
X112112000Y-63836000D02*
X114432000Y-63836000D01*
X107310000Y-63836000D02*
X109630000Y-63836000D01*
X112112000Y-63876000D02*
X114472000Y-63876000D01*
X107270000Y-63876000D02*
X109630000Y-63876000D01*
X112112000Y-63916000D02*
X114511000Y-63916000D01*
X107231000Y-63916000D02*
X109630000Y-63916000D01*
X112112000Y-63956000D02*
X114550000Y-63956000D01*
X107192000Y-63956000D02*
X109630000Y-63956000D01*
X112112000Y-63996000D02*
X114587000Y-63996000D01*
X107155000Y-63996000D02*
X109630000Y-63996000D01*
X112112000Y-64036000D02*
X114624000Y-64036000D01*
X107118000Y-64036000D02*
X109630000Y-64036000D01*
X112112000Y-64076000D02*
X114660000Y-64076000D01*
X107082000Y-64076000D02*
X109630000Y-64076000D01*
X112112000Y-64116000D02*
X114695000Y-64116000D01*
X107047000Y-64116000D02*
X109630000Y-64116000D01*
X112112000Y-64156000D02*
X114729000Y-64156000D01*
X107013000Y-64156000D02*
X109630000Y-64156000D01*
X112112000Y-64196000D02*
X114763000Y-64196000D01*
X106979000Y-64196000D02*
X109630000Y-64196000D01*
X112112000Y-64236000D02*
X114796000Y-64236000D01*
X106946000Y-64236000D02*
X109630000Y-64236000D01*
X112112000Y-64276000D02*
X114828000Y-64276000D01*
X106914000Y-64276000D02*
X109630000Y-64276000D01*
X112112000Y-64316000D02*
X114860000Y-64316000D01*
X106882000Y-64316000D02*
X109630000Y-64316000D01*
X112112000Y-64356000D02*
X114891000Y-64356000D01*
X106851000Y-64356000D02*
X109630000Y-64356000D01*
X112112000Y-64396000D02*
X114921000Y-64396000D01*
X106821000Y-64396000D02*
X109630000Y-64396000D01*
X112112000Y-64436000D02*
X114951000Y-64436000D01*
X106791000Y-64436000D02*
X109630000Y-64436000D01*
X112112000Y-64476000D02*
X114981000Y-64476000D01*
X106761000Y-64476000D02*
X109630000Y-64476000D01*
X112112000Y-64516000D02*
X115009000Y-64516000D01*
X106733000Y-64516000D02*
X109630000Y-64516000D01*
X112112000Y-64556000D02*
X115037000Y-64556000D01*
X106705000Y-64556000D02*
X109630000Y-64556000D01*
X112112000Y-64596000D02*
X115065000Y-64596000D01*
X106677000Y-64596000D02*
X109630000Y-64596000D01*
X112112000Y-64636000D02*
X115092000Y-64636000D01*
X106650000Y-64636000D02*
X109630000Y-64636000D01*
X112112000Y-64676000D02*
X115118000Y-64676000D01*
X106624000Y-64676000D02*
X109630000Y-64676000D01*
X112112000Y-64716000D02*
X115144000Y-64716000D01*
X106598000Y-64716000D02*
X109630000Y-64716000D01*
X112112000Y-64756000D02*
X115169000Y-64756000D01*
X106573000Y-64756000D02*
X109630000Y-64756000D01*
X112112000Y-64796000D02*
X115194000Y-64796000D01*
X106548000Y-64796000D02*
X109630000Y-64796000D01*
X112112000Y-64836000D02*
X115218000Y-64836000D01*
X106524000Y-64836000D02*
X109630000Y-64836000D01*
X112112000Y-64876000D02*
X115242000Y-64876000D01*
X106500000Y-64876000D02*
X109630000Y-64876000D01*
X112112000Y-64916000D02*
X115266000Y-64916000D01*
X106476000Y-64916000D02*
X109630000Y-64916000D01*
X112112000Y-64956000D02*
X115288000Y-64956000D01*
X106454000Y-64956000D02*
X109630000Y-64956000D01*
X112112000Y-64996000D02*
X115311000Y-64996000D01*
X106431000Y-64996000D02*
X109630000Y-64996000D01*
X112112000Y-65036000D02*
X115333000Y-65036000D01*
X106409000Y-65036000D02*
X109630000Y-65036000D01*
X112112000Y-65076000D02*
X115354000Y-65076000D01*
X106388000Y-65076000D02*
X109630000Y-65076000D01*
X112112000Y-65116000D02*
X115375000Y-65116000D01*
X106367000Y-65116000D02*
X109630000Y-65116000D01*
X112112000Y-65156000D02*
X115396000Y-65156000D01*
X106346000Y-65156000D02*
X109630000Y-65156000D01*
X112112000Y-65196000D02*
X115416000Y-65196000D01*
X106326000Y-65196000D02*
X109630000Y-65196000D01*
X112112000Y-65236000D02*
X115435000Y-65236000D01*
X106307000Y-65236000D02*
X109630000Y-65236000D01*
X112112000Y-65276000D02*
X115455000Y-65276000D01*
X106287000Y-65276000D02*
X109630000Y-65276000D01*
X112112000Y-65316000D02*
X115474000Y-65316000D01*
X106268000Y-65316000D02*
X109630000Y-65316000D01*
X112112000Y-65356000D02*
X115492000Y-65356000D01*
X106250000Y-65356000D02*
X109630000Y-65356000D01*
X112112000Y-65396000D02*
X115510000Y-65396000D01*
X106232000Y-65396000D02*
X109630000Y-65396000D01*
X112112000Y-65436000D02*
X115528000Y-65436000D01*
X106214000Y-65436000D02*
X109630000Y-65436000D01*
X112112000Y-65476000D02*
X115545000Y-65476000D01*
X106197000Y-65476000D02*
X109630000Y-65476000D01*
X112112000Y-65516000D02*
X115561000Y-65516000D01*
X106181000Y-65516000D02*
X109630000Y-65516000D01*
X112112000Y-65556000D02*
X115578000Y-65556000D01*
X106164000Y-65556000D02*
X109630000Y-65556000D01*
X112112000Y-65596000D02*
X115594000Y-65596000D01*
X106148000Y-65596000D02*
X109630000Y-65596000D01*
X112112000Y-65636000D02*
X115609000Y-65636000D01*
X106133000Y-65636000D02*
X109630000Y-65636000D01*
X112112000Y-65676000D02*
X115625000Y-65676000D01*
X106117000Y-65676000D02*
X109630000Y-65676000D01*
X112112000Y-65716000D02*
X115639000Y-65716000D01*
X106103000Y-65716000D02*
X109630000Y-65716000D01*
X112112000Y-65756000D02*
X115654000Y-65756000D01*
X106088000Y-65756000D02*
X109630000Y-65756000D01*
X112112000Y-65796000D02*
X115668000Y-65796000D01*
X106074000Y-65796000D02*
X109630000Y-65796000D01*
X112112000Y-65836000D02*
X115682000Y-65836000D01*
X106060000Y-65836000D02*
X109630000Y-65836000D01*
X112112000Y-65876000D02*
X115695000Y-65876000D01*
X106047000Y-65876000D02*
X109630000Y-65876000D01*
X112112000Y-65916000D02*
X115708000Y-65916000D01*
X106034000Y-65916000D02*
X109630000Y-65916000D01*
X112112000Y-65956000D02*
X115721000Y-65956000D01*
X106021000Y-65956000D02*
X109630000Y-65956000D01*
X112112000Y-65996000D02*
X115733000Y-65996000D01*
X106009000Y-65996000D02*
X109630000Y-65996000D01*
X112112000Y-66036000D02*
X115745000Y-66036000D01*
X105997000Y-66036000D02*
X109630000Y-66036000D01*
X112112000Y-66076000D02*
X115756000Y-66076000D01*
X105986000Y-66076000D02*
X109630000Y-66076000D01*
X112112000Y-66116000D02*
X115768000Y-66116000D01*
X105974000Y-66116000D02*
X109630000Y-66116000D01*
X112112000Y-66156000D02*
X115778000Y-66156000D01*
X105964000Y-66156000D02*
X109630000Y-66156000D01*
X112112000Y-66196000D02*
X115789000Y-66196000D01*
X105953000Y-66196000D02*
X109630000Y-66196000D01*
X105943000Y-66236000D02*
X115799000Y-66236000D01*
X105933000Y-66276000D02*
X115809000Y-66276000D01*
X105924000Y-66316000D02*
X115818000Y-66316000D01*
X105915000Y-66356000D02*
X115827000Y-66356000D01*
X105906000Y-66396000D02*
X115836000Y-66396000D01*
X105897000Y-66436000D02*
X115845000Y-66436000D01*
X105889000Y-66476000D02*
X115853000Y-66476000D01*
X105881000Y-66516000D02*
X115861000Y-66516000D01*
X105874000Y-66556000D02*
X115868000Y-66556000D01*
X105867000Y-66596000D02*
X115875000Y-66596000D01*
X105860000Y-66636000D02*
X115882000Y-66636000D01*
X105853000Y-66676000D02*
X115889000Y-66676000D01*
X105847000Y-66716000D02*
X115895000Y-66716000D01*
X105841000Y-66756000D02*
X115901000Y-66756000D01*
X105836000Y-66797000D02*
X115906000Y-66797000D01*
X105831000Y-66837000D02*
X115911000Y-66837000D01*
X105826000Y-66877000D02*
X115916000Y-66877000D01*
X105821000Y-66917000D02*
X115921000Y-66917000D01*
X105817000Y-66957000D02*
X115925000Y-66957000D01*
X105813000Y-66997000D02*
X115929000Y-66997000D01*
X105809000Y-67037000D02*
X115933000Y-67037000D01*
X105806000Y-67077000D02*
X115936000Y-67077000D01*
X105803000Y-67117000D02*
X115939000Y-67117000D01*
X105801000Y-67157000D02*
X115941000Y-67157000D01*
X105798000Y-67197000D02*
X115944000Y-67197000D01*
X105796000Y-67237000D02*
X115946000Y-67237000D01*
X105794000Y-67277000D02*
X115948000Y-67277000D01*
X105793000Y-67317000D02*
X115949000Y-67317000D01*
X105792000Y-67357000D02*
X115950000Y-67357000D01*
X105791000Y-67397000D02*
X115951000Y-67397000D01*
X105791000Y-67437000D02*
X115951000Y-67437000D01*
X105791000Y-67477000D02*
X115951000Y-67477000D01*
X115991000Y-67477000D02*
G75*
G03*
X115991000Y-67477000I-5120000J0D01*
G01*
%TO.C,C2*%
X157520354Y-76635000D02*
X157520354Y-77635000D01*
X157020354Y-77135000D02*
X158020354Y-77135000D01*
X167581000Y-79411000D02*
X167581000Y-80609000D01*
X167541000Y-79148000D02*
X167541000Y-80872000D01*
X167501000Y-78948000D02*
X167501000Y-81072000D01*
X167421000Y-81251000D02*
X167421000Y-81388000D01*
X167421000Y-78632000D02*
X167421000Y-78769000D01*
X167381000Y-81251000D02*
X167381000Y-81520000D01*
X167381000Y-78500000D02*
X167381000Y-78769000D01*
X167341000Y-81251000D02*
X167341000Y-81640000D01*
X167341000Y-78380000D02*
X167341000Y-78769000D01*
X167301000Y-81251000D02*
X167301000Y-81752000D01*
X167301000Y-78268000D02*
X167301000Y-78769000D01*
X167261000Y-81251000D02*
X167261000Y-81856000D01*
X167261000Y-78164000D02*
X167261000Y-78769000D01*
X167221000Y-81251000D02*
X167221000Y-81954000D01*
X167221000Y-78066000D02*
X167221000Y-78769000D01*
X167181000Y-81251000D02*
X167181000Y-82047000D01*
X167181000Y-77973000D02*
X167181000Y-78769000D01*
X167141000Y-81251000D02*
X167141000Y-82135000D01*
X167141000Y-77885000D02*
X167141000Y-78769000D01*
X167101000Y-81251000D02*
X167101000Y-82219000D01*
X167101000Y-77801000D02*
X167101000Y-78769000D01*
X167061000Y-81251000D02*
X167061000Y-82299000D01*
X167061000Y-77721000D02*
X167061000Y-78769000D01*
X167021000Y-81251000D02*
X167021000Y-82375000D01*
X167021000Y-77645000D02*
X167021000Y-78769000D01*
X166981000Y-81251000D02*
X166981000Y-82449000D01*
X166981000Y-77571000D02*
X166981000Y-78769000D01*
X166941000Y-81251000D02*
X166941000Y-82520000D01*
X166941000Y-77500000D02*
X166941000Y-78769000D01*
X166901000Y-81251000D02*
X166901000Y-82589000D01*
X166901000Y-77431000D02*
X166901000Y-78769000D01*
X166861000Y-81251000D02*
X166861000Y-82655000D01*
X166861000Y-77365000D02*
X166861000Y-78769000D01*
X166821000Y-81251000D02*
X166821000Y-82719000D01*
X166821000Y-77301000D02*
X166821000Y-78769000D01*
X166781000Y-81251000D02*
X166781000Y-82780000D01*
X166781000Y-77240000D02*
X166781000Y-78769000D01*
X166741000Y-81251000D02*
X166741000Y-82840000D01*
X166741000Y-77180000D02*
X166741000Y-78769000D01*
X166701000Y-81251000D02*
X166701000Y-82899000D01*
X166701000Y-77121000D02*
X166701000Y-78769000D01*
X166661000Y-81251000D02*
X166661000Y-82955000D01*
X166661000Y-77065000D02*
X166661000Y-78769000D01*
X166621000Y-81251000D02*
X166621000Y-83010000D01*
X166621000Y-77010000D02*
X166621000Y-78769000D01*
X166581000Y-81251000D02*
X166581000Y-83064000D01*
X166581000Y-76956000D02*
X166581000Y-78769000D01*
X166541000Y-81251000D02*
X166541000Y-83116000D01*
X166541000Y-76904000D02*
X166541000Y-78769000D01*
X166501000Y-81251000D02*
X166501000Y-83166000D01*
X166501000Y-76854000D02*
X166501000Y-78769000D01*
X166461000Y-81251000D02*
X166461000Y-83216000D01*
X166461000Y-76804000D02*
X166461000Y-78769000D01*
X166421000Y-81251000D02*
X166421000Y-83264000D01*
X166421000Y-76756000D02*
X166421000Y-78769000D01*
X166381000Y-81251000D02*
X166381000Y-83311000D01*
X166381000Y-76709000D02*
X166381000Y-78769000D01*
X166341000Y-81251000D02*
X166341000Y-83357000D01*
X166341000Y-76663000D02*
X166341000Y-78769000D01*
X166301000Y-81251000D02*
X166301000Y-83402000D01*
X166301000Y-76618000D02*
X166301000Y-78769000D01*
X166261000Y-81251000D02*
X166261000Y-83446000D01*
X166261000Y-76574000D02*
X166261000Y-78769000D01*
X166221000Y-81251000D02*
X166221000Y-83488000D01*
X166221000Y-76532000D02*
X166221000Y-78769000D01*
X166181000Y-81251000D02*
X166181000Y-83530000D01*
X166181000Y-76490000D02*
X166181000Y-78769000D01*
X166141000Y-81251000D02*
X166141000Y-83571000D01*
X166141000Y-76449000D02*
X166141000Y-78769000D01*
X166101000Y-81251000D02*
X166101000Y-83611000D01*
X166101000Y-76409000D02*
X166101000Y-78769000D01*
X166061000Y-81251000D02*
X166061000Y-83650000D01*
X166061000Y-76370000D02*
X166061000Y-78769000D01*
X166021000Y-81251000D02*
X166021000Y-83689000D01*
X166021000Y-76331000D02*
X166021000Y-78769000D01*
X165981000Y-81251000D02*
X165981000Y-83726000D01*
X165981000Y-76294000D02*
X165981000Y-78769000D01*
X165941000Y-81251000D02*
X165941000Y-83763000D01*
X165941000Y-76257000D02*
X165941000Y-78769000D01*
X165901000Y-81251000D02*
X165901000Y-83799000D01*
X165901000Y-76221000D02*
X165901000Y-78769000D01*
X165861000Y-81251000D02*
X165861000Y-83834000D01*
X165861000Y-76186000D02*
X165861000Y-78769000D01*
X165821000Y-81251000D02*
X165821000Y-83868000D01*
X165821000Y-76152000D02*
X165821000Y-78769000D01*
X165781000Y-81251000D02*
X165781000Y-83902000D01*
X165781000Y-76118000D02*
X165781000Y-78769000D01*
X165741000Y-81251000D02*
X165741000Y-83935000D01*
X165741000Y-76085000D02*
X165741000Y-78769000D01*
X165701000Y-81251000D02*
X165701000Y-83967000D01*
X165701000Y-76053000D02*
X165701000Y-78769000D01*
X165661000Y-81251000D02*
X165661000Y-83999000D01*
X165661000Y-76021000D02*
X165661000Y-78769000D01*
X165621000Y-81251000D02*
X165621000Y-84030000D01*
X165621000Y-75990000D02*
X165621000Y-78769000D01*
X165581000Y-81251000D02*
X165581000Y-84060000D01*
X165581000Y-75960000D02*
X165581000Y-78769000D01*
X165541000Y-81251000D02*
X165541000Y-84090000D01*
X165541000Y-75930000D02*
X165541000Y-78769000D01*
X165501000Y-81251000D02*
X165501000Y-84120000D01*
X165501000Y-75900000D02*
X165501000Y-78769000D01*
X165461000Y-81251000D02*
X165461000Y-84148000D01*
X165461000Y-75872000D02*
X165461000Y-78769000D01*
X165421000Y-81251000D02*
X165421000Y-84176000D01*
X165421000Y-75844000D02*
X165421000Y-78769000D01*
X165381000Y-81251000D02*
X165381000Y-84204000D01*
X165381000Y-75816000D02*
X165381000Y-78769000D01*
X165341000Y-81251000D02*
X165341000Y-84231000D01*
X165341000Y-75789000D02*
X165341000Y-78769000D01*
X165301000Y-81251000D02*
X165301000Y-84257000D01*
X165301000Y-75763000D02*
X165301000Y-78769000D01*
X165261000Y-81251000D02*
X165261000Y-84283000D01*
X165261000Y-75737000D02*
X165261000Y-78769000D01*
X165221000Y-81251000D02*
X165221000Y-84308000D01*
X165221000Y-75712000D02*
X165221000Y-78769000D01*
X165181000Y-81251000D02*
X165181000Y-84333000D01*
X165181000Y-75687000D02*
X165181000Y-78769000D01*
X165141000Y-81251000D02*
X165141000Y-84357000D01*
X165141000Y-75663000D02*
X165141000Y-78769000D01*
X165101000Y-81251000D02*
X165101000Y-84381000D01*
X165101000Y-75639000D02*
X165101000Y-78769000D01*
X165061000Y-81251000D02*
X165061000Y-84405000D01*
X165061000Y-75615000D02*
X165061000Y-78769000D01*
X165021000Y-81251000D02*
X165021000Y-84427000D01*
X165021000Y-75593000D02*
X165021000Y-78769000D01*
X164981000Y-75570000D02*
X164981000Y-84450000D01*
X164941000Y-75548000D02*
X164941000Y-84472000D01*
X164901000Y-75527000D02*
X164901000Y-84493000D01*
X164861000Y-75506000D02*
X164861000Y-84514000D01*
X164821000Y-75485000D02*
X164821000Y-84535000D01*
X164781000Y-75465000D02*
X164781000Y-84555000D01*
X164741000Y-75446000D02*
X164741000Y-84574000D01*
X164701000Y-75426000D02*
X164701000Y-84594000D01*
X164661000Y-75407000D02*
X164661000Y-84613000D01*
X164621000Y-75389000D02*
X164621000Y-84631000D01*
X164581000Y-75371000D02*
X164581000Y-84649000D01*
X164541000Y-75353000D02*
X164541000Y-84667000D01*
X164501000Y-75336000D02*
X164501000Y-84684000D01*
X164461000Y-75320000D02*
X164461000Y-84700000D01*
X164421000Y-75303000D02*
X164421000Y-84717000D01*
X164381000Y-75287000D02*
X164381000Y-84733000D01*
X164341000Y-75272000D02*
X164341000Y-84748000D01*
X164301000Y-75256000D02*
X164301000Y-84764000D01*
X164261000Y-75242000D02*
X164261000Y-84778000D01*
X164221000Y-75227000D02*
X164221000Y-84793000D01*
X164181000Y-75213000D02*
X164181000Y-84807000D01*
X164141000Y-75199000D02*
X164141000Y-84821000D01*
X164101000Y-75186000D02*
X164101000Y-84834000D01*
X164061000Y-75173000D02*
X164061000Y-84847000D01*
X164021000Y-75160000D02*
X164021000Y-84860000D01*
X163981000Y-75148000D02*
X163981000Y-84872000D01*
X163941000Y-75136000D02*
X163941000Y-84884000D01*
X163901000Y-75125000D02*
X163901000Y-84895000D01*
X163861000Y-75113000D02*
X163861000Y-84907000D01*
X163821000Y-75103000D02*
X163821000Y-84917000D01*
X163781000Y-75092000D02*
X163781000Y-84928000D01*
X163741000Y-75082000D02*
X163741000Y-84938000D01*
X163701000Y-75072000D02*
X163701000Y-84948000D01*
X163661000Y-75063000D02*
X163661000Y-84957000D01*
X163621000Y-75054000D02*
X163621000Y-84966000D01*
X163581000Y-75045000D02*
X163581000Y-84975000D01*
X163541000Y-75036000D02*
X163541000Y-84984000D01*
X163501000Y-75028000D02*
X163501000Y-84992000D01*
X163461000Y-75020000D02*
X163461000Y-85000000D01*
X163421000Y-75013000D02*
X163421000Y-85007000D01*
X163381000Y-75006000D02*
X163381000Y-85014000D01*
X163341000Y-74999000D02*
X163341000Y-85021000D01*
X163301000Y-74992000D02*
X163301000Y-85028000D01*
X163261000Y-74986000D02*
X163261000Y-85034000D01*
X163221000Y-74980000D02*
X163221000Y-85040000D01*
X163180000Y-74975000D02*
X163180000Y-85045000D01*
X163140000Y-74970000D02*
X163140000Y-85050000D01*
X163100000Y-74965000D02*
X163100000Y-85055000D01*
X163060000Y-74960000D02*
X163060000Y-85060000D01*
X163020000Y-74956000D02*
X163020000Y-85064000D01*
X162980000Y-74952000D02*
X162980000Y-85068000D01*
X162940000Y-74948000D02*
X162940000Y-85072000D01*
X162900000Y-74945000D02*
X162900000Y-85075000D01*
X162860000Y-74942000D02*
X162860000Y-85078000D01*
X162820000Y-74940000D02*
X162820000Y-85080000D01*
X162780000Y-74937000D02*
X162780000Y-85083000D01*
X162740000Y-74935000D02*
X162740000Y-85085000D01*
X162700000Y-74933000D02*
X162700000Y-85087000D01*
X162660000Y-74932000D02*
X162660000Y-85088000D01*
X162620000Y-74931000D02*
X162620000Y-85089000D01*
X162580000Y-74930000D02*
X162580000Y-85090000D01*
X162540000Y-74930000D02*
X162540000Y-85090000D01*
X162500000Y-74930000D02*
X162500000Y-85090000D01*
X157537460Y-81270000D02*
G75*
G03*
X157537460Y-78750000I4962540J1260000D01*
G01*
%TO.C,C3*%
X136870000Y-139605000D02*
X136425000Y-139605000D01*
X139165000Y-139605000D02*
X138720000Y-139605000D01*
X136870000Y-133365000D02*
X136425000Y-133365000D01*
X139165000Y-133365000D02*
X138720000Y-133365000D01*
X136425000Y-133365000D02*
X136425000Y-139605000D01*
X139165000Y-133365000D02*
X139165000Y-139605000D01*
%TO.C,C4*%
X155484000Y-100425000D02*
X155929000Y-100425000D01*
X153189000Y-100425000D02*
X153634000Y-100425000D01*
X155484000Y-106665000D02*
X155929000Y-106665000D01*
X153189000Y-106665000D02*
X153634000Y-106665000D01*
X155929000Y-106665000D02*
X155929000Y-100425000D01*
X153189000Y-106665000D02*
X153189000Y-100425000D01*
%TO.C,C5*%
X167655000Y-64035000D02*
X173895000Y-64035000D01*
X167655000Y-66775000D02*
X173895000Y-66775000D01*
X167655000Y-64035000D02*
X167655000Y-64480000D01*
X167655000Y-66330000D02*
X167655000Y-66775000D01*
X173895000Y-64035000D02*
X173895000Y-64480000D01*
X173895000Y-66330000D02*
X173895000Y-66775000D01*
%TO.C,C6*%
X100091000Y-73179000D02*
X106331000Y-73179000D01*
X100091000Y-75919000D02*
X106331000Y-75919000D01*
X100091000Y-73179000D02*
X100091000Y-73624000D01*
X100091000Y-75474000D02*
X100091000Y-75919000D01*
X106331000Y-73179000D02*
X106331000Y-73624000D01*
X106331000Y-75474000D02*
X106331000Y-75919000D01*
%TO.C,C7*%
X157495000Y-119407000D02*
X163735000Y-119407000D01*
X157495000Y-122147000D02*
X163735000Y-122147000D01*
X157495000Y-119407000D02*
X157495000Y-119852000D01*
X157495000Y-121702000D02*
X157495000Y-122147000D01*
X163735000Y-119407000D02*
X163735000Y-119852000D01*
X163735000Y-121702000D02*
X163735000Y-122147000D01*
%TO.C,C8*%
X123576000Y-148620241D02*
X124206000Y-148620241D01*
X123891000Y-148935241D02*
X123891000Y-148305241D01*
X125328000Y-142194000D02*
X126132000Y-142194000D01*
X125097000Y-142234000D02*
X126363000Y-142234000D01*
X124928000Y-142274000D02*
X126532000Y-142274000D01*
X124790000Y-142314000D02*
X126670000Y-142314000D01*
X124671000Y-142354000D02*
X126789000Y-142354000D01*
X124565000Y-142394000D02*
X126895000Y-142394000D01*
X124468000Y-142434000D02*
X126992000Y-142434000D01*
X124380000Y-142474000D02*
X127080000Y-142474000D01*
X124298000Y-142514000D02*
X127162000Y-142514000D01*
X124221000Y-142554000D02*
X127239000Y-142554000D01*
X124149000Y-142594000D02*
X127311000Y-142594000D01*
X124080000Y-142634000D02*
X127380000Y-142634000D01*
X124016000Y-142674000D02*
X127444000Y-142674000D01*
X123954000Y-142714000D02*
X127506000Y-142714000D01*
X123896000Y-142754000D02*
X127564000Y-142754000D01*
X123840000Y-142794000D02*
X127620000Y-142794000D01*
X123786000Y-142834000D02*
X127674000Y-142834000D01*
X123735000Y-142874000D02*
X127725000Y-142874000D01*
X123686000Y-142914000D02*
X127774000Y-142914000D01*
X123638000Y-142954000D02*
X127822000Y-142954000D01*
X123593000Y-142994000D02*
X127867000Y-142994000D01*
X123548000Y-143034000D02*
X127912000Y-143034000D01*
X123506000Y-143074000D02*
X127954000Y-143074000D01*
X123465000Y-143114000D02*
X127995000Y-143114000D01*
X126770000Y-143154000D02*
X128035000Y-143154000D01*
X123425000Y-143154000D02*
X124690000Y-143154000D01*
X126770000Y-143194000D02*
X128073000Y-143194000D01*
X123387000Y-143194000D02*
X124690000Y-143194000D01*
X126770000Y-143234000D02*
X128110000Y-143234000D01*
X123350000Y-143234000D02*
X124690000Y-143234000D01*
X126770000Y-143274000D02*
X128146000Y-143274000D01*
X123314000Y-143274000D02*
X124690000Y-143274000D01*
X126770000Y-143314000D02*
X128180000Y-143314000D01*
X123280000Y-143314000D02*
X124690000Y-143314000D01*
X126770000Y-143354000D02*
X128214000Y-143354000D01*
X123246000Y-143354000D02*
X124690000Y-143354000D01*
X126770000Y-143394000D02*
X128246000Y-143394000D01*
X123214000Y-143394000D02*
X124690000Y-143394000D01*
X126770000Y-143434000D02*
X128278000Y-143434000D01*
X123182000Y-143434000D02*
X124690000Y-143434000D01*
X126770000Y-143474000D02*
X128308000Y-143474000D01*
X123152000Y-143474000D02*
X124690000Y-143474000D01*
X126770000Y-143514000D02*
X128337000Y-143514000D01*
X123123000Y-143514000D02*
X124690000Y-143514000D01*
X126770000Y-143554000D02*
X128366000Y-143554000D01*
X123094000Y-143554000D02*
X124690000Y-143554000D01*
X126770000Y-143594000D02*
X128394000Y-143594000D01*
X123066000Y-143594000D02*
X124690000Y-143594000D01*
X126770000Y-143634000D02*
X128420000Y-143634000D01*
X123040000Y-143634000D02*
X124690000Y-143634000D01*
X126770000Y-143674000D02*
X128446000Y-143674000D01*
X123014000Y-143674000D02*
X124690000Y-143674000D01*
X126770000Y-143714000D02*
X128472000Y-143714000D01*
X122988000Y-143714000D02*
X124690000Y-143714000D01*
X126770000Y-143754000D02*
X128496000Y-143754000D01*
X122964000Y-143754000D02*
X124690000Y-143754000D01*
X126770000Y-143794000D02*
X128520000Y-143794000D01*
X122940000Y-143794000D02*
X124690000Y-143794000D01*
X126770000Y-143834000D02*
X128542000Y-143834000D01*
X122918000Y-143834000D02*
X124690000Y-143834000D01*
X126770000Y-143874000D02*
X128564000Y-143874000D01*
X122896000Y-143874000D02*
X124690000Y-143874000D01*
X126770000Y-143914000D02*
X128586000Y-143914000D01*
X122874000Y-143914000D02*
X124690000Y-143914000D01*
X126770000Y-143954000D02*
X128606000Y-143954000D01*
X122854000Y-143954000D02*
X124690000Y-143954000D01*
X126770000Y-143994000D02*
X128626000Y-143994000D01*
X122834000Y-143994000D02*
X124690000Y-143994000D01*
X126770000Y-144034000D02*
X128646000Y-144034000D01*
X122814000Y-144034000D02*
X124690000Y-144034000D01*
X126770000Y-144074000D02*
X128664000Y-144074000D01*
X122796000Y-144074000D02*
X124690000Y-144074000D01*
X126770000Y-144114000D02*
X128682000Y-144114000D01*
X122778000Y-144114000D02*
X124690000Y-144114000D01*
X126770000Y-144154000D02*
X128700000Y-144154000D01*
X122760000Y-144154000D02*
X124690000Y-144154000D01*
X126770000Y-144194000D02*
X128716000Y-144194000D01*
X122744000Y-144194000D02*
X124690000Y-144194000D01*
X126770000Y-144234000D02*
X128732000Y-144234000D01*
X122728000Y-144234000D02*
X124690000Y-144234000D01*
X126770000Y-144274000D02*
X128748000Y-144274000D01*
X122712000Y-144274000D02*
X124690000Y-144274000D01*
X126770000Y-144314000D02*
X128763000Y-144314000D01*
X122697000Y-144314000D02*
X124690000Y-144314000D01*
X126770000Y-144354000D02*
X128777000Y-144354000D01*
X122683000Y-144354000D02*
X124690000Y-144354000D01*
X126770000Y-144394000D02*
X128791000Y-144394000D01*
X122669000Y-144394000D02*
X124690000Y-144394000D01*
X126770000Y-144434000D02*
X128804000Y-144434000D01*
X122656000Y-144434000D02*
X124690000Y-144434000D01*
X126770000Y-144474000D02*
X128816000Y-144474000D01*
X122644000Y-144474000D02*
X124690000Y-144474000D01*
X126770000Y-144514000D02*
X128828000Y-144514000D01*
X122632000Y-144514000D02*
X124690000Y-144514000D01*
X126770000Y-144554000D02*
X128840000Y-144554000D01*
X122620000Y-144554000D02*
X124690000Y-144554000D01*
X126770000Y-144594000D02*
X128851000Y-144594000D01*
X122609000Y-144594000D02*
X124690000Y-144594000D01*
X126770000Y-144634000D02*
X128861000Y-144634000D01*
X122599000Y-144634000D02*
X124690000Y-144634000D01*
X126770000Y-144674000D02*
X128871000Y-144674000D01*
X122589000Y-144674000D02*
X124690000Y-144674000D01*
X126770000Y-144714000D02*
X128880000Y-144714000D01*
X122580000Y-144714000D02*
X124690000Y-144714000D01*
X126770000Y-144755000D02*
X128889000Y-144755000D01*
X122571000Y-144755000D02*
X124690000Y-144755000D01*
X126770000Y-144795000D02*
X128897000Y-144795000D01*
X122563000Y-144795000D02*
X124690000Y-144795000D01*
X126770000Y-144835000D02*
X128905000Y-144835000D01*
X122555000Y-144835000D02*
X124690000Y-144835000D01*
X126770000Y-144875000D02*
X128912000Y-144875000D01*
X122548000Y-144875000D02*
X124690000Y-144875000D01*
X126770000Y-144915000D02*
X128919000Y-144915000D01*
X122541000Y-144915000D02*
X124690000Y-144915000D01*
X126770000Y-144955000D02*
X128925000Y-144955000D01*
X122535000Y-144955000D02*
X124690000Y-144955000D01*
X126770000Y-144995000D02*
X128931000Y-144995000D01*
X122529000Y-144995000D02*
X124690000Y-144995000D01*
X126770000Y-145035000D02*
X128936000Y-145035000D01*
X122524000Y-145035000D02*
X124690000Y-145035000D01*
X126770000Y-145075000D02*
X128941000Y-145075000D01*
X122519000Y-145075000D02*
X124690000Y-145075000D01*
X126770000Y-145115000D02*
X128945000Y-145115000D01*
X122515000Y-145115000D02*
X124690000Y-145115000D01*
X126770000Y-145155000D02*
X128948000Y-145155000D01*
X122512000Y-145155000D02*
X124690000Y-145155000D01*
X126770000Y-145195000D02*
X128952000Y-145195000D01*
X122508000Y-145195000D02*
X124690000Y-145195000D01*
X122506000Y-145235000D02*
X128954000Y-145235000D01*
X122503000Y-145275000D02*
X128957000Y-145275000D01*
X122502000Y-145315000D02*
X128958000Y-145315000D01*
X122500000Y-145355000D02*
X128960000Y-145355000D01*
X122500000Y-145395000D02*
X128960000Y-145395000D01*
X122500000Y-145435000D02*
X128960000Y-145435000D01*
X129000000Y-145435000D02*
G75*
G03*
X129000000Y-145435000I-3270000J0D01*
G01*
%TO.C,C9*%
X100802000Y-83217000D02*
X100357000Y-83217000D01*
X103097000Y-83217000D02*
X102652000Y-83217000D01*
X100802000Y-76977000D02*
X100357000Y-76977000D01*
X103097000Y-76977000D02*
X102652000Y-76977000D01*
X100357000Y-76977000D02*
X100357000Y-83217000D01*
X103097000Y-76977000D02*
X103097000Y-83217000D01*
%TO.C,C10*%
X168184000Y-130397000D02*
X168629000Y-130397000D01*
X165889000Y-130397000D02*
X166334000Y-130397000D01*
X168184000Y-136637000D02*
X168629000Y-136637000D01*
X165889000Y-136637000D02*
X166334000Y-136637000D01*
X168629000Y-136637000D02*
X168629000Y-130397000D01*
X165889000Y-136637000D02*
X165889000Y-130397000D01*
%TO.C,C11*%
X170969000Y-82789000D02*
X170969000Y-76549000D01*
X173709000Y-82789000D02*
X173709000Y-76549000D01*
X170969000Y-82789000D02*
X171414000Y-82789000D01*
X173264000Y-82789000D02*
X173709000Y-82789000D01*
X170969000Y-76549000D02*
X171414000Y-76549000D01*
X173264000Y-76549000D02*
X173709000Y-76549000D01*
%TO.C,C12*%
X167147000Y-69115000D02*
X173387000Y-69115000D01*
X167147000Y-71855000D02*
X173387000Y-71855000D01*
X167147000Y-69115000D02*
X167147000Y-69560000D01*
X167147000Y-71410000D02*
X167147000Y-71855000D01*
X173387000Y-69115000D02*
X173387000Y-69560000D01*
X173387000Y-71410000D02*
X173387000Y-71855000D01*
%TO.C,C13*%
X109764000Y-123285000D02*
X110209000Y-123285000D01*
X107469000Y-123285000D02*
X107914000Y-123285000D01*
X109764000Y-129525000D02*
X110209000Y-129525000D01*
X107469000Y-129525000D02*
X107914000Y-129525000D01*
X110209000Y-129525000D02*
X110209000Y-123285000D01*
X107469000Y-129525000D02*
X107469000Y-123285000D01*
%TO.C,D2*%
X170214000Y-88555000D02*
X170370000Y-88555000D01*
X172530000Y-88555000D02*
X172686000Y-88555000D01*
X172529837Y-85953870D02*
G75*
G02*
X172530000Y-88035961I-1079837J-1041130D01*
G01*
X170370163Y-85953870D02*
G75*
G03*
X170370000Y-88035961I1079837J-1041130D01*
G01*
X172528608Y-85322665D02*
G75*
G02*
X172685516Y-88555000I-1078608J-1672335D01*
G01*
X170371392Y-85322665D02*
G75*
G03*
X170214484Y-88555000I1078608J-1672335D01*
G01*
%TO.C,D5*%
X170214000Y-96810000D02*
X170370000Y-96810000D01*
X172530000Y-96810000D02*
X172686000Y-96810000D01*
X172529837Y-94208870D02*
G75*
G02*
X172530000Y-96290961I-1079837J-1041130D01*
G01*
X170370163Y-94208870D02*
G75*
G03*
X170370000Y-96290961I1079837J-1041130D01*
G01*
X172528608Y-93577665D02*
G75*
G02*
X172685516Y-96810000I-1078608J-1672335D01*
G01*
X170371392Y-93577665D02*
G75*
G03*
X170214484Y-96810000I1078608J-1672335D01*
G01*
%TO.C,D11*%
X172530000Y-105700000D02*
X172686000Y-105700000D01*
X170214000Y-105700000D02*
X170370000Y-105700000D01*
X170371392Y-102467665D02*
G75*
G03*
X170214484Y-105700000I1078608J-1672335D01*
G01*
X172528608Y-102467665D02*
G75*
G02*
X172685516Y-105700000I-1078608J-1672335D01*
G01*
X170370163Y-103098870D02*
G75*
G03*
X170370000Y-105180961I1079837J-1041130D01*
G01*
X172529837Y-103098870D02*
G75*
G02*
X172530000Y-105180961I-1079837J-1041130D01*
G01*
%TO.C,D13*%
X170214000Y-113320000D02*
X170370000Y-113320000D01*
X172530000Y-113320000D02*
X172686000Y-113320000D01*
X172529837Y-110718870D02*
G75*
G02*
X172530000Y-112800961I-1079837J-1041130D01*
G01*
X170370163Y-110718870D02*
G75*
G03*
X170370000Y-112800961I1079837J-1041130D01*
G01*
X172528608Y-110087665D02*
G75*
G02*
X172685516Y-113320000I-1078608J-1672335D01*
G01*
X170371392Y-110087665D02*
G75*
G03*
X170214484Y-113320000I1078608J-1672335D01*
G01*
%TO.C,D14*%
X170370000Y-118455000D02*
X170214000Y-118455000D01*
X172686000Y-118455000D02*
X172530000Y-118455000D01*
X172528608Y-121687335D02*
G75*
G03*
X172685516Y-118455000I-1078608J1672335D01*
G01*
X170371392Y-121687335D02*
G75*
G02*
X170214484Y-118455000I1078608J1672335D01*
G01*
X172529837Y-121056130D02*
G75*
G03*
X172530000Y-118974039I-1079837J1041130D01*
G01*
X170370163Y-121056130D02*
G75*
G02*
X170370000Y-118974039I1079837J1041130D01*
G01*
%TO.C,D15*%
X170214000Y-129830000D02*
X170370000Y-129830000D01*
X172530000Y-129830000D02*
X172686000Y-129830000D01*
X172529837Y-127228870D02*
G75*
G02*
X172530000Y-129310961I-1079837J-1041130D01*
G01*
X170370163Y-127228870D02*
G75*
G03*
X170370000Y-129310961I1079837J-1041130D01*
G01*
X172528608Y-126597665D02*
G75*
G02*
X172685516Y-129830000I-1078608J-1672335D01*
G01*
X170371392Y-126597665D02*
G75*
G03*
X170214484Y-129830000I1078608J-1672335D01*
G01*
%TO.C,Diode1*%
X133931000Y-134331000D02*
X130991000Y-134331000D01*
X133931000Y-134571000D02*
X130991000Y-134571000D01*
X133931000Y-134451000D02*
X130991000Y-134451000D01*
X130991000Y-138991000D02*
X131121000Y-138991000D01*
X130991000Y-133551000D02*
X130991000Y-138991000D01*
X131121000Y-133551000D02*
X130991000Y-133551000D01*
X133931000Y-138991000D02*
X133801000Y-138991000D01*
X133931000Y-133551000D02*
X133931000Y-138991000D01*
X133801000Y-133551000D02*
X133931000Y-133551000D01*
%TO.C,Diode3*%
X127581000Y-134331000D02*
X124641000Y-134331000D01*
X127581000Y-134571000D02*
X124641000Y-134571000D01*
X127581000Y-134451000D02*
X124641000Y-134451000D01*
X124641000Y-138991000D02*
X124771000Y-138991000D01*
X124641000Y-133551000D02*
X124641000Y-138991000D01*
X124771000Y-133551000D02*
X124641000Y-133551000D01*
X127581000Y-138991000D02*
X127451000Y-138991000D01*
X127581000Y-133551000D02*
X127581000Y-138991000D01*
X127451000Y-133551000D02*
X127581000Y-133551000D01*
%TO.C,Diode4*%
X121101000Y-133551000D02*
X121231000Y-133551000D01*
X121231000Y-133551000D02*
X121231000Y-138991000D01*
X121231000Y-138991000D02*
X121101000Y-138991000D01*
X118421000Y-133551000D02*
X118291000Y-133551000D01*
X118291000Y-133551000D02*
X118291000Y-138991000D01*
X118291000Y-138991000D02*
X118421000Y-138991000D01*
X121231000Y-134451000D02*
X118291000Y-134451000D01*
X121231000Y-134571000D02*
X118291000Y-134571000D01*
X121231000Y-134331000D02*
X118291000Y-134331000D01*
%TO.C,Diode6*%
X114751000Y-133551000D02*
X114881000Y-133551000D01*
X114881000Y-133551000D02*
X114881000Y-138991000D01*
X114881000Y-138991000D02*
X114751000Y-138991000D01*
X112071000Y-133551000D02*
X111941000Y-133551000D01*
X111941000Y-133551000D02*
X111941000Y-138991000D01*
X111941000Y-138991000D02*
X112071000Y-138991000D01*
X114881000Y-134451000D02*
X111941000Y-134451000D01*
X114881000Y-134571000D02*
X111941000Y-134571000D01*
X114881000Y-134331000D02*
X111941000Y-134331000D01*
%TO.C,Diode8*%
X108531000Y-134331000D02*
X105591000Y-134331000D01*
X108531000Y-134571000D02*
X105591000Y-134571000D01*
X108531000Y-134451000D02*
X105591000Y-134451000D01*
X105591000Y-138991000D02*
X105721000Y-138991000D01*
X105591000Y-133551000D02*
X105591000Y-138991000D01*
X105721000Y-133551000D02*
X105591000Y-133551000D01*
X108531000Y-138991000D02*
X108401000Y-138991000D01*
X108531000Y-133551000D02*
X108531000Y-138991000D01*
X108401000Y-133551000D02*
X108531000Y-133551000D01*
%TO.C,J1*%
X119750000Y-143440000D02*
X117250000Y-143440000D01*
X119750000Y-145940000D02*
X119750000Y-143440000D01*
X102730000Y-145240000D02*
X102730000Y-143740000D01*
X101730000Y-145240000D02*
X102730000Y-145240000D01*
X118450000Y-145240000D02*
X118450000Y-143740000D01*
X119450000Y-145240000D02*
X118450000Y-145240000D01*
X102230000Y-146050000D02*
X101730000Y-146050000D01*
X102230000Y-147260000D02*
X102230000Y-146050000D01*
X118950000Y-147260000D02*
X102230000Y-147260000D01*
X118950000Y-146050000D02*
X118950000Y-147260000D01*
X119450000Y-146050000D02*
X118950000Y-146050000D01*
X101730000Y-147760000D02*
X119450000Y-147760000D01*
X101730000Y-143740000D02*
X101730000Y-147760000D01*
X119450000Y-143740000D02*
X101730000Y-143740000D01*
X119450000Y-147760000D02*
X119450000Y-143740000D01*
%TO.C,J2*%
X90455000Y-143565000D02*
X91655000Y-143565000D01*
X90455000Y-143265000D02*
X90455000Y-143565000D01*
X89705000Y-143265000D02*
X90455000Y-143265000D01*
X89705000Y-143565000D02*
X89705000Y-143265000D01*
X85455000Y-143565000D02*
X89705000Y-143565000D01*
X85455000Y-143265000D02*
X85455000Y-143565000D01*
X84705000Y-143265000D02*
X85455000Y-143265000D01*
X84705000Y-143565000D02*
X84705000Y-143265000D01*
X83505000Y-143565000D02*
X84705000Y-143565000D01*
X91655000Y-143565000D02*
X91655000Y-143115000D01*
X91955000Y-143565000D02*
X91655000Y-143565000D01*
X91955000Y-144665000D02*
X91955000Y-143565000D01*
X92255000Y-144665000D02*
X91955000Y-144665000D01*
X83505000Y-143565000D02*
X83505000Y-143115000D01*
X83205000Y-143565000D02*
X83505000Y-143565000D01*
X83205000Y-144665000D02*
X83205000Y-143565000D01*
X82905000Y-144665000D02*
X83205000Y-144665000D01*
X91955000Y-145415000D02*
X92255000Y-145415000D01*
X91955000Y-146415000D02*
X91955000Y-145415000D01*
X83205000Y-146415000D02*
X91955000Y-146415000D01*
X83205000Y-145415000D02*
X83205000Y-146415000D01*
X82905000Y-145415000D02*
X83205000Y-145415000D01*
X82595000Y-147025000D02*
X84505000Y-147025000D01*
X82595000Y-145115000D02*
X82595000Y-147025000D01*
X92255000Y-143115000D02*
X82905000Y-143115000D01*
X92255000Y-146715000D02*
X92255000Y-143115000D01*
X82905000Y-146715000D02*
X92255000Y-146715000D01*
X82905000Y-143115000D02*
X82905000Y-146715000D01*
%TO.C,J3*%
X80010000Y-81220000D02*
X81340000Y-81220000D01*
X81340000Y-81220000D02*
X81340000Y-82550000D01*
X81340000Y-83820000D02*
X81340000Y-94040000D01*
X78680000Y-94040000D02*
X81340000Y-94040000D01*
X78680000Y-83820000D02*
X78680000Y-94040000D01*
X78680000Y-83820000D02*
X81340000Y-83820000D01*
%TO.C,JP1*%
X89595000Y-111820000D02*
X88265000Y-111820000D01*
X89595000Y-110490000D02*
X89595000Y-111820000D01*
X89595000Y-109220000D02*
X86935000Y-109220000D01*
X86935000Y-109220000D02*
X86935000Y-104080000D01*
X89595000Y-109220000D02*
X89595000Y-104080000D01*
X89595000Y-104080000D02*
X86935000Y-104080000D01*
%TO.C,JP2*%
X85150000Y-111065000D02*
X82490000Y-111065000D01*
X85150000Y-116205000D02*
X85150000Y-111065000D01*
X82490000Y-116205000D02*
X82490000Y-111065000D01*
X85150000Y-116205000D02*
X82490000Y-116205000D01*
X85150000Y-117475000D02*
X85150000Y-118805000D01*
X85150000Y-118805000D02*
X83820000Y-118805000D01*
%TO.C,JP3*%
X89595000Y-123250000D02*
X88265000Y-123250000D01*
X89595000Y-121920000D02*
X89595000Y-123250000D01*
X89595000Y-120650000D02*
X86935000Y-120650000D01*
X86935000Y-120650000D02*
X86935000Y-115510000D01*
X89595000Y-120650000D02*
X89595000Y-115510000D01*
X89595000Y-115510000D02*
X86935000Y-115510000D01*
%TO.C,JP4*%
X86935000Y-101025000D02*
X89595000Y-101025000D01*
X86935000Y-95885000D02*
X86935000Y-101025000D01*
X89595000Y-95885000D02*
X89595000Y-101025000D01*
X86935000Y-95885000D02*
X89595000Y-95885000D01*
X86935000Y-94615000D02*
X86935000Y-93285000D01*
X86935000Y-93285000D02*
X88265000Y-93285000D01*
%TO.C,JP5*%
X85150000Y-98365000D02*
X82490000Y-98365000D01*
X85150000Y-103505000D02*
X85150000Y-98365000D01*
X82490000Y-103505000D02*
X82490000Y-98365000D01*
X85150000Y-103505000D02*
X82490000Y-103505000D01*
X85150000Y-104775000D02*
X85150000Y-106105000D01*
X85150000Y-106105000D02*
X83820000Y-106105000D01*
%TO.C,JP6*%
X88205000Y-81855000D02*
X89535000Y-81855000D01*
X88205000Y-83185000D02*
X88205000Y-81855000D01*
X88205000Y-84455000D02*
X90865000Y-84455000D01*
X90865000Y-84455000D02*
X90865000Y-89595000D01*
X88205000Y-84455000D02*
X88205000Y-89595000D01*
X88205000Y-89595000D02*
X90865000Y-89595000D01*
%TO.C,LED1*%
X90204000Y-54900000D02*
X90360000Y-54900000D01*
X92520000Y-54900000D02*
X92676000Y-54900000D01*
X92519837Y-52298870D02*
G75*
G02*
X92520000Y-54380961I-1079837J-1041130D01*
G01*
X90360163Y-52298870D02*
G75*
G03*
X90360000Y-54380961I1079837J-1041130D01*
G01*
X92518608Y-51667665D02*
G75*
G02*
X92675516Y-54900000I-1078608J-1672335D01*
G01*
X90361392Y-51667665D02*
G75*
G03*
X90204484Y-54900000I1078608J-1672335D01*
G01*
%TO.C,LED2*%
X101410000Y-54900000D02*
X101566000Y-54900000D01*
X99094000Y-54900000D02*
X99250000Y-54900000D01*
X99251392Y-51667665D02*
G75*
G03*
X99094484Y-54900000I1078608J-1672335D01*
G01*
X101408608Y-51667665D02*
G75*
G02*
X101565516Y-54900000I-1078608J-1672335D01*
G01*
X99250163Y-52298870D02*
G75*
G03*
X99250000Y-54380961I1079837J-1041130D01*
G01*
X101409837Y-52298870D02*
G75*
G02*
X101410000Y-54380961I-1079837J-1041130D01*
G01*
%TO.C,LED3*%
X110300000Y-54900000D02*
X110456000Y-54900000D01*
X107984000Y-54900000D02*
X108140000Y-54900000D01*
X108141392Y-51667665D02*
G75*
G03*
X107984484Y-54900000I1078608J-1672335D01*
G01*
X110298608Y-51667665D02*
G75*
G02*
X110455516Y-54900000I-1078608J-1672335D01*
G01*
X108140163Y-52298870D02*
G75*
G03*
X108140000Y-54380961I1079837J-1041130D01*
G01*
X110299837Y-52298870D02*
G75*
G02*
X110300000Y-54380961I-1079837J-1041130D01*
G01*
%TO.C,LED4*%
X119190000Y-54900000D02*
X119346000Y-54900000D01*
X116874000Y-54900000D02*
X117030000Y-54900000D01*
X117031392Y-51667665D02*
G75*
G03*
X116874484Y-54900000I1078608J-1672335D01*
G01*
X119188608Y-51667665D02*
G75*
G02*
X119345516Y-54900000I-1078608J-1672335D01*
G01*
X117030163Y-52298870D02*
G75*
G03*
X117030000Y-54380961I1079837J-1041130D01*
G01*
X119189837Y-52298870D02*
G75*
G02*
X119190000Y-54380961I-1079837J-1041130D01*
G01*
%TO.C,Q1*%
X102925000Y-102975000D02*
X102925000Y-106575000D01*
X102936522Y-106613478D02*
G75*
G03*
X107375000Y-104775000I1838478J1838478D01*
G01*
X102936522Y-102936522D02*
G75*
G02*
X107375000Y-104775000I1838478J-1838478D01*
G01*
%TO.C,Q2*%
X107260000Y-119275000D02*
X107260000Y-115675000D01*
X107248478Y-115636522D02*
G75*
G03*
X102810000Y-117475000I-1838478J-1838478D01*
G01*
X107248478Y-119313478D02*
G75*
G02*
X102810000Y-117475000I-1838478J1838478D01*
G01*
%TO.C,Q3*%
X93781000Y-131931000D02*
X93781000Y-135531000D01*
X93792522Y-131892522D02*
G75*
G02*
X98231000Y-133731000I1838478J-1838478D01*
G01*
X93792522Y-135569478D02*
G75*
G03*
X98231000Y-133731000I1838478J1838478D01*
G01*
%TO.C,Q4*%
X93069000Y-84527000D02*
X96669000Y-84527000D01*
X96707478Y-84515478D02*
G75*
G03*
X94869000Y-80077000I-1838478J1838478D01*
G01*
X93030522Y-84515478D02*
G75*
G02*
X94869000Y-80077000I1838478J1838478D01*
G01*
%TO.C,Q5*%
X165630000Y-114355000D02*
X162030000Y-114355000D01*
X165668478Y-114366522D02*
G75*
G02*
X163830000Y-118805000I-1838478J-1838478D01*
G01*
X161991522Y-114366522D02*
G75*
G03*
X163830000Y-118805000I1838478J-1838478D01*
G01*
%TO.C,Q6*%
X104289000Y-128579000D02*
X100689000Y-128579000D01*
X104327478Y-128590522D02*
G75*
G02*
X102489000Y-133029000I-1838478J-1838478D01*
G01*
X100650522Y-128590522D02*
G75*
G03*
X102489000Y-133029000I1838478J-1838478D01*
G01*
%TO.C,R1*%
X115919000Y-78129000D02*
X115919000Y-78459000D01*
X115919000Y-78459000D02*
X109379000Y-78459000D01*
X109379000Y-78459000D02*
X109379000Y-78129000D01*
X115919000Y-76049000D02*
X115919000Y-75719000D01*
X115919000Y-75719000D02*
X109379000Y-75719000D01*
X109379000Y-75719000D02*
X109379000Y-76049000D01*
%TO.C,R2*%
X97631000Y-76605000D02*
X97631000Y-76935000D01*
X97631000Y-76935000D02*
X91091000Y-76935000D01*
X91091000Y-76935000D02*
X91091000Y-76605000D01*
X97631000Y-74525000D02*
X97631000Y-74195000D01*
X97631000Y-74195000D02*
X91091000Y-74195000D01*
X91091000Y-74195000D02*
X91091000Y-74525000D01*
%TO.C,R3*%
X120237000Y-88035000D02*
X120237000Y-88365000D01*
X120237000Y-88365000D02*
X113697000Y-88365000D01*
X113697000Y-88365000D02*
X113697000Y-88035000D01*
X120237000Y-85955000D02*
X120237000Y-85625000D01*
X120237000Y-85625000D02*
X113697000Y-85625000D01*
X113697000Y-85625000D02*
X113697000Y-85955000D01*
%TO.C,R4*%
X99727000Y-85879000D02*
X99727000Y-86209000D01*
X106267000Y-85879000D02*
X99727000Y-85879000D01*
X106267000Y-86209000D02*
X106267000Y-85879000D01*
X99727000Y-88619000D02*
X99727000Y-88289000D01*
X106267000Y-88619000D02*
X99727000Y-88619000D01*
X106267000Y-88289000D02*
X106267000Y-88619000D01*
%TO.C,R5*%
X145955000Y-75541000D02*
X145955000Y-75211000D01*
X145955000Y-75211000D02*
X152495000Y-75211000D01*
X152495000Y-75211000D02*
X152495000Y-75541000D01*
X145955000Y-77621000D02*
X145955000Y-77951000D01*
X145955000Y-77951000D02*
X152495000Y-77951000D01*
X152495000Y-77951000D02*
X152495000Y-77621000D01*
%TO.C,R6*%
X105307000Y-92869000D02*
X105637000Y-92869000D01*
X105637000Y-92869000D02*
X105637000Y-99409000D01*
X105637000Y-99409000D02*
X105307000Y-99409000D01*
X103227000Y-92869000D02*
X102897000Y-92869000D01*
X102897000Y-92869000D02*
X102897000Y-99409000D01*
X102897000Y-99409000D02*
X103227000Y-99409000D01*
%TO.C,R7*%
X165195000Y-89635000D02*
X165195000Y-89305000D01*
X158655000Y-89635000D02*
X165195000Y-89635000D01*
X158655000Y-89305000D02*
X158655000Y-89635000D01*
X165195000Y-86895000D02*
X165195000Y-87225000D01*
X158655000Y-86895000D02*
X165195000Y-86895000D01*
X158655000Y-87225000D02*
X158655000Y-86895000D01*
%TO.C,R8*%
X92615000Y-107037000D02*
X92615000Y-106707000D01*
X92615000Y-106707000D02*
X99155000Y-106707000D01*
X99155000Y-106707000D02*
X99155000Y-107037000D01*
X92615000Y-109117000D02*
X92615000Y-109447000D01*
X92615000Y-109447000D02*
X99155000Y-109447000D01*
X99155000Y-109447000D02*
X99155000Y-109117000D01*
%TO.C,R9*%
X99790000Y-124560000D02*
X99790000Y-124230000D01*
X93250000Y-124560000D02*
X99790000Y-124560000D01*
X93250000Y-124230000D02*
X93250000Y-124560000D01*
X99790000Y-121820000D02*
X99790000Y-122150000D01*
X93250000Y-121820000D02*
X99790000Y-121820000D01*
X93250000Y-122150000D02*
X93250000Y-121820000D01*
%TO.C,R10*%
X165195000Y-95350000D02*
X165195000Y-95020000D01*
X158655000Y-95350000D02*
X165195000Y-95350000D01*
X158655000Y-95020000D02*
X158655000Y-95350000D01*
X165195000Y-92610000D02*
X165195000Y-92940000D01*
X158655000Y-92610000D02*
X165195000Y-92610000D01*
X158655000Y-92940000D02*
X158655000Y-92610000D01*
%TO.C,R11*%
X90070000Y-70580000D02*
X90400000Y-70580000D01*
X90070000Y-64040000D02*
X90070000Y-70580000D01*
X90400000Y-64040000D02*
X90070000Y-64040000D01*
X92810000Y-70580000D02*
X92480000Y-70580000D01*
X92810000Y-64040000D02*
X92810000Y-70580000D01*
X92480000Y-64040000D02*
X92810000Y-64040000D01*
%TO.C,R12*%
X92615000Y-115800000D02*
X92615000Y-115470000D01*
X92615000Y-115470000D02*
X99155000Y-115470000D01*
X99155000Y-115470000D02*
X99155000Y-115800000D01*
X92615000Y-117880000D02*
X92615000Y-118210000D01*
X92615000Y-118210000D02*
X99155000Y-118210000D01*
X99155000Y-118210000D02*
X99155000Y-117880000D01*
%TO.C,R13*%
X88673000Y-132937000D02*
X89003000Y-132937000D01*
X88673000Y-126397000D02*
X88673000Y-132937000D01*
X89003000Y-126397000D02*
X88673000Y-126397000D01*
X91413000Y-132937000D02*
X91083000Y-132937000D01*
X91413000Y-126397000D02*
X91413000Y-132937000D01*
X91083000Y-126397000D02*
X91413000Y-126397000D01*
%TO.C,R14*%
X97560000Y-64040000D02*
X97890000Y-64040000D01*
X97890000Y-64040000D02*
X97890000Y-70580000D01*
X97890000Y-70580000D02*
X97560000Y-70580000D01*
X95480000Y-64040000D02*
X95150000Y-64040000D01*
X95150000Y-64040000D02*
X95150000Y-70580000D01*
X95150000Y-70580000D02*
X95480000Y-70580000D01*
%TO.C,R15*%
X100230000Y-70580000D02*
X100560000Y-70580000D01*
X100230000Y-64040000D02*
X100230000Y-70580000D01*
X100560000Y-64040000D02*
X100230000Y-64040000D01*
X102970000Y-70580000D02*
X102640000Y-70580000D01*
X102970000Y-64040000D02*
X102970000Y-70580000D01*
X102640000Y-64040000D02*
X102970000Y-64040000D01*
%TO.C,R16*%
X165195000Y-103351000D02*
X165195000Y-103021000D01*
X158655000Y-103351000D02*
X165195000Y-103351000D01*
X158655000Y-103021000D02*
X158655000Y-103351000D01*
X165195000Y-100611000D02*
X165195000Y-100941000D01*
X158655000Y-100611000D02*
X165195000Y-100611000D01*
X158655000Y-100941000D02*
X158655000Y-100611000D01*
%TO.C,R17*%
X122960000Y-64040000D02*
X123290000Y-64040000D01*
X123290000Y-64040000D02*
X123290000Y-70580000D01*
X123290000Y-70580000D02*
X122960000Y-70580000D01*
X120880000Y-64040000D02*
X120550000Y-64040000D01*
X120550000Y-64040000D02*
X120550000Y-70580000D01*
X120550000Y-70580000D02*
X120880000Y-70580000D01*
%TO.C,R18*%
X92615000Y-98655000D02*
X92615000Y-98325000D01*
X92615000Y-98325000D02*
X99155000Y-98325000D01*
X99155000Y-98325000D02*
X99155000Y-98655000D01*
X92615000Y-100735000D02*
X92615000Y-101065000D01*
X92615000Y-101065000D02*
X99155000Y-101065000D01*
X99155000Y-101065000D02*
X99155000Y-100735000D01*
%TO.C,R19*%
X92615000Y-91035000D02*
X92615000Y-90705000D01*
X92615000Y-90705000D02*
X99155000Y-90705000D01*
X99155000Y-90705000D02*
X99155000Y-91035000D01*
X92615000Y-93115000D02*
X92615000Y-93445000D01*
X92615000Y-93445000D02*
X99155000Y-93445000D01*
X99155000Y-93445000D02*
X99155000Y-93115000D01*
%TO.C,R20*%
X165195000Y-109955000D02*
X165195000Y-109625000D01*
X158655000Y-109955000D02*
X165195000Y-109955000D01*
X158655000Y-109625000D02*
X158655000Y-109955000D01*
X165195000Y-107215000D02*
X165195000Y-107545000D01*
X158655000Y-107215000D02*
X165195000Y-107215000D01*
X158655000Y-107545000D02*
X158655000Y-107215000D01*
%TO.C,R21*%
X99155000Y-113511000D02*
X99155000Y-113181000D01*
X92615000Y-113511000D02*
X99155000Y-113511000D01*
X92615000Y-113181000D02*
X92615000Y-113511000D01*
X99155000Y-110771000D02*
X99155000Y-111101000D01*
X92615000Y-110771000D02*
X99155000Y-110771000D01*
X92615000Y-111101000D02*
X92615000Y-110771000D01*
%TO.C,R22*%
X157321000Y-117321000D02*
X157321000Y-116991000D01*
X150781000Y-117321000D02*
X157321000Y-117321000D01*
X150781000Y-116991000D02*
X150781000Y-117321000D01*
X157321000Y-114581000D02*
X157321000Y-114911000D01*
X150781000Y-114581000D02*
X157321000Y-114581000D01*
X150781000Y-114911000D02*
X150781000Y-114581000D01*
%TO.C,R23*%
X158655000Y-123801000D02*
X158655000Y-123471000D01*
X158655000Y-123471000D02*
X165195000Y-123471000D01*
X165195000Y-123471000D02*
X165195000Y-123801000D01*
X158655000Y-125881000D02*
X158655000Y-126211000D01*
X158655000Y-126211000D02*
X165195000Y-126211000D01*
X165195000Y-126211000D02*
X165195000Y-125881000D01*
%TO.C,R24*%
X84860000Y-88170000D02*
X85190000Y-88170000D01*
X85190000Y-88170000D02*
X85190000Y-94710000D01*
X85190000Y-94710000D02*
X84860000Y-94710000D01*
X82780000Y-88170000D02*
X82450000Y-88170000D01*
X82450000Y-88170000D02*
X82450000Y-94710000D01*
X82450000Y-94710000D02*
X82780000Y-94710000D01*
%TO.C,R25*%
X113951000Y-124995000D02*
X113951000Y-125325000D01*
X120491000Y-124995000D02*
X113951000Y-124995000D01*
X120491000Y-125325000D02*
X120491000Y-124995000D01*
X113951000Y-127735000D02*
X113951000Y-127405000D01*
X120491000Y-127735000D02*
X113951000Y-127735000D01*
X120491000Y-127405000D02*
X120491000Y-127735000D01*
%TO.C,R26*%
X172693000Y-134525000D02*
X172363000Y-134525000D01*
X172693000Y-141065000D02*
X172693000Y-134525000D01*
X172363000Y-141065000D02*
X172693000Y-141065000D01*
X169953000Y-134525000D02*
X170283000Y-134525000D01*
X169953000Y-141065000D02*
X169953000Y-134525000D01*
X170283000Y-141065000D02*
X169953000Y-141065000D01*
%TO.C,U1*%
X157480000Y-134500000D02*
X157480000Y-131960000D01*
X160020000Y-134500000D02*
X160020000Y-131960000D01*
X162560000Y-134500000D02*
X162560000Y-131960000D01*
X154900000Y-150390000D02*
X154900000Y-134500000D01*
X165140000Y-150390000D02*
X165140000Y-134500000D01*
X165140000Y-150390000D02*
X154900000Y-150390000D01*
X165140000Y-134500000D02*
X154900000Y-134500000D01*
%TO.C,U2*%
X165220000Y-73780000D02*
X165220000Y-48140000D01*
X124340000Y-73780000D02*
X165220000Y-73780000D01*
X124340000Y-48140000D02*
X124340000Y-73780000D01*
X165220000Y-48140000D02*
X124340000Y-48140000D01*
D12*
%TO.C,U3*%
G36*
X132181501Y-99446598D02*
G01*
X132181501Y-99700598D01*
X131800501Y-99700598D01*
X131800501Y-99446598D01*
X132181501Y-99446598D01*
G37*
X132181501Y-99446598D02*
X132181501Y-99700598D01*
X131800501Y-99700598D01*
X131800501Y-99446598D01*
X132181501Y-99446598D01*
G36*
X124327402Y-94627499D02*
G01*
X124327402Y-94246499D01*
X124581402Y-94246499D01*
X124581402Y-94627499D01*
X124327402Y-94627499D01*
G37*
X124327402Y-94627499D02*
X124327402Y-94246499D01*
X124581402Y-94246499D01*
X124581402Y-94627499D01*
X124327402Y-94627499D01*
G36*
X128981500Y-86227402D02*
G01*
X128981500Y-85973402D01*
X128600500Y-85973402D01*
X128600500Y-86227402D01*
X128981500Y-86227402D01*
G37*
X128981500Y-86227402D02*
X128981500Y-85973402D01*
X128600500Y-85973402D01*
X128600500Y-86227402D01*
X128981500Y-86227402D01*
G36*
X138054598Y-89827501D02*
G01*
X138054598Y-89446501D01*
X137800598Y-89446501D01*
X137800598Y-89827501D01*
X138054598Y-89827501D01*
G37*
X138054598Y-89827501D02*
X138054598Y-89446501D01*
X137800598Y-89446501D01*
X137800598Y-89827501D01*
X138054598Y-89827501D01*
D11*
X135777740Y-97964000D02*
X136318000Y-97964000D01*
X126064000Y-97423740D02*
X126064000Y-97964000D01*
X126604260Y-87710000D02*
X126064000Y-87710000D01*
X136318000Y-88250260D02*
X136318000Y-87710000D01*
X136318000Y-97964000D02*
X136318000Y-97423740D01*
X126064000Y-97964000D02*
X126604260Y-97964000D01*
X126064000Y-87710000D02*
X126064000Y-88250260D01*
X136318000Y-87710000D02*
X135777740Y-87710000D01*
%TO.C,X1-1*%
X84780000Y-66850000D02*
X87780000Y-66850000D01*
X87780000Y-66850000D02*
X87780000Y-69850000D01*
X87400000Y-67230000D02*
X87400000Y-77470000D01*
X87400000Y-77470000D02*
X74660000Y-77470000D01*
X74660000Y-67230000D02*
X74660000Y-77470000D01*
X87400000Y-67230000D02*
X74660000Y-67230000D01*
X87400000Y-67230000D02*
X87400000Y-77470000D01*
X87400000Y-77470000D02*
X74660000Y-77470000D01*
X74660000Y-67230000D02*
X74660000Y-77470000D01*
X87400000Y-67230000D02*
X74660000Y-67230000D01*
%TO.C,X1-3*%
X87400000Y-55165000D02*
X74660000Y-55165000D01*
X74660000Y-55165000D02*
X74660000Y-65405000D01*
X87400000Y-65405000D02*
X74660000Y-65405000D01*
X87400000Y-55165000D02*
X87400000Y-65405000D01*
X87400000Y-55165000D02*
X74660000Y-55165000D01*
X74660000Y-55165000D02*
X74660000Y-65405000D01*
X87400000Y-65405000D02*
X74660000Y-65405000D01*
X87400000Y-55165000D02*
X87400000Y-65405000D01*
X87780000Y-54785000D02*
X87780000Y-57785000D01*
X84780000Y-54785000D02*
X87780000Y-54785000D01*
%TO.C,X2-1*%
X76140000Y-97155000D02*
X76140000Y-95825000D01*
X76140000Y-95825000D02*
X77470000Y-95825000D01*
X78680000Y-95825000D02*
X78800000Y-95825000D01*
X78680000Y-98485000D02*
X78800000Y-98485000D01*
X78800000Y-98485000D02*
X78800000Y-95825000D01*
%TO.C,X2-2*%
X78800000Y-102930000D02*
X78800000Y-100270000D01*
X78680000Y-102930000D02*
X78800000Y-102930000D01*
X78680000Y-100270000D02*
X78800000Y-100270000D01*
X76140000Y-100270000D02*
X77470000Y-100270000D01*
X76140000Y-101600000D02*
X76140000Y-100270000D01*
%TO.C,X2-3*%
X76140000Y-106045000D02*
X76140000Y-104715000D01*
X76140000Y-104715000D02*
X77470000Y-104715000D01*
X78680000Y-104715000D02*
X78800000Y-104715000D01*
X78680000Y-107375000D02*
X78800000Y-107375000D01*
X78800000Y-107375000D02*
X78800000Y-104715000D01*
%TO.C,x3-1*%
X76140000Y-110490000D02*
X76140000Y-109160000D01*
X76140000Y-109160000D02*
X77470000Y-109160000D01*
X78680000Y-109160000D02*
X78800000Y-109160000D01*
X78680000Y-111820000D02*
X78800000Y-111820000D01*
X78800000Y-111820000D02*
X78800000Y-109160000D01*
%TO.C,X3-2*%
X78800000Y-116265000D02*
X78800000Y-113605000D01*
X78680000Y-116265000D02*
X78800000Y-116265000D01*
X78680000Y-113605000D02*
X78800000Y-113605000D01*
X76140000Y-113605000D02*
X77470000Y-113605000D01*
X76140000Y-114935000D02*
X76140000Y-113605000D01*
%TO.C,X3-3*%
X78800000Y-120710000D02*
X78800000Y-118050000D01*
X78680000Y-120710000D02*
X78800000Y-120710000D01*
X78680000Y-118050000D02*
X78800000Y-118050000D01*
X76140000Y-118050000D02*
X77470000Y-118050000D01*
X76140000Y-119380000D02*
X76140000Y-118050000D01*
%TO.C,X5-1*%
X87400000Y-125650000D02*
X74660000Y-125650000D01*
X74660000Y-125650000D02*
X74660000Y-135890000D01*
X87400000Y-135890000D02*
X74660000Y-135890000D01*
X87400000Y-125650000D02*
X87400000Y-135890000D01*
X87400000Y-125650000D02*
X74660000Y-125650000D01*
X74660000Y-125650000D02*
X74660000Y-135890000D01*
X87400000Y-135890000D02*
X74660000Y-135890000D01*
X87400000Y-125650000D02*
X87400000Y-135890000D01*
X87780000Y-125270000D02*
X87780000Y-128270000D01*
X84780000Y-125270000D02*
X87780000Y-125270000D01*
%TD*%
%TO.C,REF\u002A\u002A*%
D13*
X170116666Y-46752380D02*
X169783333Y-46276190D01*
X169545238Y-46752380D02*
X169545238Y-45752380D01*
X169926190Y-45752380D01*
X170021428Y-45800000D01*
X170069047Y-45847619D01*
X170116666Y-45942857D01*
X170116666Y-46085714D01*
X170069047Y-46180952D01*
X170021428Y-46228571D01*
X169926190Y-46276190D01*
X169545238Y-46276190D01*
X170545238Y-46228571D02*
X170878571Y-46228571D01*
X171021428Y-46752380D02*
X170545238Y-46752380D01*
X170545238Y-45752380D01*
X171021428Y-45752380D01*
X171783333Y-46228571D02*
X171450000Y-46228571D01*
X171450000Y-46752380D02*
X171450000Y-45752380D01*
X171926190Y-45752380D01*
X172450000Y-45752380D02*
X172450000Y-45990476D01*
X172211904Y-45895238D02*
X172450000Y-45990476D01*
X172688095Y-45895238D01*
X172307142Y-46180952D02*
X172450000Y-45990476D01*
X172592857Y-46180952D01*
X173211904Y-45752380D02*
X173211904Y-45990476D01*
X172973809Y-45895238D02*
X173211904Y-45990476D01*
X173450000Y-45895238D01*
X173069047Y-46180952D02*
X173211904Y-45990476D01*
X173354761Y-46180952D01*
X75501666Y-46117380D02*
X75168333Y-45641190D01*
X74930238Y-46117380D02*
X74930238Y-45117380D01*
X75311190Y-45117380D01*
X75406428Y-45165000D01*
X75454047Y-45212619D01*
X75501666Y-45307857D01*
X75501666Y-45450714D01*
X75454047Y-45545952D01*
X75406428Y-45593571D01*
X75311190Y-45641190D01*
X74930238Y-45641190D01*
X75930238Y-45593571D02*
X76263571Y-45593571D01*
X76406428Y-46117380D02*
X75930238Y-46117380D01*
X75930238Y-45117380D01*
X76406428Y-45117380D01*
X77168333Y-45593571D02*
X76835000Y-45593571D01*
X76835000Y-46117380D02*
X76835000Y-45117380D01*
X77311190Y-45117380D01*
X77835000Y-45117380D02*
X77835000Y-45355476D01*
X77596904Y-45260238D02*
X77835000Y-45355476D01*
X78073095Y-45260238D01*
X77692142Y-45545952D02*
X77835000Y-45355476D01*
X77977857Y-45545952D01*
X78596904Y-45117380D02*
X78596904Y-45355476D01*
X78358809Y-45260238D02*
X78596904Y-45355476D01*
X78835000Y-45260238D01*
X78454047Y-45545952D02*
X78596904Y-45355476D01*
X78739761Y-45545952D01*
X76136666Y-145812380D02*
X75803333Y-145336190D01*
X75565238Y-145812380D02*
X75565238Y-144812380D01*
X75946190Y-144812380D01*
X76041428Y-144860000D01*
X76089047Y-144907619D01*
X76136666Y-145002857D01*
X76136666Y-145145714D01*
X76089047Y-145240952D01*
X76041428Y-145288571D01*
X75946190Y-145336190D01*
X75565238Y-145336190D01*
X76565238Y-145288571D02*
X76898571Y-145288571D01*
X77041428Y-145812380D02*
X76565238Y-145812380D01*
X76565238Y-144812380D01*
X77041428Y-144812380D01*
X77803333Y-145288571D02*
X77470000Y-145288571D01*
X77470000Y-145812380D02*
X77470000Y-144812380D01*
X77946190Y-144812380D01*
X78470000Y-144812380D02*
X78470000Y-145050476D01*
X78231904Y-144955238D02*
X78470000Y-145050476D01*
X78708095Y-144955238D01*
X78327142Y-145240952D02*
X78470000Y-145050476D01*
X78612857Y-145240952D01*
X79231904Y-144812380D02*
X79231904Y-145050476D01*
X78993809Y-144955238D02*
X79231904Y-145050476D01*
X79470000Y-144955238D01*
X79089047Y-145240952D02*
X79231904Y-145050476D01*
X79374761Y-145240952D01*
X170116666Y-145812380D02*
X169783333Y-145336190D01*
X169545238Y-145812380D02*
X169545238Y-144812380D01*
X169926190Y-144812380D01*
X170021428Y-144860000D01*
X170069047Y-144907619D01*
X170116666Y-145002857D01*
X170116666Y-145145714D01*
X170069047Y-145240952D01*
X170021428Y-145288571D01*
X169926190Y-145336190D01*
X169545238Y-145336190D01*
X170545238Y-145288571D02*
X170878571Y-145288571D01*
X171021428Y-145812380D02*
X170545238Y-145812380D01*
X170545238Y-144812380D01*
X171021428Y-144812380D01*
X171783333Y-145288571D02*
X171450000Y-145288571D01*
X171450000Y-145812380D02*
X171450000Y-144812380D01*
X171926190Y-144812380D01*
X172450000Y-144812380D02*
X172450000Y-145050476D01*
X172211904Y-144955238D02*
X172450000Y-145050476D01*
X172688095Y-144955238D01*
X172307142Y-145240952D02*
X172450000Y-145050476D01*
X172592857Y-145240952D01*
X173211904Y-144812380D02*
X173211904Y-145050476D01*
X172973809Y-144955238D02*
X173211904Y-145050476D01*
X173450000Y-144955238D01*
X173069047Y-145240952D02*
X173211904Y-145050476D01*
X173354761Y-145240952D01*
%TO.C,C1*%
X104978142Y-67643666D02*
X105025761Y-67691285D01*
X105073380Y-67834142D01*
X105073380Y-67929380D01*
X105025761Y-68072238D01*
X104930523Y-68167476D01*
X104835285Y-68215095D01*
X104644809Y-68262714D01*
X104501952Y-68262714D01*
X104311476Y-68215095D01*
X104216238Y-68167476D01*
X104121000Y-68072238D01*
X104073380Y-67929380D01*
X104073380Y-67834142D01*
X104121000Y-67691285D01*
X104168619Y-67643666D01*
X105073380Y-66691285D02*
X105073380Y-67262714D01*
X105073380Y-66977000D02*
X104073380Y-66977000D01*
X104216238Y-67072238D01*
X104311476Y-67167476D01*
X104359095Y-67262714D01*
%TO.C,C2*%
X162333333Y-74117142D02*
X162285714Y-74164761D01*
X162142857Y-74212380D01*
X162047619Y-74212380D01*
X161904761Y-74164761D01*
X161809523Y-74069523D01*
X161761904Y-73974285D01*
X161714285Y-73783809D01*
X161714285Y-73640952D01*
X161761904Y-73450476D01*
X161809523Y-73355238D01*
X161904761Y-73260000D01*
X162047619Y-73212380D01*
X162142857Y-73212380D01*
X162285714Y-73260000D01*
X162333333Y-73307619D01*
X162714285Y-73307619D02*
X162761904Y-73260000D01*
X162857142Y-73212380D01*
X163095238Y-73212380D01*
X163190476Y-73260000D01*
X163238095Y-73307619D01*
X163285714Y-73402857D01*
X163285714Y-73498095D01*
X163238095Y-73640952D01*
X162666666Y-74212380D01*
X163285714Y-74212380D01*
%TO.C,C3*%
X140652142Y-136651666D02*
X140699761Y-136699285D01*
X140747380Y-136842142D01*
X140747380Y-136937380D01*
X140699761Y-137080238D01*
X140604523Y-137175476D01*
X140509285Y-137223095D01*
X140318809Y-137270714D01*
X140175952Y-137270714D01*
X139985476Y-137223095D01*
X139890238Y-137175476D01*
X139795000Y-137080238D01*
X139747380Y-136937380D01*
X139747380Y-136842142D01*
X139795000Y-136699285D01*
X139842619Y-136651666D01*
X139747380Y-136318333D02*
X139747380Y-135699285D01*
X140128333Y-136032619D01*
X140128333Y-135889761D01*
X140175952Y-135794523D01*
X140223571Y-135746904D01*
X140318809Y-135699285D01*
X140556904Y-135699285D01*
X140652142Y-135746904D01*
X140699761Y-135794523D01*
X140747380Y-135889761D01*
X140747380Y-136175476D01*
X140699761Y-136270714D01*
X140652142Y-136318333D01*
%TO.C,C4*%
X152416142Y-103711666D02*
X152463761Y-103759285D01*
X152511380Y-103902142D01*
X152511380Y-103997380D01*
X152463761Y-104140238D01*
X152368523Y-104235476D01*
X152273285Y-104283095D01*
X152082809Y-104330714D01*
X151939952Y-104330714D01*
X151749476Y-104283095D01*
X151654238Y-104235476D01*
X151559000Y-104140238D01*
X151511380Y-103997380D01*
X151511380Y-103902142D01*
X151559000Y-103759285D01*
X151606619Y-103711666D01*
X151844714Y-102854523D02*
X152511380Y-102854523D01*
X151463761Y-103092619D02*
X152178047Y-103330714D01*
X152178047Y-102711666D01*
%TO.C,C5*%
X170608333Y-63262142D02*
X170560714Y-63309761D01*
X170417857Y-63357380D01*
X170322619Y-63357380D01*
X170179761Y-63309761D01*
X170084523Y-63214523D01*
X170036904Y-63119285D01*
X169989285Y-62928809D01*
X169989285Y-62785952D01*
X170036904Y-62595476D01*
X170084523Y-62500238D01*
X170179761Y-62405000D01*
X170322619Y-62357380D01*
X170417857Y-62357380D01*
X170560714Y-62405000D01*
X170608333Y-62452619D01*
X171513095Y-62357380D02*
X171036904Y-62357380D01*
X170989285Y-62833571D01*
X171036904Y-62785952D01*
X171132142Y-62738333D01*
X171370238Y-62738333D01*
X171465476Y-62785952D01*
X171513095Y-62833571D01*
X171560714Y-62928809D01*
X171560714Y-63166904D01*
X171513095Y-63262142D01*
X171465476Y-63309761D01*
X171370238Y-63357380D01*
X171132142Y-63357380D01*
X171036904Y-63309761D01*
X170989285Y-63262142D01*
%TO.C,C6*%
X103044333Y-72406142D02*
X102996714Y-72453761D01*
X102853857Y-72501380D01*
X102758619Y-72501380D01*
X102615761Y-72453761D01*
X102520523Y-72358523D01*
X102472904Y-72263285D01*
X102425285Y-72072809D01*
X102425285Y-71929952D01*
X102472904Y-71739476D01*
X102520523Y-71644238D01*
X102615761Y-71549000D01*
X102758619Y-71501380D01*
X102853857Y-71501380D01*
X102996714Y-71549000D01*
X103044333Y-71596619D01*
X103901476Y-71501380D02*
X103711000Y-71501380D01*
X103615761Y-71549000D01*
X103568142Y-71596619D01*
X103472904Y-71739476D01*
X103425285Y-71929952D01*
X103425285Y-72310904D01*
X103472904Y-72406142D01*
X103520523Y-72453761D01*
X103615761Y-72501380D01*
X103806238Y-72501380D01*
X103901476Y-72453761D01*
X103949095Y-72406142D01*
X103996714Y-72310904D01*
X103996714Y-72072809D01*
X103949095Y-71977571D01*
X103901476Y-71929952D01*
X103806238Y-71882333D01*
X103615761Y-71882333D01*
X103520523Y-71929952D01*
X103472904Y-71977571D01*
X103425285Y-72072809D01*
%TO.C,C7*%
X160448333Y-118634142D02*
X160400714Y-118681761D01*
X160257857Y-118729380D01*
X160162619Y-118729380D01*
X160019761Y-118681761D01*
X159924523Y-118586523D01*
X159876904Y-118491285D01*
X159829285Y-118300809D01*
X159829285Y-118157952D01*
X159876904Y-117967476D01*
X159924523Y-117872238D01*
X160019761Y-117777000D01*
X160162619Y-117729380D01*
X160257857Y-117729380D01*
X160400714Y-117777000D01*
X160448333Y-117824619D01*
X160781666Y-117729380D02*
X161448333Y-117729380D01*
X161019761Y-118729380D01*
%TO.C,C8*%
X121687142Y-145601666D02*
X121734761Y-145649285D01*
X121782380Y-145792142D01*
X121782380Y-145887380D01*
X121734761Y-146030238D01*
X121639523Y-146125476D01*
X121544285Y-146173095D01*
X121353809Y-146220714D01*
X121210952Y-146220714D01*
X121020476Y-146173095D01*
X120925238Y-146125476D01*
X120830000Y-146030238D01*
X120782380Y-145887380D01*
X120782380Y-145792142D01*
X120830000Y-145649285D01*
X120877619Y-145601666D01*
X121210952Y-145030238D02*
X121163333Y-145125476D01*
X121115714Y-145173095D01*
X121020476Y-145220714D01*
X120972857Y-145220714D01*
X120877619Y-145173095D01*
X120830000Y-145125476D01*
X120782380Y-145030238D01*
X120782380Y-144839761D01*
X120830000Y-144744523D01*
X120877619Y-144696904D01*
X120972857Y-144649285D01*
X121020476Y-144649285D01*
X121115714Y-144696904D01*
X121163333Y-144744523D01*
X121210952Y-144839761D01*
X121210952Y-145030238D01*
X121258571Y-145125476D01*
X121306190Y-145173095D01*
X121401428Y-145220714D01*
X121591904Y-145220714D01*
X121687142Y-145173095D01*
X121734761Y-145125476D01*
X121782380Y-145030238D01*
X121782380Y-144839761D01*
X121734761Y-144744523D01*
X121687142Y-144696904D01*
X121591904Y-144649285D01*
X121401428Y-144649285D01*
X121306190Y-144696904D01*
X121258571Y-144744523D01*
X121210952Y-144839761D01*
%TO.C,C9*%
X104584142Y-80263666D02*
X104631761Y-80311285D01*
X104679380Y-80454142D01*
X104679380Y-80549380D01*
X104631761Y-80692238D01*
X104536523Y-80787476D01*
X104441285Y-80835095D01*
X104250809Y-80882714D01*
X104107952Y-80882714D01*
X103917476Y-80835095D01*
X103822238Y-80787476D01*
X103727000Y-80692238D01*
X103679380Y-80549380D01*
X103679380Y-80454142D01*
X103727000Y-80311285D01*
X103774619Y-80263666D01*
X104679380Y-79787476D02*
X104679380Y-79597000D01*
X104631761Y-79501761D01*
X104584142Y-79454142D01*
X104441285Y-79358904D01*
X104250809Y-79311285D01*
X103869857Y-79311285D01*
X103774619Y-79358904D01*
X103727000Y-79406523D01*
X103679380Y-79501761D01*
X103679380Y-79692238D01*
X103727000Y-79787476D01*
X103774619Y-79835095D01*
X103869857Y-79882714D01*
X104107952Y-79882714D01*
X104203190Y-79835095D01*
X104250809Y-79787476D01*
X104298428Y-79692238D01*
X104298428Y-79501761D01*
X104250809Y-79406523D01*
X104203190Y-79358904D01*
X104107952Y-79311285D01*
%TO.C,C10*%
X165116142Y-134159857D02*
X165163761Y-134207476D01*
X165211380Y-134350333D01*
X165211380Y-134445571D01*
X165163761Y-134588428D01*
X165068523Y-134683666D01*
X164973285Y-134731285D01*
X164782809Y-134778904D01*
X164639952Y-134778904D01*
X164449476Y-134731285D01*
X164354238Y-134683666D01*
X164259000Y-134588428D01*
X164211380Y-134445571D01*
X164211380Y-134350333D01*
X164259000Y-134207476D01*
X164306619Y-134159857D01*
X165211380Y-133207476D02*
X165211380Y-133778904D01*
X165211380Y-133493190D02*
X164211380Y-133493190D01*
X164354238Y-133588428D01*
X164449476Y-133683666D01*
X164497095Y-133778904D01*
X164211380Y-132588428D02*
X164211380Y-132493190D01*
X164259000Y-132397952D01*
X164306619Y-132350333D01*
X164401857Y-132302714D01*
X164592333Y-132255095D01*
X164830428Y-132255095D01*
X165020904Y-132302714D01*
X165116142Y-132350333D01*
X165163761Y-132397952D01*
X165211380Y-132493190D01*
X165211380Y-132588428D01*
X165163761Y-132683666D01*
X165116142Y-132731285D01*
X165020904Y-132778904D01*
X164830428Y-132826523D01*
X164592333Y-132826523D01*
X164401857Y-132778904D01*
X164306619Y-132731285D01*
X164259000Y-132683666D01*
X164211380Y-132588428D01*
%TO.C,C11*%
X170196142Y-80311857D02*
X170243761Y-80359476D01*
X170291380Y-80502333D01*
X170291380Y-80597571D01*
X170243761Y-80740428D01*
X170148523Y-80835666D01*
X170053285Y-80883285D01*
X169862809Y-80930904D01*
X169719952Y-80930904D01*
X169529476Y-80883285D01*
X169434238Y-80835666D01*
X169339000Y-80740428D01*
X169291380Y-80597571D01*
X169291380Y-80502333D01*
X169339000Y-80359476D01*
X169386619Y-80311857D01*
X170291380Y-79359476D02*
X170291380Y-79930904D01*
X170291380Y-79645190D02*
X169291380Y-79645190D01*
X169434238Y-79740428D01*
X169529476Y-79835666D01*
X169577095Y-79930904D01*
X170291380Y-78407095D02*
X170291380Y-78978523D01*
X170291380Y-78692809D02*
X169291380Y-78692809D01*
X169434238Y-78788047D01*
X169529476Y-78883285D01*
X169577095Y-78978523D01*
%TO.C,C12*%
X169624142Y-68342142D02*
X169576523Y-68389761D01*
X169433666Y-68437380D01*
X169338428Y-68437380D01*
X169195571Y-68389761D01*
X169100333Y-68294523D01*
X169052714Y-68199285D01*
X169005095Y-68008809D01*
X169005095Y-67865952D01*
X169052714Y-67675476D01*
X169100333Y-67580238D01*
X169195571Y-67485000D01*
X169338428Y-67437380D01*
X169433666Y-67437380D01*
X169576523Y-67485000D01*
X169624142Y-67532619D01*
X170576523Y-68437380D02*
X170005095Y-68437380D01*
X170290809Y-68437380D02*
X170290809Y-67437380D01*
X170195571Y-67580238D01*
X170100333Y-67675476D01*
X170005095Y-67723095D01*
X170957476Y-67532619D02*
X171005095Y-67485000D01*
X171100333Y-67437380D01*
X171338428Y-67437380D01*
X171433666Y-67485000D01*
X171481285Y-67532619D01*
X171528904Y-67627857D01*
X171528904Y-67723095D01*
X171481285Y-67865952D01*
X170909857Y-68437380D01*
X171528904Y-68437380D01*
%TO.C,C13*%
X106696142Y-127047857D02*
X106743761Y-127095476D01*
X106791380Y-127238333D01*
X106791380Y-127333571D01*
X106743761Y-127476428D01*
X106648523Y-127571666D01*
X106553285Y-127619285D01*
X106362809Y-127666904D01*
X106219952Y-127666904D01*
X106029476Y-127619285D01*
X105934238Y-127571666D01*
X105839000Y-127476428D01*
X105791380Y-127333571D01*
X105791380Y-127238333D01*
X105839000Y-127095476D01*
X105886619Y-127047857D01*
X106791380Y-126095476D02*
X106791380Y-126666904D01*
X106791380Y-126381190D02*
X105791380Y-126381190D01*
X105934238Y-126476428D01*
X106029476Y-126571666D01*
X106077095Y-126666904D01*
X105791380Y-125762142D02*
X105791380Y-125143095D01*
X106172333Y-125476428D01*
X106172333Y-125333571D01*
X106219952Y-125238333D01*
X106267571Y-125190714D01*
X106362809Y-125143095D01*
X106600904Y-125143095D01*
X106696142Y-125190714D01*
X106743761Y-125238333D01*
X106791380Y-125333571D01*
X106791380Y-125619285D01*
X106743761Y-125714523D01*
X106696142Y-125762142D01*
%TO.C,D2*%
X168942380Y-87733095D02*
X167942380Y-87733095D01*
X167942380Y-87495000D01*
X167990000Y-87352142D01*
X168085238Y-87256904D01*
X168180476Y-87209285D01*
X168370952Y-87161666D01*
X168513809Y-87161666D01*
X168704285Y-87209285D01*
X168799523Y-87256904D01*
X168894761Y-87352142D01*
X168942380Y-87495000D01*
X168942380Y-87733095D01*
X168037619Y-86780714D02*
X167990000Y-86733095D01*
X167942380Y-86637857D01*
X167942380Y-86399761D01*
X167990000Y-86304523D01*
X168037619Y-86256904D01*
X168132857Y-86209285D01*
X168228095Y-86209285D01*
X168370952Y-86256904D01*
X168942380Y-86828333D01*
X168942380Y-86209285D01*
%TO.C,D5*%
X168942380Y-95988095D02*
X167942380Y-95988095D01*
X167942380Y-95750000D01*
X167990000Y-95607142D01*
X168085238Y-95511904D01*
X168180476Y-95464285D01*
X168370952Y-95416666D01*
X168513809Y-95416666D01*
X168704285Y-95464285D01*
X168799523Y-95511904D01*
X168894761Y-95607142D01*
X168942380Y-95750000D01*
X168942380Y-95988095D01*
X167942380Y-94511904D02*
X167942380Y-94988095D01*
X168418571Y-95035714D01*
X168370952Y-94988095D01*
X168323333Y-94892857D01*
X168323333Y-94654761D01*
X168370952Y-94559523D01*
X168418571Y-94511904D01*
X168513809Y-94464285D01*
X168751904Y-94464285D01*
X168847142Y-94511904D01*
X168894761Y-94559523D01*
X168942380Y-94654761D01*
X168942380Y-94892857D01*
X168894761Y-94988095D01*
X168847142Y-95035714D01*
%TO.C,D11*%
X168942380Y-105354285D02*
X167942380Y-105354285D01*
X167942380Y-105116190D01*
X167990000Y-104973333D01*
X168085238Y-104878095D01*
X168180476Y-104830476D01*
X168370952Y-104782857D01*
X168513809Y-104782857D01*
X168704285Y-104830476D01*
X168799523Y-104878095D01*
X168894761Y-104973333D01*
X168942380Y-105116190D01*
X168942380Y-105354285D01*
X168942380Y-103830476D02*
X168942380Y-104401904D01*
X168942380Y-104116190D02*
X167942380Y-104116190D01*
X168085238Y-104211428D01*
X168180476Y-104306666D01*
X168228095Y-104401904D01*
X168942380Y-102878095D02*
X168942380Y-103449523D01*
X168942380Y-103163809D02*
X167942380Y-103163809D01*
X168085238Y-103259047D01*
X168180476Y-103354285D01*
X168228095Y-103449523D01*
%TO.C,D13*%
X168942380Y-112974285D02*
X167942380Y-112974285D01*
X167942380Y-112736190D01*
X167990000Y-112593333D01*
X168085238Y-112498095D01*
X168180476Y-112450476D01*
X168370952Y-112402857D01*
X168513809Y-112402857D01*
X168704285Y-112450476D01*
X168799523Y-112498095D01*
X168894761Y-112593333D01*
X168942380Y-112736190D01*
X168942380Y-112974285D01*
X168942380Y-111450476D02*
X168942380Y-112021904D01*
X168942380Y-111736190D02*
X167942380Y-111736190D01*
X168085238Y-111831428D01*
X168180476Y-111926666D01*
X168228095Y-112021904D01*
X167942380Y-111117142D02*
X167942380Y-110498095D01*
X168323333Y-110831428D01*
X168323333Y-110688571D01*
X168370952Y-110593333D01*
X168418571Y-110545714D01*
X168513809Y-110498095D01*
X168751904Y-110498095D01*
X168847142Y-110545714D01*
X168894761Y-110593333D01*
X168942380Y-110688571D01*
X168942380Y-110974285D01*
X168894761Y-111069523D01*
X168847142Y-111117142D01*
%TO.C,D14*%
X174862380Y-121229285D02*
X173862380Y-121229285D01*
X173862380Y-120991190D01*
X173910000Y-120848333D01*
X174005238Y-120753095D01*
X174100476Y-120705476D01*
X174290952Y-120657857D01*
X174433809Y-120657857D01*
X174624285Y-120705476D01*
X174719523Y-120753095D01*
X174814761Y-120848333D01*
X174862380Y-120991190D01*
X174862380Y-121229285D01*
X174862380Y-119705476D02*
X174862380Y-120276904D01*
X174862380Y-119991190D02*
X173862380Y-119991190D01*
X174005238Y-120086428D01*
X174100476Y-120181666D01*
X174148095Y-120276904D01*
X174195714Y-118848333D02*
X174862380Y-118848333D01*
X173814761Y-119086428D02*
X174529047Y-119324523D01*
X174529047Y-118705476D01*
%TO.C,D15*%
X168942380Y-129484285D02*
X167942380Y-129484285D01*
X167942380Y-129246190D01*
X167990000Y-129103333D01*
X168085238Y-129008095D01*
X168180476Y-128960476D01*
X168370952Y-128912857D01*
X168513809Y-128912857D01*
X168704285Y-128960476D01*
X168799523Y-129008095D01*
X168894761Y-129103333D01*
X168942380Y-129246190D01*
X168942380Y-129484285D01*
X168942380Y-127960476D02*
X168942380Y-128531904D01*
X168942380Y-128246190D02*
X167942380Y-128246190D01*
X168085238Y-128341428D01*
X168180476Y-128436666D01*
X168228095Y-128531904D01*
X167942380Y-127055714D02*
X167942380Y-127531904D01*
X168418571Y-127579523D01*
X168370952Y-127531904D01*
X168323333Y-127436666D01*
X168323333Y-127198571D01*
X168370952Y-127103333D01*
X168418571Y-127055714D01*
X168513809Y-127008095D01*
X168751904Y-127008095D01*
X168847142Y-127055714D01*
X168894761Y-127103333D01*
X168942380Y-127198571D01*
X168942380Y-127436666D01*
X168894761Y-127531904D01*
X168847142Y-127579523D01*
%TO.C,Diode1*%
X135383380Y-138580523D02*
X134383380Y-138580523D01*
X134383380Y-138342428D01*
X134431000Y-138199571D01*
X134526238Y-138104333D01*
X134621476Y-138056714D01*
X134811952Y-138009095D01*
X134954809Y-138009095D01*
X135145285Y-138056714D01*
X135240523Y-138104333D01*
X135335761Y-138199571D01*
X135383380Y-138342428D01*
X135383380Y-138580523D01*
X135383380Y-137580523D02*
X134716714Y-137580523D01*
X134383380Y-137580523D02*
X134431000Y-137628142D01*
X134478619Y-137580523D01*
X134431000Y-137532904D01*
X134383380Y-137580523D01*
X134478619Y-137580523D01*
X135383380Y-136961476D02*
X135335761Y-137056714D01*
X135288142Y-137104333D01*
X135192904Y-137151952D01*
X134907190Y-137151952D01*
X134811952Y-137104333D01*
X134764333Y-137056714D01*
X134716714Y-136961476D01*
X134716714Y-136818619D01*
X134764333Y-136723380D01*
X134811952Y-136675761D01*
X134907190Y-136628142D01*
X135192904Y-136628142D01*
X135288142Y-136675761D01*
X135335761Y-136723380D01*
X135383380Y-136818619D01*
X135383380Y-136961476D01*
X135383380Y-135771000D02*
X134383380Y-135771000D01*
X135335761Y-135771000D02*
X135383380Y-135866238D01*
X135383380Y-136056714D01*
X135335761Y-136151952D01*
X135288142Y-136199571D01*
X135192904Y-136247190D01*
X134907190Y-136247190D01*
X134811952Y-136199571D01*
X134764333Y-136151952D01*
X134716714Y-136056714D01*
X134716714Y-135866238D01*
X134764333Y-135771000D01*
X135335761Y-134913857D02*
X135383380Y-135009095D01*
X135383380Y-135199571D01*
X135335761Y-135294809D01*
X135240523Y-135342428D01*
X134859571Y-135342428D01*
X134764333Y-135294809D01*
X134716714Y-135199571D01*
X134716714Y-135009095D01*
X134764333Y-134913857D01*
X134859571Y-134866238D01*
X134954809Y-134866238D01*
X135050047Y-135342428D01*
X135383380Y-133913857D02*
X135383380Y-134485285D01*
X135383380Y-134199571D02*
X134383380Y-134199571D01*
X134526238Y-134294809D01*
X134621476Y-134390047D01*
X134669095Y-134485285D01*
X135013380Y-132722904D02*
X134013380Y-132722904D01*
X135013380Y-132151476D02*
X134441952Y-132580047D01*
X134013380Y-132151476D02*
X134584809Y-132722904D01*
%TO.C,Diode3*%
X129033380Y-138580523D02*
X128033380Y-138580523D01*
X128033380Y-138342428D01*
X128081000Y-138199571D01*
X128176238Y-138104333D01*
X128271476Y-138056714D01*
X128461952Y-138009095D01*
X128604809Y-138009095D01*
X128795285Y-138056714D01*
X128890523Y-138104333D01*
X128985761Y-138199571D01*
X129033380Y-138342428D01*
X129033380Y-138580523D01*
X129033380Y-137580523D02*
X128366714Y-137580523D01*
X128033380Y-137580523D02*
X128081000Y-137628142D01*
X128128619Y-137580523D01*
X128081000Y-137532904D01*
X128033380Y-137580523D01*
X128128619Y-137580523D01*
X129033380Y-136961476D02*
X128985761Y-137056714D01*
X128938142Y-137104333D01*
X128842904Y-137151952D01*
X128557190Y-137151952D01*
X128461952Y-137104333D01*
X128414333Y-137056714D01*
X128366714Y-136961476D01*
X128366714Y-136818619D01*
X128414333Y-136723380D01*
X128461952Y-136675761D01*
X128557190Y-136628142D01*
X128842904Y-136628142D01*
X128938142Y-136675761D01*
X128985761Y-136723380D01*
X129033380Y-136818619D01*
X129033380Y-136961476D01*
X129033380Y-135771000D02*
X128033380Y-135771000D01*
X128985761Y-135771000D02*
X129033380Y-135866238D01*
X129033380Y-136056714D01*
X128985761Y-136151952D01*
X128938142Y-136199571D01*
X128842904Y-136247190D01*
X128557190Y-136247190D01*
X128461952Y-136199571D01*
X128414333Y-136151952D01*
X128366714Y-136056714D01*
X128366714Y-135866238D01*
X128414333Y-135771000D01*
X128985761Y-134913857D02*
X129033380Y-135009095D01*
X129033380Y-135199571D01*
X128985761Y-135294809D01*
X128890523Y-135342428D01*
X128509571Y-135342428D01*
X128414333Y-135294809D01*
X128366714Y-135199571D01*
X128366714Y-135009095D01*
X128414333Y-134913857D01*
X128509571Y-134866238D01*
X128604809Y-134866238D01*
X128700047Y-135342428D01*
X128033380Y-134532904D02*
X128033380Y-133913857D01*
X128414333Y-134247190D01*
X128414333Y-134104333D01*
X128461952Y-134009095D01*
X128509571Y-133961476D01*
X128604809Y-133913857D01*
X128842904Y-133913857D01*
X128938142Y-133961476D01*
X128985761Y-134009095D01*
X129033380Y-134104333D01*
X129033380Y-134390047D01*
X128985761Y-134485285D01*
X128938142Y-134532904D01*
X128663380Y-132722904D02*
X127663380Y-132722904D01*
X128663380Y-132151476D02*
X128091952Y-132580047D01*
X127663380Y-132151476D02*
X128234809Y-132722904D01*
%TO.C,Diode4*%
X122683380Y-138580523D02*
X121683380Y-138580523D01*
X121683380Y-138342428D01*
X121731000Y-138199571D01*
X121826238Y-138104333D01*
X121921476Y-138056714D01*
X122111952Y-138009095D01*
X122254809Y-138009095D01*
X122445285Y-138056714D01*
X122540523Y-138104333D01*
X122635761Y-138199571D01*
X122683380Y-138342428D01*
X122683380Y-138580523D01*
X122683380Y-137580523D02*
X122016714Y-137580523D01*
X121683380Y-137580523D02*
X121731000Y-137628142D01*
X121778619Y-137580523D01*
X121731000Y-137532904D01*
X121683380Y-137580523D01*
X121778619Y-137580523D01*
X122683380Y-136961476D02*
X122635761Y-137056714D01*
X122588142Y-137104333D01*
X122492904Y-137151952D01*
X122207190Y-137151952D01*
X122111952Y-137104333D01*
X122064333Y-137056714D01*
X122016714Y-136961476D01*
X122016714Y-136818619D01*
X122064333Y-136723380D01*
X122111952Y-136675761D01*
X122207190Y-136628142D01*
X122492904Y-136628142D01*
X122588142Y-136675761D01*
X122635761Y-136723380D01*
X122683380Y-136818619D01*
X122683380Y-136961476D01*
X122683380Y-135771000D02*
X121683380Y-135771000D01*
X122635761Y-135771000D02*
X122683380Y-135866238D01*
X122683380Y-136056714D01*
X122635761Y-136151952D01*
X122588142Y-136199571D01*
X122492904Y-136247190D01*
X122207190Y-136247190D01*
X122111952Y-136199571D01*
X122064333Y-136151952D01*
X122016714Y-136056714D01*
X122016714Y-135866238D01*
X122064333Y-135771000D01*
X122635761Y-134913857D02*
X122683380Y-135009095D01*
X122683380Y-135199571D01*
X122635761Y-135294809D01*
X122540523Y-135342428D01*
X122159571Y-135342428D01*
X122064333Y-135294809D01*
X122016714Y-135199571D01*
X122016714Y-135009095D01*
X122064333Y-134913857D01*
X122159571Y-134866238D01*
X122254809Y-134866238D01*
X122350047Y-135342428D01*
X122016714Y-134009095D02*
X122683380Y-134009095D01*
X121635761Y-134247190D02*
X122350047Y-134485285D01*
X122350047Y-133866238D01*
X122313380Y-132722904D02*
X121313380Y-132722904D01*
X122313380Y-132151476D02*
X121741952Y-132580047D01*
X121313380Y-132151476D02*
X121884809Y-132722904D01*
%TO.C,Diode6*%
X116333380Y-138580523D02*
X115333380Y-138580523D01*
X115333380Y-138342428D01*
X115381000Y-138199571D01*
X115476238Y-138104333D01*
X115571476Y-138056714D01*
X115761952Y-138009095D01*
X115904809Y-138009095D01*
X116095285Y-138056714D01*
X116190523Y-138104333D01*
X116285761Y-138199571D01*
X116333380Y-138342428D01*
X116333380Y-138580523D01*
X116333380Y-137580523D02*
X115666714Y-137580523D01*
X115333380Y-137580523D02*
X115381000Y-137628142D01*
X115428619Y-137580523D01*
X115381000Y-137532904D01*
X115333380Y-137580523D01*
X115428619Y-137580523D01*
X116333380Y-136961476D02*
X116285761Y-137056714D01*
X116238142Y-137104333D01*
X116142904Y-137151952D01*
X115857190Y-137151952D01*
X115761952Y-137104333D01*
X115714333Y-137056714D01*
X115666714Y-136961476D01*
X115666714Y-136818619D01*
X115714333Y-136723380D01*
X115761952Y-136675761D01*
X115857190Y-136628142D01*
X116142904Y-136628142D01*
X116238142Y-136675761D01*
X116285761Y-136723380D01*
X116333380Y-136818619D01*
X116333380Y-136961476D01*
X116333380Y-135771000D02*
X115333380Y-135771000D01*
X116285761Y-135771000D02*
X116333380Y-135866238D01*
X116333380Y-136056714D01*
X116285761Y-136151952D01*
X116238142Y-136199571D01*
X116142904Y-136247190D01*
X115857190Y-136247190D01*
X115761952Y-136199571D01*
X115714333Y-136151952D01*
X115666714Y-136056714D01*
X115666714Y-135866238D01*
X115714333Y-135771000D01*
X116285761Y-134913857D02*
X116333380Y-135009095D01*
X116333380Y-135199571D01*
X116285761Y-135294809D01*
X116190523Y-135342428D01*
X115809571Y-135342428D01*
X115714333Y-135294809D01*
X115666714Y-135199571D01*
X115666714Y-135009095D01*
X115714333Y-134913857D01*
X115809571Y-134866238D01*
X115904809Y-134866238D01*
X116000047Y-135342428D01*
X115333380Y-134009095D02*
X115333380Y-134199571D01*
X115381000Y-134294809D01*
X115428619Y-134342428D01*
X115571476Y-134437666D01*
X115761952Y-134485285D01*
X116142904Y-134485285D01*
X116238142Y-134437666D01*
X116285761Y-134390047D01*
X116333380Y-134294809D01*
X116333380Y-134104333D01*
X116285761Y-134009095D01*
X116238142Y-133961476D01*
X116142904Y-133913857D01*
X115904809Y-133913857D01*
X115809571Y-133961476D01*
X115761952Y-134009095D01*
X115714333Y-134104333D01*
X115714333Y-134294809D01*
X115761952Y-134390047D01*
X115809571Y-134437666D01*
X115904809Y-134485285D01*
X115963380Y-132722904D02*
X114963380Y-132722904D01*
X115963380Y-132151476D02*
X115391952Y-132580047D01*
X114963380Y-132151476D02*
X115534809Y-132722904D01*
%TO.C,Diode8*%
X109983380Y-138580523D02*
X108983380Y-138580523D01*
X108983380Y-138342428D01*
X109031000Y-138199571D01*
X109126238Y-138104333D01*
X109221476Y-138056714D01*
X109411952Y-138009095D01*
X109554809Y-138009095D01*
X109745285Y-138056714D01*
X109840523Y-138104333D01*
X109935761Y-138199571D01*
X109983380Y-138342428D01*
X109983380Y-138580523D01*
X109983380Y-137580523D02*
X109316714Y-137580523D01*
X108983380Y-137580523D02*
X109031000Y-137628142D01*
X109078619Y-137580523D01*
X109031000Y-137532904D01*
X108983380Y-137580523D01*
X109078619Y-137580523D01*
X109983380Y-136961476D02*
X109935761Y-137056714D01*
X109888142Y-137104333D01*
X109792904Y-137151952D01*
X109507190Y-137151952D01*
X109411952Y-137104333D01*
X109364333Y-137056714D01*
X109316714Y-136961476D01*
X109316714Y-136818619D01*
X109364333Y-136723380D01*
X109411952Y-136675761D01*
X109507190Y-136628142D01*
X109792904Y-136628142D01*
X109888142Y-136675761D01*
X109935761Y-136723380D01*
X109983380Y-136818619D01*
X109983380Y-136961476D01*
X109983380Y-135771000D02*
X108983380Y-135771000D01*
X109935761Y-135771000D02*
X109983380Y-135866238D01*
X109983380Y-136056714D01*
X109935761Y-136151952D01*
X109888142Y-136199571D01*
X109792904Y-136247190D01*
X109507190Y-136247190D01*
X109411952Y-136199571D01*
X109364333Y-136151952D01*
X109316714Y-136056714D01*
X109316714Y-135866238D01*
X109364333Y-135771000D01*
X109935761Y-134913857D02*
X109983380Y-135009095D01*
X109983380Y-135199571D01*
X109935761Y-135294809D01*
X109840523Y-135342428D01*
X109459571Y-135342428D01*
X109364333Y-135294809D01*
X109316714Y-135199571D01*
X109316714Y-135009095D01*
X109364333Y-134913857D01*
X109459571Y-134866238D01*
X109554809Y-134866238D01*
X109650047Y-135342428D01*
X109411952Y-134294809D02*
X109364333Y-134390047D01*
X109316714Y-134437666D01*
X109221476Y-134485285D01*
X109173857Y-134485285D01*
X109078619Y-134437666D01*
X109031000Y-134390047D01*
X108983380Y-134294809D01*
X108983380Y-134104333D01*
X109031000Y-134009095D01*
X109078619Y-133961476D01*
X109173857Y-133913857D01*
X109221476Y-133913857D01*
X109316714Y-133961476D01*
X109364333Y-134009095D01*
X109411952Y-134104333D01*
X109411952Y-134294809D01*
X109459571Y-134390047D01*
X109507190Y-134437666D01*
X109602428Y-134485285D01*
X109792904Y-134485285D01*
X109888142Y-134437666D01*
X109935761Y-134390047D01*
X109983380Y-134294809D01*
X109983380Y-134104333D01*
X109935761Y-134009095D01*
X109888142Y-133961476D01*
X109792904Y-133913857D01*
X109602428Y-133913857D01*
X109507190Y-133961476D01*
X109459571Y-134009095D01*
X109411952Y-134104333D01*
X109613380Y-132722904D02*
X108613380Y-132722904D01*
X109613380Y-132151476D02*
X109041952Y-132580047D01*
X108613380Y-132151476D02*
X109184809Y-132722904D01*
%TO.C,J1*%
X110256666Y-148302380D02*
X110256666Y-149016666D01*
X110209047Y-149159523D01*
X110113809Y-149254761D01*
X109970952Y-149302380D01*
X109875714Y-149302380D01*
X111256666Y-149302380D02*
X110685238Y-149302380D01*
X110970952Y-149302380D02*
X110970952Y-148302380D01*
X110875714Y-148445238D01*
X110780476Y-148540476D01*
X110685238Y-148588095D01*
%TO.C,J2*%
X87241666Y-141467380D02*
X87241666Y-142181666D01*
X87194047Y-142324523D01*
X87098809Y-142419761D01*
X86955952Y-142467380D01*
X86860714Y-142467380D01*
X87670238Y-141562619D02*
X87717857Y-141515000D01*
X87813095Y-141467380D01*
X88051190Y-141467380D01*
X88146428Y-141515000D01*
X88194047Y-141562619D01*
X88241666Y-141657857D01*
X88241666Y-141753095D01*
X88194047Y-141895952D01*
X87622619Y-142467380D01*
X88241666Y-142467380D01*
%TO.C,J3*%
X79676666Y-79232380D02*
X79676666Y-79946666D01*
X79629047Y-80089523D01*
X79533809Y-80184761D01*
X79390952Y-80232380D01*
X79295714Y-80232380D01*
X80057619Y-79232380D02*
X80676666Y-79232380D01*
X80343333Y-79613333D01*
X80486190Y-79613333D01*
X80581428Y-79660952D01*
X80629047Y-79708571D01*
X80676666Y-79803809D01*
X80676666Y-80041904D01*
X80629047Y-80137142D01*
X80581428Y-80184761D01*
X80486190Y-80232380D01*
X80200476Y-80232380D01*
X80105238Y-80184761D01*
X80057619Y-80137142D01*
%TO.C,JP1*%
X87431666Y-112272380D02*
X87431666Y-112986666D01*
X87384047Y-113129523D01*
X87288809Y-113224761D01*
X87145952Y-113272380D01*
X87050714Y-113272380D01*
X87907857Y-113272380D02*
X87907857Y-112272380D01*
X88288809Y-112272380D01*
X88384047Y-112320000D01*
X88431666Y-112367619D01*
X88479285Y-112462857D01*
X88479285Y-112605714D01*
X88431666Y-112700952D01*
X88384047Y-112748571D01*
X88288809Y-112796190D01*
X87907857Y-112796190D01*
X89431666Y-113272380D02*
X88860238Y-113272380D01*
X89145952Y-113272380D02*
X89145952Y-112272380D01*
X89050714Y-112415238D01*
X88955476Y-112510476D01*
X88860238Y-112558095D01*
%TO.C,JP2*%
X82986666Y-119257380D02*
X82986666Y-119971666D01*
X82939047Y-120114523D01*
X82843809Y-120209761D01*
X82700952Y-120257380D01*
X82605714Y-120257380D01*
X83462857Y-120257380D02*
X83462857Y-119257380D01*
X83843809Y-119257380D01*
X83939047Y-119305000D01*
X83986666Y-119352619D01*
X84034285Y-119447857D01*
X84034285Y-119590714D01*
X83986666Y-119685952D01*
X83939047Y-119733571D01*
X83843809Y-119781190D01*
X83462857Y-119781190D01*
X84415238Y-119352619D02*
X84462857Y-119305000D01*
X84558095Y-119257380D01*
X84796190Y-119257380D01*
X84891428Y-119305000D01*
X84939047Y-119352619D01*
X84986666Y-119447857D01*
X84986666Y-119543095D01*
X84939047Y-119685952D01*
X84367619Y-120257380D01*
X84986666Y-120257380D01*
%TO.C,JP3*%
X87431666Y-123702380D02*
X87431666Y-124416666D01*
X87384047Y-124559523D01*
X87288809Y-124654761D01*
X87145952Y-124702380D01*
X87050714Y-124702380D01*
X87907857Y-124702380D02*
X87907857Y-123702380D01*
X88288809Y-123702380D01*
X88384047Y-123750000D01*
X88431666Y-123797619D01*
X88479285Y-123892857D01*
X88479285Y-124035714D01*
X88431666Y-124130952D01*
X88384047Y-124178571D01*
X88288809Y-124226190D01*
X87907857Y-124226190D01*
X88812619Y-123702380D02*
X89431666Y-123702380D01*
X89098333Y-124083333D01*
X89241190Y-124083333D01*
X89336428Y-124130952D01*
X89384047Y-124178571D01*
X89431666Y-124273809D01*
X89431666Y-124511904D01*
X89384047Y-124607142D01*
X89336428Y-124654761D01*
X89241190Y-124702380D01*
X88955476Y-124702380D01*
X88860238Y-124654761D01*
X88812619Y-124607142D01*
%TO.C,JP4*%
X87431666Y-91737380D02*
X87431666Y-92451666D01*
X87384047Y-92594523D01*
X87288809Y-92689761D01*
X87145952Y-92737380D01*
X87050714Y-92737380D01*
X87907857Y-92737380D02*
X87907857Y-91737380D01*
X88288809Y-91737380D01*
X88384047Y-91785000D01*
X88431666Y-91832619D01*
X88479285Y-91927857D01*
X88479285Y-92070714D01*
X88431666Y-92165952D01*
X88384047Y-92213571D01*
X88288809Y-92261190D01*
X87907857Y-92261190D01*
X89336428Y-92070714D02*
X89336428Y-92737380D01*
X89098333Y-91689761D02*
X88860238Y-92404047D01*
X89479285Y-92404047D01*
%TO.C,JP5*%
X82986666Y-106557380D02*
X82986666Y-107271666D01*
X82939047Y-107414523D01*
X82843809Y-107509761D01*
X82700952Y-107557380D01*
X82605714Y-107557380D01*
X83462857Y-107557380D02*
X83462857Y-106557380D01*
X83843809Y-106557380D01*
X83939047Y-106605000D01*
X83986666Y-106652619D01*
X84034285Y-106747857D01*
X84034285Y-106890714D01*
X83986666Y-106985952D01*
X83939047Y-107033571D01*
X83843809Y-107081190D01*
X83462857Y-107081190D01*
X84939047Y-106557380D02*
X84462857Y-106557380D01*
X84415238Y-107033571D01*
X84462857Y-106985952D01*
X84558095Y-106938333D01*
X84796190Y-106938333D01*
X84891428Y-106985952D01*
X84939047Y-107033571D01*
X84986666Y-107128809D01*
X84986666Y-107366904D01*
X84939047Y-107462142D01*
X84891428Y-107509761D01*
X84796190Y-107557380D01*
X84558095Y-107557380D01*
X84462857Y-107509761D01*
X84415238Y-107462142D01*
%TO.C,JP6*%
X88701666Y-80307380D02*
X88701666Y-81021666D01*
X88654047Y-81164523D01*
X88558809Y-81259761D01*
X88415952Y-81307380D01*
X88320714Y-81307380D01*
X89177857Y-81307380D02*
X89177857Y-80307380D01*
X89558809Y-80307380D01*
X89654047Y-80355000D01*
X89701666Y-80402619D01*
X89749285Y-80497857D01*
X89749285Y-80640714D01*
X89701666Y-80735952D01*
X89654047Y-80783571D01*
X89558809Y-80831190D01*
X89177857Y-80831190D01*
X90606428Y-80307380D02*
X90415952Y-80307380D01*
X90320714Y-80355000D01*
X90273095Y-80402619D01*
X90177857Y-80545476D01*
X90130238Y-80735952D01*
X90130238Y-81116904D01*
X90177857Y-81212142D01*
X90225476Y-81259761D01*
X90320714Y-81307380D01*
X90511190Y-81307380D01*
X90606428Y-81259761D01*
X90654047Y-81212142D01*
X90701666Y-81116904D01*
X90701666Y-80878809D01*
X90654047Y-80783571D01*
X90606428Y-80735952D01*
X90511190Y-80688333D01*
X90320714Y-80688333D01*
X90225476Y-80735952D01*
X90177857Y-80783571D01*
X90130238Y-80878809D01*
%TO.C,LED1*%
X88932380Y-54459047D02*
X88932380Y-54935238D01*
X87932380Y-54935238D01*
X88408571Y-54125714D02*
X88408571Y-53792380D01*
X88932380Y-53649523D02*
X88932380Y-54125714D01*
X87932380Y-54125714D01*
X87932380Y-53649523D01*
X88932380Y-53220952D02*
X87932380Y-53220952D01*
X87932380Y-52982857D01*
X87980000Y-52840000D01*
X88075238Y-52744761D01*
X88170476Y-52697142D01*
X88360952Y-52649523D01*
X88503809Y-52649523D01*
X88694285Y-52697142D01*
X88789523Y-52744761D01*
X88884761Y-52840000D01*
X88932380Y-52982857D01*
X88932380Y-53220952D01*
X88932380Y-51697142D02*
X88932380Y-52268571D01*
X88932380Y-51982857D02*
X87932380Y-51982857D01*
X88075238Y-52078095D01*
X88170476Y-52173333D01*
X88218095Y-52268571D01*
%TO.C,LED2*%
X97822380Y-54459047D02*
X97822380Y-54935238D01*
X96822380Y-54935238D01*
X97298571Y-54125714D02*
X97298571Y-53792380D01*
X97822380Y-53649523D02*
X97822380Y-54125714D01*
X96822380Y-54125714D01*
X96822380Y-53649523D01*
X97822380Y-53220952D02*
X96822380Y-53220952D01*
X96822380Y-52982857D01*
X96870000Y-52840000D01*
X96965238Y-52744761D01*
X97060476Y-52697142D01*
X97250952Y-52649523D01*
X97393809Y-52649523D01*
X97584285Y-52697142D01*
X97679523Y-52744761D01*
X97774761Y-52840000D01*
X97822380Y-52982857D01*
X97822380Y-53220952D01*
X96917619Y-52268571D02*
X96870000Y-52220952D01*
X96822380Y-52125714D01*
X96822380Y-51887619D01*
X96870000Y-51792380D01*
X96917619Y-51744761D01*
X97012857Y-51697142D01*
X97108095Y-51697142D01*
X97250952Y-51744761D01*
X97822380Y-52316190D01*
X97822380Y-51697142D01*
%TO.C,LED3*%
X106712380Y-54459047D02*
X106712380Y-54935238D01*
X105712380Y-54935238D01*
X106188571Y-54125714D02*
X106188571Y-53792380D01*
X106712380Y-53649523D02*
X106712380Y-54125714D01*
X105712380Y-54125714D01*
X105712380Y-53649523D01*
X106712380Y-53220952D02*
X105712380Y-53220952D01*
X105712380Y-52982857D01*
X105760000Y-52840000D01*
X105855238Y-52744761D01*
X105950476Y-52697142D01*
X106140952Y-52649523D01*
X106283809Y-52649523D01*
X106474285Y-52697142D01*
X106569523Y-52744761D01*
X106664761Y-52840000D01*
X106712380Y-52982857D01*
X106712380Y-53220952D01*
X105712380Y-52316190D02*
X105712380Y-51697142D01*
X106093333Y-52030476D01*
X106093333Y-51887619D01*
X106140952Y-51792380D01*
X106188571Y-51744761D01*
X106283809Y-51697142D01*
X106521904Y-51697142D01*
X106617142Y-51744761D01*
X106664761Y-51792380D01*
X106712380Y-51887619D01*
X106712380Y-52173333D01*
X106664761Y-52268571D01*
X106617142Y-52316190D01*
%TO.C,LED4*%
X115602380Y-54459047D02*
X115602380Y-54935238D01*
X114602380Y-54935238D01*
X115078571Y-54125714D02*
X115078571Y-53792380D01*
X115602380Y-53649523D02*
X115602380Y-54125714D01*
X114602380Y-54125714D01*
X114602380Y-53649523D01*
X115602380Y-53220952D02*
X114602380Y-53220952D01*
X114602380Y-52982857D01*
X114650000Y-52840000D01*
X114745238Y-52744761D01*
X114840476Y-52697142D01*
X115030952Y-52649523D01*
X115173809Y-52649523D01*
X115364285Y-52697142D01*
X115459523Y-52744761D01*
X115554761Y-52840000D01*
X115602380Y-52982857D01*
X115602380Y-53220952D01*
X114935714Y-51792380D02*
X115602380Y-51792380D01*
X114554761Y-52030476D02*
X115269047Y-52268571D01*
X115269047Y-51649523D01*
%TO.C,Q1*%
X108882619Y-104870238D02*
X108835000Y-104965476D01*
X108739761Y-105060714D01*
X108596904Y-105203571D01*
X108549285Y-105298809D01*
X108549285Y-105394047D01*
X108787380Y-105346428D02*
X108739761Y-105441666D01*
X108644523Y-105536904D01*
X108454047Y-105584523D01*
X108120714Y-105584523D01*
X107930238Y-105536904D01*
X107835000Y-105441666D01*
X107787380Y-105346428D01*
X107787380Y-105155952D01*
X107835000Y-105060714D01*
X107930238Y-104965476D01*
X108120714Y-104917857D01*
X108454047Y-104917857D01*
X108644523Y-104965476D01*
X108739761Y-105060714D01*
X108787380Y-105155952D01*
X108787380Y-105346428D01*
X108787380Y-103965476D02*
X108787380Y-104536904D01*
X108787380Y-104251190D02*
X107787380Y-104251190D01*
X107930238Y-104346428D01*
X108025476Y-104441666D01*
X108073095Y-104536904D01*
%TO.C,Q2*%
X102397619Y-117570238D02*
X102350000Y-117665476D01*
X102254761Y-117760714D01*
X102111904Y-117903571D01*
X102064285Y-117998809D01*
X102064285Y-118094047D01*
X102302380Y-118046428D02*
X102254761Y-118141666D01*
X102159523Y-118236904D01*
X101969047Y-118284523D01*
X101635714Y-118284523D01*
X101445238Y-118236904D01*
X101350000Y-118141666D01*
X101302380Y-118046428D01*
X101302380Y-117855952D01*
X101350000Y-117760714D01*
X101445238Y-117665476D01*
X101635714Y-117617857D01*
X101969047Y-117617857D01*
X102159523Y-117665476D01*
X102254761Y-117760714D01*
X102302380Y-117855952D01*
X102302380Y-118046428D01*
X101397619Y-117236904D02*
X101350000Y-117189285D01*
X101302380Y-117094047D01*
X101302380Y-116855952D01*
X101350000Y-116760714D01*
X101397619Y-116713095D01*
X101492857Y-116665476D01*
X101588095Y-116665476D01*
X101730952Y-116713095D01*
X102302380Y-117284523D01*
X102302380Y-116665476D01*
%TO.C,Q3*%
X99738619Y-133826238D02*
X99691000Y-133921476D01*
X99595761Y-134016714D01*
X99452904Y-134159571D01*
X99405285Y-134254809D01*
X99405285Y-134350047D01*
X99643380Y-134302428D02*
X99595761Y-134397666D01*
X99500523Y-134492904D01*
X99310047Y-134540523D01*
X98976714Y-134540523D01*
X98786238Y-134492904D01*
X98691000Y-134397666D01*
X98643380Y-134302428D01*
X98643380Y-134111952D01*
X98691000Y-134016714D01*
X98786238Y-133921476D01*
X98976714Y-133873857D01*
X99310047Y-133873857D01*
X99500523Y-133921476D01*
X99595761Y-134016714D01*
X99643380Y-134111952D01*
X99643380Y-134302428D01*
X98643380Y-133540523D02*
X98643380Y-132921476D01*
X99024333Y-133254809D01*
X99024333Y-133111952D01*
X99071952Y-133016714D01*
X99119571Y-132969095D01*
X99214809Y-132921476D01*
X99452904Y-132921476D01*
X99548142Y-132969095D01*
X99595761Y-133016714D01*
X99643380Y-133111952D01*
X99643380Y-133397666D01*
X99595761Y-133492904D01*
X99548142Y-133540523D01*
%TO.C,Q4*%
X94773761Y-79664619D02*
X94678523Y-79617000D01*
X94583285Y-79521761D01*
X94440428Y-79378904D01*
X94345190Y-79331285D01*
X94249952Y-79331285D01*
X94297571Y-79569380D02*
X94202333Y-79521761D01*
X94107095Y-79426523D01*
X94059476Y-79236047D01*
X94059476Y-78902714D01*
X94107095Y-78712238D01*
X94202333Y-78617000D01*
X94297571Y-78569380D01*
X94488047Y-78569380D01*
X94583285Y-78617000D01*
X94678523Y-78712238D01*
X94726142Y-78902714D01*
X94726142Y-79236047D01*
X94678523Y-79426523D01*
X94583285Y-79521761D01*
X94488047Y-79569380D01*
X94297571Y-79569380D01*
X95583285Y-78902714D02*
X95583285Y-79569380D01*
X95345190Y-78521761D02*
X95107095Y-79236047D01*
X95726142Y-79236047D01*
%TO.C,Q5*%
X163734761Y-120312619D02*
X163639523Y-120265000D01*
X163544285Y-120169761D01*
X163401428Y-120026904D01*
X163306190Y-119979285D01*
X163210952Y-119979285D01*
X163258571Y-120217380D02*
X163163333Y-120169761D01*
X163068095Y-120074523D01*
X163020476Y-119884047D01*
X163020476Y-119550714D01*
X163068095Y-119360238D01*
X163163333Y-119265000D01*
X163258571Y-119217380D01*
X163449047Y-119217380D01*
X163544285Y-119265000D01*
X163639523Y-119360238D01*
X163687142Y-119550714D01*
X163687142Y-119884047D01*
X163639523Y-120074523D01*
X163544285Y-120169761D01*
X163449047Y-120217380D01*
X163258571Y-120217380D01*
X164591904Y-119217380D02*
X164115714Y-119217380D01*
X164068095Y-119693571D01*
X164115714Y-119645952D01*
X164210952Y-119598333D01*
X164449047Y-119598333D01*
X164544285Y-119645952D01*
X164591904Y-119693571D01*
X164639523Y-119788809D01*
X164639523Y-120026904D01*
X164591904Y-120122142D01*
X164544285Y-120169761D01*
X164449047Y-120217380D01*
X164210952Y-120217380D01*
X164115714Y-120169761D01*
X164068095Y-120122142D01*
%TO.C,Q6*%
X102393761Y-134536619D02*
X102298523Y-134489000D01*
X102203285Y-134393761D01*
X102060428Y-134250904D01*
X101965190Y-134203285D01*
X101869952Y-134203285D01*
X101917571Y-134441380D02*
X101822333Y-134393761D01*
X101727095Y-134298523D01*
X101679476Y-134108047D01*
X101679476Y-133774714D01*
X101727095Y-133584238D01*
X101822333Y-133489000D01*
X101917571Y-133441380D01*
X102108047Y-133441380D01*
X102203285Y-133489000D01*
X102298523Y-133584238D01*
X102346142Y-133774714D01*
X102346142Y-134108047D01*
X102298523Y-134298523D01*
X102203285Y-134393761D01*
X102108047Y-134441380D01*
X101917571Y-134441380D01*
X103203285Y-133441380D02*
X103012809Y-133441380D01*
X102917571Y-133489000D01*
X102869952Y-133536619D01*
X102774714Y-133679476D01*
X102727095Y-133869952D01*
X102727095Y-134250904D01*
X102774714Y-134346142D01*
X102822333Y-134393761D01*
X102917571Y-134441380D01*
X103108047Y-134441380D01*
X103203285Y-134393761D01*
X103250904Y-134346142D01*
X103298523Y-134250904D01*
X103298523Y-134012809D01*
X103250904Y-133917571D01*
X103203285Y-133869952D01*
X103108047Y-133822333D01*
X102917571Y-133822333D01*
X102822333Y-133869952D01*
X102774714Y-133917571D01*
X102727095Y-134012809D01*
%TO.C,R1*%
X112482333Y-79911380D02*
X112149000Y-79435190D01*
X111910904Y-79911380D02*
X111910904Y-78911380D01*
X112291857Y-78911380D01*
X112387095Y-78959000D01*
X112434714Y-79006619D01*
X112482333Y-79101857D01*
X112482333Y-79244714D01*
X112434714Y-79339952D01*
X112387095Y-79387571D01*
X112291857Y-79435190D01*
X111910904Y-79435190D01*
X113434714Y-79911380D02*
X112863285Y-79911380D01*
X113149000Y-79911380D02*
X113149000Y-78911380D01*
X113053761Y-79054238D01*
X112958523Y-79149476D01*
X112863285Y-79197095D01*
%TO.C,R2*%
X94194333Y-78387380D02*
X93861000Y-77911190D01*
X93622904Y-78387380D02*
X93622904Y-77387380D01*
X94003857Y-77387380D01*
X94099095Y-77435000D01*
X94146714Y-77482619D01*
X94194333Y-77577857D01*
X94194333Y-77720714D01*
X94146714Y-77815952D01*
X94099095Y-77863571D01*
X94003857Y-77911190D01*
X93622904Y-77911190D01*
X94575285Y-77482619D02*
X94622904Y-77435000D01*
X94718142Y-77387380D01*
X94956238Y-77387380D01*
X95051476Y-77435000D01*
X95099095Y-77482619D01*
X95146714Y-77577857D01*
X95146714Y-77673095D01*
X95099095Y-77815952D01*
X94527666Y-78387380D01*
X95146714Y-78387380D01*
%TO.C,R3*%
X116800333Y-89817380D02*
X116467000Y-89341190D01*
X116228904Y-89817380D02*
X116228904Y-88817380D01*
X116609857Y-88817380D01*
X116705095Y-88865000D01*
X116752714Y-88912619D01*
X116800333Y-89007857D01*
X116800333Y-89150714D01*
X116752714Y-89245952D01*
X116705095Y-89293571D01*
X116609857Y-89341190D01*
X116228904Y-89341190D01*
X117133666Y-88817380D02*
X117752714Y-88817380D01*
X117419380Y-89198333D01*
X117562238Y-89198333D01*
X117657476Y-89245952D01*
X117705095Y-89293571D01*
X117752714Y-89388809D01*
X117752714Y-89626904D01*
X117705095Y-89722142D01*
X117657476Y-89769761D01*
X117562238Y-89817380D01*
X117276523Y-89817380D01*
X117181285Y-89769761D01*
X117133666Y-89722142D01*
%TO.C,R4*%
X102830333Y-90071380D02*
X102497000Y-89595190D01*
X102258904Y-90071380D02*
X102258904Y-89071380D01*
X102639857Y-89071380D01*
X102735095Y-89119000D01*
X102782714Y-89166619D01*
X102830333Y-89261857D01*
X102830333Y-89404714D01*
X102782714Y-89499952D01*
X102735095Y-89547571D01*
X102639857Y-89595190D01*
X102258904Y-89595190D01*
X103687476Y-89404714D02*
X103687476Y-90071380D01*
X103449380Y-89023761D02*
X103211285Y-89738047D01*
X103830333Y-89738047D01*
%TO.C,R5*%
X149058333Y-74663380D02*
X148725000Y-74187190D01*
X148486904Y-74663380D02*
X148486904Y-73663380D01*
X148867857Y-73663380D01*
X148963095Y-73711000D01*
X149010714Y-73758619D01*
X149058333Y-73853857D01*
X149058333Y-73996714D01*
X149010714Y-74091952D01*
X148963095Y-74139571D01*
X148867857Y-74187190D01*
X148486904Y-74187190D01*
X149963095Y-73663380D02*
X149486904Y-73663380D01*
X149439285Y-74139571D01*
X149486904Y-74091952D01*
X149582142Y-74044333D01*
X149820238Y-74044333D01*
X149915476Y-74091952D01*
X149963095Y-74139571D01*
X150010714Y-74234809D01*
X150010714Y-74472904D01*
X149963095Y-74568142D01*
X149915476Y-74615761D01*
X149820238Y-74663380D01*
X149582142Y-74663380D01*
X149486904Y-74615761D01*
X149439285Y-74568142D01*
%TO.C,R6*%
X107089380Y-96305666D02*
X106613190Y-96639000D01*
X107089380Y-96877095D02*
X106089380Y-96877095D01*
X106089380Y-96496142D01*
X106137000Y-96400904D01*
X106184619Y-96353285D01*
X106279857Y-96305666D01*
X106422714Y-96305666D01*
X106517952Y-96353285D01*
X106565571Y-96400904D01*
X106613190Y-96496142D01*
X106613190Y-96877095D01*
X106089380Y-95448523D02*
X106089380Y-95639000D01*
X106137000Y-95734238D01*
X106184619Y-95781857D01*
X106327476Y-95877095D01*
X106517952Y-95924714D01*
X106898904Y-95924714D01*
X106994142Y-95877095D01*
X107041761Y-95829476D01*
X107089380Y-95734238D01*
X107089380Y-95543761D01*
X107041761Y-95448523D01*
X106994142Y-95400904D01*
X106898904Y-95353285D01*
X106660809Y-95353285D01*
X106565571Y-95400904D01*
X106517952Y-95448523D01*
X106470333Y-95543761D01*
X106470333Y-95734238D01*
X106517952Y-95829476D01*
X106565571Y-95877095D01*
X106660809Y-95924714D01*
%TO.C,R7*%
X161758333Y-86347380D02*
X161425000Y-85871190D01*
X161186904Y-86347380D02*
X161186904Y-85347380D01*
X161567857Y-85347380D01*
X161663095Y-85395000D01*
X161710714Y-85442619D01*
X161758333Y-85537857D01*
X161758333Y-85680714D01*
X161710714Y-85775952D01*
X161663095Y-85823571D01*
X161567857Y-85871190D01*
X161186904Y-85871190D01*
X162091666Y-85347380D02*
X162758333Y-85347380D01*
X162329761Y-86347380D01*
%TO.C,R8*%
X95718333Y-106159380D02*
X95385000Y-105683190D01*
X95146904Y-106159380D02*
X95146904Y-105159380D01*
X95527857Y-105159380D01*
X95623095Y-105207000D01*
X95670714Y-105254619D01*
X95718333Y-105349857D01*
X95718333Y-105492714D01*
X95670714Y-105587952D01*
X95623095Y-105635571D01*
X95527857Y-105683190D01*
X95146904Y-105683190D01*
X96289761Y-105587952D02*
X96194523Y-105540333D01*
X96146904Y-105492714D01*
X96099285Y-105397476D01*
X96099285Y-105349857D01*
X96146904Y-105254619D01*
X96194523Y-105207000D01*
X96289761Y-105159380D01*
X96480238Y-105159380D01*
X96575476Y-105207000D01*
X96623095Y-105254619D01*
X96670714Y-105349857D01*
X96670714Y-105397476D01*
X96623095Y-105492714D01*
X96575476Y-105540333D01*
X96480238Y-105587952D01*
X96289761Y-105587952D01*
X96194523Y-105635571D01*
X96146904Y-105683190D01*
X96099285Y-105778428D01*
X96099285Y-105968904D01*
X96146904Y-106064142D01*
X96194523Y-106111761D01*
X96289761Y-106159380D01*
X96480238Y-106159380D01*
X96575476Y-106111761D01*
X96623095Y-106064142D01*
X96670714Y-105968904D01*
X96670714Y-105778428D01*
X96623095Y-105683190D01*
X96575476Y-105635571D01*
X96480238Y-105587952D01*
%TO.C,R9*%
X96353333Y-121272380D02*
X96020000Y-120796190D01*
X95781904Y-121272380D02*
X95781904Y-120272380D01*
X96162857Y-120272380D01*
X96258095Y-120320000D01*
X96305714Y-120367619D01*
X96353333Y-120462857D01*
X96353333Y-120605714D01*
X96305714Y-120700952D01*
X96258095Y-120748571D01*
X96162857Y-120796190D01*
X95781904Y-120796190D01*
X96829523Y-121272380D02*
X97020000Y-121272380D01*
X97115238Y-121224761D01*
X97162857Y-121177142D01*
X97258095Y-121034285D01*
X97305714Y-120843809D01*
X97305714Y-120462857D01*
X97258095Y-120367619D01*
X97210476Y-120320000D01*
X97115238Y-120272380D01*
X96924761Y-120272380D01*
X96829523Y-120320000D01*
X96781904Y-120367619D01*
X96734285Y-120462857D01*
X96734285Y-120700952D01*
X96781904Y-120796190D01*
X96829523Y-120843809D01*
X96924761Y-120891428D01*
X97115238Y-120891428D01*
X97210476Y-120843809D01*
X97258095Y-120796190D01*
X97305714Y-120700952D01*
%TO.C,R10*%
X161282142Y-92062380D02*
X160948809Y-91586190D01*
X160710714Y-92062380D02*
X160710714Y-91062380D01*
X161091666Y-91062380D01*
X161186904Y-91110000D01*
X161234523Y-91157619D01*
X161282142Y-91252857D01*
X161282142Y-91395714D01*
X161234523Y-91490952D01*
X161186904Y-91538571D01*
X161091666Y-91586190D01*
X160710714Y-91586190D01*
X162234523Y-92062380D02*
X161663095Y-92062380D01*
X161948809Y-92062380D02*
X161948809Y-91062380D01*
X161853571Y-91205238D01*
X161758333Y-91300476D01*
X161663095Y-91348095D01*
X162853571Y-91062380D02*
X162948809Y-91062380D01*
X163044047Y-91110000D01*
X163091666Y-91157619D01*
X163139285Y-91252857D01*
X163186904Y-91443333D01*
X163186904Y-91681428D01*
X163139285Y-91871904D01*
X163091666Y-91967142D01*
X163044047Y-92014761D01*
X162948809Y-92062380D01*
X162853571Y-92062380D01*
X162758333Y-92014761D01*
X162710714Y-91967142D01*
X162663095Y-91871904D01*
X162615476Y-91681428D01*
X162615476Y-91443333D01*
X162663095Y-91252857D01*
X162710714Y-91157619D01*
X162758333Y-91110000D01*
X162853571Y-91062380D01*
%TO.C,R11*%
X94262380Y-67952857D02*
X93786190Y-68286190D01*
X94262380Y-68524285D02*
X93262380Y-68524285D01*
X93262380Y-68143333D01*
X93310000Y-68048095D01*
X93357619Y-68000476D01*
X93452857Y-67952857D01*
X93595714Y-67952857D01*
X93690952Y-68000476D01*
X93738571Y-68048095D01*
X93786190Y-68143333D01*
X93786190Y-68524285D01*
X94262380Y-67000476D02*
X94262380Y-67571904D01*
X94262380Y-67286190D02*
X93262380Y-67286190D01*
X93405238Y-67381428D01*
X93500476Y-67476666D01*
X93548095Y-67571904D01*
X94262380Y-66048095D02*
X94262380Y-66619523D01*
X94262380Y-66333809D02*
X93262380Y-66333809D01*
X93405238Y-66429047D01*
X93500476Y-66524285D01*
X93548095Y-66619523D01*
%TO.C,R12*%
X95242142Y-114922380D02*
X94908809Y-114446190D01*
X94670714Y-114922380D02*
X94670714Y-113922380D01*
X95051666Y-113922380D01*
X95146904Y-113970000D01*
X95194523Y-114017619D01*
X95242142Y-114112857D01*
X95242142Y-114255714D01*
X95194523Y-114350952D01*
X95146904Y-114398571D01*
X95051666Y-114446190D01*
X94670714Y-114446190D01*
X96194523Y-114922380D02*
X95623095Y-114922380D01*
X95908809Y-114922380D02*
X95908809Y-113922380D01*
X95813571Y-114065238D01*
X95718333Y-114160476D01*
X95623095Y-114208095D01*
X96575476Y-114017619D02*
X96623095Y-113970000D01*
X96718333Y-113922380D01*
X96956428Y-113922380D01*
X97051666Y-113970000D01*
X97099285Y-114017619D01*
X97146904Y-114112857D01*
X97146904Y-114208095D01*
X97099285Y-114350952D01*
X96527857Y-114922380D01*
X97146904Y-114922380D01*
%TO.C,R13*%
X92865380Y-130309857D02*
X92389190Y-130643190D01*
X92865380Y-130881285D02*
X91865380Y-130881285D01*
X91865380Y-130500333D01*
X91913000Y-130405095D01*
X91960619Y-130357476D01*
X92055857Y-130309857D01*
X92198714Y-130309857D01*
X92293952Y-130357476D01*
X92341571Y-130405095D01*
X92389190Y-130500333D01*
X92389190Y-130881285D01*
X92865380Y-129357476D02*
X92865380Y-129928904D01*
X92865380Y-129643190D02*
X91865380Y-129643190D01*
X92008238Y-129738428D01*
X92103476Y-129833666D01*
X92151095Y-129928904D01*
X91865380Y-129024142D02*
X91865380Y-128405095D01*
X92246333Y-128738428D01*
X92246333Y-128595571D01*
X92293952Y-128500333D01*
X92341571Y-128452714D01*
X92436809Y-128405095D01*
X92674904Y-128405095D01*
X92770142Y-128452714D01*
X92817761Y-128500333D01*
X92865380Y-128595571D01*
X92865380Y-128881285D01*
X92817761Y-128976523D01*
X92770142Y-129024142D01*
%TO.C,R14*%
X99342380Y-67952857D02*
X98866190Y-68286190D01*
X99342380Y-68524285D02*
X98342380Y-68524285D01*
X98342380Y-68143333D01*
X98390000Y-68048095D01*
X98437619Y-68000476D01*
X98532857Y-67952857D01*
X98675714Y-67952857D01*
X98770952Y-68000476D01*
X98818571Y-68048095D01*
X98866190Y-68143333D01*
X98866190Y-68524285D01*
X99342380Y-67000476D02*
X99342380Y-67571904D01*
X99342380Y-67286190D02*
X98342380Y-67286190D01*
X98485238Y-67381428D01*
X98580476Y-67476666D01*
X98628095Y-67571904D01*
X98675714Y-66143333D02*
X99342380Y-66143333D01*
X98294761Y-66381428D02*
X99009047Y-66619523D01*
X99009047Y-66000476D01*
%TO.C,R15*%
X104422380Y-67952857D02*
X103946190Y-68286190D01*
X104422380Y-68524285D02*
X103422380Y-68524285D01*
X103422380Y-68143333D01*
X103470000Y-68048095D01*
X103517619Y-68000476D01*
X103612857Y-67952857D01*
X103755714Y-67952857D01*
X103850952Y-68000476D01*
X103898571Y-68048095D01*
X103946190Y-68143333D01*
X103946190Y-68524285D01*
X104422380Y-67000476D02*
X104422380Y-67571904D01*
X104422380Y-67286190D02*
X103422380Y-67286190D01*
X103565238Y-67381428D01*
X103660476Y-67476666D01*
X103708095Y-67571904D01*
X103422380Y-66095714D02*
X103422380Y-66571904D01*
X103898571Y-66619523D01*
X103850952Y-66571904D01*
X103803333Y-66476666D01*
X103803333Y-66238571D01*
X103850952Y-66143333D01*
X103898571Y-66095714D01*
X103993809Y-66048095D01*
X104231904Y-66048095D01*
X104327142Y-66095714D01*
X104374761Y-66143333D01*
X104422380Y-66238571D01*
X104422380Y-66476666D01*
X104374761Y-66571904D01*
X104327142Y-66619523D01*
%TO.C,R16*%
X161282142Y-100063380D02*
X160948809Y-99587190D01*
X160710714Y-100063380D02*
X160710714Y-99063380D01*
X161091666Y-99063380D01*
X161186904Y-99111000D01*
X161234523Y-99158619D01*
X161282142Y-99253857D01*
X161282142Y-99396714D01*
X161234523Y-99491952D01*
X161186904Y-99539571D01*
X161091666Y-99587190D01*
X160710714Y-99587190D01*
X162234523Y-100063380D02*
X161663095Y-100063380D01*
X161948809Y-100063380D02*
X161948809Y-99063380D01*
X161853571Y-99206238D01*
X161758333Y-99301476D01*
X161663095Y-99349095D01*
X163091666Y-99063380D02*
X162901190Y-99063380D01*
X162805952Y-99111000D01*
X162758333Y-99158619D01*
X162663095Y-99301476D01*
X162615476Y-99491952D01*
X162615476Y-99872904D01*
X162663095Y-99968142D01*
X162710714Y-100015761D01*
X162805952Y-100063380D01*
X162996428Y-100063380D01*
X163091666Y-100015761D01*
X163139285Y-99968142D01*
X163186904Y-99872904D01*
X163186904Y-99634809D01*
X163139285Y-99539571D01*
X163091666Y-99491952D01*
X162996428Y-99444333D01*
X162805952Y-99444333D01*
X162710714Y-99491952D01*
X162663095Y-99539571D01*
X162615476Y-99634809D01*
%TO.C,R17*%
X124742380Y-67952857D02*
X124266190Y-68286190D01*
X124742380Y-68524285D02*
X123742380Y-68524285D01*
X123742380Y-68143333D01*
X123790000Y-68048095D01*
X123837619Y-68000476D01*
X123932857Y-67952857D01*
X124075714Y-67952857D01*
X124170952Y-68000476D01*
X124218571Y-68048095D01*
X124266190Y-68143333D01*
X124266190Y-68524285D01*
X124742380Y-67000476D02*
X124742380Y-67571904D01*
X124742380Y-67286190D02*
X123742380Y-67286190D01*
X123885238Y-67381428D01*
X123980476Y-67476666D01*
X124028095Y-67571904D01*
X123742380Y-66667142D02*
X123742380Y-66000476D01*
X124742380Y-66429047D01*
%TO.C,R18*%
X95242142Y-97777380D02*
X94908809Y-97301190D01*
X94670714Y-97777380D02*
X94670714Y-96777380D01*
X95051666Y-96777380D01*
X95146904Y-96825000D01*
X95194523Y-96872619D01*
X95242142Y-96967857D01*
X95242142Y-97110714D01*
X95194523Y-97205952D01*
X95146904Y-97253571D01*
X95051666Y-97301190D01*
X94670714Y-97301190D01*
X96194523Y-97777380D02*
X95623095Y-97777380D01*
X95908809Y-97777380D02*
X95908809Y-96777380D01*
X95813571Y-96920238D01*
X95718333Y-97015476D01*
X95623095Y-97063095D01*
X96765952Y-97205952D02*
X96670714Y-97158333D01*
X96623095Y-97110714D01*
X96575476Y-97015476D01*
X96575476Y-96967857D01*
X96623095Y-96872619D01*
X96670714Y-96825000D01*
X96765952Y-96777380D01*
X96956428Y-96777380D01*
X97051666Y-96825000D01*
X97099285Y-96872619D01*
X97146904Y-96967857D01*
X97146904Y-97015476D01*
X97099285Y-97110714D01*
X97051666Y-97158333D01*
X96956428Y-97205952D01*
X96765952Y-97205952D01*
X96670714Y-97253571D01*
X96623095Y-97301190D01*
X96575476Y-97396428D01*
X96575476Y-97586904D01*
X96623095Y-97682142D01*
X96670714Y-97729761D01*
X96765952Y-97777380D01*
X96956428Y-97777380D01*
X97051666Y-97729761D01*
X97099285Y-97682142D01*
X97146904Y-97586904D01*
X97146904Y-97396428D01*
X97099285Y-97301190D01*
X97051666Y-97253571D01*
X96956428Y-97205952D01*
%TO.C,R19*%
X95242142Y-90157380D02*
X94908809Y-89681190D01*
X94670714Y-90157380D02*
X94670714Y-89157380D01*
X95051666Y-89157380D01*
X95146904Y-89205000D01*
X95194523Y-89252619D01*
X95242142Y-89347857D01*
X95242142Y-89490714D01*
X95194523Y-89585952D01*
X95146904Y-89633571D01*
X95051666Y-89681190D01*
X94670714Y-89681190D01*
X96194523Y-90157380D02*
X95623095Y-90157380D01*
X95908809Y-90157380D02*
X95908809Y-89157380D01*
X95813571Y-89300238D01*
X95718333Y-89395476D01*
X95623095Y-89443095D01*
X96670714Y-90157380D02*
X96861190Y-90157380D01*
X96956428Y-90109761D01*
X97004047Y-90062142D01*
X97099285Y-89919285D01*
X97146904Y-89728809D01*
X97146904Y-89347857D01*
X97099285Y-89252619D01*
X97051666Y-89205000D01*
X96956428Y-89157380D01*
X96765952Y-89157380D01*
X96670714Y-89205000D01*
X96623095Y-89252619D01*
X96575476Y-89347857D01*
X96575476Y-89585952D01*
X96623095Y-89681190D01*
X96670714Y-89728809D01*
X96765952Y-89776428D01*
X96956428Y-89776428D01*
X97051666Y-89728809D01*
X97099285Y-89681190D01*
X97146904Y-89585952D01*
%TO.C,R20*%
X161282142Y-106667380D02*
X160948809Y-106191190D01*
X160710714Y-106667380D02*
X160710714Y-105667380D01*
X161091666Y-105667380D01*
X161186904Y-105715000D01*
X161234523Y-105762619D01*
X161282142Y-105857857D01*
X161282142Y-106000714D01*
X161234523Y-106095952D01*
X161186904Y-106143571D01*
X161091666Y-106191190D01*
X160710714Y-106191190D01*
X161663095Y-105762619D02*
X161710714Y-105715000D01*
X161805952Y-105667380D01*
X162044047Y-105667380D01*
X162139285Y-105715000D01*
X162186904Y-105762619D01*
X162234523Y-105857857D01*
X162234523Y-105953095D01*
X162186904Y-106095952D01*
X161615476Y-106667380D01*
X162234523Y-106667380D01*
X162853571Y-105667380D02*
X162948809Y-105667380D01*
X163044047Y-105715000D01*
X163091666Y-105762619D01*
X163139285Y-105857857D01*
X163186904Y-106048333D01*
X163186904Y-106286428D01*
X163139285Y-106476904D01*
X163091666Y-106572142D01*
X163044047Y-106619761D01*
X162948809Y-106667380D01*
X162853571Y-106667380D01*
X162758333Y-106619761D01*
X162710714Y-106572142D01*
X162663095Y-106476904D01*
X162615476Y-106286428D01*
X162615476Y-106048333D01*
X162663095Y-105857857D01*
X162710714Y-105762619D01*
X162758333Y-105715000D01*
X162853571Y-105667380D01*
%TO.C,R21*%
X95242142Y-110223380D02*
X94908809Y-109747190D01*
X94670714Y-110223380D02*
X94670714Y-109223380D01*
X95051666Y-109223380D01*
X95146904Y-109271000D01*
X95194523Y-109318619D01*
X95242142Y-109413857D01*
X95242142Y-109556714D01*
X95194523Y-109651952D01*
X95146904Y-109699571D01*
X95051666Y-109747190D01*
X94670714Y-109747190D01*
X95623095Y-109318619D02*
X95670714Y-109271000D01*
X95765952Y-109223380D01*
X96004047Y-109223380D01*
X96099285Y-109271000D01*
X96146904Y-109318619D01*
X96194523Y-109413857D01*
X96194523Y-109509095D01*
X96146904Y-109651952D01*
X95575476Y-110223380D01*
X96194523Y-110223380D01*
X97146904Y-110223380D02*
X96575476Y-110223380D01*
X96861190Y-110223380D02*
X96861190Y-109223380D01*
X96765952Y-109366238D01*
X96670714Y-109461476D01*
X96575476Y-109509095D01*
%TO.C,R22*%
X153408142Y-114033380D02*
X153074809Y-113557190D01*
X152836714Y-114033380D02*
X152836714Y-113033380D01*
X153217666Y-113033380D01*
X153312904Y-113081000D01*
X153360523Y-113128619D01*
X153408142Y-113223857D01*
X153408142Y-113366714D01*
X153360523Y-113461952D01*
X153312904Y-113509571D01*
X153217666Y-113557190D01*
X152836714Y-113557190D01*
X153789095Y-113128619D02*
X153836714Y-113081000D01*
X153931952Y-113033380D01*
X154170047Y-113033380D01*
X154265285Y-113081000D01*
X154312904Y-113128619D01*
X154360523Y-113223857D01*
X154360523Y-113319095D01*
X154312904Y-113461952D01*
X153741476Y-114033380D01*
X154360523Y-114033380D01*
X154741476Y-113128619D02*
X154789095Y-113081000D01*
X154884333Y-113033380D01*
X155122428Y-113033380D01*
X155217666Y-113081000D01*
X155265285Y-113128619D01*
X155312904Y-113223857D01*
X155312904Y-113319095D01*
X155265285Y-113461952D01*
X154693857Y-114033380D01*
X155312904Y-114033380D01*
%TO.C,R23*%
X161282142Y-122923380D02*
X160948809Y-122447190D01*
X160710714Y-122923380D02*
X160710714Y-121923380D01*
X161091666Y-121923380D01*
X161186904Y-121971000D01*
X161234523Y-122018619D01*
X161282142Y-122113857D01*
X161282142Y-122256714D01*
X161234523Y-122351952D01*
X161186904Y-122399571D01*
X161091666Y-122447190D01*
X160710714Y-122447190D01*
X161663095Y-122018619D02*
X161710714Y-121971000D01*
X161805952Y-121923380D01*
X162044047Y-121923380D01*
X162139285Y-121971000D01*
X162186904Y-122018619D01*
X162234523Y-122113857D01*
X162234523Y-122209095D01*
X162186904Y-122351952D01*
X161615476Y-122923380D01*
X162234523Y-122923380D01*
X162567857Y-121923380D02*
X163186904Y-121923380D01*
X162853571Y-122304333D01*
X162996428Y-122304333D01*
X163091666Y-122351952D01*
X163139285Y-122399571D01*
X163186904Y-122494809D01*
X163186904Y-122732904D01*
X163139285Y-122828142D01*
X163091666Y-122875761D01*
X162996428Y-122923380D01*
X162710714Y-122923380D01*
X162615476Y-122875761D01*
X162567857Y-122828142D01*
%TO.C,R24*%
X86642380Y-92082857D02*
X86166190Y-92416190D01*
X86642380Y-92654285D02*
X85642380Y-92654285D01*
X85642380Y-92273333D01*
X85690000Y-92178095D01*
X85737619Y-92130476D01*
X85832857Y-92082857D01*
X85975714Y-92082857D01*
X86070952Y-92130476D01*
X86118571Y-92178095D01*
X86166190Y-92273333D01*
X86166190Y-92654285D01*
X85737619Y-91701904D02*
X85690000Y-91654285D01*
X85642380Y-91559047D01*
X85642380Y-91320952D01*
X85690000Y-91225714D01*
X85737619Y-91178095D01*
X85832857Y-91130476D01*
X85928095Y-91130476D01*
X86070952Y-91178095D01*
X86642380Y-91749523D01*
X86642380Y-91130476D01*
X85975714Y-90273333D02*
X86642380Y-90273333D01*
X85594761Y-90511428D02*
X86309047Y-90749523D01*
X86309047Y-90130476D01*
%TO.C,R25*%
X116578142Y-129187380D02*
X116244809Y-128711190D01*
X116006714Y-129187380D02*
X116006714Y-128187380D01*
X116387666Y-128187380D01*
X116482904Y-128235000D01*
X116530523Y-128282619D01*
X116578142Y-128377857D01*
X116578142Y-128520714D01*
X116530523Y-128615952D01*
X116482904Y-128663571D01*
X116387666Y-128711190D01*
X116006714Y-128711190D01*
X116959095Y-128282619D02*
X117006714Y-128235000D01*
X117101952Y-128187380D01*
X117340047Y-128187380D01*
X117435285Y-128235000D01*
X117482904Y-128282619D01*
X117530523Y-128377857D01*
X117530523Y-128473095D01*
X117482904Y-128615952D01*
X116911476Y-129187380D01*
X117530523Y-129187380D01*
X118435285Y-128187380D02*
X117959095Y-128187380D01*
X117911476Y-128663571D01*
X117959095Y-128615952D01*
X118054333Y-128568333D01*
X118292428Y-128568333D01*
X118387666Y-128615952D01*
X118435285Y-128663571D01*
X118482904Y-128758809D01*
X118482904Y-128996904D01*
X118435285Y-129092142D01*
X118387666Y-129139761D01*
X118292428Y-129187380D01*
X118054333Y-129187380D01*
X117959095Y-129139761D01*
X117911476Y-129092142D01*
%TO.C,R26*%
X169405380Y-138437857D02*
X168929190Y-138771190D01*
X169405380Y-139009285D02*
X168405380Y-139009285D01*
X168405380Y-138628333D01*
X168453000Y-138533095D01*
X168500619Y-138485476D01*
X168595857Y-138437857D01*
X168738714Y-138437857D01*
X168833952Y-138485476D01*
X168881571Y-138533095D01*
X168929190Y-138628333D01*
X168929190Y-139009285D01*
X168500619Y-138056904D02*
X168453000Y-138009285D01*
X168405380Y-137914047D01*
X168405380Y-137675952D01*
X168453000Y-137580714D01*
X168500619Y-137533095D01*
X168595857Y-137485476D01*
X168691095Y-137485476D01*
X168833952Y-137533095D01*
X169405380Y-138104523D01*
X169405380Y-137485476D01*
X168405380Y-136628333D02*
X168405380Y-136818809D01*
X168453000Y-136914047D01*
X168500619Y-136961666D01*
X168643476Y-137056904D01*
X168833952Y-137104523D01*
X169214904Y-137104523D01*
X169310142Y-137056904D01*
X169357761Y-137009285D01*
X169405380Y-136914047D01*
X169405380Y-136723571D01*
X169357761Y-136628333D01*
X169310142Y-136580714D01*
X169214904Y-136533095D01*
X168976809Y-136533095D01*
X168881571Y-136580714D01*
X168833952Y-136628333D01*
X168786333Y-136723571D01*
X168786333Y-136914047D01*
X168833952Y-137009285D01*
X168881571Y-137056904D01*
X168976809Y-137104523D01*
%TO.C,U1*%
X159258095Y-150842380D02*
X159258095Y-151651904D01*
X159305714Y-151747142D01*
X159353333Y-151794761D01*
X159448571Y-151842380D01*
X159639047Y-151842380D01*
X159734285Y-151794761D01*
X159781904Y-151747142D01*
X159829523Y-151651904D01*
X159829523Y-150842380D01*
X160829523Y-151842380D02*
X160258095Y-151842380D01*
X160543809Y-151842380D02*
X160543809Y-150842380D01*
X160448571Y-150985238D01*
X160353333Y-151080476D01*
X160258095Y-151128095D01*
%TO.C,U2*%
X123102380Y-61751904D02*
X123911904Y-61751904D01*
X124007142Y-61704285D01*
X124054761Y-61656666D01*
X124102380Y-61561428D01*
X124102380Y-61370952D01*
X124054761Y-61275714D01*
X124007142Y-61228095D01*
X123911904Y-61180476D01*
X123102380Y-61180476D01*
X123197619Y-60751904D02*
X123150000Y-60704285D01*
X123102380Y-60609047D01*
X123102380Y-60370952D01*
X123150000Y-60275714D01*
X123197619Y-60228095D01*
X123292857Y-60180476D01*
X123388095Y-60180476D01*
X123530952Y-60228095D01*
X124102380Y-60799523D01*
X124102380Y-60180476D01*
%TO.C,U3*%
X130429095Y-92289380D02*
X130429095Y-93098904D01*
X130476714Y-93194142D01*
X130524333Y-93241761D01*
X130619571Y-93289380D01*
X130810047Y-93289380D01*
X130905285Y-93241761D01*
X130952904Y-93194142D01*
X131000523Y-93098904D01*
X131000523Y-92289380D01*
X131381476Y-92289380D02*
X132000523Y-92289380D01*
X131667190Y-92670333D01*
X131810047Y-92670333D01*
X131905285Y-92717952D01*
X131952904Y-92765571D01*
X132000523Y-92860809D01*
X132000523Y-93098904D01*
X131952904Y-93194142D01*
X131905285Y-93241761D01*
X131810047Y-93289380D01*
X131524333Y-93289380D01*
X131429095Y-93241761D01*
X131381476Y-93194142D01*
X124786238Y-93289380D02*
X124786238Y-92289380D01*
X125167190Y-92289380D01*
X125262428Y-92337000D01*
X125310047Y-92384619D01*
X125357666Y-92479857D01*
X125357666Y-92622714D01*
X125310047Y-92717952D01*
X125262428Y-92765571D01*
X125167190Y-92813190D01*
X124786238Y-92813190D01*
X125786238Y-93289380D02*
X125786238Y-92289380D01*
X126833857Y-93194142D02*
X126786238Y-93241761D01*
X126643380Y-93289380D01*
X126548142Y-93289380D01*
X126405285Y-93241761D01*
X126310047Y-93146523D01*
X126262428Y-93051285D01*
X126214809Y-92860809D01*
X126214809Y-92717952D01*
X126262428Y-92527476D01*
X126310047Y-92432238D01*
X126405285Y-92337000D01*
X126548142Y-92289380D01*
X126643380Y-92289380D01*
X126786238Y-92337000D01*
X126833857Y-92384619D01*
X127786238Y-93289380D02*
X127214809Y-93289380D01*
X127500523Y-93289380D02*
X127500523Y-92289380D01*
X127405285Y-92432238D01*
X127310047Y-92527476D01*
X127214809Y-92575095D01*
X128643380Y-92289380D02*
X128452904Y-92289380D01*
X128357666Y-92337000D01*
X128310047Y-92384619D01*
X128214809Y-92527476D01*
X128167190Y-92717952D01*
X128167190Y-93098904D01*
X128214809Y-93194142D01*
X128262428Y-93241761D01*
X128357666Y-93289380D01*
X128548142Y-93289380D01*
X128643380Y-93241761D01*
X128691000Y-93194142D01*
X128738619Y-93098904D01*
X128738619Y-92860809D01*
X128691000Y-92765571D01*
X128643380Y-92717952D01*
X128548142Y-92670333D01*
X128357666Y-92670333D01*
X128262428Y-92717952D01*
X128214809Y-92765571D01*
X128167190Y-92860809D01*
X129500523Y-92765571D02*
X129167190Y-92765571D01*
X129167190Y-93289380D02*
X129167190Y-92289380D01*
X129643380Y-92289380D01*
X130548142Y-93289380D02*
X129976714Y-93289380D01*
X130262428Y-93289380D02*
X130262428Y-92289380D01*
X130167190Y-92432238D01*
X130071952Y-92527476D01*
X129976714Y-92575095D01*
X130881476Y-92289380D02*
X131548142Y-92289380D01*
X131119571Y-93289380D01*
X132071952Y-92717952D02*
X131976714Y-92670333D01*
X131929095Y-92622714D01*
X131881476Y-92527476D01*
X131881476Y-92479857D01*
X131929095Y-92384619D01*
X131976714Y-92337000D01*
X132071952Y-92289380D01*
X132262428Y-92289380D01*
X132357666Y-92337000D01*
X132405285Y-92384619D01*
X132452904Y-92479857D01*
X132452904Y-92527476D01*
X132405285Y-92622714D01*
X132357666Y-92670333D01*
X132262428Y-92717952D01*
X132071952Y-92717952D01*
X131976714Y-92765571D01*
X131929095Y-92813190D01*
X131881476Y-92908428D01*
X131881476Y-93098904D01*
X131929095Y-93194142D01*
X131976714Y-93241761D01*
X132071952Y-93289380D01*
X132262428Y-93289380D01*
X132357666Y-93241761D01*
X132405285Y-93194142D01*
X132452904Y-93098904D01*
X132452904Y-92908428D01*
X132405285Y-92813190D01*
X132357666Y-92765571D01*
X132262428Y-92717952D01*
X132786238Y-92289380D02*
X133452904Y-92289380D01*
X133024333Y-93289380D01*
X133833857Y-92908428D02*
X134595761Y-92908428D01*
X135071952Y-93289380D02*
X135071952Y-92289380D01*
X135310047Y-93384619D02*
X136071952Y-93384619D01*
X136310047Y-93289380D02*
X136310047Y-92289380D01*
X136691000Y-92289380D01*
X136786238Y-92337000D01*
X136833857Y-92384619D01*
X136881476Y-92479857D01*
X136881476Y-92622714D01*
X136833857Y-92717952D01*
X136786238Y-92765571D01*
X136691000Y-92813190D01*
X136310047Y-92813190D01*
X137167190Y-92289380D02*
X137738619Y-92289380D01*
X137452904Y-93289380D02*
X137452904Y-92289380D01*
X138181600Y-97070380D02*
X138181600Y-97308476D01*
X137943504Y-97213238D02*
X138181600Y-97308476D01*
X138419695Y-97213238D01*
X138038742Y-97498952D02*
X138181600Y-97308476D01*
X138324457Y-97498952D01*
X138181600Y-97070380D02*
X138181600Y-97308476D01*
X137943504Y-97213238D02*
X138181600Y-97308476D01*
X138419695Y-97213238D01*
X138038742Y-97498952D02*
X138181600Y-97308476D01*
X138324457Y-97498952D01*
%TO.C,X1-1*%
X87932380Y-71754761D02*
X88932380Y-71088095D01*
X87932380Y-71088095D02*
X88932380Y-71754761D01*
X88932380Y-70183333D02*
X88932380Y-70754761D01*
X88932380Y-70469047D02*
X87932380Y-70469047D01*
X88075238Y-70564285D01*
X88170476Y-70659523D01*
X88218095Y-70754761D01*
X88551428Y-69754761D02*
X88551428Y-68992857D01*
X88932380Y-67992857D02*
X88932380Y-68564285D01*
X88932380Y-68278571D02*
X87932380Y-68278571D01*
X88075238Y-68373809D01*
X88170476Y-68469047D01*
X88218095Y-68564285D01*
%TO.C,X1-3*%
X87932380Y-59689761D02*
X88932380Y-59023095D01*
X87932380Y-59023095D02*
X88932380Y-59689761D01*
X88932380Y-58118333D02*
X88932380Y-58689761D01*
X88932380Y-58404047D02*
X87932380Y-58404047D01*
X88075238Y-58499285D01*
X88170476Y-58594523D01*
X88218095Y-58689761D01*
X88551428Y-57689761D02*
X88551428Y-56927857D01*
X87932380Y-56546904D02*
X87932380Y-55927857D01*
X88313333Y-56261190D01*
X88313333Y-56118333D01*
X88360952Y-56023095D01*
X88408571Y-55975476D01*
X88503809Y-55927857D01*
X88741904Y-55927857D01*
X88837142Y-55975476D01*
X88884761Y-56023095D01*
X88932380Y-56118333D01*
X88932380Y-56404047D01*
X88884761Y-56499285D01*
X88837142Y-56546904D01*
%TO.C,X2-1*%
X74152380Y-99059761D02*
X75152380Y-98393095D01*
X74152380Y-98393095D02*
X75152380Y-99059761D01*
X74247619Y-98059761D02*
X74200000Y-98012142D01*
X74152380Y-97916904D01*
X74152380Y-97678809D01*
X74200000Y-97583571D01*
X74247619Y-97535952D01*
X74342857Y-97488333D01*
X74438095Y-97488333D01*
X74580952Y-97535952D01*
X75152380Y-98107380D01*
X75152380Y-97488333D01*
X74771428Y-97059761D02*
X74771428Y-96297857D01*
X75152380Y-95297857D02*
X75152380Y-95869285D01*
X75152380Y-95583571D02*
X74152380Y-95583571D01*
X74295238Y-95678809D01*
X74390476Y-95774047D01*
X74438095Y-95869285D01*
%TO.C,X2-2*%
X74152380Y-103504761D02*
X75152380Y-102838095D01*
X74152380Y-102838095D02*
X75152380Y-103504761D01*
X74247619Y-102504761D02*
X74200000Y-102457142D01*
X74152380Y-102361904D01*
X74152380Y-102123809D01*
X74200000Y-102028571D01*
X74247619Y-101980952D01*
X74342857Y-101933333D01*
X74438095Y-101933333D01*
X74580952Y-101980952D01*
X75152380Y-102552380D01*
X75152380Y-101933333D01*
X74771428Y-101504761D02*
X74771428Y-100742857D01*
X74247619Y-100314285D02*
X74200000Y-100266666D01*
X74152380Y-100171428D01*
X74152380Y-99933333D01*
X74200000Y-99838095D01*
X74247619Y-99790476D01*
X74342857Y-99742857D01*
X74438095Y-99742857D01*
X74580952Y-99790476D01*
X75152380Y-100361904D01*
X75152380Y-99742857D01*
%TO.C,X2-3*%
X74152380Y-107949761D02*
X75152380Y-107283095D01*
X74152380Y-107283095D02*
X75152380Y-107949761D01*
X74247619Y-106949761D02*
X74200000Y-106902142D01*
X74152380Y-106806904D01*
X74152380Y-106568809D01*
X74200000Y-106473571D01*
X74247619Y-106425952D01*
X74342857Y-106378333D01*
X74438095Y-106378333D01*
X74580952Y-106425952D01*
X75152380Y-106997380D01*
X75152380Y-106378333D01*
X74771428Y-105949761D02*
X74771428Y-105187857D01*
X74152380Y-104806904D02*
X74152380Y-104187857D01*
X74533333Y-104521190D01*
X74533333Y-104378333D01*
X74580952Y-104283095D01*
X74628571Y-104235476D01*
X74723809Y-104187857D01*
X74961904Y-104187857D01*
X75057142Y-104235476D01*
X75104761Y-104283095D01*
X75152380Y-104378333D01*
X75152380Y-104664047D01*
X75104761Y-104759285D01*
X75057142Y-104806904D01*
%TO.C,x3-1*%
X75152380Y-112323333D02*
X74485714Y-111799523D01*
X74485714Y-112323333D02*
X75152380Y-111799523D01*
X74152380Y-111513809D02*
X74152380Y-110894761D01*
X74533333Y-111228095D01*
X74533333Y-111085238D01*
X74580952Y-110990000D01*
X74628571Y-110942380D01*
X74723809Y-110894761D01*
X74961904Y-110894761D01*
X75057142Y-110942380D01*
X75104761Y-110990000D01*
X75152380Y-111085238D01*
X75152380Y-111370952D01*
X75104761Y-111466190D01*
X75057142Y-111513809D01*
X74771428Y-110466190D02*
X74771428Y-109704285D01*
X75152380Y-108704285D02*
X75152380Y-109275714D01*
X75152380Y-108990000D02*
X74152380Y-108990000D01*
X74295238Y-109085238D01*
X74390476Y-109180476D01*
X74438095Y-109275714D01*
%TO.C,X3-2*%
X74152380Y-116839761D02*
X75152380Y-116173095D01*
X74152380Y-116173095D02*
X75152380Y-116839761D01*
X74152380Y-115887380D02*
X74152380Y-115268333D01*
X74533333Y-115601666D01*
X74533333Y-115458809D01*
X74580952Y-115363571D01*
X74628571Y-115315952D01*
X74723809Y-115268333D01*
X74961904Y-115268333D01*
X75057142Y-115315952D01*
X75104761Y-115363571D01*
X75152380Y-115458809D01*
X75152380Y-115744523D01*
X75104761Y-115839761D01*
X75057142Y-115887380D01*
X74771428Y-114839761D02*
X74771428Y-114077857D01*
X74247619Y-113649285D02*
X74200000Y-113601666D01*
X74152380Y-113506428D01*
X74152380Y-113268333D01*
X74200000Y-113173095D01*
X74247619Y-113125476D01*
X74342857Y-113077857D01*
X74438095Y-113077857D01*
X74580952Y-113125476D01*
X75152380Y-113696904D01*
X75152380Y-113077857D01*
%TO.C,X3-3*%
X74152380Y-121284761D02*
X75152380Y-120618095D01*
X74152380Y-120618095D02*
X75152380Y-121284761D01*
X74152380Y-120332380D02*
X74152380Y-119713333D01*
X74533333Y-120046666D01*
X74533333Y-119903809D01*
X74580952Y-119808571D01*
X74628571Y-119760952D01*
X74723809Y-119713333D01*
X74961904Y-119713333D01*
X75057142Y-119760952D01*
X75104761Y-119808571D01*
X75152380Y-119903809D01*
X75152380Y-120189523D01*
X75104761Y-120284761D01*
X75057142Y-120332380D01*
X74771428Y-119284761D02*
X74771428Y-118522857D01*
X74152380Y-118141904D02*
X74152380Y-117522857D01*
X74533333Y-117856190D01*
X74533333Y-117713333D01*
X74580952Y-117618095D01*
X74628571Y-117570476D01*
X74723809Y-117522857D01*
X74961904Y-117522857D01*
X75057142Y-117570476D01*
X75104761Y-117618095D01*
X75152380Y-117713333D01*
X75152380Y-117999047D01*
X75104761Y-118094285D01*
X75057142Y-118141904D01*
%TO.C,X5-1*%
X87932380Y-130174761D02*
X88932380Y-129508095D01*
X87932380Y-129508095D02*
X88932380Y-130174761D01*
X87932380Y-128650952D02*
X87932380Y-129127142D01*
X88408571Y-129174761D01*
X88360952Y-129127142D01*
X88313333Y-129031904D01*
X88313333Y-128793809D01*
X88360952Y-128698571D01*
X88408571Y-128650952D01*
X88503809Y-128603333D01*
X88741904Y-128603333D01*
X88837142Y-128650952D01*
X88884761Y-128698571D01*
X88932380Y-128793809D01*
X88932380Y-129031904D01*
X88884761Y-129127142D01*
X88837142Y-129174761D01*
X88551428Y-128174761D02*
X88551428Y-127412857D01*
X88932380Y-126412857D02*
X88932380Y-126984285D01*
X88932380Y-126698571D02*
X87932380Y-126698571D01*
X88075238Y-126793809D01*
X88170476Y-126889047D01*
X88218095Y-126984285D01*
%TD*%
M02*
