%TF.GenerationSoftware,KiCad,Pcbnew,(5.1.10)-1*%
%TF.CreationDate,2021-11-21T12:30:28+02:00*%
%TF.ProjectId,217243401_Crawler_2021,32313732-3433-4343-9031-5f437261776c,rev?*%
%TF.SameCoordinates,Original*%
%TF.FileFunction,Soldermask,Bot*%
%TF.FilePolarity,Negative*%
%FSLAX46Y46*%
G04 Gerber Fmt 4.6, Leading zero omitted, Abs format (unit mm)*
G04 Created by KiCad (PCBNEW (5.1.10)-1) date 2021-11-21 12:30:28*
%MOMM*%
%LPD*%
G01*
G04 APERTURE LIST*
%TA.AperFunction,Profile*%
%ADD10C,0.050000*%
%TD*%
%ADD11C,3.500000*%
%ADD12R,2.000000X2.000000*%
%ADD13C,2.000000*%
%ADD14C,1.600000*%
%ADD15R,1.600000X1.600000*%
%ADD16C,1.800000*%
%ADD17R,1.800000X1.800000*%
%ADD18R,2.200000X2.200000*%
%ADD19O,2.200000X2.200000*%
%ADD20O,1.700000X1.950000*%
%ADD21O,0.900000X1.400000*%
%ADD22R,1.700000X1.700000*%
%ADD23O,1.700000X1.700000*%
%ADD24R,1.500000X1.050000*%
%ADD25O,1.500000X1.050000*%
%ADD26R,1.050000X1.500000*%
%ADD27O,1.050000X1.500000*%
%ADD28O,1.600000X1.600000*%
%ADD29O,3.500000X3.500000*%
%ADD30R,1.905000X2.000000*%
%ADD31O,1.905000X2.000000*%
%ADD32C,2.500000*%
%ADD33C,3.000000*%
%ADD34R,3.000000X3.000000*%
G04 APERTURE END LIST*
D10*
X76835000Y-46355000D02*
X171835000Y-46355000D01*
X73025000Y-150165000D02*
X73025000Y-50165000D01*
X171835000Y-153975000D02*
X76835000Y-153975000D01*
X175645000Y-50165000D02*
X175645000Y-150165000D01*
X171835000Y-46355000D02*
G75*
G02*
X175645000Y-50165000I0J-3810000D01*
G01*
X175645000Y-150165000D02*
G75*
G02*
X171835000Y-153975000I-3810000J0D01*
G01*
X76835000Y-153975000D02*
G75*
G02*
X73025000Y-150165000I0J3810000D01*
G01*
X73025000Y-50165000D02*
G75*
G02*
X76835000Y-46355000I3810000J0D01*
G01*
D11*
%TO.C,REF\u002A\u002A*%
X171450000Y-50800000D03*
%TD*%
%TO.C,REF\u002A\u002A*%
X76835000Y-50165000D03*
%TD*%
%TO.C,REF\u002A\u002A*%
X77470000Y-149860000D03*
%TD*%
%TO.C,REF\u002A\u002A*%
X171450000Y-149860000D03*
%TD*%
D12*
%TO.C,C1*%
X110871000Y-69977000D03*
D13*
X110871000Y-64977000D03*
%TD*%
D12*
%TO.C,C2*%
X158750000Y-80010000D03*
D13*
X166250000Y-80010000D03*
%TD*%
D14*
%TO.C,C3*%
X137795000Y-133985000D03*
X137795000Y-138985000D03*
%TD*%
%TO.C,C4*%
X154559000Y-106045000D03*
X154559000Y-101045000D03*
%TD*%
%TO.C,C5*%
X173275000Y-65405000D03*
X168275000Y-65405000D03*
%TD*%
%TO.C,C6*%
X105711000Y-74549000D03*
X100711000Y-74549000D03*
%TD*%
%TO.C,C7*%
X163115000Y-120777000D03*
X158115000Y-120777000D03*
%TD*%
D15*
%TO.C,C8*%
X125730000Y-146685000D03*
D14*
X125730000Y-144185000D03*
%TD*%
%TO.C,C9*%
X101727000Y-77597000D03*
X101727000Y-82597000D03*
%TD*%
%TO.C,C10*%
X167259000Y-136017000D03*
X167259000Y-131017000D03*
%TD*%
%TO.C,C11*%
X172339000Y-77169000D03*
X172339000Y-82169000D03*
%TD*%
%TO.C,C12*%
X172767000Y-70485000D03*
X167767000Y-70485000D03*
%TD*%
%TO.C,C13*%
X108839000Y-128905000D03*
X108839000Y-123905000D03*
%TD*%
D16*
%TO.C,D2*%
X171450000Y-85725000D03*
D17*
X171450000Y-88265000D03*
%TD*%
D16*
%TO.C,D5*%
X171450000Y-93980000D03*
D17*
X171450000Y-96520000D03*
%TD*%
%TO.C,D11*%
X171450000Y-105410000D03*
D16*
X171450000Y-102870000D03*
%TD*%
%TO.C,D13*%
X171450000Y-110490000D03*
D17*
X171450000Y-113030000D03*
%TD*%
%TO.C,D14*%
X171450000Y-118745000D03*
D16*
X171450000Y-121285000D03*
%TD*%
%TO.C,D15*%
X171450000Y-127000000D03*
D17*
X171450000Y-129540000D03*
%TD*%
D18*
%TO.C,Diode1*%
X132461000Y-132461000D03*
D19*
X132461000Y-140081000D03*
%TD*%
D18*
%TO.C,Diode3*%
X126111000Y-132461000D03*
D19*
X126111000Y-140081000D03*
%TD*%
%TO.C,Diode4*%
X119761000Y-140081000D03*
D18*
X119761000Y-132461000D03*
%TD*%
D19*
%TO.C,Diode6*%
X113411000Y-140081000D03*
D18*
X113411000Y-132461000D03*
%TD*%
%TO.C,Diode8*%
X107061000Y-132461000D03*
D19*
X107061000Y-140081000D03*
%TD*%
%TO.C,J1*%
G36*
G01*
X117690000Y-145325000D02*
X117690000Y-146775000D01*
G75*
G02*
X117440000Y-147025000I-250000J0D01*
G01*
X116240000Y-147025000D01*
G75*
G02*
X115990000Y-146775000I0J250000D01*
G01*
X115990000Y-145325000D01*
G75*
G02*
X116240000Y-145075000I250000J0D01*
G01*
X117440000Y-145075000D01*
G75*
G02*
X117690000Y-145325000I0J-250000D01*
G01*
G37*
D20*
X114340000Y-146050000D03*
X111840000Y-146050000D03*
X109340000Y-146050000D03*
X106840000Y-146050000D03*
X104340000Y-146050000D03*
%TD*%
%TO.C,J2*%
G36*
G01*
X84005000Y-145890000D02*
X84005000Y-144940000D01*
G75*
G02*
X84230000Y-144715000I225000J0D01*
G01*
X84680000Y-144715000D01*
G75*
G02*
X84905000Y-144940000I0J-225000D01*
G01*
X84905000Y-145890000D01*
G75*
G02*
X84680000Y-146115000I-225000J0D01*
G01*
X84230000Y-146115000D01*
G75*
G02*
X84005000Y-145890000I0J225000D01*
G01*
G37*
D21*
X85705000Y-145415000D03*
X86955000Y-145415000D03*
X88205000Y-145415000D03*
X89455000Y-145415000D03*
X90705000Y-145415000D03*
%TD*%
D22*
%TO.C,J3*%
X80010000Y-82550000D03*
D23*
X80010000Y-85090000D03*
X80010000Y-87630000D03*
X80010000Y-90170000D03*
X80010000Y-92710000D03*
%TD*%
D22*
%TO.C,JP1*%
X88265000Y-110490000D03*
D23*
X88265000Y-107950000D03*
X88265000Y-105410000D03*
%TD*%
%TO.C,JP2*%
X83820000Y-112395000D03*
X83820000Y-114935000D03*
D22*
X83820000Y-117475000D03*
%TD*%
%TO.C,JP3*%
X88265000Y-121920000D03*
D23*
X88265000Y-119380000D03*
X88265000Y-116840000D03*
%TD*%
%TO.C,JP4*%
X88265000Y-99695000D03*
X88265000Y-97155000D03*
D22*
X88265000Y-94615000D03*
%TD*%
D23*
%TO.C,JP5*%
X83820000Y-99695000D03*
X83820000Y-102235000D03*
D22*
X83820000Y-104775000D03*
%TD*%
%TO.C,JP6*%
X89535000Y-83185000D03*
D23*
X89535000Y-85725000D03*
X89535000Y-88265000D03*
%TD*%
D16*
%TO.C,LED1*%
X91440000Y-52070000D03*
D17*
X91440000Y-54610000D03*
%TD*%
%TO.C,LED2*%
X100330000Y-54610000D03*
D16*
X100330000Y-52070000D03*
%TD*%
D17*
%TO.C,LED3*%
X109220000Y-54610000D03*
D16*
X109220000Y-52070000D03*
%TD*%
D17*
%TO.C,LED4*%
X118110000Y-54610000D03*
D16*
X118110000Y-52070000D03*
%TD*%
D24*
%TO.C,Q1*%
X104775000Y-103505000D03*
D25*
X104775000Y-106045000D03*
X104775000Y-104775000D03*
%TD*%
D24*
%TO.C,Q2*%
X105410000Y-118745000D03*
D25*
X105410000Y-116205000D03*
X105410000Y-117475000D03*
%TD*%
%TO.C,Q3*%
X95631000Y-133731000D03*
X95631000Y-135001000D03*
D24*
X95631000Y-132461000D03*
%TD*%
D26*
%TO.C,Q4*%
X93599000Y-82677000D03*
D27*
X96139000Y-82677000D03*
X94869000Y-82677000D03*
%TD*%
%TO.C,Q5*%
X163830000Y-116205000D03*
X162560000Y-116205000D03*
D26*
X165100000Y-116205000D03*
%TD*%
D27*
%TO.C,Q6*%
X102489000Y-130429000D03*
X101219000Y-130429000D03*
D26*
X103759000Y-130429000D03*
%TD*%
D28*
%TO.C,R1*%
X108839000Y-77089000D03*
D14*
X116459000Y-77089000D03*
%TD*%
D28*
%TO.C,R2*%
X90551000Y-75565000D03*
D14*
X98171000Y-75565000D03*
%TD*%
D28*
%TO.C,R3*%
X113157000Y-86995000D03*
D14*
X120777000Y-86995000D03*
%TD*%
%TO.C,R4*%
X106807000Y-87249000D03*
D28*
X99187000Y-87249000D03*
%TD*%
%TO.C,R5*%
X153035000Y-76581000D03*
D14*
X145415000Y-76581000D03*
%TD*%
D28*
%TO.C,R6*%
X104267000Y-99949000D03*
D14*
X104267000Y-92329000D03*
%TD*%
%TO.C,R7*%
X158115000Y-88265000D03*
D28*
X165735000Y-88265000D03*
%TD*%
%TO.C,R8*%
X99695000Y-108077000D03*
D14*
X92075000Y-108077000D03*
%TD*%
%TO.C,R9*%
X92710000Y-123190000D03*
D28*
X100330000Y-123190000D03*
%TD*%
D14*
%TO.C,R10*%
X158115000Y-93980000D03*
D28*
X165735000Y-93980000D03*
%TD*%
D14*
%TO.C,R11*%
X91440000Y-63500000D03*
D28*
X91440000Y-71120000D03*
%TD*%
%TO.C,R12*%
X99695000Y-116840000D03*
D14*
X92075000Y-116840000D03*
%TD*%
%TO.C,R13*%
X90043000Y-125857000D03*
D28*
X90043000Y-133477000D03*
%TD*%
%TO.C,R14*%
X96520000Y-71120000D03*
D14*
X96520000Y-63500000D03*
%TD*%
%TO.C,R15*%
X101600000Y-63500000D03*
D28*
X101600000Y-71120000D03*
%TD*%
D14*
%TO.C,R16*%
X158115000Y-101981000D03*
D28*
X165735000Y-101981000D03*
%TD*%
%TO.C,R17*%
X121920000Y-71120000D03*
D14*
X121920000Y-63500000D03*
%TD*%
D28*
%TO.C,R18*%
X99695000Y-99695000D03*
D14*
X92075000Y-99695000D03*
%TD*%
D28*
%TO.C,R19*%
X99695000Y-92075000D03*
D14*
X92075000Y-92075000D03*
%TD*%
%TO.C,R20*%
X158115000Y-108585000D03*
D28*
X165735000Y-108585000D03*
%TD*%
D14*
%TO.C,R21*%
X92075000Y-112141000D03*
D28*
X99695000Y-112141000D03*
%TD*%
D14*
%TO.C,R22*%
X150241000Y-115951000D03*
D28*
X157861000Y-115951000D03*
%TD*%
%TO.C,R23*%
X165735000Y-124841000D03*
D14*
X158115000Y-124841000D03*
%TD*%
D28*
%TO.C,R24*%
X83820000Y-95250000D03*
D14*
X83820000Y-87630000D03*
%TD*%
%TO.C,R25*%
X121031000Y-126365000D03*
D28*
X113411000Y-126365000D03*
%TD*%
D14*
%TO.C,R26*%
X171323000Y-141605000D03*
D28*
X171323000Y-133985000D03*
%TD*%
D29*
%TO.C,U1*%
X160020000Y-147470000D03*
D30*
X162560000Y-130810000D03*
D31*
X160020000Y-130810000D03*
X157480000Y-130810000D03*
%TD*%
%TO.C,U2*%
G36*
G01*
X135245000Y-64750000D02*
X133995000Y-64750000D01*
G75*
G02*
X133370000Y-64125000I0J625000D01*
G01*
X133370000Y-62875000D01*
G75*
G02*
X133995000Y-62250000I625000J0D01*
G01*
X135245000Y-62250000D01*
G75*
G02*
X135870000Y-62875000I0J-625000D01*
G01*
X135870000Y-64125000D01*
G75*
G02*
X135245000Y-64750000I-625000J0D01*
G01*
G37*
D32*
X134620000Y-58420000D03*
X154940000Y-71120000D03*
X154940000Y-60960000D03*
X154940000Y-50800000D03*
X134620000Y-50800000D03*
%TD*%
D33*
%TO.C,X1-1*%
X81280000Y-74850000D03*
D34*
X81280000Y-69850000D03*
%TD*%
%TO.C,X1-3*%
X81280000Y-57785000D03*
D33*
X81280000Y-62785000D03*
%TD*%
D22*
%TO.C,X2-1*%
X77470000Y-97155000D03*
%TD*%
%TO.C,X2-2*%
X77470000Y-101600000D03*
%TD*%
%TO.C,X2-3*%
X77470000Y-106045000D03*
%TD*%
%TO.C,x3-1*%
X77470000Y-110490000D03*
%TD*%
%TO.C,X3-2*%
X77470000Y-114935000D03*
%TD*%
%TO.C,X3-3*%
X77470000Y-119380000D03*
%TD*%
D34*
%TO.C,X5-1*%
X81280000Y-128270000D03*
D33*
X81280000Y-133270000D03*
%TD*%
M02*
