%TF.GenerationSoftware,KiCad,Pcbnew,(5.1.10)-1*%
%TF.CreationDate,2021-11-21T12:30:28+02:00*%
%TF.ProjectId,217243401_Crawler_2021,32313732-3433-4343-9031-5f437261776c,rev?*%
%TF.SameCoordinates,Original*%
%TF.FileFunction,Copper,L2,Bot*%
%TF.FilePolarity,Positive*%
%FSLAX46Y46*%
G04 Gerber Fmt 4.6, Leading zero omitted, Abs format (unit mm)*
G04 Created by KiCad (PCBNEW (5.1.10)-1) date 2021-11-21 12:30:28*
%MOMM*%
%LPD*%
G01*
G04 APERTURE LIST*
%TA.AperFunction,Profile*%
%ADD10C,0.050000*%
%TD*%
%TA.AperFunction,ComponentPad*%
%ADD11R,2.000000X2.000000*%
%TD*%
%TA.AperFunction,ComponentPad*%
%ADD12C,2.000000*%
%TD*%
%TA.AperFunction,ComponentPad*%
%ADD13C,1.600000*%
%TD*%
%TA.AperFunction,ComponentPad*%
%ADD14R,1.600000X1.600000*%
%TD*%
%TA.AperFunction,ComponentPad*%
%ADD15C,1.800000*%
%TD*%
%TA.AperFunction,ComponentPad*%
%ADD16R,1.800000X1.800000*%
%TD*%
%TA.AperFunction,ComponentPad*%
%ADD17R,2.200000X2.200000*%
%TD*%
%TA.AperFunction,ComponentPad*%
%ADD18O,2.200000X2.200000*%
%TD*%
%TA.AperFunction,ComponentPad*%
%ADD19O,1.700000X1.950000*%
%TD*%
%TA.AperFunction,ComponentPad*%
%ADD20O,0.900000X1.400000*%
%TD*%
%TA.AperFunction,ComponentPad*%
%ADD21R,1.700000X1.700000*%
%TD*%
%TA.AperFunction,ComponentPad*%
%ADD22O,1.700000X1.700000*%
%TD*%
%TA.AperFunction,ComponentPad*%
%ADD23R,1.500000X1.050000*%
%TD*%
%TA.AperFunction,ComponentPad*%
%ADD24O,1.500000X1.050000*%
%TD*%
%TA.AperFunction,ComponentPad*%
%ADD25R,1.050000X1.500000*%
%TD*%
%TA.AperFunction,ComponentPad*%
%ADD26O,1.050000X1.500000*%
%TD*%
%TA.AperFunction,ComponentPad*%
%ADD27O,1.600000X1.600000*%
%TD*%
%TA.AperFunction,ComponentPad*%
%ADD28R,1.905000X2.000000*%
%TD*%
%TA.AperFunction,ComponentPad*%
%ADD29O,1.905000X2.000000*%
%TD*%
%TA.AperFunction,ComponentPad*%
%ADD30C,2.500000*%
%TD*%
%TA.AperFunction,ComponentPad*%
%ADD31C,3.000000*%
%TD*%
%TA.AperFunction,ComponentPad*%
%ADD32R,3.000000X3.000000*%
%TD*%
%TA.AperFunction,ViaPad*%
%ADD33C,0.800000*%
%TD*%
%TA.AperFunction,Conductor*%
%ADD34C,2.540000*%
%TD*%
%TA.AperFunction,Conductor*%
%ADD35C,1.016000*%
%TD*%
%TA.AperFunction,Conductor*%
%ADD36C,0.965200*%
%TD*%
%TA.AperFunction,Conductor*%
%ADD37C,2.032000*%
%TD*%
%TA.AperFunction,Conductor*%
%ADD38C,0.254000*%
%TD*%
%TA.AperFunction,Conductor*%
%ADD39C,0.100000*%
%TD*%
%TA.AperFunction,NonConductor*%
%ADD40C,0.254000*%
%TD*%
%TA.AperFunction,NonConductor*%
%ADD41C,0.100000*%
%TD*%
G04 APERTURE END LIST*
D10*
X76835000Y-46355000D02*
X171835000Y-46355000D01*
X73025000Y-150165000D02*
X73025000Y-50165000D01*
X171835000Y-153975000D02*
X76835000Y-153975000D01*
X175645000Y-50165000D02*
X175645000Y-150165000D01*
X171835000Y-46355000D02*
G75*
G02*
X175645000Y-50165000I0J-3810000D01*
G01*
X175645000Y-150165000D02*
G75*
G02*
X171835000Y-153975000I-3810000J0D01*
G01*
X76835000Y-153975000D02*
G75*
G02*
X73025000Y-150165000I0J3810000D01*
G01*
X73025000Y-50165000D02*
G75*
G02*
X76835000Y-46355000I3810000J0D01*
G01*
D11*
%TO.P,C1,1*%
%TO.N,+48V*%
X110871000Y-69977000D03*
D12*
%TO.P,C1,2*%
%TO.N,Net-(C1-Pad2)*%
X110871000Y-64977000D03*
%TD*%
D11*
%TO.P,C2,1*%
%TO.N,+12V*%
X158750000Y-80010000D03*
D12*
%TO.P,C2,2*%
%TO.N,0V*%
X166250000Y-80010000D03*
%TD*%
D13*
%TO.P,C3,1*%
%TO.N,RIGHT*%
X137795000Y-133985000D03*
%TO.P,C3,2*%
%TO.N,0V*%
X137795000Y-138985000D03*
%TD*%
%TO.P,C4,1*%
%TO.N,+5V*%
X154559000Y-106045000D03*
%TO.P,C4,2*%
%TO.N,0V*%
X154559000Y-101045000D03*
%TD*%
%TO.P,C5,2*%
%TO.N,0V*%
X173275000Y-65405000D03*
%TO.P,C5,1*%
%TO.N,+5V*%
X168275000Y-65405000D03*
%TD*%
%TO.P,C6,2*%
%TO.N,0V*%
X105711000Y-74549000D03*
%TO.P,C6,1*%
%TO.N,LEFT*%
X100711000Y-74549000D03*
%TD*%
%TO.P,C7,2*%
%TO.N,0V*%
X163115000Y-120777000D03*
%TO.P,C7,1*%
%TO.N,+5V*%
X158115000Y-120777000D03*
%TD*%
D14*
%TO.P,C8,1*%
%TO.N,+5V*%
X125730000Y-146685000D03*
D13*
%TO.P,C8,2*%
%TO.N,0V*%
X125730000Y-144185000D03*
%TD*%
%TO.P,C9,1*%
%TO.N,REV*%
X101727000Y-77597000D03*
%TO.P,C9,2*%
%TO.N,0V*%
X101727000Y-82597000D03*
%TD*%
%TO.P,C10,1*%
%TO.N,+5V*%
X167259000Y-136017000D03*
%TO.P,C10,2*%
%TO.N,0V*%
X167259000Y-131017000D03*
%TD*%
%TO.P,C11,2*%
%TO.N,0V*%
X172339000Y-77169000D03*
%TO.P,C11,1*%
%TO.N,+5V*%
X172339000Y-82169000D03*
%TD*%
%TO.P,C12,2*%
%TO.N,0V*%
X172767000Y-70485000D03*
%TO.P,C12,1*%
%TO.N,FWD*%
X167767000Y-70485000D03*
%TD*%
%TO.P,C13,1*%
%TO.N,STOPSPEED*%
X108839000Y-128905000D03*
%TO.P,C13,2*%
%TO.N,0V*%
X108839000Y-123905000D03*
%TD*%
D15*
%TO.P,D2,2*%
%TO.N,Net-(D2-Pad2)*%
X171450000Y-85725000D03*
D16*
%TO.P,D2,1*%
%TO.N,Net-(D2-Pad1)*%
X171450000Y-88265000D03*
%TD*%
D15*
%TO.P,D5,2*%
%TO.N,Net-(D5-Pad2)*%
X171450000Y-93980000D03*
D16*
%TO.P,D5,1*%
%TO.N,Net-(D5-Pad1)*%
X171450000Y-96520000D03*
%TD*%
%TO.P,D11,1*%
%TO.N,Net-(D11-Pad1)*%
X171450000Y-105410000D03*
D15*
%TO.P,D11,2*%
%TO.N,Net-(D11-Pad2)*%
X171450000Y-102870000D03*
%TD*%
%TO.P,D13,2*%
%TO.N,Net-(D13-Pad2)*%
X171450000Y-110490000D03*
D16*
%TO.P,D13,1*%
%TO.N,Net-(D13-Pad1)*%
X171450000Y-113030000D03*
%TD*%
%TO.P,D14,1*%
%TO.N,Net-(D14-Pad1)*%
X171450000Y-118745000D03*
D15*
%TO.P,D14,2*%
%TO.N,Net-(D14-Pad2)*%
X171450000Y-121285000D03*
%TD*%
%TO.P,D15,2*%
%TO.N,Net-(D15-Pad2)*%
X171450000Y-127000000D03*
D16*
%TO.P,D15,1*%
%TO.N,Net-(D15-Pad1)*%
X171450000Y-129540000D03*
%TD*%
D17*
%TO.P,Diode1,1*%
%TO.N,RIGHT*%
X132461000Y-132461000D03*
D18*
%TO.P,Diode1,2*%
%TO.N,0V*%
X132461000Y-140081000D03*
%TD*%
D17*
%TO.P,Diode3,1*%
%TO.N,LEFT*%
X126111000Y-132461000D03*
D18*
%TO.P,Diode3,2*%
%TO.N,0V*%
X126111000Y-140081000D03*
%TD*%
%TO.P,Diode4,2*%
%TO.N,0V*%
X119761000Y-140081000D03*
D17*
%TO.P,Diode4,1*%
%TO.N,REV*%
X119761000Y-132461000D03*
%TD*%
D18*
%TO.P,Diode6,2*%
%TO.N,0V*%
X113411000Y-140081000D03*
D17*
%TO.P,Diode6,1*%
%TO.N,FWD*%
X113411000Y-132461000D03*
%TD*%
%TO.P,Diode8,1*%
%TO.N,STOPSPEED*%
X107061000Y-132461000D03*
D18*
%TO.P,Diode8,2*%
%TO.N,0V*%
X107061000Y-140081000D03*
%TD*%
%TO.P,J1,1*%
%TO.N,MCLR\u005CVPP*%
%TA.AperFunction,ComponentPad*%
G36*
G01*
X117690000Y-145325000D02*
X117690000Y-146775000D01*
G75*
G02*
X117440000Y-147025000I-250000J0D01*
G01*
X116240000Y-147025000D01*
G75*
G02*
X115990000Y-146775000I0J250000D01*
G01*
X115990000Y-145325000D01*
G75*
G02*
X116240000Y-145075000I250000J0D01*
G01*
X117440000Y-145075000D01*
G75*
G02*
X117690000Y-145325000I0J-250000D01*
G01*
G37*
%TD.AperFunction*%
D19*
%TO.P,J1,2*%
%TO.N,+5V*%
X114340000Y-146050000D03*
%TO.P,J1,3*%
%TO.N,0V*%
X111840000Y-146050000D03*
%TO.P,J1,4*%
%TO.N,PGD(ICSPDAT)*%
X109340000Y-146050000D03*
%TO.P,J1,5*%
%TO.N,PGC(ICDPCLK)*%
X106840000Y-146050000D03*
%TO.P,J1,6*%
%TO.N,Net-(J1-Pad6)*%
X104340000Y-146050000D03*
%TD*%
%TO.P,J2,1*%
%TO.N,MCLR\u005CVPP*%
%TA.AperFunction,ComponentPad*%
G36*
G01*
X84005000Y-145890000D02*
X84005000Y-144940000D01*
G75*
G02*
X84230000Y-144715000I225000J0D01*
G01*
X84680000Y-144715000D01*
G75*
G02*
X84905000Y-144940000I0J-225000D01*
G01*
X84905000Y-145890000D01*
G75*
G02*
X84680000Y-146115000I-225000J0D01*
G01*
X84230000Y-146115000D01*
G75*
G02*
X84005000Y-145890000I0J225000D01*
G01*
G37*
%TD.AperFunction*%
D20*
%TO.P,J2,2*%
%TO.N,+5V*%
X85705000Y-145415000D03*
%TO.P,J2,3*%
%TO.N,0V*%
X86955000Y-145415000D03*
%TO.P,J2,4*%
%TO.N,PGD(ICSPDAT)*%
X88205000Y-145415000D03*
%TO.P,J2,5*%
%TO.N,PGC(ICDPCLK)*%
X89455000Y-145415000D03*
%TO.P,J2,6*%
%TO.N,Net-(J1-Pad6)*%
X90705000Y-145415000D03*
%TD*%
D21*
%TO.P,J3,1*%
%TO.N,STOPSPEED*%
X80010000Y-82550000D03*
D22*
%TO.P,J3,2*%
%TO.N,Net-(J3-Pad2)*%
X80010000Y-85090000D03*
%TO.P,J3,3*%
%TO.N,Net-(J3-Pad3)*%
X80010000Y-87630000D03*
%TO.P,J3,4*%
%TO.N,Net-(J3-Pad4)*%
X80010000Y-90170000D03*
%TO.P,J3,5*%
%TO.N,Net-(J3-Pad5)*%
X80010000Y-92710000D03*
%TD*%
D21*
%TO.P,JP1,1*%
%TO.N,STEP_L*%
X88265000Y-110490000D03*
D22*
%TO.P,JP1,2*%
%TO.N,Net-(JP1-Pad2)*%
X88265000Y-107950000D03*
%TO.P,JP1,3*%
%TO.N,Net-(JP1-Pad3)*%
X88265000Y-105410000D03*
%TD*%
%TO.P,JP2,3*%
%TO.N,Net-(JP2-Pad3)*%
X83820000Y-112395000D03*
%TO.P,JP2,2*%
%TO.N,Net-(JP2-Pad2)*%
X83820000Y-114935000D03*
D21*
%TO.P,JP2,1*%
%TO.N,DIR_L*%
X83820000Y-117475000D03*
%TD*%
%TO.P,JP3,1*%
%TO.N,ENA_L*%
X88265000Y-121920000D03*
D22*
%TO.P,JP3,2*%
%TO.N,Net-(JP3-Pad2)*%
X88265000Y-119380000D03*
%TO.P,JP3,3*%
%TO.N,Net-(JP3-Pad3)*%
X88265000Y-116840000D03*
%TD*%
%TO.P,JP4,3*%
%TO.N,Net-(JP4-Pad3)*%
X88265000Y-99695000D03*
%TO.P,JP4,2*%
%TO.N,Net-(JP4-Pad2)*%
X88265000Y-97155000D03*
D21*
%TO.P,JP4,1*%
%TO.N,STEP_R*%
X88265000Y-94615000D03*
%TD*%
D22*
%TO.P,JP5,3*%
%TO.N,Net-(JP5-Pad3)*%
X83820000Y-99695000D03*
%TO.P,JP5,2*%
%TO.N,Net-(JP5-Pad2)*%
X83820000Y-102235000D03*
D21*
%TO.P,JP5,1*%
%TO.N,DIR_R*%
X83820000Y-104775000D03*
%TD*%
%TO.P,JP6,1*%
%TO.N,ENA_R*%
X89535000Y-83185000D03*
D22*
%TO.P,JP6,2*%
%TO.N,Net-(JP6-Pad2)*%
X89535000Y-85725000D03*
%TO.P,JP6,3*%
%TO.N,Net-(JP6-Pad3)*%
X89535000Y-88265000D03*
%TD*%
D15*
%TO.P,LED1,2*%
%TO.N,+5V*%
X91440000Y-52070000D03*
D16*
%TO.P,LED1,1*%
%TO.N,Net-(LED1-Pad1)*%
X91440000Y-54610000D03*
%TD*%
%TO.P,LED2,1*%
%TO.N,Net-(LED2-Pad1)*%
X100330000Y-54610000D03*
D15*
%TO.P,LED2,2*%
%TO.N,+5V*%
X100330000Y-52070000D03*
%TD*%
D16*
%TO.P,LED3,1*%
%TO.N,Net-(LED3-Pad1)*%
X109220000Y-54610000D03*
D15*
%TO.P,LED3,2*%
%TO.N,+5V*%
X109220000Y-52070000D03*
%TD*%
D16*
%TO.P,LED4,1*%
%TO.N,Net-(LED4-Pad1)*%
X118110000Y-54610000D03*
D15*
%TO.P,LED4,2*%
%TO.N,+5V*%
X118110000Y-52070000D03*
%TD*%
D23*
%TO.P,Q1,1*%
%TO.N,Net-(D2-Pad1)*%
X104775000Y-103505000D03*
D24*
%TO.P,Q1,3*%
%TO.N,0V*%
X104775000Y-106045000D03*
%TO.P,Q1,2*%
%TO.N,Net-(Q1-Pad2)*%
X104775000Y-104775000D03*
%TD*%
D23*
%TO.P,Q2,1*%
%TO.N,Net-(D5-Pad1)*%
X105410000Y-118745000D03*
D24*
%TO.P,Q2,3*%
%TO.N,0V*%
X105410000Y-116205000D03*
%TO.P,Q2,2*%
%TO.N,Net-(Q2-Pad2)*%
X105410000Y-117475000D03*
%TD*%
%TO.P,Q3,2*%
%TO.N,Net-(Q3-Pad2)*%
X95631000Y-133731000D03*
%TO.P,Q3,3*%
%TO.N,0V*%
X95631000Y-135001000D03*
D23*
%TO.P,Q3,1*%
%TO.N,Net-(D11-Pad1)*%
X95631000Y-132461000D03*
%TD*%
D25*
%TO.P,Q4,1*%
%TO.N,Net-(D13-Pad1)*%
X93599000Y-82677000D03*
D26*
%TO.P,Q4,3*%
%TO.N,0V*%
X96139000Y-82677000D03*
%TO.P,Q4,2*%
%TO.N,Net-(Q4-Pad2)*%
X94869000Y-82677000D03*
%TD*%
%TO.P,Q5,2*%
%TO.N,Net-(Q5-Pad2)*%
X163830000Y-116205000D03*
%TO.P,Q5,3*%
%TO.N,0V*%
X162560000Y-116205000D03*
D25*
%TO.P,Q5,1*%
%TO.N,Net-(D14-Pad1)*%
X165100000Y-116205000D03*
%TD*%
D26*
%TO.P,Q6,2*%
%TO.N,Net-(Q6-Pad2)*%
X102489000Y-130429000D03*
%TO.P,Q6,3*%
%TO.N,0V*%
X101219000Y-130429000D03*
D25*
%TO.P,Q6,1*%
%TO.N,Net-(D15-Pad1)*%
X103759000Y-130429000D03*
%TD*%
D27*
%TO.P,R1,2*%
%TO.N,Net-(J3-Pad2)*%
X108839000Y-77089000D03*
D13*
%TO.P,R1,1*%
%TO.N,FWD*%
X116459000Y-77089000D03*
%TD*%
D27*
%TO.P,R2,2*%
%TO.N,Net-(J3-Pad3)*%
X90551000Y-75565000D03*
D13*
%TO.P,R2,1*%
%TO.N,REV*%
X98171000Y-75565000D03*
%TD*%
D27*
%TO.P,R3,2*%
%TO.N,Net-(J3-Pad4)*%
X113157000Y-86995000D03*
D13*
%TO.P,R3,1*%
%TO.N,LEFT*%
X120777000Y-86995000D03*
%TD*%
%TO.P,R4,1*%
%TO.N,RIGHT*%
X106807000Y-87249000D03*
D27*
%TO.P,R4,2*%
%TO.N,Net-(J3-Pad5)*%
X99187000Y-87249000D03*
%TD*%
%TO.P,R5,2*%
%TO.N,Net-(D2-Pad1)*%
X153035000Y-76581000D03*
D13*
%TO.P,R5,1*%
%TO.N,Net-(JP1-Pad3)*%
X145415000Y-76581000D03*
%TD*%
D27*
%TO.P,R6,2*%
%TO.N,Net-(Q1-Pad2)*%
X104267000Y-99949000D03*
D13*
%TO.P,R6,1*%
%TO.N,STEP_L*%
X104267000Y-92329000D03*
%TD*%
%TO.P,R7,1*%
%TO.N,+5V*%
X158115000Y-88265000D03*
D27*
%TO.P,R7,2*%
%TO.N,Net-(D2-Pad2)*%
X165735000Y-88265000D03*
%TD*%
%TO.P,R8,2*%
%TO.N,Net-(D5-Pad1)*%
X99695000Y-108077000D03*
D13*
%TO.P,R8,1*%
%TO.N,Net-(JP2-Pad3)*%
X92075000Y-108077000D03*
%TD*%
%TO.P,R9,1*%
%TO.N,DIR_L*%
X92710000Y-123190000D03*
D27*
%TO.P,R9,2*%
%TO.N,Net-(Q2-Pad2)*%
X100330000Y-123190000D03*
%TD*%
D13*
%TO.P,R10,1*%
%TO.N,+5V*%
X158115000Y-93980000D03*
D27*
%TO.P,R10,2*%
%TO.N,Net-(D5-Pad2)*%
X165735000Y-93980000D03*
%TD*%
D13*
%TO.P,R11,1*%
%TO.N,Net-(LED1-Pad1)*%
X91440000Y-63500000D03*
D27*
%TO.P,R11,2*%
%TO.N,RIGHT*%
X91440000Y-71120000D03*
%TD*%
%TO.P,R12,2*%
%TO.N,Net-(D11-Pad1)*%
X99695000Y-116840000D03*
D13*
%TO.P,R12,1*%
%TO.N,Net-(JP3-Pad3)*%
X92075000Y-116840000D03*
%TD*%
%TO.P,R13,1*%
%TO.N,ENA_L*%
X90043000Y-125857000D03*
D27*
%TO.P,R13,2*%
%TO.N,Net-(Q3-Pad2)*%
X90043000Y-133477000D03*
%TD*%
%TO.P,R14,2*%
%TO.N,LEFT*%
X96520000Y-71120000D03*
D13*
%TO.P,R14,1*%
%TO.N,Net-(LED2-Pad1)*%
X96520000Y-63500000D03*
%TD*%
%TO.P,R15,1*%
%TO.N,Net-(LED3-Pad1)*%
X101600000Y-63500000D03*
D27*
%TO.P,R15,2*%
%TO.N,REV*%
X101600000Y-71120000D03*
%TD*%
D13*
%TO.P,R16,1*%
%TO.N,+5V*%
X158115000Y-101981000D03*
D27*
%TO.P,R16,2*%
%TO.N,Net-(D11-Pad2)*%
X165735000Y-101981000D03*
%TD*%
%TO.P,R17,2*%
%TO.N,FWD*%
X121920000Y-71120000D03*
D13*
%TO.P,R17,1*%
%TO.N,Net-(LED4-Pad1)*%
X121920000Y-63500000D03*
%TD*%
D27*
%TO.P,R18,2*%
%TO.N,Net-(D13-Pad1)*%
X99695000Y-99695000D03*
D13*
%TO.P,R18,1*%
%TO.N,Net-(JP4-Pad3)*%
X92075000Y-99695000D03*
%TD*%
D27*
%TO.P,R19,2*%
%TO.N,Net-(Q4-Pad2)*%
X99695000Y-92075000D03*
D13*
%TO.P,R19,1*%
%TO.N,STEP_R*%
X92075000Y-92075000D03*
%TD*%
%TO.P,R20,1*%
%TO.N,+5V*%
X158115000Y-108585000D03*
D27*
%TO.P,R20,2*%
%TO.N,Net-(D13-Pad2)*%
X165735000Y-108585000D03*
%TD*%
D13*
%TO.P,R21,1*%
%TO.N,Net-(JP5-Pad3)*%
X92075000Y-112141000D03*
D27*
%TO.P,R21,2*%
%TO.N,Net-(D14-Pad1)*%
X99695000Y-112141000D03*
%TD*%
D13*
%TO.P,R22,1*%
%TO.N,DIR_R*%
X150241000Y-115951000D03*
D27*
%TO.P,R22,2*%
%TO.N,Net-(Q5-Pad2)*%
X157861000Y-115951000D03*
%TD*%
%TO.P,R23,2*%
%TO.N,Net-(D14-Pad2)*%
X165735000Y-124841000D03*
D13*
%TO.P,R23,1*%
%TO.N,+5V*%
X158115000Y-124841000D03*
%TD*%
D27*
%TO.P,R24,2*%
%TO.N,Net-(D15-Pad1)*%
X83820000Y-95250000D03*
D13*
%TO.P,R24,1*%
%TO.N,Net-(JP6-Pad3)*%
X83820000Y-87630000D03*
%TD*%
%TO.P,R25,1*%
%TO.N,ENA_R*%
X121031000Y-126365000D03*
D27*
%TO.P,R25,2*%
%TO.N,Net-(Q6-Pad2)*%
X113411000Y-126365000D03*
%TD*%
D13*
%TO.P,R26,1*%
%TO.N,+5V*%
X171323000Y-141605000D03*
D27*
%TO.P,R26,2*%
%TO.N,Net-(D15-Pad2)*%
X171323000Y-133985000D03*
%TD*%
D28*
%TO.P,U1,1*%
%TO.N,+12V*%
X162560000Y-130810000D03*
D29*
%TO.P,U1,2*%
%TO.N,0V*%
X160020000Y-130810000D03*
%TO.P,U1,3*%
%TO.N,+5V*%
X157480000Y-130810000D03*
%TD*%
%TO.P,U2,1*%
%TO.N,Net-(C1-Pad2)*%
%TA.AperFunction,ComponentPad*%
G36*
G01*
X135245000Y-64750000D02*
X133995000Y-64750000D01*
G75*
G02*
X133370000Y-64125000I0J625000D01*
G01*
X133370000Y-62875000D01*
G75*
G02*
X133995000Y-62250000I625000J0D01*
G01*
X135245000Y-62250000D01*
G75*
G02*
X135870000Y-62875000I0J-625000D01*
G01*
X135870000Y-64125000D01*
G75*
G02*
X135245000Y-64750000I-625000J0D01*
G01*
G37*
%TD.AperFunction*%
D30*
%TO.P,U2,2*%
%TO.N,+48V*%
X134620000Y-58420000D03*
%TO.P,U2,3*%
%TO.N,+12V*%
X154940000Y-71120000D03*
%TO.P,U2,4*%
%TO.N,Net-(U2-Pad4)*%
X154940000Y-60960000D03*
%TO.P,U2,5*%
%TO.N,0V*%
X154940000Y-50800000D03*
%TO.P,U2,6*%
%TO.N,Net-(U2-Pad6)*%
X134620000Y-50800000D03*
%TD*%
D31*
%TO.P,X1-1,2*%
%TO.N,+12V*%
X81280000Y-74850000D03*
D32*
%TO.P,X1-1,1*%
%TO.N,0V*%
X81280000Y-69850000D03*
%TD*%
%TO.P,X1-3,1*%
%TO.N,+5V*%
X81280000Y-57785000D03*
D31*
%TO.P,X1-3,2*%
%TO.N,0V*%
X81280000Y-62785000D03*
%TD*%
D21*
%TO.P,X2-1,1*%
%TO.N,Net-(JP4-Pad2)*%
X77470000Y-97155000D03*
%TD*%
%TO.P,X2-2,1*%
%TO.N,Net-(JP5-Pad2)*%
X77470000Y-101600000D03*
%TD*%
%TO.P,X2-3,1*%
%TO.N,Net-(JP6-Pad2)*%
X77470000Y-106045000D03*
%TD*%
%TO.P,x3-1,1*%
%TO.N,Net-(JP1-Pad2)*%
X77470000Y-110490000D03*
%TD*%
%TO.P,X3-2,1*%
%TO.N,Net-(JP2-Pad2)*%
X77470000Y-114935000D03*
%TD*%
%TO.P,X3-3,1*%
%TO.N,Net-(JP3-Pad2)*%
X77470000Y-119380000D03*
%TD*%
D32*
%TO.P,X5-1,1*%
%TO.N,Net-(C1-Pad2)*%
X81280000Y-128270000D03*
D31*
%TO.P,X5-1,2*%
%TO.N,+48V*%
X81280000Y-133270000D03*
%TD*%
D33*
%TO.N,+12V*%
X173863000Y-92837000D03*
%TO.N,0V*%
X155305001Y-76850999D03*
%TO.N,LEFT*%
X126111000Y-127889000D03*
%TO.N,REV*%
X116713000Y-135509000D03*
X118227599Y-78368401D03*
%TO.N,Net-(D2-Pad1)*%
X123317000Y-97304210D03*
%TO.N,Net-(D5-Pad1)*%
X156845000Y-106553000D03*
X120269000Y-99895010D03*
X133985000Y-102024809D03*
%TO.N,Net-(D11-Pad1)*%
X124333000Y-112395000D03*
X156591000Y-113411000D03*
X130429000Y-113411000D03*
%TO.N,Net-(D13-Pad1)*%
X127889000Y-103251000D03*
X134493000Y-103240819D03*
X158115000Y-111887000D03*
%TO.N,Net-(D14-Pad1)*%
X120205796Y-116903796D03*
X165163500Y-116268500D03*
X126619000Y-118491000D03*
%TO.N,Net-(D15-Pad1)*%
X153289000Y-128651000D03*
%TO.N,Net-(JP1-Pad3)*%
X123317000Y-96139000D03*
%TO.N,STEP_R*%
X120523000Y-94615000D03*
X134108199Y-100834199D03*
%TO.N,DIR_R*%
X124079000Y-115697000D03*
%TO.N,Net-(J3-Pad5)*%
X98933000Y-80618990D03*
%TO.N,Net-(JP6-Pad2)*%
X85979000Y-102997000D03*
%TD*%
D34*
%TO.N,+48V*%
X138430000Y-62230000D02*
X134620000Y-58420000D01*
X138430000Y-66040000D02*
X138430000Y-62230000D01*
X135620001Y-68849999D02*
X138430000Y-66040000D01*
X120830399Y-68849999D02*
X135620001Y-68849999D01*
X119703398Y-69977000D02*
X120830399Y-68849999D01*
X110871000Y-69977000D02*
X119703398Y-69977000D01*
X86930301Y-76264699D02*
X86930301Y-72270097D01*
X85374999Y-77820001D02*
X86930301Y-76264699D01*
X77218997Y-77820001D02*
X85374999Y-77820001D01*
X86930301Y-72270097D02*
X90350399Y-68849999D01*
X75149999Y-79888999D02*
X77218997Y-77820001D01*
X75149999Y-129261319D02*
X75149999Y-79888999D01*
X79158680Y-133270000D02*
X75149999Y-129261319D01*
X81280000Y-133270000D02*
X79158680Y-133270000D01*
X90350399Y-68849999D02*
X90535001Y-68849999D01*
X90535001Y-68849999D02*
X92710000Y-66675000D01*
X107569000Y-66675000D02*
X110871000Y-69977000D01*
X92710000Y-66675000D02*
X107569000Y-66675000D01*
D35*
%TO.N,Net-(C1-Pad2)*%
X110871000Y-64977000D02*
X112569000Y-66675000D01*
X131445000Y-66675000D02*
X134620000Y-63500000D01*
X112569000Y-66675000D02*
X131445000Y-66675000D01*
D34*
%TO.N,+12V*%
X158750000Y-80010000D02*
X158750000Y-73660000D01*
X156210000Y-71120000D02*
X154940000Y-71120000D01*
X158750000Y-73660000D02*
X156210000Y-71120000D01*
D36*
X162560000Y-130810000D02*
X164338000Y-130810000D01*
X164592000Y-130810000D02*
X165481000Y-129921000D01*
X164338000Y-130810000D02*
X164592000Y-130810000D01*
X165481000Y-129921000D02*
X165481000Y-129921000D01*
X165593594Y-129921000D02*
X173863000Y-121651594D01*
X165481000Y-129921000D02*
X165593594Y-129921000D01*
X173863000Y-121651594D02*
X173863000Y-92837000D01*
X173863000Y-92837000D02*
X173863000Y-92837000D01*
D34*
%TO.N,0V*%
X81280000Y-62785000D02*
X81280000Y-69850000D01*
X172767000Y-76741000D02*
X172339000Y-77169000D01*
X172767000Y-70485000D02*
X172767000Y-76741000D01*
X169091000Y-77169000D02*
X166250000Y-80010000D01*
X172339000Y-77169000D02*
X169091000Y-77169000D01*
X173275000Y-69977000D02*
X172767000Y-70485000D01*
X173275000Y-65405000D02*
X173275000Y-69977000D01*
X132461000Y-140081000D02*
X126111000Y-140081000D01*
X119761000Y-140081000D02*
X126111000Y-140081000D01*
X119761000Y-140081000D02*
X113411000Y-140081000D01*
X113411000Y-140081000D02*
X107061000Y-140081000D01*
X136699000Y-140081000D02*
X137795000Y-138985000D01*
X132461000Y-140081000D02*
X136699000Y-140081000D01*
X158202500Y-136167500D02*
X160020000Y-134350000D01*
X137795000Y-138985000D02*
X140612500Y-136167500D01*
X164995999Y-133280001D02*
X160585001Y-133280001D01*
X167259000Y-131017000D02*
X164995999Y-133280001D01*
X160585001Y-133280001D02*
X160020000Y-132715000D01*
X160020000Y-132715000D02*
X160020000Y-130810000D01*
X160020000Y-134350000D02*
X160020000Y-132715000D01*
X163115000Y-120777000D02*
X163115000Y-123715959D01*
X163115000Y-123715959D02*
X160020000Y-126810959D01*
X160020000Y-126810959D02*
X160020000Y-130810000D01*
X96944010Y-82597000D02*
X96864010Y-82677000D01*
X101727000Y-82597000D02*
X96944010Y-82597000D01*
X125730000Y-140462000D02*
X126111000Y-140081000D01*
X125730000Y-144185000D02*
X125730000Y-140462000D01*
X111840000Y-141652000D02*
X113411000Y-140081000D01*
X111840000Y-146050000D02*
X111840000Y-141652000D01*
X106461360Y-115479990D02*
X105410000Y-115479990D01*
X108839000Y-117857630D02*
X106461360Y-115479990D01*
X108839000Y-123905000D02*
X108839000Y-117857630D01*
D36*
X106027800Y-123905000D02*
X108839000Y-123905000D01*
X101219000Y-128713800D02*
X106027800Y-123905000D01*
X101219000Y-130429000D02*
X101219000Y-128713800D01*
X101219000Y-130429000D02*
X101219000Y-136779000D01*
X104521000Y-140081000D02*
X107061000Y-140081000D01*
X107810970Y-150079030D02*
X111840000Y-146050000D01*
X89555975Y-150079030D02*
X107810970Y-150079030D01*
X86955000Y-147478054D02*
X89555975Y-150079030D01*
X86955000Y-145415000D02*
X86955000Y-147478054D01*
X101219000Y-136779000D02*
X104521000Y-140081000D01*
X95631000Y-135001000D02*
X95631000Y-135636000D01*
X96774000Y-136779000D02*
X101219000Y-136779000D01*
X95631000Y-135636000D02*
X96774000Y-136779000D01*
D34*
X106633000Y-82597000D02*
X101727000Y-82597000D01*
X111109001Y-78120999D02*
X106633000Y-82597000D01*
X111109001Y-75999399D02*
X111109001Y-78120999D01*
X109658602Y-74549000D02*
X111109001Y-75999399D01*
X105711000Y-74549000D02*
X109658602Y-74549000D01*
D36*
X104775000Y-115570000D02*
X105410000Y-116205000D01*
X104775000Y-106045000D02*
X104775000Y-115570000D01*
D34*
X155170500Y-136167500D02*
X158202500Y-136167500D01*
X140612500Y-136167500D02*
X155170500Y-136167500D01*
X155305001Y-100298999D02*
X155305001Y-76850999D01*
X154559000Y-101045000D02*
X155305001Y-100298999D01*
X155305001Y-76850999D02*
X155305001Y-76850999D01*
X79158680Y-62785000D02*
X81280000Y-62785000D01*
X78309999Y-55108999D02*
X78309999Y-61936319D01*
X85860052Y-49329990D02*
X80375043Y-54814999D01*
X86360000Y-48895000D02*
X85925010Y-49329990D01*
X123571000Y-48895000D02*
X86360000Y-48895000D01*
X124386001Y-48079999D02*
X123571000Y-48895000D01*
X149933999Y-48079999D02*
X124386001Y-48079999D01*
X78309999Y-61936319D02*
X79158680Y-62785000D01*
X85925010Y-49329990D02*
X85860052Y-49329990D01*
X152654000Y-50800000D02*
X149933999Y-48079999D01*
X78603999Y-54814999D02*
X78309999Y-55108999D01*
X80375043Y-54814999D02*
X78603999Y-54814999D01*
X154940000Y-50800000D02*
X152654000Y-50800000D01*
X173275000Y-64625041D02*
X173275000Y-65405000D01*
X169409948Y-60759990D02*
X173275000Y-64625041D01*
X164899990Y-60759990D02*
X169409948Y-60759990D01*
X154940000Y-50800000D02*
X164899990Y-60759990D01*
D36*
%TO.N,RIGHT*%
X137795000Y-133985000D02*
X135890000Y-132080000D01*
X132842000Y-132080000D02*
X132461000Y-132461000D01*
X135890000Y-132080000D02*
X132842000Y-132080000D01*
X107508408Y-69637399D02*
X113061611Y-75190602D01*
X113061611Y-75190602D02*
X113061611Y-78929796D01*
X92922601Y-69637399D02*
X107508408Y-69637399D01*
X113061611Y-78929796D02*
X106901407Y-85090000D01*
X91440000Y-71120000D02*
X92922601Y-69637399D01*
X106901407Y-87154593D02*
X106807000Y-87249000D01*
X106901407Y-85090000D02*
X106901407Y-87154593D01*
D34*
%TO.N,+5V*%
X86995000Y-52070000D02*
X91440000Y-52070000D01*
X81280000Y-57785000D02*
X86995000Y-52070000D01*
X91440000Y-52070000D02*
X100330000Y-52070000D01*
X109220000Y-52070000D02*
X100330000Y-52070000D01*
X118110000Y-52070000D02*
X109220000Y-52070000D01*
X157279990Y-125676010D02*
X157279990Y-130810000D01*
X158115000Y-124841000D02*
X157279990Y-125676010D01*
X158115000Y-124841000D02*
X158115000Y-120777000D01*
X158115000Y-120777000D02*
X154559000Y-117221000D01*
X155575000Y-108585000D02*
X154559000Y-109601000D01*
X158115000Y-108585000D02*
X155575000Y-108585000D01*
X154559000Y-109601000D02*
X154559000Y-106045000D01*
X154559000Y-117221000D02*
X154559000Y-109601000D01*
X154559000Y-105537000D02*
X158115000Y-101981000D01*
X154559000Y-106045000D02*
X154559000Y-105537000D01*
X158115000Y-101981000D02*
X158115000Y-93980000D01*
X158115000Y-93980000D02*
X158115000Y-88265000D01*
X171323000Y-141605000D02*
X168910000Y-141605000D01*
X167259000Y-139954000D02*
X167259000Y-136017000D01*
X168910000Y-141605000D02*
X167259000Y-139954000D01*
D36*
X85705000Y-147875910D02*
X89073330Y-151244240D01*
X85705000Y-145415000D02*
X85705000Y-147875910D01*
X114340000Y-146645000D02*
X114340000Y-146050000D01*
X109740760Y-151244240D02*
X114340000Y-146645000D01*
X89073330Y-151244240D02*
X109740760Y-151244240D01*
D34*
X163411001Y-82968999D02*
X158115000Y-88265000D01*
X171539001Y-82968999D02*
X163411001Y-82968999D01*
X172339000Y-82169000D02*
X171539001Y-82968999D01*
D36*
X163411001Y-80087593D02*
X163411001Y-82968999D01*
X169249601Y-74248993D02*
X163411001Y-80087593D01*
X169249601Y-66379601D02*
X169249601Y-74248993D01*
X168275000Y-65405000D02*
X169249601Y-66379601D01*
D34*
X124968000Y-52070000D02*
X126438010Y-53540010D01*
X118110000Y-52070000D02*
X124968000Y-52070000D01*
D36*
X115853698Y-144392390D02*
X122167390Y-144392390D01*
X114340000Y-145906088D02*
X115853698Y-144392390D01*
X114340000Y-146050000D02*
X114340000Y-145906088D01*
X124460000Y-146685000D02*
X125730000Y-146685000D01*
X122167390Y-144392390D02*
X124460000Y-146685000D01*
D34*
X163195000Y-63500000D02*
X153235010Y-53540010D01*
X168275000Y-63500000D02*
X163195000Y-63500000D01*
X126438010Y-53540010D02*
X153235010Y-53540010D01*
X168275000Y-63500000D02*
X168275000Y-65405000D01*
D36*
%TO.N,LEFT*%
X97282000Y-71120000D02*
X100711000Y-74549000D01*
X96520000Y-71120000D02*
X97282000Y-71120000D01*
X126111000Y-132461000D02*
X126111000Y-127889000D01*
%TO.N,REV*%
X101600000Y-71120000D02*
X102235000Y-71755000D01*
X102235000Y-77089000D02*
X101727000Y-77597000D01*
X102235000Y-71755000D02*
X102235000Y-77089000D01*
X98171000Y-77089000D02*
X98171000Y-75565000D01*
X98679000Y-77597000D02*
X98171000Y-77089000D01*
X101727000Y-77597000D02*
X98679000Y-77597000D01*
X119761000Y-132461000D02*
X118745000Y-131445000D01*
X119761000Y-132461000D02*
X118237000Y-130937000D01*
X118237000Y-130937000D02*
X118237000Y-78613000D01*
%TO.N,FWD*%
X116459000Y-77089000D02*
X119126000Y-77089000D01*
X121920000Y-74295000D02*
X121920000Y-71120000D01*
X119126000Y-77089000D02*
X121920000Y-74295000D01*
X136111406Y-71120000D02*
X121920000Y-71120000D01*
X138064016Y-69167390D02*
X136111406Y-71120000D01*
X166449390Y-69167390D02*
X138064016Y-69167390D01*
X167767000Y-70485000D02*
X166449390Y-69167390D01*
X116459000Y-129413000D02*
X113411000Y-132461000D01*
X116459000Y-77089000D02*
X116459000Y-129413000D01*
%TO.N,STOPSPEED*%
X107061000Y-130683000D02*
X108839000Y-128905000D01*
X107061000Y-132461000D02*
X107061000Y-130683000D01*
%TO.N,Net-(D2-Pad1)*%
X133705644Y-97304210D02*
X123339210Y-97304210D01*
X153035000Y-77974854D02*
X133705644Y-97304210D01*
X153035000Y-76581000D02*
X153035000Y-77974854D01*
D35*
%TO.N,Net-(D2-Pad2)*%
X165735000Y-88265000D02*
X167343001Y-89873001D01*
X173355000Y-85725000D02*
X171450000Y-85725000D01*
X173990000Y-90805000D02*
X174625000Y-90170000D01*
X174625000Y-90170000D02*
X174625000Y-86995000D01*
X168275000Y-90805000D02*
X173990000Y-90805000D01*
X174625000Y-86995000D02*
X173355000Y-85725000D01*
X167343001Y-89873001D02*
X168275000Y-90805000D01*
%TO.N,Net-(D5-Pad2)*%
X171450000Y-93980000D02*
X165735000Y-93980000D01*
%TO.N,Net-(D5-Pad1)*%
X171450000Y-96520000D02*
X166878000Y-96520000D01*
X166878000Y-96520000D02*
X158242000Y-105156000D01*
X158242000Y-105156000D02*
X156845000Y-106553000D01*
X120269000Y-99895010D02*
X122398799Y-102024809D01*
X122398799Y-102024809D02*
X122693033Y-102024809D01*
X122693033Y-102024809D02*
X133985000Y-102024809D01*
X133985000Y-102024809D02*
X133985000Y-102024809D01*
%TO.N,Net-(D11-Pad2)*%
X166624000Y-102870000D02*
X165735000Y-101981000D01*
X171450000Y-102870000D02*
X166624000Y-102870000D01*
%TO.N,Net-(D11-Pad1)*%
X95631000Y-132461000D02*
X95631000Y-130429000D01*
X98821999Y-117713001D02*
X99695000Y-116840000D01*
X98821999Y-127238001D02*
X98821999Y-117713001D01*
X95631000Y-130429000D02*
X98821999Y-127238001D01*
X157611312Y-110670992D02*
X156591000Y-111691304D01*
X158826336Y-110670992D02*
X157611312Y-110670992D01*
X164087328Y-105410000D02*
X158826336Y-110670992D01*
X171450000Y-105410000D02*
X164087328Y-105410000D01*
X156591000Y-111691304D02*
X156591000Y-112395000D01*
X156591000Y-112395000D02*
X156591000Y-113411000D01*
X156591000Y-113411000D02*
X156591000Y-113411000D01*
X125349000Y-113411000D02*
X124333000Y-112395000D01*
X130429000Y-113411000D02*
X125349000Y-113411000D01*
%TO.N,Net-(D13-Pad2)*%
X167640000Y-110490000D02*
X165735000Y-108585000D01*
X171450000Y-110490000D02*
X167640000Y-110490000D01*
%TO.N,Net-(D13-Pad1)*%
X99695000Y-99695000D02*
X99695000Y-94615000D01*
X93599000Y-88519000D02*
X93599000Y-82677000D01*
X99695000Y-94615000D02*
X93599000Y-88519000D01*
X171450000Y-113030000D02*
X159258000Y-113030000D01*
X159258000Y-113030000D02*
X158115000Y-111887000D01*
X158115000Y-111887000D02*
X158115000Y-111887000D01*
X127899181Y-103240819D02*
X127889000Y-103251000D01*
X134493000Y-103240819D02*
X127899181Y-103240819D01*
X158115000Y-111887000D02*
X158115000Y-111887000D01*
%TO.N,Net-(D14-Pad1)*%
X171450000Y-118745000D02*
X167640000Y-118745000D01*
X120205796Y-116903796D02*
X124977638Y-116903796D01*
X165163500Y-116268500D02*
X165100000Y-116205000D01*
X125031796Y-116903796D02*
X124977638Y-116903796D01*
X126619000Y-118491000D02*
X125031796Y-116903796D01*
X167640000Y-118745000D02*
X165163500Y-116268500D01*
%TO.N,Net-(D14-Pad2)*%
X171450000Y-121285000D02*
X167005000Y-121285000D01*
X167005000Y-121285000D02*
X165100000Y-123190000D01*
X165100000Y-124206000D02*
X165735000Y-124841000D01*
X165100000Y-123190000D02*
X165100000Y-124206000D01*
D36*
%TO.N,Net-(D15-Pad1)*%
X103759000Y-134493000D02*
X103759000Y-130429000D01*
X137239594Y-136779000D02*
X106045000Y-136779000D01*
X106045000Y-136779000D02*
X103759000Y-134493000D01*
X145367593Y-128651000D02*
X137239594Y-136779000D01*
X153289000Y-128651000D02*
X145367593Y-128651000D01*
D35*
%TO.N,Net-(D15-Pad2)*%
X171984402Y-127000000D02*
X171450000Y-127000000D01*
X173058001Y-128073599D02*
X171984402Y-127000000D01*
X173058001Y-132249999D02*
X173058001Y-128073599D01*
X171323000Y-133985000D02*
X173058001Y-132249999D01*
D37*
%TO.N,Net-(LED1-Pad1)*%
X91440000Y-54610000D02*
X91440000Y-63500000D01*
%TO.N,Net-(LED2-Pad1)*%
X100330000Y-54610000D02*
X99060000Y-54610000D01*
X96520000Y-57150000D02*
X96520000Y-63500000D01*
X99060000Y-54610000D02*
X96520000Y-57150000D01*
%TO.N,Net-(LED3-Pad1)*%
X109220000Y-54610000D02*
X106680000Y-54610000D01*
X101600000Y-59690000D02*
X101600000Y-63500000D01*
X106680000Y-54610000D02*
X101600000Y-59690000D01*
%TO.N,Net-(LED4-Pad1)*%
X118110000Y-54610000D02*
X119380000Y-54610000D01*
X121920000Y-57150000D02*
X121920000Y-63500000D01*
X119380000Y-54610000D02*
X121920000Y-57150000D01*
D36*
%TO.N,Net-(Q1-Pad2)*%
X103541318Y-104775000D02*
X102271318Y-103505000D01*
X104775000Y-104775000D02*
X103541318Y-104775000D01*
X102271318Y-103505000D02*
X102271318Y-101436682D01*
X103759000Y-99949000D02*
X104267000Y-99949000D01*
X102271318Y-101436682D02*
X103759000Y-99949000D01*
D35*
%TO.N,Net-(Q2-Pad2)*%
X104130598Y-117475000D02*
X105410000Y-117475000D01*
X100330000Y-121275598D02*
X104130598Y-117475000D01*
X100330000Y-123190000D02*
X100330000Y-121275598D01*
%TO.N,Net-(Q3-Pad2)*%
X90297000Y-133731000D02*
X95631000Y-133731000D01*
X90043000Y-133477000D02*
X90297000Y-133731000D01*
%TO.N,Net-(Q4-Pad2)*%
X94869000Y-87249000D02*
X94869000Y-82677000D01*
X99695000Y-92075000D02*
X94869000Y-87249000D01*
%TO.N,Net-(Q5-Pad2)*%
X163830000Y-116205000D02*
X163793010Y-116168010D01*
X159131000Y-114681000D02*
X157861000Y-115951000D01*
X160655000Y-114681000D02*
X159131000Y-114681000D01*
X163004739Y-114681000D02*
X160655000Y-114681000D01*
X163793010Y-116168010D02*
X163793010Y-115469271D01*
X163793010Y-115469271D02*
X163004739Y-114681000D01*
D36*
%TO.N,Net-(Q6-Pad2)*%
X102489000Y-129195318D02*
X105319318Y-126365000D01*
X105319318Y-126365000D02*
X113411000Y-126365000D01*
X102489000Y-130429000D02*
X102489000Y-129195318D01*
%TO.N,Net-(JP1-Pad3)*%
X145415000Y-76581000D02*
X145415000Y-83947000D01*
X133223000Y-96139000D02*
X123339210Y-96139000D01*
X145415000Y-83947000D02*
X133223000Y-96139000D01*
D35*
%TO.N,Net-(JP2-Pad3)*%
X89334402Y-112395000D02*
X90805000Y-110924402D01*
X83820000Y-112395000D02*
X89334402Y-112395000D01*
X90805000Y-109347000D02*
X92075000Y-108077000D01*
X90805000Y-110924402D02*
X90805000Y-109347000D01*
D36*
%TO.N,DIR_L*%
X85987601Y-115307399D02*
X93209399Y-115307399D01*
X83820000Y-117475000D02*
X85987601Y-115307399D01*
X93209399Y-115307399D02*
X95885000Y-117983000D01*
X95885000Y-117983000D02*
X95885000Y-122555000D01*
X95250000Y-123190000D02*
X92710000Y-123190000D01*
X95885000Y-122555000D02*
X95250000Y-123190000D01*
D35*
%TO.N,Net-(JP3-Pad3)*%
X92075000Y-116840000D02*
X88265000Y-116840000D01*
D36*
%TO.N,ENA_L*%
X90043000Y-123698000D02*
X88265000Y-121920000D01*
X90043000Y-125857000D02*
X90043000Y-123698000D01*
D35*
%TO.N,Net-(JP4-Pad3)*%
X88265000Y-99695000D02*
X92075000Y-99695000D01*
D36*
%TO.N,STEP_R*%
X89535000Y-94615000D02*
X92075000Y-92075000D01*
X88265000Y-94615000D02*
X89535000Y-94615000D01*
X123186199Y-100834199D02*
X134108199Y-100834199D01*
X122174000Y-99822000D02*
X123186199Y-100834199D01*
X122174000Y-96266000D02*
X122174000Y-99822000D01*
X120523000Y-94615000D02*
X122174000Y-96266000D01*
D35*
%TO.N,Net-(JP5-Pad3)*%
X93583001Y-110632999D02*
X93583001Y-103743001D01*
X92075000Y-112141000D02*
X93583001Y-110632999D01*
X85378001Y-101253001D02*
X83820000Y-99695000D01*
X91093001Y-101253001D02*
X85378001Y-101253001D01*
X93583001Y-103743001D02*
X91093001Y-101253001D01*
D36*
%TO.N,DIR_R*%
X125349000Y-114681000D02*
X125095000Y-114681000D01*
X125095000Y-114681000D02*
X124079000Y-115697000D01*
X124079000Y-115697000D02*
X124079000Y-115697000D01*
X144145000Y-114681000D02*
X144399000Y-114681000D01*
X144145000Y-114681000D02*
X125349000Y-114681000D01*
X145669000Y-115951000D02*
X150241000Y-115951000D01*
X144399000Y-114681000D02*
X145669000Y-115951000D01*
D35*
%TO.N,Net-(JP6-Pad3)*%
X84455000Y-88265000D02*
X83820000Y-87630000D01*
X89535000Y-88265000D02*
X84455000Y-88265000D01*
D36*
%TO.N,MCLR\u005CVPP*%
X84455000Y-148273765D02*
X84455000Y-147955000D01*
X88590685Y-152409450D02*
X84455000Y-148273765D01*
X111568605Y-152409450D02*
X88590685Y-152409450D01*
X116840000Y-147138055D02*
X111568605Y-152409450D01*
X116840000Y-146050000D02*
X116840000Y-147138055D01*
X84455000Y-145415000D02*
X84455000Y-147955000D01*
%TO.N,PGD(ICSPDAT)*%
X88205000Y-147080200D02*
X88205000Y-145415000D01*
X90038620Y-148913820D02*
X88205000Y-147080200D01*
X106476180Y-148913820D02*
X90038620Y-148913820D01*
X109340000Y-146050000D02*
X106476180Y-148913820D01*
%TO.N,PGC(ICDPCLK)*%
X89422400Y-146118587D02*
X89422400Y-145415000D01*
X91052423Y-147748610D02*
X89422400Y-146118587D01*
X105141390Y-147748610D02*
X91052423Y-147748610D01*
X106840000Y-146050000D02*
X105141390Y-147748610D01*
%TO.N,Net-(J1-Pad6)*%
X91340000Y-146050000D02*
X90705000Y-145415000D01*
X104340000Y-146050000D02*
X91340000Y-146050000D01*
D35*
%TO.N,Net-(J3-Pad2)*%
X85217000Y-82169000D02*
X82296000Y-85090000D01*
X88206696Y-79629000D02*
X85666696Y-82169000D01*
X88265000Y-79629000D02*
X88206696Y-79629000D01*
X82296000Y-85090000D02*
X80010000Y-85090000D01*
X85666696Y-82169000D02*
X85217000Y-82169000D01*
X88788999Y-79105001D02*
X88265000Y-79629000D01*
X106822999Y-79105001D02*
X88788999Y-79105001D01*
X108839000Y-77089000D02*
X106822999Y-79105001D01*
%TO.N,Net-(J3-Pad3)*%
X80010000Y-87630000D02*
X78105000Y-87630000D01*
X78105000Y-87630000D02*
X77470000Y-86995000D01*
X77470000Y-86995000D02*
X77470000Y-81915000D01*
X86317989Y-79798011D02*
X90551000Y-75565000D01*
X79586989Y-79798011D02*
X86317989Y-79798011D01*
X77470000Y-81915000D02*
X79586989Y-79798011D01*
%TO.N,Net-(J3-Pad4)*%
X100781157Y-101203001D02*
X107623158Y-94361000D01*
X92798841Y-90566999D02*
X98186999Y-95955157D01*
X98917001Y-101203001D02*
X100781157Y-101203001D01*
X86271159Y-90566999D02*
X92798841Y-90566999D01*
X98186999Y-95955157D02*
X98186999Y-100472999D01*
X79520317Y-94526159D02*
X82311999Y-94526159D01*
X98186999Y-100472999D02*
X98917001Y-101203001D01*
X82311999Y-94526159D02*
X86271159Y-90566999D01*
X78451999Y-93457841D02*
X79520317Y-94526159D01*
X78451999Y-91728001D02*
X78451999Y-93457841D01*
X80010000Y-90170000D02*
X78451999Y-91728001D01*
X107623158Y-94361000D02*
X109855000Y-94361000D01*
X113157000Y-91059000D02*
X113157000Y-86995000D01*
X109855000Y-94361000D02*
X113157000Y-91059000D01*
%TO.N,Net-(J3-Pad5)*%
X86360588Y-83385010D02*
X89126608Y-80618990D01*
X85833148Y-83385010D02*
X86360588Y-83385010D01*
X81568001Y-87650157D02*
X85833148Y-83385010D01*
X81568001Y-91151999D02*
X81568001Y-87650157D01*
X80010000Y-92710000D02*
X81568001Y-91151999D01*
X89126608Y-80618990D02*
X96124692Y-80618990D01*
X96124692Y-80618990D02*
X98933000Y-80618990D01*
X98933000Y-80618990D02*
X98933000Y-80618990D01*
%TO.N,Net-(JP1-Pad2)*%
X88265000Y-107950000D02*
X83820000Y-107950000D01*
X81280000Y-110490000D02*
X77470000Y-110490000D01*
X83820000Y-107950000D02*
X81280000Y-110490000D01*
%TO.N,Net-(JP2-Pad2)*%
X77470000Y-114935000D02*
X83820000Y-114935000D01*
%TO.N,Net-(JP3-Pad2)*%
X88265000Y-119380000D02*
X77470000Y-119380000D01*
%TO.N,Net-(JP4-Pad2)*%
X88265000Y-97155000D02*
X77470000Y-97155000D01*
%TO.N,Net-(JP5-Pad2)*%
X83185000Y-101600000D02*
X83820000Y-102235000D01*
X77470000Y-101600000D02*
X83185000Y-101600000D01*
%TO.N,Net-(JP6-Pad2)*%
X85236401Y-106333001D02*
X85979000Y-105590402D01*
X77758001Y-106333001D02*
X85236401Y-106333001D01*
X77470000Y-106045000D02*
X77758001Y-106333001D01*
X85979000Y-105590402D02*
X85979000Y-102997000D01*
X85979000Y-102997000D02*
X85979000Y-102997000D01*
%TD*%
D38*
%TO.N,0V*%
X153171494Y-70387461D02*
X153062564Y-70746555D01*
X153025783Y-71120000D01*
X153062564Y-71493445D01*
X153171494Y-71852539D01*
X153348387Y-72183482D01*
X153586444Y-72473556D01*
X153876518Y-72711613D01*
X154207461Y-72888506D01*
X154566555Y-72997436D01*
X154846418Y-73025000D01*
X155420925Y-73025000D01*
X156845001Y-74449077D01*
X156845000Y-80103581D01*
X156872564Y-80383444D01*
X156981494Y-80742538D01*
X157111928Y-80986563D01*
X157111928Y-81010000D01*
X157124188Y-81134482D01*
X157160498Y-81254180D01*
X157219463Y-81364494D01*
X157298815Y-81461185D01*
X157395506Y-81540537D01*
X157505820Y-81599502D01*
X157625518Y-81635812D01*
X157750000Y-81648072D01*
X157773437Y-81648072D01*
X158017461Y-81778506D01*
X158376555Y-81887436D01*
X158750000Y-81924217D01*
X159123444Y-81887436D01*
X159482538Y-81778506D01*
X159726563Y-81648072D01*
X159750000Y-81648072D01*
X159874482Y-81635812D01*
X159994180Y-81599502D01*
X160104494Y-81540537D01*
X160201185Y-81461185D01*
X160280537Y-81364494D01*
X160339502Y-81254180D01*
X160375812Y-81134482D01*
X160388072Y-81010000D01*
X160388072Y-80986563D01*
X160518506Y-80742539D01*
X160627436Y-80383445D01*
X160655000Y-80103582D01*
X160655000Y-73753571D01*
X160664216Y-73659999D01*
X160655000Y-73566427D01*
X160655000Y-73566418D01*
X160627436Y-73286555D01*
X160518506Y-72927461D01*
X160341613Y-72596518D01*
X160103556Y-72306444D01*
X160030865Y-72246789D01*
X158069065Y-70284990D01*
X165986465Y-70284990D01*
X166333040Y-70631565D01*
X166387147Y-70903574D01*
X166495320Y-71164727D01*
X166652363Y-71399759D01*
X166852241Y-71599637D01*
X167087273Y-71756680D01*
X167348426Y-71864853D01*
X167625665Y-71920000D01*
X167908335Y-71920000D01*
X168132002Y-71875509D01*
X168132002Y-73786067D01*
X162659564Y-79258506D01*
X162616915Y-79293507D01*
X162477255Y-79463684D01*
X162373478Y-79657838D01*
X162309572Y-79868506D01*
X162294447Y-80022078D01*
X162287994Y-80087593D01*
X162293401Y-80142489D01*
X162293401Y-81421799D01*
X162057445Y-81615443D01*
X161997790Y-81688133D01*
X156834140Y-86851785D01*
X156761445Y-86911444D01*
X156655130Y-87040990D01*
X156523387Y-87201518D01*
X156346495Y-87532461D01*
X156237565Y-87891555D01*
X156200783Y-88265000D01*
X156210001Y-88358589D01*
X156210000Y-94073581D01*
X156210001Y-94073591D01*
X156210000Y-101191923D01*
X153278144Y-104123781D01*
X153205444Y-104183444D01*
X152967387Y-104473518D01*
X152790494Y-104804461D01*
X152681564Y-105163555D01*
X152654000Y-105443418D01*
X152644783Y-105537000D01*
X152654000Y-105630580D01*
X152654000Y-106138581D01*
X152654001Y-106138591D01*
X152654000Y-109507418D01*
X152644783Y-109601000D01*
X152654000Y-109694580D01*
X152654000Y-109694581D01*
X152654001Y-109694591D01*
X152654000Y-117127420D01*
X152644783Y-117221000D01*
X152654000Y-117314580D01*
X152654000Y-117314581D01*
X152681564Y-117594444D01*
X152790494Y-117953538D01*
X152967387Y-118284482D01*
X153205444Y-118574556D01*
X153278145Y-118634220D01*
X156210001Y-121566077D01*
X156210000Y-124051924D01*
X155999134Y-124262790D01*
X155926434Y-124322454D01*
X155688377Y-124612528D01*
X155511484Y-124943472D01*
X155402554Y-125302566D01*
X155374990Y-125582428D01*
X155365773Y-125676010D01*
X155374990Y-125769590D01*
X155374991Y-130903582D01*
X155402555Y-131183445D01*
X155511485Y-131542539D01*
X155688378Y-131873482D01*
X155926435Y-132163556D01*
X156216509Y-132401613D01*
X156547452Y-132578506D01*
X156906546Y-132687436D01*
X157279990Y-132724217D01*
X157653435Y-132687436D01*
X158012529Y-132578506D01*
X158343472Y-132401613D01*
X158633546Y-132163556D01*
X158871603Y-131873482D01*
X159048496Y-131542539D01*
X159157426Y-131183445D01*
X159184990Y-130903582D01*
X159184990Y-126465086D01*
X159395860Y-126254216D01*
X159468556Y-126194556D01*
X159706613Y-125904482D01*
X159883506Y-125573539D01*
X159992436Y-125214445D01*
X160020000Y-124934582D01*
X160020000Y-124934573D01*
X160029216Y-124841001D01*
X160020000Y-124747429D01*
X160020000Y-120870571D01*
X160029216Y-120776999D01*
X160020000Y-120683427D01*
X160020000Y-120683418D01*
X159992436Y-120403555D01*
X159883506Y-120044461D01*
X159706613Y-119713518D01*
X159468556Y-119423444D01*
X159395866Y-119363789D01*
X157306716Y-117274640D01*
X157442426Y-117330853D01*
X157719665Y-117386000D01*
X158002335Y-117386000D01*
X158279574Y-117330853D01*
X158540727Y-117222680D01*
X158775759Y-117065637D01*
X158975637Y-116865759D01*
X159132680Y-116630727D01*
X159240853Y-116369574D01*
X159286040Y-116142405D01*
X159604446Y-115824000D01*
X162531294Y-115824000D01*
X162650010Y-115942717D01*
X162650010Y-116111871D01*
X162644481Y-116168010D01*
X162650010Y-116224149D01*
X162650010Y-116224155D01*
X162660611Y-116331785D01*
X162666549Y-116392077D01*
X162670000Y-116403453D01*
X162670000Y-116486978D01*
X162686785Y-116657399D01*
X162753115Y-116876059D01*
X162860829Y-117077578D01*
X163005788Y-117254212D01*
X163182421Y-117399171D01*
X163383940Y-117506885D01*
X163602600Y-117573215D01*
X163830000Y-117595612D01*
X164057399Y-117573215D01*
X164266098Y-117509907D01*
X164330820Y-117544502D01*
X164450518Y-117580812D01*
X164575000Y-117593072D01*
X164871627Y-117593072D01*
X166792077Y-119513523D01*
X166827867Y-119557133D01*
X167001911Y-119699968D01*
X167200477Y-119806103D01*
X167350574Y-119851635D01*
X167415932Y-119871461D01*
X167436517Y-119873488D01*
X167583854Y-119888000D01*
X167583861Y-119888000D01*
X167640000Y-119893529D01*
X167696139Y-119888000D01*
X169960140Y-119888000D01*
X169960498Y-119889180D01*
X170019463Y-119999494D01*
X170098815Y-120096185D01*
X170154641Y-120142000D01*
X167061139Y-120142000D01*
X167005000Y-120136471D01*
X166948861Y-120142000D01*
X166948854Y-120142000D01*
X166801517Y-120156512D01*
X166780932Y-120158539D01*
X166724898Y-120175537D01*
X166565477Y-120223897D01*
X166366911Y-120330032D01*
X166192867Y-120472867D01*
X166157077Y-120516477D01*
X164331482Y-122342073D01*
X164287867Y-122377867D01*
X164145032Y-122551912D01*
X164038897Y-122750478D01*
X164017808Y-122820000D01*
X163974258Y-122963565D01*
X163973539Y-122965934D01*
X163957000Y-123133855D01*
X163957000Y-123133861D01*
X163951471Y-123190000D01*
X163957000Y-123246139D01*
X163957000Y-124149861D01*
X163951471Y-124206000D01*
X163957000Y-124262139D01*
X163957000Y-124262146D01*
X163973539Y-124430067D01*
X164038897Y-124645523D01*
X164145033Y-124844089D01*
X164287868Y-125018133D01*
X164310877Y-125037016D01*
X164355147Y-125259574D01*
X164463320Y-125520727D01*
X164620363Y-125755759D01*
X164820241Y-125955637D01*
X165055273Y-126112680D01*
X165316426Y-126220853D01*
X165593665Y-126276000D01*
X165876335Y-126276000D01*
X166153574Y-126220853D01*
X166414727Y-126112680D01*
X166649759Y-125955637D01*
X166849637Y-125755759D01*
X167006680Y-125520727D01*
X167114853Y-125259574D01*
X167170000Y-124982335D01*
X167170000Y-124699665D01*
X167114853Y-124422426D01*
X167006680Y-124161273D01*
X166849637Y-123926241D01*
X166649759Y-123726363D01*
X166414727Y-123569320D01*
X166359854Y-123546591D01*
X167478446Y-122428000D01*
X170422183Y-122428000D01*
X170471495Y-122477312D01*
X170722905Y-122645299D01*
X171002257Y-122761011D01*
X171144721Y-122789349D01*
X165049847Y-128884223D01*
X164857090Y-128987254D01*
X164767493Y-129060785D01*
X164686914Y-129126914D01*
X164651918Y-129169557D01*
X164137764Y-129683712D01*
X164102002Y-129565820D01*
X164043037Y-129455506D01*
X163963685Y-129358815D01*
X163866994Y-129279463D01*
X163756680Y-129220498D01*
X163636982Y-129184188D01*
X163512500Y-129171928D01*
X161607500Y-129171928D01*
X161483018Y-129184188D01*
X161363320Y-129220498D01*
X161253006Y-129279463D01*
X161156315Y-129358815D01*
X161076963Y-129455506D01*
X161017998Y-129565820D01*
X160981688Y-129685518D01*
X160969428Y-129810000D01*
X160969428Y-131810000D01*
X160981688Y-131934482D01*
X161017998Y-132054180D01*
X161076963Y-132164494D01*
X161156315Y-132261185D01*
X161253006Y-132340537D01*
X161363320Y-132399502D01*
X161483018Y-132435812D01*
X161607500Y-132448072D01*
X163512500Y-132448072D01*
X163636982Y-132435812D01*
X163756680Y-132399502D01*
X163866994Y-132340537D01*
X163963685Y-132261185D01*
X164043037Y-132164494D01*
X164102002Y-132054180D01*
X164138312Y-131934482D01*
X164138990Y-131927600D01*
X164537104Y-131927600D01*
X164592000Y-131933007D01*
X164646896Y-131927600D01*
X164646899Y-131927600D01*
X164811088Y-131911429D01*
X165021756Y-131847523D01*
X165215909Y-131743746D01*
X165386086Y-131604086D01*
X165421086Y-131561438D01*
X166024750Y-130957775D01*
X166217503Y-130854746D01*
X166387680Y-130715086D01*
X166422681Y-130672437D01*
X169919801Y-127175318D01*
X169973989Y-127447743D01*
X170089701Y-127727095D01*
X170257688Y-127978505D01*
X170324127Y-128044944D01*
X170305820Y-128050498D01*
X170195506Y-128109463D01*
X170098815Y-128188815D01*
X170019463Y-128285506D01*
X169960498Y-128395820D01*
X169924188Y-128515518D01*
X169911928Y-128640000D01*
X169911928Y-130440000D01*
X169924188Y-130564482D01*
X169960498Y-130684180D01*
X170019463Y-130794494D01*
X170098815Y-130891185D01*
X170195506Y-130970537D01*
X170305820Y-131029502D01*
X170425518Y-131065812D01*
X170550000Y-131078072D01*
X171915001Y-131078072D01*
X171915001Y-131776553D01*
X171131595Y-132559960D01*
X170904426Y-132605147D01*
X170643273Y-132713320D01*
X170408241Y-132870363D01*
X170208363Y-133070241D01*
X170051320Y-133305273D01*
X169943147Y-133566426D01*
X169888000Y-133843665D01*
X169888000Y-134126335D01*
X169943147Y-134403574D01*
X170051320Y-134664727D01*
X170208363Y-134899759D01*
X170408241Y-135099637D01*
X170643273Y-135256680D01*
X170904426Y-135364853D01*
X171181665Y-135420000D01*
X171464335Y-135420000D01*
X171741574Y-135364853D01*
X172002727Y-135256680D01*
X172237759Y-135099637D01*
X172437637Y-134899759D01*
X172594680Y-134664727D01*
X172702853Y-134403574D01*
X172748040Y-134176405D01*
X173826525Y-133097921D01*
X173870134Y-133062132D01*
X174012969Y-132888088D01*
X174119104Y-132689522D01*
X174184462Y-132474066D01*
X174201001Y-132306145D01*
X174201001Y-132306138D01*
X174206530Y-132249999D01*
X174201001Y-132193860D01*
X174201001Y-128129737D01*
X174206530Y-128073598D01*
X174201001Y-128017459D01*
X174201001Y-128017453D01*
X174184462Y-127849532D01*
X174184031Y-127848109D01*
X174163974Y-127781993D01*
X174119104Y-127634076D01*
X174012969Y-127435510D01*
X173982796Y-127398744D01*
X173905925Y-127305076D01*
X173905919Y-127305070D01*
X173870134Y-127261466D01*
X173826529Y-127225680D01*
X172832329Y-126231482D01*
X172796535Y-126187867D01*
X172701200Y-126109627D01*
X172642312Y-126021495D01*
X172428505Y-125807688D01*
X172177095Y-125639701D01*
X171897743Y-125523989D01*
X171625318Y-125469801D01*
X174614443Y-122480676D01*
X174657086Y-122445680D01*
X174720334Y-122368612D01*
X174796746Y-122275504D01*
X174874222Y-122130555D01*
X174900523Y-122081350D01*
X174964429Y-121870682D01*
X174980600Y-121706493D01*
X174980600Y-121706491D01*
X174985001Y-121661812D01*
X174985001Y-150132711D01*
X174921904Y-150776221D01*
X174744394Y-151364164D01*
X174456063Y-151906436D01*
X174067906Y-152382364D01*
X173594686Y-152773845D01*
X173054449Y-153065950D01*
X172467756Y-153247563D01*
X171826130Y-153315000D01*
X167182800Y-153315000D01*
X167182800Y-149625098D01*
X169065000Y-149625098D01*
X169065000Y-150094902D01*
X169156654Y-150555679D01*
X169336440Y-150989721D01*
X169597450Y-151380349D01*
X169929651Y-151712550D01*
X170320279Y-151973560D01*
X170754321Y-152153346D01*
X171215098Y-152245000D01*
X171684902Y-152245000D01*
X172145679Y-152153346D01*
X172579721Y-151973560D01*
X172970349Y-151712550D01*
X173302550Y-151380349D01*
X173563560Y-150989721D01*
X173743346Y-150555679D01*
X173835000Y-150094902D01*
X173835000Y-149625098D01*
X173743346Y-149164321D01*
X173563560Y-148730279D01*
X173302550Y-148339651D01*
X172970349Y-148007450D01*
X172579721Y-147746440D01*
X172145679Y-147566654D01*
X171684902Y-147475000D01*
X171215098Y-147475000D01*
X170754321Y-147566654D01*
X170320279Y-147746440D01*
X169929651Y-148007450D01*
X169597450Y-148339651D01*
X169336440Y-148730279D01*
X169156654Y-149164321D01*
X169065000Y-149625098D01*
X167182800Y-149625098D01*
X167182800Y-142571877D01*
X167496788Y-142885865D01*
X167556444Y-142958556D01*
X167629134Y-143018211D01*
X167846518Y-143196613D01*
X168177460Y-143373506D01*
X168261037Y-143398859D01*
X168536555Y-143482436D01*
X168816418Y-143510000D01*
X168816420Y-143510000D01*
X168910000Y-143519217D01*
X169003580Y-143510000D01*
X171416582Y-143510000D01*
X171696445Y-143482436D01*
X172055539Y-143373506D01*
X172386482Y-143196613D01*
X172676556Y-142958556D01*
X172914613Y-142668482D01*
X173091506Y-142337539D01*
X173200436Y-141978445D01*
X173237217Y-141605000D01*
X173200436Y-141231555D01*
X173091506Y-140872461D01*
X172914613Y-140541518D01*
X172676556Y-140251444D01*
X172386482Y-140013387D01*
X172055539Y-139836494D01*
X171696445Y-139727564D01*
X171416582Y-139700000D01*
X169699076Y-139700000D01*
X169164000Y-139164924D01*
X169164000Y-135923418D01*
X169136436Y-135643555D01*
X169027506Y-135284461D01*
X168850613Y-134953518D01*
X168612556Y-134663444D01*
X168322482Y-134425387D01*
X167991539Y-134248494D01*
X167632445Y-134139564D01*
X167259000Y-134102783D01*
X167182800Y-134110288D01*
X167182800Y-133477000D01*
X167180360Y-133452224D01*
X167173133Y-133428399D01*
X167161397Y-133406443D01*
X167145603Y-133387197D01*
X167126357Y-133371403D01*
X167104401Y-133359667D01*
X167080576Y-133352440D01*
X167055800Y-133350000D01*
X142249118Y-133350000D01*
X145830518Y-129768600D01*
X153343899Y-129768600D01*
X153508088Y-129752429D01*
X153718756Y-129688523D01*
X153912909Y-129584746D01*
X154083086Y-129445086D01*
X154222746Y-129274909D01*
X154326523Y-129080756D01*
X154390429Y-128870088D01*
X154412007Y-128651000D01*
X154390429Y-128431912D01*
X154326523Y-128221244D01*
X154222746Y-128027091D01*
X154083086Y-127856914D01*
X153912909Y-127717254D01*
X153718756Y-127613477D01*
X153508088Y-127549571D01*
X153343899Y-127533400D01*
X145422488Y-127533400D01*
X145367592Y-127527993D01*
X145312696Y-127533400D01*
X145312694Y-127533400D01*
X145148505Y-127549571D01*
X144937837Y-127613477D01*
X144858705Y-127655774D01*
X144743683Y-127717254D01*
X144654600Y-127790363D01*
X144573507Y-127856914D01*
X144538511Y-127899557D01*
X139086045Y-133352024D01*
X139066680Y-133305273D01*
X138909637Y-133070241D01*
X138709759Y-132870363D01*
X138474727Y-132713320D01*
X138213574Y-132605147D01*
X137941565Y-132551040D01*
X136719087Y-131328563D01*
X136684086Y-131285914D01*
X136513909Y-131146254D01*
X136319756Y-131042477D01*
X136109088Y-130978571D01*
X135944899Y-130962400D01*
X135944896Y-130962400D01*
X135890000Y-130956993D01*
X135835104Y-130962400D01*
X134055340Y-130962400D01*
X134012185Y-130909815D01*
X133915494Y-130830463D01*
X133805180Y-130771498D01*
X133685482Y-130735188D01*
X133561000Y-130722928D01*
X131361000Y-130722928D01*
X131236518Y-130735188D01*
X131116820Y-130771498D01*
X131006506Y-130830463D01*
X130909815Y-130909815D01*
X130830463Y-131006506D01*
X130771498Y-131116820D01*
X130735188Y-131236518D01*
X130722928Y-131361000D01*
X130722928Y-133561000D01*
X130735188Y-133685482D01*
X130771498Y-133805180D01*
X130830463Y-133915494D01*
X130909815Y-134012185D01*
X131006506Y-134091537D01*
X131116820Y-134150502D01*
X131236518Y-134186812D01*
X131361000Y-134199072D01*
X133561000Y-134199072D01*
X133685482Y-134186812D01*
X133805180Y-134150502D01*
X133915494Y-134091537D01*
X134012185Y-134012185D01*
X134091537Y-133915494D01*
X134150502Y-133805180D01*
X134186812Y-133685482D01*
X134199072Y-133561000D01*
X134199072Y-133197600D01*
X135427076Y-133197600D01*
X136361040Y-134131565D01*
X136415147Y-134403574D01*
X136523320Y-134664727D01*
X136680363Y-134899759D01*
X136880241Y-135099637D01*
X137115273Y-135256680D01*
X137162024Y-135276045D01*
X136776669Y-135661400D01*
X117737963Y-135661400D01*
X117748000Y-135610939D01*
X117748000Y-135407061D01*
X117708226Y-135207102D01*
X117630205Y-135018744D01*
X117516937Y-134849226D01*
X117372774Y-134705063D01*
X117203256Y-134591795D01*
X117014898Y-134513774D01*
X116814939Y-134474000D01*
X116611061Y-134474000D01*
X116411102Y-134513774D01*
X116222744Y-134591795D01*
X116053226Y-134705063D01*
X115909063Y-134849226D01*
X115795795Y-135018744D01*
X115717774Y-135207102D01*
X115678000Y-135407061D01*
X115678000Y-135610939D01*
X115688037Y-135661400D01*
X106507925Y-135661400D01*
X104876600Y-134030076D01*
X104876600Y-131412967D01*
X104909812Y-131303482D01*
X104922072Y-131179000D01*
X104922072Y-129679000D01*
X104909812Y-129554518D01*
X104873502Y-129434820D01*
X104814537Y-129324506D01*
X104735185Y-129227815D01*
X104638494Y-129148463D01*
X104528180Y-129089498D01*
X104408482Y-129053188D01*
X104284000Y-129040928D01*
X104223914Y-129040928D01*
X105782243Y-127482600D01*
X108634321Y-127482600D01*
X108420426Y-127525147D01*
X108159273Y-127633320D01*
X107924241Y-127790363D01*
X107724363Y-127990241D01*
X107567320Y-128225273D01*
X107459147Y-128486426D01*
X107405040Y-128758435D01*
X106309558Y-129853918D01*
X106266915Y-129888914D01*
X106231919Y-129931557D01*
X106127254Y-130059091D01*
X106064402Y-130176680D01*
X106023478Y-130253244D01*
X105959572Y-130463912D01*
X105957604Y-130483898D01*
X105937993Y-130683000D01*
X105942109Y-130724789D01*
X105836518Y-130735188D01*
X105716820Y-130771498D01*
X105606506Y-130830463D01*
X105509815Y-130909815D01*
X105430463Y-131006506D01*
X105371498Y-131116820D01*
X105335188Y-131236518D01*
X105322928Y-131361000D01*
X105322928Y-133561000D01*
X105335188Y-133685482D01*
X105371498Y-133805180D01*
X105430463Y-133915494D01*
X105509815Y-134012185D01*
X105606506Y-134091537D01*
X105716820Y-134150502D01*
X105836518Y-134186812D01*
X105961000Y-134199072D01*
X108161000Y-134199072D01*
X108285482Y-134186812D01*
X108405180Y-134150502D01*
X108515494Y-134091537D01*
X108612185Y-134012185D01*
X108691537Y-133915494D01*
X108750502Y-133805180D01*
X108786812Y-133685482D01*
X108799072Y-133561000D01*
X108799072Y-131361000D01*
X108786812Y-131236518D01*
X108750502Y-131116820D01*
X108691537Y-131006506D01*
X108612185Y-130909815D01*
X108515494Y-130830463D01*
X108501527Y-130822997D01*
X108985565Y-130338960D01*
X109257574Y-130284853D01*
X109518727Y-130176680D01*
X109753759Y-130019637D01*
X109953637Y-129819759D01*
X110110680Y-129584727D01*
X110218853Y-129323574D01*
X110274000Y-129046335D01*
X110274000Y-128763665D01*
X110218853Y-128486426D01*
X110110680Y-128225273D01*
X109953637Y-127990241D01*
X109753759Y-127790363D01*
X109518727Y-127633320D01*
X109257574Y-127525147D01*
X109043679Y-127482600D01*
X112500675Y-127482600D01*
X112731273Y-127636680D01*
X112992426Y-127744853D01*
X113269665Y-127800000D01*
X113552335Y-127800000D01*
X113829574Y-127744853D01*
X114090727Y-127636680D01*
X114325759Y-127479637D01*
X114525637Y-127279759D01*
X114682680Y-127044727D01*
X114790853Y-126783574D01*
X114846000Y-126506335D01*
X114846000Y-126223665D01*
X114790853Y-125946426D01*
X114682680Y-125685273D01*
X114525637Y-125450241D01*
X114325759Y-125250363D01*
X114090727Y-125093320D01*
X113829574Y-124985147D01*
X113552335Y-124930000D01*
X113269665Y-124930000D01*
X112992426Y-124985147D01*
X112731273Y-125093320D01*
X112500675Y-125247400D01*
X105374213Y-125247400D01*
X105319317Y-125241993D01*
X105264421Y-125247400D01*
X105264419Y-125247400D01*
X105100230Y-125263571D01*
X104889562Y-125327477D01*
X104799185Y-125375785D01*
X104695408Y-125431254D01*
X104594929Y-125513715D01*
X104525232Y-125570914D01*
X104490236Y-125613557D01*
X101737558Y-128366236D01*
X101694915Y-128401232D01*
X101659919Y-128443875D01*
X101555254Y-128571409D01*
X101490297Y-128692937D01*
X101451478Y-128765562D01*
X101387571Y-128976230D01*
X101371963Y-129134701D01*
X101365993Y-129195318D01*
X101371400Y-129250214D01*
X101371400Y-129892159D01*
X101345785Y-129976600D01*
X101329000Y-130147021D01*
X101329000Y-130710978D01*
X101345785Y-130881399D01*
X101412115Y-131100059D01*
X101519829Y-131301578D01*
X101664788Y-131478212D01*
X101841421Y-131623171D01*
X102042940Y-131730885D01*
X102261600Y-131797215D01*
X102489000Y-131819612D01*
X102641401Y-131804602D01*
X102641400Y-134438104D01*
X102635993Y-134493000D01*
X102641400Y-134547896D01*
X102641400Y-134547898D01*
X102657571Y-134712087D01*
X102721477Y-134922755D01*
X102825254Y-135116909D01*
X102964914Y-135287086D01*
X103007563Y-135322087D01*
X105215918Y-137530443D01*
X105250914Y-137573086D01*
X105293556Y-137608081D01*
X105421090Y-137712746D01*
X105524867Y-137768215D01*
X105615244Y-137816523D01*
X105825912Y-137880429D01*
X105990101Y-137896600D01*
X105990103Y-137896600D01*
X106044999Y-137902007D01*
X106099895Y-137896600D01*
X137184698Y-137896600D01*
X137239594Y-137902007D01*
X137294490Y-137896600D01*
X137294493Y-137896600D01*
X137458682Y-137880429D01*
X137669350Y-137816523D01*
X137863503Y-137712746D01*
X138033680Y-137573086D01*
X138068681Y-137530437D01*
X139131251Y-136467867D01*
X138942697Y-141527402D01*
X130125643Y-141427208D01*
X130100840Y-141429367D01*
X130076936Y-141436323D01*
X130054847Y-141447808D01*
X130035424Y-141463383D01*
X130019412Y-141482447D01*
X130007427Y-141504269D01*
X129999930Y-141528010D01*
X129997203Y-141555120D01*
X130082420Y-153315000D01*
X112226871Y-153315000D01*
X112362691Y-153203536D01*
X112397692Y-153160887D01*
X117591443Y-147967137D01*
X117634086Y-147932141D01*
X117735960Y-147808007D01*
X117773746Y-147761965D01*
X117839732Y-147638513D01*
X117877523Y-147567811D01*
X117886410Y-147538514D01*
X117933386Y-147513405D01*
X118067962Y-147402962D01*
X118178405Y-147268386D01*
X118260472Y-147114850D01*
X118311008Y-146948254D01*
X118328072Y-146775000D01*
X118328072Y-145509990D01*
X121704466Y-145509990D01*
X123630918Y-147436443D01*
X123665914Y-147479086D01*
X123708556Y-147514081D01*
X123836090Y-147618746D01*
X123907328Y-147656823D01*
X124030244Y-147722523D01*
X124240912Y-147786429D01*
X124378333Y-147799964D01*
X124399463Y-147839494D01*
X124478815Y-147936185D01*
X124575506Y-148015537D01*
X124685820Y-148074502D01*
X124805518Y-148110812D01*
X124930000Y-148123072D01*
X126530000Y-148123072D01*
X126654482Y-148110812D01*
X126774180Y-148074502D01*
X126884494Y-148015537D01*
X126981185Y-147936185D01*
X127060537Y-147839494D01*
X127119502Y-147729180D01*
X127155812Y-147609482D01*
X127168072Y-147485000D01*
X127168072Y-145885000D01*
X127155812Y-145760518D01*
X127119502Y-145640820D01*
X127060537Y-145530506D01*
X126981185Y-145433815D01*
X126884494Y-145354463D01*
X126774180Y-145295498D01*
X126654482Y-145259188D01*
X126530000Y-145246928D01*
X124930000Y-145246928D01*
X124805518Y-145259188D01*
X124685820Y-145295498D01*
X124663144Y-145307619D01*
X122996477Y-143640953D01*
X122961476Y-143598304D01*
X122791299Y-143458644D01*
X122597146Y-143354867D01*
X122386478Y-143290961D01*
X122222289Y-143274790D01*
X122222286Y-143274790D01*
X122167390Y-143269383D01*
X122112494Y-143274790D01*
X115908593Y-143274790D01*
X115853697Y-143269383D01*
X115798801Y-143274790D01*
X115798799Y-143274790D01*
X115634610Y-143290961D01*
X115423942Y-143354867D01*
X115389071Y-143373506D01*
X115229788Y-143458644D01*
X115200799Y-143482435D01*
X115059612Y-143598304D01*
X115024616Y-143640948D01*
X114221031Y-144444532D01*
X114048890Y-144461487D01*
X113768967Y-144546401D01*
X113510987Y-144684294D01*
X113284866Y-144869866D01*
X113099294Y-145095986D01*
X112961401Y-145353966D01*
X112876487Y-145633889D01*
X112855000Y-145852050D01*
X112855000Y-146247949D01*
X112876487Y-146466110D01*
X112890889Y-146513586D01*
X109277836Y-150126640D01*
X89536256Y-150126640D01*
X86822600Y-147412986D01*
X86822600Y-147080200D01*
X87081993Y-147080200D01*
X87087400Y-147135096D01*
X87087400Y-147135098D01*
X87103571Y-147299287D01*
X87167477Y-147509955D01*
X87271254Y-147704109D01*
X87410914Y-147874286D01*
X87453563Y-147909287D01*
X89209538Y-149665263D01*
X89244534Y-149707906D01*
X89312088Y-149763346D01*
X89414710Y-149847566D01*
X89471063Y-149877687D01*
X89608864Y-149951343D01*
X89819532Y-150015249D01*
X89983721Y-150031420D01*
X89983730Y-150031420D01*
X90038619Y-150036826D01*
X90093508Y-150031420D01*
X106421284Y-150031420D01*
X106476180Y-150036827D01*
X106531076Y-150031420D01*
X106531079Y-150031420D01*
X106695268Y-150015249D01*
X106905936Y-149951343D01*
X107100089Y-149847566D01*
X107270266Y-149707906D01*
X107305267Y-149665257D01*
X109306627Y-147663898D01*
X109340000Y-147667185D01*
X109631110Y-147638513D01*
X109911033Y-147553599D01*
X110169013Y-147415706D01*
X110395134Y-147230134D01*
X110580706Y-147004014D01*
X110718599Y-146746034D01*
X110803513Y-146466111D01*
X110825000Y-146247950D01*
X110825000Y-145852051D01*
X110803513Y-145633890D01*
X110718599Y-145353967D01*
X110580706Y-145095986D01*
X110395134Y-144869866D01*
X110169014Y-144684294D01*
X109911034Y-144546401D01*
X109631111Y-144461487D01*
X109340000Y-144432815D01*
X109048890Y-144461487D01*
X108768967Y-144546401D01*
X108510987Y-144684294D01*
X108284866Y-144869866D01*
X108099294Y-145095986D01*
X108090000Y-145113374D01*
X108080706Y-145095986D01*
X107895134Y-144869866D01*
X107669014Y-144684294D01*
X107411034Y-144546401D01*
X107131111Y-144461487D01*
X106840000Y-144432815D01*
X106548890Y-144461487D01*
X106268967Y-144546401D01*
X106010987Y-144684294D01*
X105784866Y-144869866D01*
X105599294Y-145095986D01*
X105590000Y-145113374D01*
X105580706Y-145095986D01*
X105395134Y-144869866D01*
X105169014Y-144684294D01*
X104911034Y-144546401D01*
X104631111Y-144461487D01*
X104340000Y-144432815D01*
X104048890Y-144461487D01*
X103768967Y-144546401D01*
X103510987Y-144684294D01*
X103284866Y-144869866D01*
X103233546Y-144932400D01*
X91802924Y-144932400D01*
X91753170Y-144882646D01*
X91712259Y-144747780D01*
X91611509Y-144559290D01*
X91475922Y-144394078D01*
X91310710Y-144258491D01*
X91122219Y-144157741D01*
X90917696Y-144095700D01*
X90705000Y-144074751D01*
X90492303Y-144095700D01*
X90287780Y-144157741D01*
X90099290Y-144258491D01*
X90080000Y-144274322D01*
X90060710Y-144258491D01*
X89872219Y-144157741D01*
X89667696Y-144095700D01*
X89455000Y-144074751D01*
X89242303Y-144095700D01*
X89037780Y-144157741D01*
X88849290Y-144258491D01*
X88830000Y-144274322D01*
X88810710Y-144258491D01*
X88622219Y-144157741D01*
X88417696Y-144095700D01*
X88205000Y-144074751D01*
X87992303Y-144095700D01*
X87787780Y-144157741D01*
X87599290Y-144258491D01*
X87434078Y-144394078D01*
X87298491Y-144559290D01*
X87197741Y-144747781D01*
X87135700Y-144952304D01*
X87120000Y-145111707D01*
X87120000Y-145141754D01*
X87103571Y-145195912D01*
X87087400Y-145360101D01*
X87087400Y-147025304D01*
X87081993Y-147080200D01*
X86822600Y-147080200D01*
X86822600Y-145360101D01*
X86806429Y-145195912D01*
X86790000Y-145141753D01*
X86790000Y-145111706D01*
X86774300Y-144952303D01*
X86712259Y-144747780D01*
X86611509Y-144559290D01*
X86475922Y-144394078D01*
X86310710Y-144258491D01*
X86122219Y-144157741D01*
X85917696Y-144095700D01*
X85705000Y-144074751D01*
X85492303Y-144095700D01*
X85287780Y-144157741D01*
X85162395Y-144224761D01*
X85159497Y-144222382D01*
X85010283Y-144142625D01*
X84848377Y-144093512D01*
X84680000Y-144076928D01*
X84230000Y-144076928D01*
X84061623Y-144093512D01*
X83899717Y-144142625D01*
X83750503Y-144222382D01*
X83619716Y-144329716D01*
X83512382Y-144460503D01*
X83432625Y-144609717D01*
X83383512Y-144771623D01*
X83366928Y-144940000D01*
X83366928Y-145151881D01*
X83353571Y-145195913D01*
X83337400Y-145360102D01*
X83337401Y-147900091D01*
X83337400Y-147900101D01*
X83337400Y-148218869D01*
X83331993Y-148273765D01*
X83337400Y-148328661D01*
X83337400Y-148328663D01*
X83353571Y-148492852D01*
X83417477Y-148703520D01*
X83521254Y-148897674D01*
X83660914Y-149067851D01*
X83703563Y-149102852D01*
X87761603Y-153160893D01*
X87796599Y-153203536D01*
X87839241Y-153238531D01*
X87839242Y-153238532D01*
X87932418Y-153315000D01*
X76867279Y-153315000D01*
X76223779Y-153251904D01*
X75635836Y-153074394D01*
X75093564Y-152786063D01*
X74617636Y-152397906D01*
X74226155Y-151924686D01*
X73934050Y-151384449D01*
X73752437Y-150797756D01*
X73685000Y-150156130D01*
X73685000Y-149625098D01*
X75085000Y-149625098D01*
X75085000Y-150094902D01*
X75176654Y-150555679D01*
X75356440Y-150989721D01*
X75617450Y-151380349D01*
X75949651Y-151712550D01*
X76340279Y-151973560D01*
X76774321Y-152153346D01*
X77235098Y-152245000D01*
X77704902Y-152245000D01*
X78165679Y-152153346D01*
X78599721Y-151973560D01*
X78990349Y-151712550D01*
X79322550Y-151380349D01*
X79583560Y-150989721D01*
X79763346Y-150555679D01*
X79855000Y-150094902D01*
X79855000Y-149625098D01*
X79763346Y-149164321D01*
X79583560Y-148730279D01*
X79322550Y-148339651D01*
X78990349Y-148007450D01*
X78599721Y-147746440D01*
X78165679Y-147566654D01*
X77704902Y-147475000D01*
X77235098Y-147475000D01*
X76774321Y-147566654D01*
X76340279Y-147746440D01*
X75949651Y-148007450D01*
X75617450Y-148339651D01*
X75356440Y-148730279D01*
X75176654Y-149164321D01*
X75085000Y-149625098D01*
X73685000Y-149625098D01*
X73685000Y-130479081D01*
X73796443Y-130614875D01*
X73869144Y-130674539D01*
X77745464Y-134550860D01*
X77805124Y-134623556D01*
X77994637Y-134779085D01*
X78095197Y-134861613D01*
X78189465Y-134912000D01*
X78426141Y-135038506D01*
X78785235Y-135147436D01*
X79065098Y-135175000D01*
X79065099Y-135175000D01*
X79158679Y-135184217D01*
X79252259Y-135175000D01*
X80300054Y-135175000D01*
X80657244Y-135322953D01*
X81069721Y-135405000D01*
X81490279Y-135405000D01*
X81902756Y-135322953D01*
X82291302Y-135162012D01*
X82640983Y-134928363D01*
X82938363Y-134630983D01*
X83172012Y-134281302D01*
X83332953Y-133892756D01*
X83415000Y-133480279D01*
X83415000Y-133335665D01*
X88608000Y-133335665D01*
X88608000Y-133618335D01*
X88663147Y-133895574D01*
X88771320Y-134156727D01*
X88928363Y-134391759D01*
X89128241Y-134591637D01*
X89363273Y-134748680D01*
X89624426Y-134856853D01*
X89901665Y-134912000D01*
X90184335Y-134912000D01*
X90375371Y-134874000D01*
X95177891Y-134874000D01*
X95178600Y-134874215D01*
X95349021Y-134891000D01*
X95912979Y-134891000D01*
X96083400Y-134874215D01*
X96302060Y-134807885D01*
X96503579Y-134700171D01*
X96680212Y-134555212D01*
X96825171Y-134378579D01*
X96932885Y-134177060D01*
X96999215Y-133958400D01*
X97021612Y-133731000D01*
X96999215Y-133503600D01*
X96935907Y-133294902D01*
X96970502Y-133230180D01*
X97006812Y-133110482D01*
X97019072Y-132986000D01*
X97019072Y-131936000D01*
X97006812Y-131811518D01*
X96970502Y-131691820D01*
X96911537Y-131581506D01*
X96832185Y-131484815D01*
X96774000Y-131437064D01*
X96774000Y-130902445D01*
X99590523Y-128085923D01*
X99634132Y-128050134D01*
X99776967Y-127876090D01*
X99883102Y-127677524D01*
X99942232Y-127482600D01*
X99948460Y-127462069D01*
X99954697Y-127398744D01*
X99964999Y-127294147D01*
X99964999Y-127294141D01*
X99970528Y-127238002D01*
X99964999Y-127181863D01*
X99964999Y-124580509D01*
X100188665Y-124625000D01*
X100471335Y-124625000D01*
X100748574Y-124569853D01*
X101009727Y-124461680D01*
X101244759Y-124304637D01*
X101444637Y-124104759D01*
X101601680Y-123869727D01*
X101709853Y-123608574D01*
X101765000Y-123331335D01*
X101765000Y-123048665D01*
X101709853Y-122771426D01*
X101601680Y-122510273D01*
X101473000Y-122317689D01*
X101473000Y-121749043D01*
X104021928Y-119200117D01*
X104021928Y-119270000D01*
X104034188Y-119394482D01*
X104070498Y-119514180D01*
X104129463Y-119624494D01*
X104208815Y-119721185D01*
X104305506Y-119800537D01*
X104415820Y-119859502D01*
X104535518Y-119895812D01*
X104660000Y-119908072D01*
X106160000Y-119908072D01*
X106284482Y-119895812D01*
X106404180Y-119859502D01*
X106514494Y-119800537D01*
X106611185Y-119721185D01*
X106690537Y-119624494D01*
X106749502Y-119514180D01*
X106785812Y-119394482D01*
X106798072Y-119270000D01*
X106798072Y-118220000D01*
X106785812Y-118095518D01*
X106749502Y-117975820D01*
X106714907Y-117911098D01*
X106778215Y-117702400D01*
X106800612Y-117475000D01*
X106778215Y-117247600D01*
X106711885Y-117028940D01*
X106604171Y-116827421D01*
X106459212Y-116650788D01*
X106282579Y-116505829D01*
X106081060Y-116398115D01*
X105862400Y-116331785D01*
X105691979Y-116315000D01*
X105128021Y-116315000D01*
X104957600Y-116331785D01*
X104956891Y-116332000D01*
X104186736Y-116332000D01*
X104130597Y-116326471D01*
X104074458Y-116332000D01*
X104074452Y-116332000D01*
X103943255Y-116344922D01*
X103906530Y-116348539D01*
X103841172Y-116368365D01*
X103691075Y-116413897D01*
X103492509Y-116520032D01*
X103492507Y-116520033D01*
X103492508Y-116520033D01*
X103362075Y-116627076D01*
X103362069Y-116627082D01*
X103318465Y-116662867D01*
X103282679Y-116706472D01*
X99964999Y-120024154D01*
X99964999Y-118249407D01*
X100113574Y-118219853D01*
X100374727Y-118111680D01*
X100609759Y-117954637D01*
X100809637Y-117754759D01*
X100966680Y-117519727D01*
X101074853Y-117258574D01*
X101130000Y-116981335D01*
X101130000Y-116698665D01*
X101074853Y-116421426D01*
X100966680Y-116160273D01*
X100809637Y-115925241D01*
X100609759Y-115725363D01*
X100374727Y-115568320D01*
X100113574Y-115460147D01*
X99836335Y-115405000D01*
X99553665Y-115405000D01*
X99276426Y-115460147D01*
X99015273Y-115568320D01*
X98780241Y-115725363D01*
X98580363Y-115925241D01*
X98423320Y-116160273D01*
X98315147Y-116421426D01*
X98269960Y-116648595D01*
X98053477Y-116865078D01*
X98009867Y-116900868D01*
X97867032Y-117074912D01*
X97771195Y-117254212D01*
X97760897Y-117273478D01*
X97695538Y-117488934D01*
X97673470Y-117713001D01*
X97679000Y-117769150D01*
X97678999Y-126764555D01*
X94862478Y-129581077D01*
X94818868Y-129616867D01*
X94676033Y-129790911D01*
X94600857Y-129931557D01*
X94569898Y-129989477D01*
X94504539Y-130204933D01*
X94482471Y-130429000D01*
X94488001Y-130485148D01*
X94488001Y-131437064D01*
X94429815Y-131484815D01*
X94350463Y-131581506D01*
X94291498Y-131691820D01*
X94255188Y-131811518D01*
X94242928Y-131936000D01*
X94242928Y-132588000D01*
X91174849Y-132588000D01*
X91157637Y-132562241D01*
X90957759Y-132362363D01*
X90722727Y-132205320D01*
X90461574Y-132097147D01*
X90184335Y-132042000D01*
X89901665Y-132042000D01*
X89624426Y-132097147D01*
X89363273Y-132205320D01*
X89128241Y-132362363D01*
X88928363Y-132562241D01*
X88771320Y-132797273D01*
X88663147Y-133058426D01*
X88608000Y-133335665D01*
X83415000Y-133335665D01*
X83415000Y-133059721D01*
X83332953Y-132647244D01*
X83172012Y-132258698D01*
X82938363Y-131909017D01*
X82640983Y-131611637D01*
X82291302Y-131377988D01*
X81902756Y-131217047D01*
X81490279Y-131135000D01*
X81069721Y-131135000D01*
X80657244Y-131217047D01*
X80300054Y-131365000D01*
X79947756Y-131365000D01*
X77054999Y-128472244D01*
X77054999Y-126770000D01*
X79141928Y-126770000D01*
X79141928Y-129770000D01*
X79154188Y-129894482D01*
X79190498Y-130014180D01*
X79249463Y-130124494D01*
X79328815Y-130221185D01*
X79425506Y-130300537D01*
X79535820Y-130359502D01*
X79655518Y-130395812D01*
X79780000Y-130408072D01*
X82780000Y-130408072D01*
X82904482Y-130395812D01*
X83024180Y-130359502D01*
X83134494Y-130300537D01*
X83231185Y-130221185D01*
X83310537Y-130124494D01*
X83369502Y-130014180D01*
X83405812Y-129894482D01*
X83418072Y-129770000D01*
X83418072Y-126770000D01*
X83405812Y-126645518D01*
X83369502Y-126525820D01*
X83310537Y-126415506D01*
X83231185Y-126318815D01*
X83134494Y-126239463D01*
X83024180Y-126180498D01*
X82904482Y-126144188D01*
X82780000Y-126131928D01*
X79780000Y-126131928D01*
X79655518Y-126144188D01*
X79535820Y-126180498D01*
X79425506Y-126239463D01*
X79328815Y-126318815D01*
X79249463Y-126415506D01*
X79190498Y-126525820D01*
X79154188Y-126645518D01*
X79141928Y-126770000D01*
X77054999Y-126770000D01*
X77054999Y-120868072D01*
X78320000Y-120868072D01*
X78444482Y-120855812D01*
X78564180Y-120819502D01*
X78674494Y-120760537D01*
X78771185Y-120681185D01*
X78850537Y-120584494D01*
X78883407Y-120523000D01*
X87091306Y-120523000D01*
X87060506Y-120539463D01*
X86963815Y-120618815D01*
X86884463Y-120715506D01*
X86825498Y-120825820D01*
X86789188Y-120945518D01*
X86776928Y-121070000D01*
X86776928Y-122770000D01*
X86789188Y-122894482D01*
X86825498Y-123014180D01*
X86884463Y-123124494D01*
X86963815Y-123221185D01*
X87060506Y-123300537D01*
X87170820Y-123359502D01*
X87290518Y-123395812D01*
X87415000Y-123408072D01*
X88172548Y-123408072D01*
X88925401Y-124160926D01*
X88925400Y-124946675D01*
X88771320Y-125177273D01*
X88663147Y-125438426D01*
X88608000Y-125715665D01*
X88608000Y-125998335D01*
X88663147Y-126275574D01*
X88771320Y-126536727D01*
X88928363Y-126771759D01*
X89128241Y-126971637D01*
X89363273Y-127128680D01*
X89624426Y-127236853D01*
X89901665Y-127292000D01*
X90184335Y-127292000D01*
X90461574Y-127236853D01*
X90722727Y-127128680D01*
X90957759Y-126971637D01*
X91157637Y-126771759D01*
X91314680Y-126536727D01*
X91422853Y-126275574D01*
X91478000Y-125998335D01*
X91478000Y-125715665D01*
X91422853Y-125438426D01*
X91314680Y-125177273D01*
X91160600Y-124946675D01*
X91160600Y-123752896D01*
X91166007Y-123698000D01*
X91160600Y-123643101D01*
X91144429Y-123478912D01*
X91080523Y-123268244D01*
X91068711Y-123246145D01*
X90976746Y-123074090D01*
X90872082Y-122946557D01*
X90837086Y-122903914D01*
X90794443Y-122868918D01*
X89753072Y-121827548D01*
X89753072Y-121070000D01*
X89740812Y-120945518D01*
X89704502Y-120825820D01*
X89645537Y-120715506D01*
X89566185Y-120618815D01*
X89469494Y-120539463D01*
X89359180Y-120480498D01*
X89286620Y-120458487D01*
X89418475Y-120326632D01*
X89580990Y-120083411D01*
X89692932Y-119813158D01*
X89750000Y-119526260D01*
X89750000Y-119233740D01*
X89692932Y-118946842D01*
X89580990Y-118676589D01*
X89418475Y-118433368D01*
X89211632Y-118226525D01*
X89037240Y-118110000D01*
X89211632Y-117993475D01*
X89222107Y-117983000D01*
X91202689Y-117983000D01*
X91395273Y-118111680D01*
X91656426Y-118219853D01*
X91933665Y-118275000D01*
X92216335Y-118275000D01*
X92493574Y-118219853D01*
X92754727Y-118111680D01*
X92989759Y-117954637D01*
X93189637Y-117754759D01*
X93346680Y-117519727D01*
X93454853Y-117258574D01*
X93475625Y-117154149D01*
X94767400Y-118445925D01*
X94767401Y-122072400D01*
X93620325Y-122072400D01*
X93389727Y-121918320D01*
X93128574Y-121810147D01*
X92851335Y-121755000D01*
X92568665Y-121755000D01*
X92291426Y-121810147D01*
X92030273Y-121918320D01*
X91795241Y-122075363D01*
X91595363Y-122275241D01*
X91438320Y-122510273D01*
X91330147Y-122771426D01*
X91275000Y-123048665D01*
X91275000Y-123331335D01*
X91330147Y-123608574D01*
X91438320Y-123869727D01*
X91595363Y-124104759D01*
X91795241Y-124304637D01*
X92030273Y-124461680D01*
X92291426Y-124569853D01*
X92568665Y-124625000D01*
X92851335Y-124625000D01*
X93128574Y-124569853D01*
X93389727Y-124461680D01*
X93620325Y-124307600D01*
X95195104Y-124307600D01*
X95250000Y-124313007D01*
X95304896Y-124307600D01*
X95304899Y-124307600D01*
X95469088Y-124291429D01*
X95679756Y-124227523D01*
X95873909Y-124123746D01*
X96044086Y-123984086D01*
X96079087Y-123941437D01*
X96636437Y-123384087D01*
X96679086Y-123349086D01*
X96784051Y-123221185D01*
X96818746Y-123178910D01*
X96922523Y-122984756D01*
X96928951Y-122963565D01*
X96986429Y-122774088D01*
X97002600Y-122609899D01*
X97002600Y-122609896D01*
X97008007Y-122555000D01*
X97002600Y-122500104D01*
X97002600Y-118037895D01*
X97008007Y-117982999D01*
X97002600Y-117928101D01*
X96986429Y-117763912D01*
X96922523Y-117553244D01*
X96849715Y-117417029D01*
X96818746Y-117359090D01*
X96714081Y-117231556D01*
X96679086Y-117188914D01*
X96636443Y-117153918D01*
X94038486Y-114555962D01*
X94003485Y-114513313D01*
X93833308Y-114373653D01*
X93639155Y-114269876D01*
X93428487Y-114205970D01*
X93264298Y-114189799D01*
X93264295Y-114189799D01*
X93209399Y-114184392D01*
X93154503Y-114189799D01*
X86042497Y-114189799D01*
X85987601Y-114184392D01*
X85932705Y-114189799D01*
X85932702Y-114189799D01*
X85768513Y-114205970D01*
X85593949Y-114258924D01*
X85557845Y-114269876D01*
X85363691Y-114373653D01*
X85256146Y-114461913D01*
X85237673Y-114477074D01*
X85135990Y-114231589D01*
X84973475Y-113988368D01*
X84766632Y-113781525D01*
X84592240Y-113665000D01*
X84766632Y-113548475D01*
X84777107Y-113538000D01*
X89278263Y-113538000D01*
X89334402Y-113543529D01*
X89390541Y-113538000D01*
X89390548Y-113538000D01*
X89558469Y-113521461D01*
X89773925Y-113456103D01*
X89972491Y-113349968D01*
X90146535Y-113207133D01*
X90182329Y-113163518D01*
X90721837Y-112624010D01*
X90803320Y-112820727D01*
X90960363Y-113055759D01*
X91160241Y-113255637D01*
X91395273Y-113412680D01*
X91656426Y-113520853D01*
X91933665Y-113576000D01*
X92216335Y-113576000D01*
X92493574Y-113520853D01*
X92754727Y-113412680D01*
X92989759Y-113255637D01*
X93189637Y-113055759D01*
X93346680Y-112820727D01*
X93454853Y-112559574D01*
X93500040Y-112332405D01*
X93832780Y-111999665D01*
X98260000Y-111999665D01*
X98260000Y-112282335D01*
X98315147Y-112559574D01*
X98423320Y-112820727D01*
X98580363Y-113055759D01*
X98780241Y-113255637D01*
X99015273Y-113412680D01*
X99276426Y-113520853D01*
X99553665Y-113576000D01*
X99836335Y-113576000D01*
X100113574Y-113520853D01*
X100374727Y-113412680D01*
X100609759Y-113255637D01*
X100809637Y-113055759D01*
X100966680Y-112820727D01*
X101074853Y-112559574D01*
X101130000Y-112282335D01*
X101130000Y-111999665D01*
X101074853Y-111722426D01*
X100966680Y-111461273D01*
X100809637Y-111226241D01*
X100609759Y-111026363D01*
X100374727Y-110869320D01*
X100113574Y-110761147D01*
X99836335Y-110706000D01*
X99553665Y-110706000D01*
X99276426Y-110761147D01*
X99015273Y-110869320D01*
X98780241Y-111026363D01*
X98580363Y-111226241D01*
X98423320Y-111461273D01*
X98315147Y-111722426D01*
X98260000Y-111999665D01*
X93832780Y-111999665D01*
X94351525Y-111480921D01*
X94395134Y-111445132D01*
X94537969Y-111271088D01*
X94644104Y-111072522D01*
X94697937Y-110895059D01*
X94709462Y-110857067D01*
X94720598Y-110744000D01*
X94726001Y-110689145D01*
X94726001Y-110689139D01*
X94731530Y-110633000D01*
X94726001Y-110576861D01*
X94726001Y-107935665D01*
X98260000Y-107935665D01*
X98260000Y-108218335D01*
X98315147Y-108495574D01*
X98423320Y-108756727D01*
X98580363Y-108991759D01*
X98780241Y-109191637D01*
X99015273Y-109348680D01*
X99276426Y-109456853D01*
X99553665Y-109512000D01*
X99836335Y-109512000D01*
X100113574Y-109456853D01*
X100374727Y-109348680D01*
X100609759Y-109191637D01*
X100809637Y-108991759D01*
X100966680Y-108756727D01*
X101074853Y-108495574D01*
X101130000Y-108218335D01*
X101130000Y-107935665D01*
X101074853Y-107658426D01*
X100966680Y-107397273D01*
X100809637Y-107162241D01*
X100609759Y-106962363D01*
X100374727Y-106805320D01*
X100113574Y-106697147D01*
X99836335Y-106642000D01*
X99553665Y-106642000D01*
X99276426Y-106697147D01*
X99015273Y-106805320D01*
X98780241Y-106962363D01*
X98580363Y-107162241D01*
X98423320Y-107397273D01*
X98315147Y-107658426D01*
X98260000Y-107935665D01*
X94726001Y-107935665D01*
X94726001Y-103799140D01*
X94731530Y-103743001D01*
X94726001Y-103686862D01*
X94726001Y-103686855D01*
X94709462Y-103518934D01*
X94644104Y-103303478D01*
X94537969Y-103104912D01*
X94395134Y-102930868D01*
X94351524Y-102895078D01*
X92520249Y-101063804D01*
X92754727Y-100966680D01*
X92989759Y-100809637D01*
X93189637Y-100609759D01*
X93346680Y-100374727D01*
X93454853Y-100113574D01*
X93510000Y-99836335D01*
X93510000Y-99553665D01*
X93454853Y-99276426D01*
X93346680Y-99015273D01*
X93189637Y-98780241D01*
X92989759Y-98580363D01*
X92754727Y-98423320D01*
X92493574Y-98315147D01*
X92216335Y-98260000D01*
X91933665Y-98260000D01*
X91656426Y-98315147D01*
X91395273Y-98423320D01*
X91202689Y-98552000D01*
X89222107Y-98552000D01*
X89211632Y-98541525D01*
X89037240Y-98425000D01*
X89211632Y-98308475D01*
X89418475Y-98101632D01*
X89580990Y-97858411D01*
X89692932Y-97588158D01*
X89750000Y-97301260D01*
X89750000Y-97008740D01*
X89692932Y-96721842D01*
X89580990Y-96451589D01*
X89418475Y-96208368D01*
X89286620Y-96076513D01*
X89359180Y-96054502D01*
X89469494Y-95995537D01*
X89566185Y-95916185D01*
X89645537Y-95819494D01*
X89697656Y-95721987D01*
X89754088Y-95716429D01*
X89964756Y-95652523D01*
X90158909Y-95548746D01*
X90329086Y-95409086D01*
X90364087Y-95366437D01*
X92221565Y-93508960D01*
X92493574Y-93454853D01*
X92754727Y-93346680D01*
X92989759Y-93189637D01*
X93189637Y-92989759D01*
X93346680Y-92754727D01*
X93353547Y-92738150D01*
X97043999Y-96428603D01*
X97044000Y-100416851D01*
X97038470Y-100472999D01*
X97060538Y-100697066D01*
X97121597Y-100898348D01*
X97125897Y-100912522D01*
X97232032Y-101111088D01*
X97288587Y-101180000D01*
X97319441Y-101217595D01*
X97374867Y-101285132D01*
X97418477Y-101320922D01*
X98069073Y-101971518D01*
X98104868Y-102015134D01*
X98278912Y-102157969D01*
X98387481Y-102216000D01*
X98477477Y-102264104D01*
X98692933Y-102329462D01*
X98713518Y-102331489D01*
X98860855Y-102346001D01*
X98860862Y-102346001D01*
X98917001Y-102351530D01*
X98973140Y-102346001D01*
X100725018Y-102346001D01*
X100781157Y-102351530D01*
X100837296Y-102346001D01*
X100837303Y-102346001D01*
X101005224Y-102329462D01*
X101153719Y-102284417D01*
X101153718Y-103450103D01*
X101148311Y-103505000D01*
X101153718Y-103559896D01*
X101153718Y-103559898D01*
X101169889Y-103724087D01*
X101233795Y-103934755D01*
X101337572Y-104128909D01*
X101477232Y-104299086D01*
X101519880Y-104334087D01*
X102712236Y-105526442D01*
X102747232Y-105569086D01*
X102789874Y-105604081D01*
X102917408Y-105708746D01*
X103021185Y-105764215D01*
X103111562Y-105812523D01*
X103322230Y-105876429D01*
X103486419Y-105892600D01*
X103486421Y-105892600D01*
X103541317Y-105898007D01*
X103596213Y-105892600D01*
X104238159Y-105892600D01*
X104322600Y-105918215D01*
X104493021Y-105935000D01*
X105056979Y-105935000D01*
X105227400Y-105918215D01*
X105446060Y-105851885D01*
X105647579Y-105744171D01*
X105824212Y-105599212D01*
X105969171Y-105422579D01*
X106076885Y-105221060D01*
X106143215Y-105002400D01*
X106165612Y-104775000D01*
X106143215Y-104547600D01*
X106079907Y-104338902D01*
X106114502Y-104274180D01*
X106150812Y-104154482D01*
X106163072Y-104030000D01*
X106163072Y-102980000D01*
X106150812Y-102855518D01*
X106114502Y-102735820D01*
X106055537Y-102625506D01*
X105976185Y-102528815D01*
X105879494Y-102449463D01*
X105769180Y-102390498D01*
X105649482Y-102354188D01*
X105525000Y-102341928D01*
X104025000Y-102341928D01*
X103900518Y-102354188D01*
X103780820Y-102390498D01*
X103670506Y-102449463D01*
X103573815Y-102528815D01*
X103494463Y-102625506D01*
X103435498Y-102735820D01*
X103399188Y-102855518D01*
X103388918Y-102959795D01*
X103388918Y-101899606D01*
X103941215Y-101347310D01*
X104125665Y-101384000D01*
X104408335Y-101384000D01*
X104685574Y-101328853D01*
X104946727Y-101220680D01*
X105181759Y-101063637D01*
X105381637Y-100863759D01*
X105538680Y-100628727D01*
X105646853Y-100367574D01*
X105702000Y-100090335D01*
X105702000Y-99807665D01*
X105646853Y-99530426D01*
X105538680Y-99269273D01*
X105381637Y-99034241D01*
X105181759Y-98834363D01*
X104946727Y-98677320D01*
X104930150Y-98670454D01*
X108096604Y-95504000D01*
X109798861Y-95504000D01*
X109855000Y-95509529D01*
X109911139Y-95504000D01*
X109911146Y-95504000D01*
X110079067Y-95487461D01*
X110294523Y-95422103D01*
X110493089Y-95315968D01*
X110667133Y-95173133D01*
X110702927Y-95129518D01*
X113925524Y-91906922D01*
X113969133Y-91871133D01*
X114035645Y-91790089D01*
X114111967Y-91697090D01*
X114111968Y-91697089D01*
X114218103Y-91498523D01*
X114271203Y-91323475D01*
X114283461Y-91283068D01*
X114296370Y-91152000D01*
X114300000Y-91115146D01*
X114300000Y-91115140D01*
X114305529Y-91059001D01*
X114300000Y-91002862D01*
X114300000Y-87867311D01*
X114428680Y-87674727D01*
X114536853Y-87413574D01*
X114592000Y-87136335D01*
X114592000Y-86853665D01*
X114536853Y-86576426D01*
X114428680Y-86315273D01*
X114271637Y-86080241D01*
X114071759Y-85880363D01*
X113836727Y-85723320D01*
X113575574Y-85615147D01*
X113298335Y-85560000D01*
X113015665Y-85560000D01*
X112738426Y-85615147D01*
X112477273Y-85723320D01*
X112242241Y-85880363D01*
X112042363Y-86080241D01*
X111885320Y-86315273D01*
X111777147Y-86576426D01*
X111722000Y-86853665D01*
X111722000Y-87136335D01*
X111777147Y-87413574D01*
X111885320Y-87674727D01*
X112014001Y-87867312D01*
X112014000Y-90585554D01*
X109381555Y-93218000D01*
X107679297Y-93218000D01*
X107623158Y-93212471D01*
X107567019Y-93218000D01*
X107567012Y-93218000D01*
X107419675Y-93232512D01*
X107399090Y-93234539D01*
X107183634Y-93299897D01*
X107114469Y-93336867D01*
X106985069Y-93406032D01*
X106811025Y-93548867D01*
X106775235Y-93592477D01*
X101077580Y-99290133D01*
X101074853Y-99276426D01*
X100966680Y-99015273D01*
X100838000Y-98822689D01*
X100838000Y-94671139D01*
X100843529Y-94615000D01*
X100838000Y-94558861D01*
X100838000Y-94558854D01*
X100822214Y-94398574D01*
X100821461Y-94390932D01*
X100784768Y-94269974D01*
X100756103Y-94175477D01*
X100649968Y-93976911D01*
X100507133Y-93802867D01*
X100463523Y-93767077D01*
X100140250Y-93443804D01*
X100374727Y-93346680D01*
X100609759Y-93189637D01*
X100809637Y-92989759D01*
X100966680Y-92754727D01*
X101074853Y-92493574D01*
X101130000Y-92216335D01*
X101130000Y-92187665D01*
X102832000Y-92187665D01*
X102832000Y-92470335D01*
X102887147Y-92747574D01*
X102995320Y-93008727D01*
X103152363Y-93243759D01*
X103352241Y-93443637D01*
X103587273Y-93600680D01*
X103848426Y-93708853D01*
X104125665Y-93764000D01*
X104408335Y-93764000D01*
X104685574Y-93708853D01*
X104946727Y-93600680D01*
X105181759Y-93443637D01*
X105381637Y-93243759D01*
X105538680Y-93008727D01*
X105646853Y-92747574D01*
X105702000Y-92470335D01*
X105702000Y-92187665D01*
X105646853Y-91910426D01*
X105538680Y-91649273D01*
X105381637Y-91414241D01*
X105181759Y-91214363D01*
X104946727Y-91057320D01*
X104685574Y-90949147D01*
X104408335Y-90894000D01*
X104125665Y-90894000D01*
X103848426Y-90949147D01*
X103587273Y-91057320D01*
X103352241Y-91214363D01*
X103152363Y-91414241D01*
X102995320Y-91649273D01*
X102887147Y-91910426D01*
X102832000Y-92187665D01*
X101130000Y-92187665D01*
X101130000Y-91933665D01*
X101074853Y-91656426D01*
X100966680Y-91395273D01*
X100809637Y-91160241D01*
X100609759Y-90960363D01*
X100374727Y-90803320D01*
X100113574Y-90695147D01*
X99886406Y-90649960D01*
X96344111Y-87107665D01*
X97752000Y-87107665D01*
X97752000Y-87390335D01*
X97807147Y-87667574D01*
X97915320Y-87928727D01*
X98072363Y-88163759D01*
X98272241Y-88363637D01*
X98507273Y-88520680D01*
X98768426Y-88628853D01*
X99045665Y-88684000D01*
X99328335Y-88684000D01*
X99605574Y-88628853D01*
X99866727Y-88520680D01*
X100101759Y-88363637D01*
X100301637Y-88163759D01*
X100458680Y-87928727D01*
X100566853Y-87667574D01*
X100622000Y-87390335D01*
X100622000Y-87107665D01*
X100566853Y-86830426D01*
X100458680Y-86569273D01*
X100301637Y-86334241D01*
X100101759Y-86134363D01*
X99866727Y-85977320D01*
X99605574Y-85869147D01*
X99328335Y-85814000D01*
X99045665Y-85814000D01*
X98768426Y-85869147D01*
X98507273Y-85977320D01*
X98272241Y-86134363D01*
X98072363Y-86334241D01*
X97915320Y-86569273D01*
X97807147Y-86830426D01*
X97752000Y-87107665D01*
X96344111Y-87107665D01*
X96012000Y-86775555D01*
X96012000Y-83130108D01*
X96012215Y-83129399D01*
X96029000Y-82958978D01*
X96029000Y-82395021D01*
X96012215Y-82224600D01*
X95945885Y-82005940D01*
X95838171Y-81804421D01*
X95803349Y-81761990D01*
X98989146Y-81761990D01*
X99157067Y-81745451D01*
X99372523Y-81680093D01*
X99571089Y-81573958D01*
X99745133Y-81431123D01*
X99887968Y-81257079D01*
X99994103Y-81058513D01*
X100059461Y-80843057D01*
X100081530Y-80618990D01*
X100059461Y-80394923D01*
X100014893Y-80248001D01*
X106766860Y-80248001D01*
X106822999Y-80253530D01*
X106879138Y-80248001D01*
X106879145Y-80248001D01*
X107047066Y-80231462D01*
X107262522Y-80166104D01*
X107461088Y-80059969D01*
X107635132Y-79917134D01*
X107670926Y-79873519D01*
X109030405Y-78514040D01*
X109257574Y-78468853D01*
X109518727Y-78360680D01*
X109753759Y-78203637D01*
X109953637Y-78003759D01*
X110110680Y-77768727D01*
X110218853Y-77507574D01*
X110274000Y-77230335D01*
X110274000Y-76947665D01*
X110218853Y-76670426D01*
X110110680Y-76409273D01*
X109953637Y-76174241D01*
X109753759Y-75974363D01*
X109518727Y-75817320D01*
X109257574Y-75709147D01*
X108980335Y-75654000D01*
X108697665Y-75654000D01*
X108420426Y-75709147D01*
X108159273Y-75817320D01*
X107924241Y-75974363D01*
X107724363Y-76174241D01*
X107567320Y-76409273D01*
X107459147Y-76670426D01*
X107413960Y-76897595D01*
X106349554Y-77962001D01*
X103117509Y-77962001D01*
X103162000Y-77738335D01*
X103162000Y-77721129D01*
X103168746Y-77712909D01*
X103272523Y-77518756D01*
X103336429Y-77308088D01*
X103352600Y-77143899D01*
X103352600Y-77143890D01*
X103358006Y-77089001D01*
X103352600Y-77034112D01*
X103352600Y-71809896D01*
X103358007Y-71755000D01*
X103344225Y-71615072D01*
X103336429Y-71535912D01*
X103272523Y-71325244D01*
X103262053Y-71305656D01*
X103168746Y-71131090D01*
X103094385Y-71040482D01*
X103032231Y-70964747D01*
X102990509Y-70754999D01*
X107045484Y-70754999D01*
X111944011Y-75653527D01*
X111944012Y-78466870D01*
X106149970Y-84260913D01*
X106107321Y-84295914D01*
X105967661Y-84466091D01*
X105863884Y-84660245D01*
X105799978Y-84870913D01*
X105788789Y-84984523D01*
X105778400Y-85090000D01*
X105783807Y-85144897D01*
X105783808Y-86242796D01*
X105692363Y-86334241D01*
X105535320Y-86569273D01*
X105427147Y-86830426D01*
X105372000Y-87107665D01*
X105372000Y-87390335D01*
X105427147Y-87667574D01*
X105535320Y-87928727D01*
X105692363Y-88163759D01*
X105892241Y-88363637D01*
X106127273Y-88520680D01*
X106388426Y-88628853D01*
X106665665Y-88684000D01*
X106948335Y-88684000D01*
X107225574Y-88628853D01*
X107486727Y-88520680D01*
X107721759Y-88363637D01*
X107921637Y-88163759D01*
X108078680Y-87928727D01*
X108186853Y-87667574D01*
X108242000Y-87390335D01*
X108242000Y-87107665D01*
X108186853Y-86830426D01*
X108078680Y-86569273D01*
X108019007Y-86479966D01*
X108019007Y-85552924D01*
X113813054Y-79758878D01*
X113855697Y-79723882D01*
X113912896Y-79654185D01*
X113995357Y-79553706D01*
X114075696Y-79403401D01*
X114099134Y-79359552D01*
X114163040Y-79148884D01*
X114179211Y-78984695D01*
X114179211Y-78984693D01*
X114184618Y-78929797D01*
X114179211Y-78874901D01*
X114179211Y-75245498D01*
X114184618Y-75190602D01*
X114178204Y-75125477D01*
X114163040Y-74971514D01*
X114099134Y-74760846D01*
X114018523Y-74610033D01*
X113995357Y-74566692D01*
X113890692Y-74439158D01*
X113855697Y-74396516D01*
X113813054Y-74361520D01*
X111333534Y-71882000D01*
X119609818Y-71882000D01*
X119703398Y-71891217D01*
X119796978Y-71882000D01*
X119796980Y-71882000D01*
X120076843Y-71854436D01*
X120435937Y-71745506D01*
X120591434Y-71662391D01*
X120648320Y-71799727D01*
X120802401Y-72030326D01*
X120802400Y-73832075D01*
X118663076Y-75971400D01*
X117369325Y-75971400D01*
X117138727Y-75817320D01*
X116877574Y-75709147D01*
X116600335Y-75654000D01*
X116317665Y-75654000D01*
X116040426Y-75709147D01*
X115779273Y-75817320D01*
X115544241Y-75974363D01*
X115344363Y-76174241D01*
X115187320Y-76409273D01*
X115079147Y-76670426D01*
X115024000Y-76947665D01*
X115024000Y-77230335D01*
X115079147Y-77507574D01*
X115187320Y-77768727D01*
X115341400Y-77999325D01*
X115341401Y-128950073D01*
X113568547Y-130722928D01*
X112311000Y-130722928D01*
X112186518Y-130735188D01*
X112066820Y-130771498D01*
X111956506Y-130830463D01*
X111859815Y-130909815D01*
X111780463Y-131006506D01*
X111721498Y-131116820D01*
X111685188Y-131236518D01*
X111672928Y-131361000D01*
X111672928Y-133561000D01*
X111685188Y-133685482D01*
X111721498Y-133805180D01*
X111780463Y-133915494D01*
X111859815Y-134012185D01*
X111956506Y-134091537D01*
X112066820Y-134150502D01*
X112186518Y-134186812D01*
X112311000Y-134199072D01*
X114511000Y-134199072D01*
X114635482Y-134186812D01*
X114755180Y-134150502D01*
X114865494Y-134091537D01*
X114962185Y-134012185D01*
X115041537Y-133915494D01*
X115100502Y-133805180D01*
X115136812Y-133685482D01*
X115149072Y-133561000D01*
X115149072Y-132303453D01*
X117119400Y-130333126D01*
X117119400Y-130882104D01*
X117113993Y-130937000D01*
X117119400Y-130991896D01*
X117119400Y-130991898D01*
X117135571Y-131156087D01*
X117199477Y-131366755D01*
X117303254Y-131560909D01*
X117442914Y-131731086D01*
X117485563Y-131766087D01*
X118022928Y-132303452D01*
X118022928Y-133561000D01*
X118035188Y-133685482D01*
X118071498Y-133805180D01*
X118130463Y-133915494D01*
X118209815Y-134012185D01*
X118306506Y-134091537D01*
X118416820Y-134150502D01*
X118536518Y-134186812D01*
X118661000Y-134199072D01*
X120861000Y-134199072D01*
X120985482Y-134186812D01*
X121105180Y-134150502D01*
X121215494Y-134091537D01*
X121312185Y-134012185D01*
X121391537Y-133915494D01*
X121450502Y-133805180D01*
X121486812Y-133685482D01*
X121499072Y-133561000D01*
X121499072Y-131361000D01*
X124372928Y-131361000D01*
X124372928Y-133561000D01*
X124385188Y-133685482D01*
X124421498Y-133805180D01*
X124480463Y-133915494D01*
X124559815Y-134012185D01*
X124656506Y-134091537D01*
X124766820Y-134150502D01*
X124886518Y-134186812D01*
X125011000Y-134199072D01*
X127211000Y-134199072D01*
X127335482Y-134186812D01*
X127455180Y-134150502D01*
X127565494Y-134091537D01*
X127662185Y-134012185D01*
X127741537Y-133915494D01*
X127800502Y-133805180D01*
X127836812Y-133685482D01*
X127849072Y-133561000D01*
X127849072Y-131361000D01*
X127836812Y-131236518D01*
X127800502Y-131116820D01*
X127741537Y-131006506D01*
X127662185Y-130909815D01*
X127565494Y-130830463D01*
X127455180Y-130771498D01*
X127335482Y-130735188D01*
X127228600Y-130724661D01*
X127228600Y-127834101D01*
X127212429Y-127669912D01*
X127148523Y-127459244D01*
X127044746Y-127265091D01*
X126905086Y-127094914D01*
X126734909Y-126955254D01*
X126540756Y-126851477D01*
X126330088Y-126787571D01*
X126111000Y-126765993D01*
X125891913Y-126787571D01*
X125681245Y-126851477D01*
X125487092Y-126955254D01*
X125316915Y-127094914D01*
X125177255Y-127265091D01*
X125073478Y-127459244D01*
X125009572Y-127669912D01*
X124993401Y-127834101D01*
X124993400Y-130724661D01*
X124886518Y-130735188D01*
X124766820Y-130771498D01*
X124656506Y-130830463D01*
X124559815Y-130909815D01*
X124480463Y-131006506D01*
X124421498Y-131116820D01*
X124385188Y-131236518D01*
X124372928Y-131361000D01*
X121499072Y-131361000D01*
X121486812Y-131236518D01*
X121450502Y-131116820D01*
X121391537Y-131006506D01*
X121312185Y-130909815D01*
X121215494Y-130830463D01*
X121105180Y-130771498D01*
X120985482Y-130735188D01*
X120861000Y-130722928D01*
X119603452Y-130722928D01*
X119354600Y-130474076D01*
X119354600Y-126223665D01*
X119596000Y-126223665D01*
X119596000Y-126506335D01*
X119651147Y-126783574D01*
X119759320Y-127044727D01*
X119916363Y-127279759D01*
X120116241Y-127479637D01*
X120351273Y-127636680D01*
X120612426Y-127744853D01*
X120889665Y-127800000D01*
X121172335Y-127800000D01*
X121449574Y-127744853D01*
X121710727Y-127636680D01*
X121945759Y-127479637D01*
X122145637Y-127279759D01*
X122302680Y-127044727D01*
X122410853Y-126783574D01*
X122466000Y-126506335D01*
X122466000Y-126223665D01*
X122410853Y-125946426D01*
X122302680Y-125685273D01*
X122145637Y-125450241D01*
X121945759Y-125250363D01*
X121710727Y-125093320D01*
X121449574Y-124985147D01*
X121172335Y-124930000D01*
X120889665Y-124930000D01*
X120612426Y-124985147D01*
X120351273Y-125093320D01*
X120116241Y-125250363D01*
X119916363Y-125450241D01*
X119759320Y-125685273D01*
X119651147Y-125946426D01*
X119596000Y-126223665D01*
X119354600Y-126223665D01*
X119354600Y-117668331D01*
X119393663Y-117715929D01*
X119567707Y-117858764D01*
X119766273Y-117964899D01*
X119981729Y-118030257D01*
X120149650Y-118046796D01*
X124558351Y-118046796D01*
X125850477Y-119338923D01*
X125980910Y-119445967D01*
X126179476Y-119552102D01*
X126394932Y-119617461D01*
X126618999Y-119639529D01*
X126843066Y-119617461D01*
X127058523Y-119552102D01*
X127257088Y-119445967D01*
X127431133Y-119303133D01*
X127573967Y-119129088D01*
X127680102Y-118930523D01*
X127745461Y-118715066D01*
X127767529Y-118490999D01*
X127745461Y-118266932D01*
X127680102Y-118051476D01*
X127573967Y-117852910D01*
X127466923Y-117722477D01*
X125879723Y-116135278D01*
X125843929Y-116091663D01*
X125669885Y-115948828D01*
X125499024Y-115857501D01*
X125557925Y-115798600D01*
X143936076Y-115798600D01*
X144839918Y-116702442D01*
X144874914Y-116745086D01*
X144917556Y-116780081D01*
X145045090Y-116884746D01*
X145085954Y-116906588D01*
X145239244Y-116988523D01*
X145449912Y-117052429D01*
X145614101Y-117068600D01*
X145614103Y-117068600D01*
X145668999Y-117074007D01*
X145723895Y-117068600D01*
X149330675Y-117068600D01*
X149561273Y-117222680D01*
X149822426Y-117330853D01*
X150099665Y-117386000D01*
X150382335Y-117386000D01*
X150659574Y-117330853D01*
X150920727Y-117222680D01*
X151155759Y-117065637D01*
X151355637Y-116865759D01*
X151512680Y-116630727D01*
X151620853Y-116369574D01*
X151676000Y-116092335D01*
X151676000Y-115809665D01*
X151620853Y-115532426D01*
X151512680Y-115271273D01*
X151355637Y-115036241D01*
X151155759Y-114836363D01*
X150920727Y-114679320D01*
X150659574Y-114571147D01*
X150382335Y-114516000D01*
X150099665Y-114516000D01*
X149822426Y-114571147D01*
X149561273Y-114679320D01*
X149330675Y-114833400D01*
X146131925Y-114833400D01*
X145228087Y-113929562D01*
X145193086Y-113886914D01*
X145022909Y-113747254D01*
X144828756Y-113643477D01*
X144618088Y-113579571D01*
X144453899Y-113563400D01*
X144453896Y-113563400D01*
X144399000Y-113557993D01*
X144344104Y-113563400D01*
X131562520Y-113563400D01*
X131577530Y-113411000D01*
X131555461Y-113186933D01*
X131490103Y-112971477D01*
X131383968Y-112772911D01*
X131241133Y-112598867D01*
X131067089Y-112456032D01*
X130868523Y-112349897D01*
X130653067Y-112284539D01*
X130485146Y-112268000D01*
X125822446Y-112268000D01*
X125101521Y-111547076D01*
X124971088Y-111440033D01*
X124772523Y-111333898D01*
X124557067Y-111268539D01*
X124333000Y-111246471D01*
X124108933Y-111268539D01*
X123893477Y-111333898D01*
X123694912Y-111440033D01*
X123520867Y-111582867D01*
X123378033Y-111756912D01*
X123271898Y-111955477D01*
X123206539Y-112170933D01*
X123184471Y-112395000D01*
X123206539Y-112619067D01*
X123271898Y-112834523D01*
X123378033Y-113033088D01*
X123485076Y-113163521D01*
X124258514Y-113936960D01*
X123327562Y-114867914D01*
X123284914Y-114902914D01*
X123145254Y-115073091D01*
X123041477Y-115267244D01*
X122977571Y-115477912D01*
X122955993Y-115697000D01*
X122962276Y-115760796D01*
X120149650Y-115760796D01*
X119981729Y-115777335D01*
X119766273Y-115842693D01*
X119567707Y-115948828D01*
X119393663Y-116091663D01*
X119354600Y-116139261D01*
X119354600Y-100582529D01*
X119421076Y-100663531D01*
X121550876Y-102793332D01*
X121586666Y-102836942D01*
X121760710Y-102979777D01*
X121881767Y-103044483D01*
X121959275Y-103085912D01*
X122174731Y-103151270D01*
X122195316Y-103153297D01*
X122342653Y-103167809D01*
X122342660Y-103167809D01*
X122398799Y-103173338D01*
X122454938Y-103167809D01*
X126748664Y-103167809D01*
X126740471Y-103251000D01*
X126762539Y-103475067D01*
X126827898Y-103690523D01*
X126934033Y-103889088D01*
X127076867Y-104063133D01*
X127250912Y-104205967D01*
X127449477Y-104312102D01*
X127664933Y-104377461D01*
X127889000Y-104399529D01*
X128048511Y-104383819D01*
X134549146Y-104383819D01*
X134717067Y-104367280D01*
X134932523Y-104301922D01*
X135131089Y-104195787D01*
X135305133Y-104052952D01*
X135447968Y-103878908D01*
X135554103Y-103680342D01*
X135619461Y-103464886D01*
X135641530Y-103240819D01*
X135619461Y-103016752D01*
X135554103Y-102801296D01*
X135447968Y-102602730D01*
X135305133Y-102428686D01*
X135131089Y-102285851D01*
X135104548Y-102271665D01*
X135111461Y-102248876D01*
X135133530Y-102024809D01*
X135111461Y-101800742D01*
X135046103Y-101585286D01*
X135003297Y-101505201D01*
X135041945Y-101458108D01*
X135145722Y-101263955D01*
X135209628Y-101053287D01*
X135231206Y-100834199D01*
X135209628Y-100615111D01*
X135145722Y-100404443D01*
X135041945Y-100210290D01*
X134902285Y-100040113D01*
X134732108Y-99900453D01*
X134537955Y-99796676D01*
X134327287Y-99732770D01*
X134163098Y-99716599D01*
X123649124Y-99716599D01*
X123291600Y-99359076D01*
X123291600Y-98421810D01*
X133650748Y-98421810D01*
X133705644Y-98427217D01*
X133760540Y-98421810D01*
X133760543Y-98421810D01*
X133924732Y-98405639D01*
X134135400Y-98341733D01*
X134329553Y-98237956D01*
X134499730Y-98098296D01*
X134534731Y-98055647D01*
X153786443Y-78803936D01*
X153829086Y-78768940D01*
X153913995Y-78665478D01*
X153968746Y-78598764D01*
X154032513Y-78479463D01*
X154072523Y-78404610D01*
X154136429Y-78193942D01*
X154152600Y-78029753D01*
X154152600Y-78029744D01*
X154158006Y-77974855D01*
X154152600Y-77919966D01*
X154152600Y-77491325D01*
X154306680Y-77260727D01*
X154414853Y-76999574D01*
X154470000Y-76722335D01*
X154470000Y-76439665D01*
X154414853Y-76162426D01*
X154306680Y-75901273D01*
X154149637Y-75666241D01*
X153949759Y-75466363D01*
X153714727Y-75309320D01*
X153453574Y-75201147D01*
X153176335Y-75146000D01*
X152893665Y-75146000D01*
X152616426Y-75201147D01*
X152355273Y-75309320D01*
X152120241Y-75466363D01*
X151920363Y-75666241D01*
X151763320Y-75901273D01*
X151655147Y-76162426D01*
X151600000Y-76439665D01*
X151600000Y-76722335D01*
X151655147Y-76999574D01*
X151763320Y-77260727D01*
X151917400Y-77491325D01*
X151917400Y-77511929D01*
X146532600Y-82896729D01*
X146532600Y-77491325D01*
X146686680Y-77260727D01*
X146794853Y-76999574D01*
X146850000Y-76722335D01*
X146850000Y-76439665D01*
X146794853Y-76162426D01*
X146686680Y-75901273D01*
X146529637Y-75666241D01*
X146329759Y-75466363D01*
X146094727Y-75309320D01*
X145833574Y-75201147D01*
X145556335Y-75146000D01*
X145273665Y-75146000D01*
X144996426Y-75201147D01*
X144735273Y-75309320D01*
X144500241Y-75466363D01*
X144300363Y-75666241D01*
X144143320Y-75901273D01*
X144035147Y-76162426D01*
X143980000Y-76439665D01*
X143980000Y-76722335D01*
X144035147Y-76999574D01*
X144143320Y-77260727D01*
X144297400Y-77491325D01*
X144297401Y-83484074D01*
X132760076Y-95021400D01*
X123284311Y-95021400D01*
X123120122Y-95037571D01*
X122909454Y-95101477D01*
X122715301Y-95205254D01*
X122703480Y-95214955D01*
X121274443Y-93785919D01*
X121146909Y-93681254D01*
X120952756Y-93577478D01*
X120742087Y-93513572D01*
X120523000Y-93491993D01*
X120303913Y-93513572D01*
X120093244Y-93577478D01*
X119899091Y-93681254D01*
X119728915Y-93820915D01*
X119589254Y-93991091D01*
X119485478Y-94185244D01*
X119421572Y-94395913D01*
X119399993Y-94615000D01*
X119421572Y-94834087D01*
X119485478Y-95044756D01*
X119589254Y-95238909D01*
X119693919Y-95366443D01*
X121056400Y-96728925D01*
X121056401Y-99065966D01*
X121037521Y-99047086D01*
X120907088Y-98940043D01*
X120708523Y-98833908D01*
X120493067Y-98768549D01*
X120269000Y-98746481D01*
X120044933Y-98768549D01*
X119829477Y-98833908D01*
X119630912Y-98940043D01*
X119456867Y-99082877D01*
X119354600Y-99207491D01*
X119354600Y-87199679D01*
X119397147Y-87413574D01*
X119505320Y-87674727D01*
X119662363Y-87909759D01*
X119862241Y-88109637D01*
X120097273Y-88266680D01*
X120358426Y-88374853D01*
X120635665Y-88430000D01*
X120918335Y-88430000D01*
X121195574Y-88374853D01*
X121456727Y-88266680D01*
X121691759Y-88109637D01*
X121891637Y-87909759D01*
X122048680Y-87674727D01*
X122156853Y-87413574D01*
X122212000Y-87136335D01*
X122212000Y-86853665D01*
X122156853Y-86576426D01*
X122048680Y-86315273D01*
X121891637Y-86080241D01*
X121691759Y-85880363D01*
X121456727Y-85723320D01*
X121195574Y-85615147D01*
X120918335Y-85560000D01*
X120635665Y-85560000D01*
X120358426Y-85615147D01*
X120097273Y-85723320D01*
X119862241Y-85880363D01*
X119662363Y-86080241D01*
X119505320Y-86315273D01*
X119397147Y-86576426D01*
X119354600Y-86790321D01*
X119354600Y-78558101D01*
X119338429Y-78393912D01*
X119278686Y-78196969D01*
X119345088Y-78190429D01*
X119555756Y-78126523D01*
X119749909Y-78022746D01*
X119920086Y-77883086D01*
X119955087Y-77840437D01*
X122671443Y-75124082D01*
X122714086Y-75089086D01*
X122754137Y-75040283D01*
X122853746Y-74918910D01*
X122957523Y-74724756D01*
X122959853Y-74717076D01*
X123021429Y-74514088D01*
X123037600Y-74349899D01*
X123037600Y-74349896D01*
X123043007Y-74295000D01*
X123037600Y-74240104D01*
X123037600Y-72237600D01*
X136056510Y-72237600D01*
X136111406Y-72243007D01*
X136166302Y-72237600D01*
X136166305Y-72237600D01*
X136330494Y-72221429D01*
X136541162Y-72157523D01*
X136735315Y-72053746D01*
X136905492Y-71914086D01*
X136940493Y-71871437D01*
X138526941Y-70284990D01*
X153226266Y-70284990D01*
X153171494Y-70387461D01*
%TA.AperFunction,Conductor*%
D39*
G36*
X153171494Y-70387461D02*
G01*
X153062564Y-70746555D01*
X153025783Y-71120000D01*
X153062564Y-71493445D01*
X153171494Y-71852539D01*
X153348387Y-72183482D01*
X153586444Y-72473556D01*
X153876518Y-72711613D01*
X154207461Y-72888506D01*
X154566555Y-72997436D01*
X154846418Y-73025000D01*
X155420925Y-73025000D01*
X156845001Y-74449077D01*
X156845000Y-80103581D01*
X156872564Y-80383444D01*
X156981494Y-80742538D01*
X157111928Y-80986563D01*
X157111928Y-81010000D01*
X157124188Y-81134482D01*
X157160498Y-81254180D01*
X157219463Y-81364494D01*
X157298815Y-81461185D01*
X157395506Y-81540537D01*
X157505820Y-81599502D01*
X157625518Y-81635812D01*
X157750000Y-81648072D01*
X157773437Y-81648072D01*
X158017461Y-81778506D01*
X158376555Y-81887436D01*
X158750000Y-81924217D01*
X159123444Y-81887436D01*
X159482538Y-81778506D01*
X159726563Y-81648072D01*
X159750000Y-81648072D01*
X159874482Y-81635812D01*
X159994180Y-81599502D01*
X160104494Y-81540537D01*
X160201185Y-81461185D01*
X160280537Y-81364494D01*
X160339502Y-81254180D01*
X160375812Y-81134482D01*
X160388072Y-81010000D01*
X160388072Y-80986563D01*
X160518506Y-80742539D01*
X160627436Y-80383445D01*
X160655000Y-80103582D01*
X160655000Y-73753571D01*
X160664216Y-73659999D01*
X160655000Y-73566427D01*
X160655000Y-73566418D01*
X160627436Y-73286555D01*
X160518506Y-72927461D01*
X160341613Y-72596518D01*
X160103556Y-72306444D01*
X160030865Y-72246789D01*
X158069065Y-70284990D01*
X165986465Y-70284990D01*
X166333040Y-70631565D01*
X166387147Y-70903574D01*
X166495320Y-71164727D01*
X166652363Y-71399759D01*
X166852241Y-71599637D01*
X167087273Y-71756680D01*
X167348426Y-71864853D01*
X167625665Y-71920000D01*
X167908335Y-71920000D01*
X168132002Y-71875509D01*
X168132002Y-73786067D01*
X162659564Y-79258506D01*
X162616915Y-79293507D01*
X162477255Y-79463684D01*
X162373478Y-79657838D01*
X162309572Y-79868506D01*
X162294447Y-80022078D01*
X162287994Y-80087593D01*
X162293401Y-80142489D01*
X162293401Y-81421799D01*
X162057445Y-81615443D01*
X161997790Y-81688133D01*
X156834140Y-86851785D01*
X156761445Y-86911444D01*
X156655130Y-87040990D01*
X156523387Y-87201518D01*
X156346495Y-87532461D01*
X156237565Y-87891555D01*
X156200783Y-88265000D01*
X156210001Y-88358589D01*
X156210000Y-94073581D01*
X156210001Y-94073591D01*
X156210000Y-101191923D01*
X153278144Y-104123781D01*
X153205444Y-104183444D01*
X152967387Y-104473518D01*
X152790494Y-104804461D01*
X152681564Y-105163555D01*
X152654000Y-105443418D01*
X152644783Y-105537000D01*
X152654000Y-105630580D01*
X152654000Y-106138581D01*
X152654001Y-106138591D01*
X152654000Y-109507418D01*
X152644783Y-109601000D01*
X152654000Y-109694580D01*
X152654000Y-109694581D01*
X152654001Y-109694591D01*
X152654000Y-117127420D01*
X152644783Y-117221000D01*
X152654000Y-117314580D01*
X152654000Y-117314581D01*
X152681564Y-117594444D01*
X152790494Y-117953538D01*
X152967387Y-118284482D01*
X153205444Y-118574556D01*
X153278145Y-118634220D01*
X156210001Y-121566077D01*
X156210000Y-124051924D01*
X155999134Y-124262790D01*
X155926434Y-124322454D01*
X155688377Y-124612528D01*
X155511484Y-124943472D01*
X155402554Y-125302566D01*
X155374990Y-125582428D01*
X155365773Y-125676010D01*
X155374990Y-125769590D01*
X155374991Y-130903582D01*
X155402555Y-131183445D01*
X155511485Y-131542539D01*
X155688378Y-131873482D01*
X155926435Y-132163556D01*
X156216509Y-132401613D01*
X156547452Y-132578506D01*
X156906546Y-132687436D01*
X157279990Y-132724217D01*
X157653435Y-132687436D01*
X158012529Y-132578506D01*
X158343472Y-132401613D01*
X158633546Y-132163556D01*
X158871603Y-131873482D01*
X159048496Y-131542539D01*
X159157426Y-131183445D01*
X159184990Y-130903582D01*
X159184990Y-126465086D01*
X159395860Y-126254216D01*
X159468556Y-126194556D01*
X159706613Y-125904482D01*
X159883506Y-125573539D01*
X159992436Y-125214445D01*
X160020000Y-124934582D01*
X160020000Y-124934573D01*
X160029216Y-124841001D01*
X160020000Y-124747429D01*
X160020000Y-120870571D01*
X160029216Y-120776999D01*
X160020000Y-120683427D01*
X160020000Y-120683418D01*
X159992436Y-120403555D01*
X159883506Y-120044461D01*
X159706613Y-119713518D01*
X159468556Y-119423444D01*
X159395866Y-119363789D01*
X157306716Y-117274640D01*
X157442426Y-117330853D01*
X157719665Y-117386000D01*
X158002335Y-117386000D01*
X158279574Y-117330853D01*
X158540727Y-117222680D01*
X158775759Y-117065637D01*
X158975637Y-116865759D01*
X159132680Y-116630727D01*
X159240853Y-116369574D01*
X159286040Y-116142405D01*
X159604446Y-115824000D01*
X162531294Y-115824000D01*
X162650010Y-115942717D01*
X162650010Y-116111871D01*
X162644481Y-116168010D01*
X162650010Y-116224149D01*
X162650010Y-116224155D01*
X162660611Y-116331785D01*
X162666549Y-116392077D01*
X162670000Y-116403453D01*
X162670000Y-116486978D01*
X162686785Y-116657399D01*
X162753115Y-116876059D01*
X162860829Y-117077578D01*
X163005788Y-117254212D01*
X163182421Y-117399171D01*
X163383940Y-117506885D01*
X163602600Y-117573215D01*
X163830000Y-117595612D01*
X164057399Y-117573215D01*
X164266098Y-117509907D01*
X164330820Y-117544502D01*
X164450518Y-117580812D01*
X164575000Y-117593072D01*
X164871627Y-117593072D01*
X166792077Y-119513523D01*
X166827867Y-119557133D01*
X167001911Y-119699968D01*
X167200477Y-119806103D01*
X167350574Y-119851635D01*
X167415932Y-119871461D01*
X167436517Y-119873488D01*
X167583854Y-119888000D01*
X167583861Y-119888000D01*
X167640000Y-119893529D01*
X167696139Y-119888000D01*
X169960140Y-119888000D01*
X169960498Y-119889180D01*
X170019463Y-119999494D01*
X170098815Y-120096185D01*
X170154641Y-120142000D01*
X167061139Y-120142000D01*
X167005000Y-120136471D01*
X166948861Y-120142000D01*
X166948854Y-120142000D01*
X166801517Y-120156512D01*
X166780932Y-120158539D01*
X166724898Y-120175537D01*
X166565477Y-120223897D01*
X166366911Y-120330032D01*
X166192867Y-120472867D01*
X166157077Y-120516477D01*
X164331482Y-122342073D01*
X164287867Y-122377867D01*
X164145032Y-122551912D01*
X164038897Y-122750478D01*
X164017808Y-122820000D01*
X163974258Y-122963565D01*
X163973539Y-122965934D01*
X163957000Y-123133855D01*
X163957000Y-123133861D01*
X163951471Y-123190000D01*
X163957000Y-123246139D01*
X163957000Y-124149861D01*
X163951471Y-124206000D01*
X163957000Y-124262139D01*
X163957000Y-124262146D01*
X163973539Y-124430067D01*
X164038897Y-124645523D01*
X164145033Y-124844089D01*
X164287868Y-125018133D01*
X164310877Y-125037016D01*
X164355147Y-125259574D01*
X164463320Y-125520727D01*
X164620363Y-125755759D01*
X164820241Y-125955637D01*
X165055273Y-126112680D01*
X165316426Y-126220853D01*
X165593665Y-126276000D01*
X165876335Y-126276000D01*
X166153574Y-126220853D01*
X166414727Y-126112680D01*
X166649759Y-125955637D01*
X166849637Y-125755759D01*
X167006680Y-125520727D01*
X167114853Y-125259574D01*
X167170000Y-124982335D01*
X167170000Y-124699665D01*
X167114853Y-124422426D01*
X167006680Y-124161273D01*
X166849637Y-123926241D01*
X166649759Y-123726363D01*
X166414727Y-123569320D01*
X166359854Y-123546591D01*
X167478446Y-122428000D01*
X170422183Y-122428000D01*
X170471495Y-122477312D01*
X170722905Y-122645299D01*
X171002257Y-122761011D01*
X171144721Y-122789349D01*
X165049847Y-128884223D01*
X164857090Y-128987254D01*
X164767493Y-129060785D01*
X164686914Y-129126914D01*
X164651918Y-129169557D01*
X164137764Y-129683712D01*
X164102002Y-129565820D01*
X164043037Y-129455506D01*
X163963685Y-129358815D01*
X163866994Y-129279463D01*
X163756680Y-129220498D01*
X163636982Y-129184188D01*
X163512500Y-129171928D01*
X161607500Y-129171928D01*
X161483018Y-129184188D01*
X161363320Y-129220498D01*
X161253006Y-129279463D01*
X161156315Y-129358815D01*
X161076963Y-129455506D01*
X161017998Y-129565820D01*
X160981688Y-129685518D01*
X160969428Y-129810000D01*
X160969428Y-131810000D01*
X160981688Y-131934482D01*
X161017998Y-132054180D01*
X161076963Y-132164494D01*
X161156315Y-132261185D01*
X161253006Y-132340537D01*
X161363320Y-132399502D01*
X161483018Y-132435812D01*
X161607500Y-132448072D01*
X163512500Y-132448072D01*
X163636982Y-132435812D01*
X163756680Y-132399502D01*
X163866994Y-132340537D01*
X163963685Y-132261185D01*
X164043037Y-132164494D01*
X164102002Y-132054180D01*
X164138312Y-131934482D01*
X164138990Y-131927600D01*
X164537104Y-131927600D01*
X164592000Y-131933007D01*
X164646896Y-131927600D01*
X164646899Y-131927600D01*
X164811088Y-131911429D01*
X165021756Y-131847523D01*
X165215909Y-131743746D01*
X165386086Y-131604086D01*
X165421086Y-131561438D01*
X166024750Y-130957775D01*
X166217503Y-130854746D01*
X166387680Y-130715086D01*
X166422681Y-130672437D01*
X169919801Y-127175318D01*
X169973989Y-127447743D01*
X170089701Y-127727095D01*
X170257688Y-127978505D01*
X170324127Y-128044944D01*
X170305820Y-128050498D01*
X170195506Y-128109463D01*
X170098815Y-128188815D01*
X170019463Y-128285506D01*
X169960498Y-128395820D01*
X169924188Y-128515518D01*
X169911928Y-128640000D01*
X169911928Y-130440000D01*
X169924188Y-130564482D01*
X169960498Y-130684180D01*
X170019463Y-130794494D01*
X170098815Y-130891185D01*
X170195506Y-130970537D01*
X170305820Y-131029502D01*
X170425518Y-131065812D01*
X170550000Y-131078072D01*
X171915001Y-131078072D01*
X171915001Y-131776553D01*
X171131595Y-132559960D01*
X170904426Y-132605147D01*
X170643273Y-132713320D01*
X170408241Y-132870363D01*
X170208363Y-133070241D01*
X170051320Y-133305273D01*
X169943147Y-133566426D01*
X169888000Y-133843665D01*
X169888000Y-134126335D01*
X169943147Y-134403574D01*
X170051320Y-134664727D01*
X170208363Y-134899759D01*
X170408241Y-135099637D01*
X170643273Y-135256680D01*
X170904426Y-135364853D01*
X171181665Y-135420000D01*
X171464335Y-135420000D01*
X171741574Y-135364853D01*
X172002727Y-135256680D01*
X172237759Y-135099637D01*
X172437637Y-134899759D01*
X172594680Y-134664727D01*
X172702853Y-134403574D01*
X172748040Y-134176405D01*
X173826525Y-133097921D01*
X173870134Y-133062132D01*
X174012969Y-132888088D01*
X174119104Y-132689522D01*
X174184462Y-132474066D01*
X174201001Y-132306145D01*
X174201001Y-132306138D01*
X174206530Y-132249999D01*
X174201001Y-132193860D01*
X174201001Y-128129737D01*
X174206530Y-128073598D01*
X174201001Y-128017459D01*
X174201001Y-128017453D01*
X174184462Y-127849532D01*
X174184031Y-127848109D01*
X174163974Y-127781993D01*
X174119104Y-127634076D01*
X174012969Y-127435510D01*
X173982796Y-127398744D01*
X173905925Y-127305076D01*
X173905919Y-127305070D01*
X173870134Y-127261466D01*
X173826529Y-127225680D01*
X172832329Y-126231482D01*
X172796535Y-126187867D01*
X172701200Y-126109627D01*
X172642312Y-126021495D01*
X172428505Y-125807688D01*
X172177095Y-125639701D01*
X171897743Y-125523989D01*
X171625318Y-125469801D01*
X174614443Y-122480676D01*
X174657086Y-122445680D01*
X174720334Y-122368612D01*
X174796746Y-122275504D01*
X174874222Y-122130555D01*
X174900523Y-122081350D01*
X174964429Y-121870682D01*
X174980600Y-121706493D01*
X174980600Y-121706491D01*
X174985001Y-121661812D01*
X174985001Y-150132711D01*
X174921904Y-150776221D01*
X174744394Y-151364164D01*
X174456063Y-151906436D01*
X174067906Y-152382364D01*
X173594686Y-152773845D01*
X173054449Y-153065950D01*
X172467756Y-153247563D01*
X171826130Y-153315000D01*
X167182800Y-153315000D01*
X167182800Y-149625098D01*
X169065000Y-149625098D01*
X169065000Y-150094902D01*
X169156654Y-150555679D01*
X169336440Y-150989721D01*
X169597450Y-151380349D01*
X169929651Y-151712550D01*
X170320279Y-151973560D01*
X170754321Y-152153346D01*
X171215098Y-152245000D01*
X171684902Y-152245000D01*
X172145679Y-152153346D01*
X172579721Y-151973560D01*
X172970349Y-151712550D01*
X173302550Y-151380349D01*
X173563560Y-150989721D01*
X173743346Y-150555679D01*
X173835000Y-150094902D01*
X173835000Y-149625098D01*
X173743346Y-149164321D01*
X173563560Y-148730279D01*
X173302550Y-148339651D01*
X172970349Y-148007450D01*
X172579721Y-147746440D01*
X172145679Y-147566654D01*
X171684902Y-147475000D01*
X171215098Y-147475000D01*
X170754321Y-147566654D01*
X170320279Y-147746440D01*
X169929651Y-148007450D01*
X169597450Y-148339651D01*
X169336440Y-148730279D01*
X169156654Y-149164321D01*
X169065000Y-149625098D01*
X167182800Y-149625098D01*
X167182800Y-142571877D01*
X167496788Y-142885865D01*
X167556444Y-142958556D01*
X167629134Y-143018211D01*
X167846518Y-143196613D01*
X168177460Y-143373506D01*
X168261037Y-143398859D01*
X168536555Y-143482436D01*
X168816418Y-143510000D01*
X168816420Y-143510000D01*
X168910000Y-143519217D01*
X169003580Y-143510000D01*
X171416582Y-143510000D01*
X171696445Y-143482436D01*
X172055539Y-143373506D01*
X172386482Y-143196613D01*
X172676556Y-142958556D01*
X172914613Y-142668482D01*
X173091506Y-142337539D01*
X173200436Y-141978445D01*
X173237217Y-141605000D01*
X173200436Y-141231555D01*
X173091506Y-140872461D01*
X172914613Y-140541518D01*
X172676556Y-140251444D01*
X172386482Y-140013387D01*
X172055539Y-139836494D01*
X171696445Y-139727564D01*
X171416582Y-139700000D01*
X169699076Y-139700000D01*
X169164000Y-139164924D01*
X169164000Y-135923418D01*
X169136436Y-135643555D01*
X169027506Y-135284461D01*
X168850613Y-134953518D01*
X168612556Y-134663444D01*
X168322482Y-134425387D01*
X167991539Y-134248494D01*
X167632445Y-134139564D01*
X167259000Y-134102783D01*
X167182800Y-134110288D01*
X167182800Y-133477000D01*
X167180360Y-133452224D01*
X167173133Y-133428399D01*
X167161397Y-133406443D01*
X167145603Y-133387197D01*
X167126357Y-133371403D01*
X167104401Y-133359667D01*
X167080576Y-133352440D01*
X167055800Y-133350000D01*
X142249118Y-133350000D01*
X145830518Y-129768600D01*
X153343899Y-129768600D01*
X153508088Y-129752429D01*
X153718756Y-129688523D01*
X153912909Y-129584746D01*
X154083086Y-129445086D01*
X154222746Y-129274909D01*
X154326523Y-129080756D01*
X154390429Y-128870088D01*
X154412007Y-128651000D01*
X154390429Y-128431912D01*
X154326523Y-128221244D01*
X154222746Y-128027091D01*
X154083086Y-127856914D01*
X153912909Y-127717254D01*
X153718756Y-127613477D01*
X153508088Y-127549571D01*
X153343899Y-127533400D01*
X145422488Y-127533400D01*
X145367592Y-127527993D01*
X145312696Y-127533400D01*
X145312694Y-127533400D01*
X145148505Y-127549571D01*
X144937837Y-127613477D01*
X144858705Y-127655774D01*
X144743683Y-127717254D01*
X144654600Y-127790363D01*
X144573507Y-127856914D01*
X144538511Y-127899557D01*
X139086045Y-133352024D01*
X139066680Y-133305273D01*
X138909637Y-133070241D01*
X138709759Y-132870363D01*
X138474727Y-132713320D01*
X138213574Y-132605147D01*
X137941565Y-132551040D01*
X136719087Y-131328563D01*
X136684086Y-131285914D01*
X136513909Y-131146254D01*
X136319756Y-131042477D01*
X136109088Y-130978571D01*
X135944899Y-130962400D01*
X135944896Y-130962400D01*
X135890000Y-130956993D01*
X135835104Y-130962400D01*
X134055340Y-130962400D01*
X134012185Y-130909815D01*
X133915494Y-130830463D01*
X133805180Y-130771498D01*
X133685482Y-130735188D01*
X133561000Y-130722928D01*
X131361000Y-130722928D01*
X131236518Y-130735188D01*
X131116820Y-130771498D01*
X131006506Y-130830463D01*
X130909815Y-130909815D01*
X130830463Y-131006506D01*
X130771498Y-131116820D01*
X130735188Y-131236518D01*
X130722928Y-131361000D01*
X130722928Y-133561000D01*
X130735188Y-133685482D01*
X130771498Y-133805180D01*
X130830463Y-133915494D01*
X130909815Y-134012185D01*
X131006506Y-134091537D01*
X131116820Y-134150502D01*
X131236518Y-134186812D01*
X131361000Y-134199072D01*
X133561000Y-134199072D01*
X133685482Y-134186812D01*
X133805180Y-134150502D01*
X133915494Y-134091537D01*
X134012185Y-134012185D01*
X134091537Y-133915494D01*
X134150502Y-133805180D01*
X134186812Y-133685482D01*
X134199072Y-133561000D01*
X134199072Y-133197600D01*
X135427076Y-133197600D01*
X136361040Y-134131565D01*
X136415147Y-134403574D01*
X136523320Y-134664727D01*
X136680363Y-134899759D01*
X136880241Y-135099637D01*
X137115273Y-135256680D01*
X137162024Y-135276045D01*
X136776669Y-135661400D01*
X117737963Y-135661400D01*
X117748000Y-135610939D01*
X117748000Y-135407061D01*
X117708226Y-135207102D01*
X117630205Y-135018744D01*
X117516937Y-134849226D01*
X117372774Y-134705063D01*
X117203256Y-134591795D01*
X117014898Y-134513774D01*
X116814939Y-134474000D01*
X116611061Y-134474000D01*
X116411102Y-134513774D01*
X116222744Y-134591795D01*
X116053226Y-134705063D01*
X115909063Y-134849226D01*
X115795795Y-135018744D01*
X115717774Y-135207102D01*
X115678000Y-135407061D01*
X115678000Y-135610939D01*
X115688037Y-135661400D01*
X106507925Y-135661400D01*
X104876600Y-134030076D01*
X104876600Y-131412967D01*
X104909812Y-131303482D01*
X104922072Y-131179000D01*
X104922072Y-129679000D01*
X104909812Y-129554518D01*
X104873502Y-129434820D01*
X104814537Y-129324506D01*
X104735185Y-129227815D01*
X104638494Y-129148463D01*
X104528180Y-129089498D01*
X104408482Y-129053188D01*
X104284000Y-129040928D01*
X104223914Y-129040928D01*
X105782243Y-127482600D01*
X108634321Y-127482600D01*
X108420426Y-127525147D01*
X108159273Y-127633320D01*
X107924241Y-127790363D01*
X107724363Y-127990241D01*
X107567320Y-128225273D01*
X107459147Y-128486426D01*
X107405040Y-128758435D01*
X106309558Y-129853918D01*
X106266915Y-129888914D01*
X106231919Y-129931557D01*
X106127254Y-130059091D01*
X106064402Y-130176680D01*
X106023478Y-130253244D01*
X105959572Y-130463912D01*
X105957604Y-130483898D01*
X105937993Y-130683000D01*
X105942109Y-130724789D01*
X105836518Y-130735188D01*
X105716820Y-130771498D01*
X105606506Y-130830463D01*
X105509815Y-130909815D01*
X105430463Y-131006506D01*
X105371498Y-131116820D01*
X105335188Y-131236518D01*
X105322928Y-131361000D01*
X105322928Y-133561000D01*
X105335188Y-133685482D01*
X105371498Y-133805180D01*
X105430463Y-133915494D01*
X105509815Y-134012185D01*
X105606506Y-134091537D01*
X105716820Y-134150502D01*
X105836518Y-134186812D01*
X105961000Y-134199072D01*
X108161000Y-134199072D01*
X108285482Y-134186812D01*
X108405180Y-134150502D01*
X108515494Y-134091537D01*
X108612185Y-134012185D01*
X108691537Y-133915494D01*
X108750502Y-133805180D01*
X108786812Y-133685482D01*
X108799072Y-133561000D01*
X108799072Y-131361000D01*
X108786812Y-131236518D01*
X108750502Y-131116820D01*
X108691537Y-131006506D01*
X108612185Y-130909815D01*
X108515494Y-130830463D01*
X108501527Y-130822997D01*
X108985565Y-130338960D01*
X109257574Y-130284853D01*
X109518727Y-130176680D01*
X109753759Y-130019637D01*
X109953637Y-129819759D01*
X110110680Y-129584727D01*
X110218853Y-129323574D01*
X110274000Y-129046335D01*
X110274000Y-128763665D01*
X110218853Y-128486426D01*
X110110680Y-128225273D01*
X109953637Y-127990241D01*
X109753759Y-127790363D01*
X109518727Y-127633320D01*
X109257574Y-127525147D01*
X109043679Y-127482600D01*
X112500675Y-127482600D01*
X112731273Y-127636680D01*
X112992426Y-127744853D01*
X113269665Y-127800000D01*
X113552335Y-127800000D01*
X113829574Y-127744853D01*
X114090727Y-127636680D01*
X114325759Y-127479637D01*
X114525637Y-127279759D01*
X114682680Y-127044727D01*
X114790853Y-126783574D01*
X114846000Y-126506335D01*
X114846000Y-126223665D01*
X114790853Y-125946426D01*
X114682680Y-125685273D01*
X114525637Y-125450241D01*
X114325759Y-125250363D01*
X114090727Y-125093320D01*
X113829574Y-124985147D01*
X113552335Y-124930000D01*
X113269665Y-124930000D01*
X112992426Y-124985147D01*
X112731273Y-125093320D01*
X112500675Y-125247400D01*
X105374213Y-125247400D01*
X105319317Y-125241993D01*
X105264421Y-125247400D01*
X105264419Y-125247400D01*
X105100230Y-125263571D01*
X104889562Y-125327477D01*
X104799185Y-125375785D01*
X104695408Y-125431254D01*
X104594929Y-125513715D01*
X104525232Y-125570914D01*
X104490236Y-125613557D01*
X101737558Y-128366236D01*
X101694915Y-128401232D01*
X101659919Y-128443875D01*
X101555254Y-128571409D01*
X101490297Y-128692937D01*
X101451478Y-128765562D01*
X101387571Y-128976230D01*
X101371963Y-129134701D01*
X101365993Y-129195318D01*
X101371400Y-129250214D01*
X101371400Y-129892159D01*
X101345785Y-129976600D01*
X101329000Y-130147021D01*
X101329000Y-130710978D01*
X101345785Y-130881399D01*
X101412115Y-131100059D01*
X101519829Y-131301578D01*
X101664788Y-131478212D01*
X101841421Y-131623171D01*
X102042940Y-131730885D01*
X102261600Y-131797215D01*
X102489000Y-131819612D01*
X102641401Y-131804602D01*
X102641400Y-134438104D01*
X102635993Y-134493000D01*
X102641400Y-134547896D01*
X102641400Y-134547898D01*
X102657571Y-134712087D01*
X102721477Y-134922755D01*
X102825254Y-135116909D01*
X102964914Y-135287086D01*
X103007563Y-135322087D01*
X105215918Y-137530443D01*
X105250914Y-137573086D01*
X105293556Y-137608081D01*
X105421090Y-137712746D01*
X105524867Y-137768215D01*
X105615244Y-137816523D01*
X105825912Y-137880429D01*
X105990101Y-137896600D01*
X105990103Y-137896600D01*
X106044999Y-137902007D01*
X106099895Y-137896600D01*
X137184698Y-137896600D01*
X137239594Y-137902007D01*
X137294490Y-137896600D01*
X137294493Y-137896600D01*
X137458682Y-137880429D01*
X137669350Y-137816523D01*
X137863503Y-137712746D01*
X138033680Y-137573086D01*
X138068681Y-137530437D01*
X139131251Y-136467867D01*
X138942697Y-141527402D01*
X130125643Y-141427208D01*
X130100840Y-141429367D01*
X130076936Y-141436323D01*
X130054847Y-141447808D01*
X130035424Y-141463383D01*
X130019412Y-141482447D01*
X130007427Y-141504269D01*
X129999930Y-141528010D01*
X129997203Y-141555120D01*
X130082420Y-153315000D01*
X112226871Y-153315000D01*
X112362691Y-153203536D01*
X112397692Y-153160887D01*
X117591443Y-147967137D01*
X117634086Y-147932141D01*
X117735960Y-147808007D01*
X117773746Y-147761965D01*
X117839732Y-147638513D01*
X117877523Y-147567811D01*
X117886410Y-147538514D01*
X117933386Y-147513405D01*
X118067962Y-147402962D01*
X118178405Y-147268386D01*
X118260472Y-147114850D01*
X118311008Y-146948254D01*
X118328072Y-146775000D01*
X118328072Y-145509990D01*
X121704466Y-145509990D01*
X123630918Y-147436443D01*
X123665914Y-147479086D01*
X123708556Y-147514081D01*
X123836090Y-147618746D01*
X123907328Y-147656823D01*
X124030244Y-147722523D01*
X124240912Y-147786429D01*
X124378333Y-147799964D01*
X124399463Y-147839494D01*
X124478815Y-147936185D01*
X124575506Y-148015537D01*
X124685820Y-148074502D01*
X124805518Y-148110812D01*
X124930000Y-148123072D01*
X126530000Y-148123072D01*
X126654482Y-148110812D01*
X126774180Y-148074502D01*
X126884494Y-148015537D01*
X126981185Y-147936185D01*
X127060537Y-147839494D01*
X127119502Y-147729180D01*
X127155812Y-147609482D01*
X127168072Y-147485000D01*
X127168072Y-145885000D01*
X127155812Y-145760518D01*
X127119502Y-145640820D01*
X127060537Y-145530506D01*
X126981185Y-145433815D01*
X126884494Y-145354463D01*
X126774180Y-145295498D01*
X126654482Y-145259188D01*
X126530000Y-145246928D01*
X124930000Y-145246928D01*
X124805518Y-145259188D01*
X124685820Y-145295498D01*
X124663144Y-145307619D01*
X122996477Y-143640953D01*
X122961476Y-143598304D01*
X122791299Y-143458644D01*
X122597146Y-143354867D01*
X122386478Y-143290961D01*
X122222289Y-143274790D01*
X122222286Y-143274790D01*
X122167390Y-143269383D01*
X122112494Y-143274790D01*
X115908593Y-143274790D01*
X115853697Y-143269383D01*
X115798801Y-143274790D01*
X115798799Y-143274790D01*
X115634610Y-143290961D01*
X115423942Y-143354867D01*
X115389071Y-143373506D01*
X115229788Y-143458644D01*
X115200799Y-143482435D01*
X115059612Y-143598304D01*
X115024616Y-143640948D01*
X114221031Y-144444532D01*
X114048890Y-144461487D01*
X113768967Y-144546401D01*
X113510987Y-144684294D01*
X113284866Y-144869866D01*
X113099294Y-145095986D01*
X112961401Y-145353966D01*
X112876487Y-145633889D01*
X112855000Y-145852050D01*
X112855000Y-146247949D01*
X112876487Y-146466110D01*
X112890889Y-146513586D01*
X109277836Y-150126640D01*
X89536256Y-150126640D01*
X86822600Y-147412986D01*
X86822600Y-147080200D01*
X87081993Y-147080200D01*
X87087400Y-147135096D01*
X87087400Y-147135098D01*
X87103571Y-147299287D01*
X87167477Y-147509955D01*
X87271254Y-147704109D01*
X87410914Y-147874286D01*
X87453563Y-147909287D01*
X89209538Y-149665263D01*
X89244534Y-149707906D01*
X89312088Y-149763346D01*
X89414710Y-149847566D01*
X89471063Y-149877687D01*
X89608864Y-149951343D01*
X89819532Y-150015249D01*
X89983721Y-150031420D01*
X89983730Y-150031420D01*
X90038619Y-150036826D01*
X90093508Y-150031420D01*
X106421284Y-150031420D01*
X106476180Y-150036827D01*
X106531076Y-150031420D01*
X106531079Y-150031420D01*
X106695268Y-150015249D01*
X106905936Y-149951343D01*
X107100089Y-149847566D01*
X107270266Y-149707906D01*
X107305267Y-149665257D01*
X109306627Y-147663898D01*
X109340000Y-147667185D01*
X109631110Y-147638513D01*
X109911033Y-147553599D01*
X110169013Y-147415706D01*
X110395134Y-147230134D01*
X110580706Y-147004014D01*
X110718599Y-146746034D01*
X110803513Y-146466111D01*
X110825000Y-146247950D01*
X110825000Y-145852051D01*
X110803513Y-145633890D01*
X110718599Y-145353967D01*
X110580706Y-145095986D01*
X110395134Y-144869866D01*
X110169014Y-144684294D01*
X109911034Y-144546401D01*
X109631111Y-144461487D01*
X109340000Y-144432815D01*
X109048890Y-144461487D01*
X108768967Y-144546401D01*
X108510987Y-144684294D01*
X108284866Y-144869866D01*
X108099294Y-145095986D01*
X108090000Y-145113374D01*
X108080706Y-145095986D01*
X107895134Y-144869866D01*
X107669014Y-144684294D01*
X107411034Y-144546401D01*
X107131111Y-144461487D01*
X106840000Y-144432815D01*
X106548890Y-144461487D01*
X106268967Y-144546401D01*
X106010987Y-144684294D01*
X105784866Y-144869866D01*
X105599294Y-145095986D01*
X105590000Y-145113374D01*
X105580706Y-145095986D01*
X105395134Y-144869866D01*
X105169014Y-144684294D01*
X104911034Y-144546401D01*
X104631111Y-144461487D01*
X104340000Y-144432815D01*
X104048890Y-144461487D01*
X103768967Y-144546401D01*
X103510987Y-144684294D01*
X103284866Y-144869866D01*
X103233546Y-144932400D01*
X91802924Y-144932400D01*
X91753170Y-144882646D01*
X91712259Y-144747780D01*
X91611509Y-144559290D01*
X91475922Y-144394078D01*
X91310710Y-144258491D01*
X91122219Y-144157741D01*
X90917696Y-144095700D01*
X90705000Y-144074751D01*
X90492303Y-144095700D01*
X90287780Y-144157741D01*
X90099290Y-144258491D01*
X90080000Y-144274322D01*
X90060710Y-144258491D01*
X89872219Y-144157741D01*
X89667696Y-144095700D01*
X89455000Y-144074751D01*
X89242303Y-144095700D01*
X89037780Y-144157741D01*
X88849290Y-144258491D01*
X88830000Y-144274322D01*
X88810710Y-144258491D01*
X88622219Y-144157741D01*
X88417696Y-144095700D01*
X88205000Y-144074751D01*
X87992303Y-144095700D01*
X87787780Y-144157741D01*
X87599290Y-144258491D01*
X87434078Y-144394078D01*
X87298491Y-144559290D01*
X87197741Y-144747781D01*
X87135700Y-144952304D01*
X87120000Y-145111707D01*
X87120000Y-145141754D01*
X87103571Y-145195912D01*
X87087400Y-145360101D01*
X87087400Y-147025304D01*
X87081993Y-147080200D01*
X86822600Y-147080200D01*
X86822600Y-145360101D01*
X86806429Y-145195912D01*
X86790000Y-145141753D01*
X86790000Y-145111706D01*
X86774300Y-144952303D01*
X86712259Y-144747780D01*
X86611509Y-144559290D01*
X86475922Y-144394078D01*
X86310710Y-144258491D01*
X86122219Y-144157741D01*
X85917696Y-144095700D01*
X85705000Y-144074751D01*
X85492303Y-144095700D01*
X85287780Y-144157741D01*
X85162395Y-144224761D01*
X85159497Y-144222382D01*
X85010283Y-144142625D01*
X84848377Y-144093512D01*
X84680000Y-144076928D01*
X84230000Y-144076928D01*
X84061623Y-144093512D01*
X83899717Y-144142625D01*
X83750503Y-144222382D01*
X83619716Y-144329716D01*
X83512382Y-144460503D01*
X83432625Y-144609717D01*
X83383512Y-144771623D01*
X83366928Y-144940000D01*
X83366928Y-145151881D01*
X83353571Y-145195913D01*
X83337400Y-145360102D01*
X83337401Y-147900091D01*
X83337400Y-147900101D01*
X83337400Y-148218869D01*
X83331993Y-148273765D01*
X83337400Y-148328661D01*
X83337400Y-148328663D01*
X83353571Y-148492852D01*
X83417477Y-148703520D01*
X83521254Y-148897674D01*
X83660914Y-149067851D01*
X83703563Y-149102852D01*
X87761603Y-153160893D01*
X87796599Y-153203536D01*
X87839241Y-153238531D01*
X87839242Y-153238532D01*
X87932418Y-153315000D01*
X76867279Y-153315000D01*
X76223779Y-153251904D01*
X75635836Y-153074394D01*
X75093564Y-152786063D01*
X74617636Y-152397906D01*
X74226155Y-151924686D01*
X73934050Y-151384449D01*
X73752437Y-150797756D01*
X73685000Y-150156130D01*
X73685000Y-149625098D01*
X75085000Y-149625098D01*
X75085000Y-150094902D01*
X75176654Y-150555679D01*
X75356440Y-150989721D01*
X75617450Y-151380349D01*
X75949651Y-151712550D01*
X76340279Y-151973560D01*
X76774321Y-152153346D01*
X77235098Y-152245000D01*
X77704902Y-152245000D01*
X78165679Y-152153346D01*
X78599721Y-151973560D01*
X78990349Y-151712550D01*
X79322550Y-151380349D01*
X79583560Y-150989721D01*
X79763346Y-150555679D01*
X79855000Y-150094902D01*
X79855000Y-149625098D01*
X79763346Y-149164321D01*
X79583560Y-148730279D01*
X79322550Y-148339651D01*
X78990349Y-148007450D01*
X78599721Y-147746440D01*
X78165679Y-147566654D01*
X77704902Y-147475000D01*
X77235098Y-147475000D01*
X76774321Y-147566654D01*
X76340279Y-147746440D01*
X75949651Y-148007450D01*
X75617450Y-148339651D01*
X75356440Y-148730279D01*
X75176654Y-149164321D01*
X75085000Y-149625098D01*
X73685000Y-149625098D01*
X73685000Y-130479081D01*
X73796443Y-130614875D01*
X73869144Y-130674539D01*
X77745464Y-134550860D01*
X77805124Y-134623556D01*
X77994637Y-134779085D01*
X78095197Y-134861613D01*
X78189465Y-134912000D01*
X78426141Y-135038506D01*
X78785235Y-135147436D01*
X79065098Y-135175000D01*
X79065099Y-135175000D01*
X79158679Y-135184217D01*
X79252259Y-135175000D01*
X80300054Y-135175000D01*
X80657244Y-135322953D01*
X81069721Y-135405000D01*
X81490279Y-135405000D01*
X81902756Y-135322953D01*
X82291302Y-135162012D01*
X82640983Y-134928363D01*
X82938363Y-134630983D01*
X83172012Y-134281302D01*
X83332953Y-133892756D01*
X83415000Y-133480279D01*
X83415000Y-133335665D01*
X88608000Y-133335665D01*
X88608000Y-133618335D01*
X88663147Y-133895574D01*
X88771320Y-134156727D01*
X88928363Y-134391759D01*
X89128241Y-134591637D01*
X89363273Y-134748680D01*
X89624426Y-134856853D01*
X89901665Y-134912000D01*
X90184335Y-134912000D01*
X90375371Y-134874000D01*
X95177891Y-134874000D01*
X95178600Y-134874215D01*
X95349021Y-134891000D01*
X95912979Y-134891000D01*
X96083400Y-134874215D01*
X96302060Y-134807885D01*
X96503579Y-134700171D01*
X96680212Y-134555212D01*
X96825171Y-134378579D01*
X96932885Y-134177060D01*
X96999215Y-133958400D01*
X97021612Y-133731000D01*
X96999215Y-133503600D01*
X96935907Y-133294902D01*
X96970502Y-133230180D01*
X97006812Y-133110482D01*
X97019072Y-132986000D01*
X97019072Y-131936000D01*
X97006812Y-131811518D01*
X96970502Y-131691820D01*
X96911537Y-131581506D01*
X96832185Y-131484815D01*
X96774000Y-131437064D01*
X96774000Y-130902445D01*
X99590523Y-128085923D01*
X99634132Y-128050134D01*
X99776967Y-127876090D01*
X99883102Y-127677524D01*
X99942232Y-127482600D01*
X99948460Y-127462069D01*
X99954697Y-127398744D01*
X99964999Y-127294147D01*
X99964999Y-127294141D01*
X99970528Y-127238002D01*
X99964999Y-127181863D01*
X99964999Y-124580509D01*
X100188665Y-124625000D01*
X100471335Y-124625000D01*
X100748574Y-124569853D01*
X101009727Y-124461680D01*
X101244759Y-124304637D01*
X101444637Y-124104759D01*
X101601680Y-123869727D01*
X101709853Y-123608574D01*
X101765000Y-123331335D01*
X101765000Y-123048665D01*
X101709853Y-122771426D01*
X101601680Y-122510273D01*
X101473000Y-122317689D01*
X101473000Y-121749043D01*
X104021928Y-119200117D01*
X104021928Y-119270000D01*
X104034188Y-119394482D01*
X104070498Y-119514180D01*
X104129463Y-119624494D01*
X104208815Y-119721185D01*
X104305506Y-119800537D01*
X104415820Y-119859502D01*
X104535518Y-119895812D01*
X104660000Y-119908072D01*
X106160000Y-119908072D01*
X106284482Y-119895812D01*
X106404180Y-119859502D01*
X106514494Y-119800537D01*
X106611185Y-119721185D01*
X106690537Y-119624494D01*
X106749502Y-119514180D01*
X106785812Y-119394482D01*
X106798072Y-119270000D01*
X106798072Y-118220000D01*
X106785812Y-118095518D01*
X106749502Y-117975820D01*
X106714907Y-117911098D01*
X106778215Y-117702400D01*
X106800612Y-117475000D01*
X106778215Y-117247600D01*
X106711885Y-117028940D01*
X106604171Y-116827421D01*
X106459212Y-116650788D01*
X106282579Y-116505829D01*
X106081060Y-116398115D01*
X105862400Y-116331785D01*
X105691979Y-116315000D01*
X105128021Y-116315000D01*
X104957600Y-116331785D01*
X104956891Y-116332000D01*
X104186736Y-116332000D01*
X104130597Y-116326471D01*
X104074458Y-116332000D01*
X104074452Y-116332000D01*
X103943255Y-116344922D01*
X103906530Y-116348539D01*
X103841172Y-116368365D01*
X103691075Y-116413897D01*
X103492509Y-116520032D01*
X103492507Y-116520033D01*
X103492508Y-116520033D01*
X103362075Y-116627076D01*
X103362069Y-116627082D01*
X103318465Y-116662867D01*
X103282679Y-116706472D01*
X99964999Y-120024154D01*
X99964999Y-118249407D01*
X100113574Y-118219853D01*
X100374727Y-118111680D01*
X100609759Y-117954637D01*
X100809637Y-117754759D01*
X100966680Y-117519727D01*
X101074853Y-117258574D01*
X101130000Y-116981335D01*
X101130000Y-116698665D01*
X101074853Y-116421426D01*
X100966680Y-116160273D01*
X100809637Y-115925241D01*
X100609759Y-115725363D01*
X100374727Y-115568320D01*
X100113574Y-115460147D01*
X99836335Y-115405000D01*
X99553665Y-115405000D01*
X99276426Y-115460147D01*
X99015273Y-115568320D01*
X98780241Y-115725363D01*
X98580363Y-115925241D01*
X98423320Y-116160273D01*
X98315147Y-116421426D01*
X98269960Y-116648595D01*
X98053477Y-116865078D01*
X98009867Y-116900868D01*
X97867032Y-117074912D01*
X97771195Y-117254212D01*
X97760897Y-117273478D01*
X97695538Y-117488934D01*
X97673470Y-117713001D01*
X97679000Y-117769150D01*
X97678999Y-126764555D01*
X94862478Y-129581077D01*
X94818868Y-129616867D01*
X94676033Y-129790911D01*
X94600857Y-129931557D01*
X94569898Y-129989477D01*
X94504539Y-130204933D01*
X94482471Y-130429000D01*
X94488001Y-130485148D01*
X94488001Y-131437064D01*
X94429815Y-131484815D01*
X94350463Y-131581506D01*
X94291498Y-131691820D01*
X94255188Y-131811518D01*
X94242928Y-131936000D01*
X94242928Y-132588000D01*
X91174849Y-132588000D01*
X91157637Y-132562241D01*
X90957759Y-132362363D01*
X90722727Y-132205320D01*
X90461574Y-132097147D01*
X90184335Y-132042000D01*
X89901665Y-132042000D01*
X89624426Y-132097147D01*
X89363273Y-132205320D01*
X89128241Y-132362363D01*
X88928363Y-132562241D01*
X88771320Y-132797273D01*
X88663147Y-133058426D01*
X88608000Y-133335665D01*
X83415000Y-133335665D01*
X83415000Y-133059721D01*
X83332953Y-132647244D01*
X83172012Y-132258698D01*
X82938363Y-131909017D01*
X82640983Y-131611637D01*
X82291302Y-131377988D01*
X81902756Y-131217047D01*
X81490279Y-131135000D01*
X81069721Y-131135000D01*
X80657244Y-131217047D01*
X80300054Y-131365000D01*
X79947756Y-131365000D01*
X77054999Y-128472244D01*
X77054999Y-126770000D01*
X79141928Y-126770000D01*
X79141928Y-129770000D01*
X79154188Y-129894482D01*
X79190498Y-130014180D01*
X79249463Y-130124494D01*
X79328815Y-130221185D01*
X79425506Y-130300537D01*
X79535820Y-130359502D01*
X79655518Y-130395812D01*
X79780000Y-130408072D01*
X82780000Y-130408072D01*
X82904482Y-130395812D01*
X83024180Y-130359502D01*
X83134494Y-130300537D01*
X83231185Y-130221185D01*
X83310537Y-130124494D01*
X83369502Y-130014180D01*
X83405812Y-129894482D01*
X83418072Y-129770000D01*
X83418072Y-126770000D01*
X83405812Y-126645518D01*
X83369502Y-126525820D01*
X83310537Y-126415506D01*
X83231185Y-126318815D01*
X83134494Y-126239463D01*
X83024180Y-126180498D01*
X82904482Y-126144188D01*
X82780000Y-126131928D01*
X79780000Y-126131928D01*
X79655518Y-126144188D01*
X79535820Y-126180498D01*
X79425506Y-126239463D01*
X79328815Y-126318815D01*
X79249463Y-126415506D01*
X79190498Y-126525820D01*
X79154188Y-126645518D01*
X79141928Y-126770000D01*
X77054999Y-126770000D01*
X77054999Y-120868072D01*
X78320000Y-120868072D01*
X78444482Y-120855812D01*
X78564180Y-120819502D01*
X78674494Y-120760537D01*
X78771185Y-120681185D01*
X78850537Y-120584494D01*
X78883407Y-120523000D01*
X87091306Y-120523000D01*
X87060506Y-120539463D01*
X86963815Y-120618815D01*
X86884463Y-120715506D01*
X86825498Y-120825820D01*
X86789188Y-120945518D01*
X86776928Y-121070000D01*
X86776928Y-122770000D01*
X86789188Y-122894482D01*
X86825498Y-123014180D01*
X86884463Y-123124494D01*
X86963815Y-123221185D01*
X87060506Y-123300537D01*
X87170820Y-123359502D01*
X87290518Y-123395812D01*
X87415000Y-123408072D01*
X88172548Y-123408072D01*
X88925401Y-124160926D01*
X88925400Y-124946675D01*
X88771320Y-125177273D01*
X88663147Y-125438426D01*
X88608000Y-125715665D01*
X88608000Y-125998335D01*
X88663147Y-126275574D01*
X88771320Y-126536727D01*
X88928363Y-126771759D01*
X89128241Y-126971637D01*
X89363273Y-127128680D01*
X89624426Y-127236853D01*
X89901665Y-127292000D01*
X90184335Y-127292000D01*
X90461574Y-127236853D01*
X90722727Y-127128680D01*
X90957759Y-126971637D01*
X91157637Y-126771759D01*
X91314680Y-126536727D01*
X91422853Y-126275574D01*
X91478000Y-125998335D01*
X91478000Y-125715665D01*
X91422853Y-125438426D01*
X91314680Y-125177273D01*
X91160600Y-124946675D01*
X91160600Y-123752896D01*
X91166007Y-123698000D01*
X91160600Y-123643101D01*
X91144429Y-123478912D01*
X91080523Y-123268244D01*
X91068711Y-123246145D01*
X90976746Y-123074090D01*
X90872082Y-122946557D01*
X90837086Y-122903914D01*
X90794443Y-122868918D01*
X89753072Y-121827548D01*
X89753072Y-121070000D01*
X89740812Y-120945518D01*
X89704502Y-120825820D01*
X89645537Y-120715506D01*
X89566185Y-120618815D01*
X89469494Y-120539463D01*
X89359180Y-120480498D01*
X89286620Y-120458487D01*
X89418475Y-120326632D01*
X89580990Y-120083411D01*
X89692932Y-119813158D01*
X89750000Y-119526260D01*
X89750000Y-119233740D01*
X89692932Y-118946842D01*
X89580990Y-118676589D01*
X89418475Y-118433368D01*
X89211632Y-118226525D01*
X89037240Y-118110000D01*
X89211632Y-117993475D01*
X89222107Y-117983000D01*
X91202689Y-117983000D01*
X91395273Y-118111680D01*
X91656426Y-118219853D01*
X91933665Y-118275000D01*
X92216335Y-118275000D01*
X92493574Y-118219853D01*
X92754727Y-118111680D01*
X92989759Y-117954637D01*
X93189637Y-117754759D01*
X93346680Y-117519727D01*
X93454853Y-117258574D01*
X93475625Y-117154149D01*
X94767400Y-118445925D01*
X94767401Y-122072400D01*
X93620325Y-122072400D01*
X93389727Y-121918320D01*
X93128574Y-121810147D01*
X92851335Y-121755000D01*
X92568665Y-121755000D01*
X92291426Y-121810147D01*
X92030273Y-121918320D01*
X91795241Y-122075363D01*
X91595363Y-122275241D01*
X91438320Y-122510273D01*
X91330147Y-122771426D01*
X91275000Y-123048665D01*
X91275000Y-123331335D01*
X91330147Y-123608574D01*
X91438320Y-123869727D01*
X91595363Y-124104759D01*
X91795241Y-124304637D01*
X92030273Y-124461680D01*
X92291426Y-124569853D01*
X92568665Y-124625000D01*
X92851335Y-124625000D01*
X93128574Y-124569853D01*
X93389727Y-124461680D01*
X93620325Y-124307600D01*
X95195104Y-124307600D01*
X95250000Y-124313007D01*
X95304896Y-124307600D01*
X95304899Y-124307600D01*
X95469088Y-124291429D01*
X95679756Y-124227523D01*
X95873909Y-124123746D01*
X96044086Y-123984086D01*
X96079087Y-123941437D01*
X96636437Y-123384087D01*
X96679086Y-123349086D01*
X96784051Y-123221185D01*
X96818746Y-123178910D01*
X96922523Y-122984756D01*
X96928951Y-122963565D01*
X96986429Y-122774088D01*
X97002600Y-122609899D01*
X97002600Y-122609896D01*
X97008007Y-122555000D01*
X97002600Y-122500104D01*
X97002600Y-118037895D01*
X97008007Y-117982999D01*
X97002600Y-117928101D01*
X96986429Y-117763912D01*
X96922523Y-117553244D01*
X96849715Y-117417029D01*
X96818746Y-117359090D01*
X96714081Y-117231556D01*
X96679086Y-117188914D01*
X96636443Y-117153918D01*
X94038486Y-114555962D01*
X94003485Y-114513313D01*
X93833308Y-114373653D01*
X93639155Y-114269876D01*
X93428487Y-114205970D01*
X93264298Y-114189799D01*
X93264295Y-114189799D01*
X93209399Y-114184392D01*
X93154503Y-114189799D01*
X86042497Y-114189799D01*
X85987601Y-114184392D01*
X85932705Y-114189799D01*
X85932702Y-114189799D01*
X85768513Y-114205970D01*
X85593949Y-114258924D01*
X85557845Y-114269876D01*
X85363691Y-114373653D01*
X85256146Y-114461913D01*
X85237673Y-114477074D01*
X85135990Y-114231589D01*
X84973475Y-113988368D01*
X84766632Y-113781525D01*
X84592240Y-113665000D01*
X84766632Y-113548475D01*
X84777107Y-113538000D01*
X89278263Y-113538000D01*
X89334402Y-113543529D01*
X89390541Y-113538000D01*
X89390548Y-113538000D01*
X89558469Y-113521461D01*
X89773925Y-113456103D01*
X89972491Y-113349968D01*
X90146535Y-113207133D01*
X90182329Y-113163518D01*
X90721837Y-112624010D01*
X90803320Y-112820727D01*
X90960363Y-113055759D01*
X91160241Y-113255637D01*
X91395273Y-113412680D01*
X91656426Y-113520853D01*
X91933665Y-113576000D01*
X92216335Y-113576000D01*
X92493574Y-113520853D01*
X92754727Y-113412680D01*
X92989759Y-113255637D01*
X93189637Y-113055759D01*
X93346680Y-112820727D01*
X93454853Y-112559574D01*
X93500040Y-112332405D01*
X93832780Y-111999665D01*
X98260000Y-111999665D01*
X98260000Y-112282335D01*
X98315147Y-112559574D01*
X98423320Y-112820727D01*
X98580363Y-113055759D01*
X98780241Y-113255637D01*
X99015273Y-113412680D01*
X99276426Y-113520853D01*
X99553665Y-113576000D01*
X99836335Y-113576000D01*
X100113574Y-113520853D01*
X100374727Y-113412680D01*
X100609759Y-113255637D01*
X100809637Y-113055759D01*
X100966680Y-112820727D01*
X101074853Y-112559574D01*
X101130000Y-112282335D01*
X101130000Y-111999665D01*
X101074853Y-111722426D01*
X100966680Y-111461273D01*
X100809637Y-111226241D01*
X100609759Y-111026363D01*
X100374727Y-110869320D01*
X100113574Y-110761147D01*
X99836335Y-110706000D01*
X99553665Y-110706000D01*
X99276426Y-110761147D01*
X99015273Y-110869320D01*
X98780241Y-111026363D01*
X98580363Y-111226241D01*
X98423320Y-111461273D01*
X98315147Y-111722426D01*
X98260000Y-111999665D01*
X93832780Y-111999665D01*
X94351525Y-111480921D01*
X94395134Y-111445132D01*
X94537969Y-111271088D01*
X94644104Y-111072522D01*
X94697937Y-110895059D01*
X94709462Y-110857067D01*
X94720598Y-110744000D01*
X94726001Y-110689145D01*
X94726001Y-110689139D01*
X94731530Y-110633000D01*
X94726001Y-110576861D01*
X94726001Y-107935665D01*
X98260000Y-107935665D01*
X98260000Y-108218335D01*
X98315147Y-108495574D01*
X98423320Y-108756727D01*
X98580363Y-108991759D01*
X98780241Y-109191637D01*
X99015273Y-109348680D01*
X99276426Y-109456853D01*
X99553665Y-109512000D01*
X99836335Y-109512000D01*
X100113574Y-109456853D01*
X100374727Y-109348680D01*
X100609759Y-109191637D01*
X100809637Y-108991759D01*
X100966680Y-108756727D01*
X101074853Y-108495574D01*
X101130000Y-108218335D01*
X101130000Y-107935665D01*
X101074853Y-107658426D01*
X100966680Y-107397273D01*
X100809637Y-107162241D01*
X100609759Y-106962363D01*
X100374727Y-106805320D01*
X100113574Y-106697147D01*
X99836335Y-106642000D01*
X99553665Y-106642000D01*
X99276426Y-106697147D01*
X99015273Y-106805320D01*
X98780241Y-106962363D01*
X98580363Y-107162241D01*
X98423320Y-107397273D01*
X98315147Y-107658426D01*
X98260000Y-107935665D01*
X94726001Y-107935665D01*
X94726001Y-103799140D01*
X94731530Y-103743001D01*
X94726001Y-103686862D01*
X94726001Y-103686855D01*
X94709462Y-103518934D01*
X94644104Y-103303478D01*
X94537969Y-103104912D01*
X94395134Y-102930868D01*
X94351524Y-102895078D01*
X92520249Y-101063804D01*
X92754727Y-100966680D01*
X92989759Y-100809637D01*
X93189637Y-100609759D01*
X93346680Y-100374727D01*
X93454853Y-100113574D01*
X93510000Y-99836335D01*
X93510000Y-99553665D01*
X93454853Y-99276426D01*
X93346680Y-99015273D01*
X93189637Y-98780241D01*
X92989759Y-98580363D01*
X92754727Y-98423320D01*
X92493574Y-98315147D01*
X92216335Y-98260000D01*
X91933665Y-98260000D01*
X91656426Y-98315147D01*
X91395273Y-98423320D01*
X91202689Y-98552000D01*
X89222107Y-98552000D01*
X89211632Y-98541525D01*
X89037240Y-98425000D01*
X89211632Y-98308475D01*
X89418475Y-98101632D01*
X89580990Y-97858411D01*
X89692932Y-97588158D01*
X89750000Y-97301260D01*
X89750000Y-97008740D01*
X89692932Y-96721842D01*
X89580990Y-96451589D01*
X89418475Y-96208368D01*
X89286620Y-96076513D01*
X89359180Y-96054502D01*
X89469494Y-95995537D01*
X89566185Y-95916185D01*
X89645537Y-95819494D01*
X89697656Y-95721987D01*
X89754088Y-95716429D01*
X89964756Y-95652523D01*
X90158909Y-95548746D01*
X90329086Y-95409086D01*
X90364087Y-95366437D01*
X92221565Y-93508960D01*
X92493574Y-93454853D01*
X92754727Y-93346680D01*
X92989759Y-93189637D01*
X93189637Y-92989759D01*
X93346680Y-92754727D01*
X93353547Y-92738150D01*
X97043999Y-96428603D01*
X97044000Y-100416851D01*
X97038470Y-100472999D01*
X97060538Y-100697066D01*
X97121597Y-100898348D01*
X97125897Y-100912522D01*
X97232032Y-101111088D01*
X97288587Y-101180000D01*
X97319441Y-101217595D01*
X97374867Y-101285132D01*
X97418477Y-101320922D01*
X98069073Y-101971518D01*
X98104868Y-102015134D01*
X98278912Y-102157969D01*
X98387481Y-102216000D01*
X98477477Y-102264104D01*
X98692933Y-102329462D01*
X98713518Y-102331489D01*
X98860855Y-102346001D01*
X98860862Y-102346001D01*
X98917001Y-102351530D01*
X98973140Y-102346001D01*
X100725018Y-102346001D01*
X100781157Y-102351530D01*
X100837296Y-102346001D01*
X100837303Y-102346001D01*
X101005224Y-102329462D01*
X101153719Y-102284417D01*
X101153718Y-103450103D01*
X101148311Y-103505000D01*
X101153718Y-103559896D01*
X101153718Y-103559898D01*
X101169889Y-103724087D01*
X101233795Y-103934755D01*
X101337572Y-104128909D01*
X101477232Y-104299086D01*
X101519880Y-104334087D01*
X102712236Y-105526442D01*
X102747232Y-105569086D01*
X102789874Y-105604081D01*
X102917408Y-105708746D01*
X103021185Y-105764215D01*
X103111562Y-105812523D01*
X103322230Y-105876429D01*
X103486419Y-105892600D01*
X103486421Y-105892600D01*
X103541317Y-105898007D01*
X103596213Y-105892600D01*
X104238159Y-105892600D01*
X104322600Y-105918215D01*
X104493021Y-105935000D01*
X105056979Y-105935000D01*
X105227400Y-105918215D01*
X105446060Y-105851885D01*
X105647579Y-105744171D01*
X105824212Y-105599212D01*
X105969171Y-105422579D01*
X106076885Y-105221060D01*
X106143215Y-105002400D01*
X106165612Y-104775000D01*
X106143215Y-104547600D01*
X106079907Y-104338902D01*
X106114502Y-104274180D01*
X106150812Y-104154482D01*
X106163072Y-104030000D01*
X106163072Y-102980000D01*
X106150812Y-102855518D01*
X106114502Y-102735820D01*
X106055537Y-102625506D01*
X105976185Y-102528815D01*
X105879494Y-102449463D01*
X105769180Y-102390498D01*
X105649482Y-102354188D01*
X105525000Y-102341928D01*
X104025000Y-102341928D01*
X103900518Y-102354188D01*
X103780820Y-102390498D01*
X103670506Y-102449463D01*
X103573815Y-102528815D01*
X103494463Y-102625506D01*
X103435498Y-102735820D01*
X103399188Y-102855518D01*
X103388918Y-102959795D01*
X103388918Y-101899606D01*
X103941215Y-101347310D01*
X104125665Y-101384000D01*
X104408335Y-101384000D01*
X104685574Y-101328853D01*
X104946727Y-101220680D01*
X105181759Y-101063637D01*
X105381637Y-100863759D01*
X105538680Y-100628727D01*
X105646853Y-100367574D01*
X105702000Y-100090335D01*
X105702000Y-99807665D01*
X105646853Y-99530426D01*
X105538680Y-99269273D01*
X105381637Y-99034241D01*
X105181759Y-98834363D01*
X104946727Y-98677320D01*
X104930150Y-98670454D01*
X108096604Y-95504000D01*
X109798861Y-95504000D01*
X109855000Y-95509529D01*
X109911139Y-95504000D01*
X109911146Y-95504000D01*
X110079067Y-95487461D01*
X110294523Y-95422103D01*
X110493089Y-95315968D01*
X110667133Y-95173133D01*
X110702927Y-95129518D01*
X113925524Y-91906922D01*
X113969133Y-91871133D01*
X114035645Y-91790089D01*
X114111967Y-91697090D01*
X114111968Y-91697089D01*
X114218103Y-91498523D01*
X114271203Y-91323475D01*
X114283461Y-91283068D01*
X114296370Y-91152000D01*
X114300000Y-91115146D01*
X114300000Y-91115140D01*
X114305529Y-91059001D01*
X114300000Y-91002862D01*
X114300000Y-87867311D01*
X114428680Y-87674727D01*
X114536853Y-87413574D01*
X114592000Y-87136335D01*
X114592000Y-86853665D01*
X114536853Y-86576426D01*
X114428680Y-86315273D01*
X114271637Y-86080241D01*
X114071759Y-85880363D01*
X113836727Y-85723320D01*
X113575574Y-85615147D01*
X113298335Y-85560000D01*
X113015665Y-85560000D01*
X112738426Y-85615147D01*
X112477273Y-85723320D01*
X112242241Y-85880363D01*
X112042363Y-86080241D01*
X111885320Y-86315273D01*
X111777147Y-86576426D01*
X111722000Y-86853665D01*
X111722000Y-87136335D01*
X111777147Y-87413574D01*
X111885320Y-87674727D01*
X112014001Y-87867312D01*
X112014000Y-90585554D01*
X109381555Y-93218000D01*
X107679297Y-93218000D01*
X107623158Y-93212471D01*
X107567019Y-93218000D01*
X107567012Y-93218000D01*
X107419675Y-93232512D01*
X107399090Y-93234539D01*
X107183634Y-93299897D01*
X107114469Y-93336867D01*
X106985069Y-93406032D01*
X106811025Y-93548867D01*
X106775235Y-93592477D01*
X101077580Y-99290133D01*
X101074853Y-99276426D01*
X100966680Y-99015273D01*
X100838000Y-98822689D01*
X100838000Y-94671139D01*
X100843529Y-94615000D01*
X100838000Y-94558861D01*
X100838000Y-94558854D01*
X100822214Y-94398574D01*
X100821461Y-94390932D01*
X100784768Y-94269974D01*
X100756103Y-94175477D01*
X100649968Y-93976911D01*
X100507133Y-93802867D01*
X100463523Y-93767077D01*
X100140250Y-93443804D01*
X100374727Y-93346680D01*
X100609759Y-93189637D01*
X100809637Y-92989759D01*
X100966680Y-92754727D01*
X101074853Y-92493574D01*
X101130000Y-92216335D01*
X101130000Y-92187665D01*
X102832000Y-92187665D01*
X102832000Y-92470335D01*
X102887147Y-92747574D01*
X102995320Y-93008727D01*
X103152363Y-93243759D01*
X103352241Y-93443637D01*
X103587273Y-93600680D01*
X103848426Y-93708853D01*
X104125665Y-93764000D01*
X104408335Y-93764000D01*
X104685574Y-93708853D01*
X104946727Y-93600680D01*
X105181759Y-93443637D01*
X105381637Y-93243759D01*
X105538680Y-93008727D01*
X105646853Y-92747574D01*
X105702000Y-92470335D01*
X105702000Y-92187665D01*
X105646853Y-91910426D01*
X105538680Y-91649273D01*
X105381637Y-91414241D01*
X105181759Y-91214363D01*
X104946727Y-91057320D01*
X104685574Y-90949147D01*
X104408335Y-90894000D01*
X104125665Y-90894000D01*
X103848426Y-90949147D01*
X103587273Y-91057320D01*
X103352241Y-91214363D01*
X103152363Y-91414241D01*
X102995320Y-91649273D01*
X102887147Y-91910426D01*
X102832000Y-92187665D01*
X101130000Y-92187665D01*
X101130000Y-91933665D01*
X101074853Y-91656426D01*
X100966680Y-91395273D01*
X100809637Y-91160241D01*
X100609759Y-90960363D01*
X100374727Y-90803320D01*
X100113574Y-90695147D01*
X99886406Y-90649960D01*
X96344111Y-87107665D01*
X97752000Y-87107665D01*
X97752000Y-87390335D01*
X97807147Y-87667574D01*
X97915320Y-87928727D01*
X98072363Y-88163759D01*
X98272241Y-88363637D01*
X98507273Y-88520680D01*
X98768426Y-88628853D01*
X99045665Y-88684000D01*
X99328335Y-88684000D01*
X99605574Y-88628853D01*
X99866727Y-88520680D01*
X100101759Y-88363637D01*
X100301637Y-88163759D01*
X100458680Y-87928727D01*
X100566853Y-87667574D01*
X100622000Y-87390335D01*
X100622000Y-87107665D01*
X100566853Y-86830426D01*
X100458680Y-86569273D01*
X100301637Y-86334241D01*
X100101759Y-86134363D01*
X99866727Y-85977320D01*
X99605574Y-85869147D01*
X99328335Y-85814000D01*
X99045665Y-85814000D01*
X98768426Y-85869147D01*
X98507273Y-85977320D01*
X98272241Y-86134363D01*
X98072363Y-86334241D01*
X97915320Y-86569273D01*
X97807147Y-86830426D01*
X97752000Y-87107665D01*
X96344111Y-87107665D01*
X96012000Y-86775555D01*
X96012000Y-83130108D01*
X96012215Y-83129399D01*
X96029000Y-82958978D01*
X96029000Y-82395021D01*
X96012215Y-82224600D01*
X95945885Y-82005940D01*
X95838171Y-81804421D01*
X95803349Y-81761990D01*
X98989146Y-81761990D01*
X99157067Y-81745451D01*
X99372523Y-81680093D01*
X99571089Y-81573958D01*
X99745133Y-81431123D01*
X99887968Y-81257079D01*
X99994103Y-81058513D01*
X100059461Y-80843057D01*
X100081530Y-80618990D01*
X100059461Y-80394923D01*
X100014893Y-80248001D01*
X106766860Y-80248001D01*
X106822999Y-80253530D01*
X106879138Y-80248001D01*
X106879145Y-80248001D01*
X107047066Y-80231462D01*
X107262522Y-80166104D01*
X107461088Y-80059969D01*
X107635132Y-79917134D01*
X107670926Y-79873519D01*
X109030405Y-78514040D01*
X109257574Y-78468853D01*
X109518727Y-78360680D01*
X109753759Y-78203637D01*
X109953637Y-78003759D01*
X110110680Y-77768727D01*
X110218853Y-77507574D01*
X110274000Y-77230335D01*
X110274000Y-76947665D01*
X110218853Y-76670426D01*
X110110680Y-76409273D01*
X109953637Y-76174241D01*
X109753759Y-75974363D01*
X109518727Y-75817320D01*
X109257574Y-75709147D01*
X108980335Y-75654000D01*
X108697665Y-75654000D01*
X108420426Y-75709147D01*
X108159273Y-75817320D01*
X107924241Y-75974363D01*
X107724363Y-76174241D01*
X107567320Y-76409273D01*
X107459147Y-76670426D01*
X107413960Y-76897595D01*
X106349554Y-77962001D01*
X103117509Y-77962001D01*
X103162000Y-77738335D01*
X103162000Y-77721129D01*
X103168746Y-77712909D01*
X103272523Y-77518756D01*
X103336429Y-77308088D01*
X103352600Y-77143899D01*
X103352600Y-77143890D01*
X103358006Y-77089001D01*
X103352600Y-77034112D01*
X103352600Y-71809896D01*
X103358007Y-71755000D01*
X103344225Y-71615072D01*
X103336429Y-71535912D01*
X103272523Y-71325244D01*
X103262053Y-71305656D01*
X103168746Y-71131090D01*
X103094385Y-71040482D01*
X103032231Y-70964747D01*
X102990509Y-70754999D01*
X107045484Y-70754999D01*
X111944011Y-75653527D01*
X111944012Y-78466870D01*
X106149970Y-84260913D01*
X106107321Y-84295914D01*
X105967661Y-84466091D01*
X105863884Y-84660245D01*
X105799978Y-84870913D01*
X105788789Y-84984523D01*
X105778400Y-85090000D01*
X105783807Y-85144897D01*
X105783808Y-86242796D01*
X105692363Y-86334241D01*
X105535320Y-86569273D01*
X105427147Y-86830426D01*
X105372000Y-87107665D01*
X105372000Y-87390335D01*
X105427147Y-87667574D01*
X105535320Y-87928727D01*
X105692363Y-88163759D01*
X105892241Y-88363637D01*
X106127273Y-88520680D01*
X106388426Y-88628853D01*
X106665665Y-88684000D01*
X106948335Y-88684000D01*
X107225574Y-88628853D01*
X107486727Y-88520680D01*
X107721759Y-88363637D01*
X107921637Y-88163759D01*
X108078680Y-87928727D01*
X108186853Y-87667574D01*
X108242000Y-87390335D01*
X108242000Y-87107665D01*
X108186853Y-86830426D01*
X108078680Y-86569273D01*
X108019007Y-86479966D01*
X108019007Y-85552924D01*
X113813054Y-79758878D01*
X113855697Y-79723882D01*
X113912896Y-79654185D01*
X113995357Y-79553706D01*
X114075696Y-79403401D01*
X114099134Y-79359552D01*
X114163040Y-79148884D01*
X114179211Y-78984695D01*
X114179211Y-78984693D01*
X114184618Y-78929797D01*
X114179211Y-78874901D01*
X114179211Y-75245498D01*
X114184618Y-75190602D01*
X114178204Y-75125477D01*
X114163040Y-74971514D01*
X114099134Y-74760846D01*
X114018523Y-74610033D01*
X113995357Y-74566692D01*
X113890692Y-74439158D01*
X113855697Y-74396516D01*
X113813054Y-74361520D01*
X111333534Y-71882000D01*
X119609818Y-71882000D01*
X119703398Y-71891217D01*
X119796978Y-71882000D01*
X119796980Y-71882000D01*
X120076843Y-71854436D01*
X120435937Y-71745506D01*
X120591434Y-71662391D01*
X120648320Y-71799727D01*
X120802401Y-72030326D01*
X120802400Y-73832075D01*
X118663076Y-75971400D01*
X117369325Y-75971400D01*
X117138727Y-75817320D01*
X116877574Y-75709147D01*
X116600335Y-75654000D01*
X116317665Y-75654000D01*
X116040426Y-75709147D01*
X115779273Y-75817320D01*
X115544241Y-75974363D01*
X115344363Y-76174241D01*
X115187320Y-76409273D01*
X115079147Y-76670426D01*
X115024000Y-76947665D01*
X115024000Y-77230335D01*
X115079147Y-77507574D01*
X115187320Y-77768727D01*
X115341400Y-77999325D01*
X115341401Y-128950073D01*
X113568547Y-130722928D01*
X112311000Y-130722928D01*
X112186518Y-130735188D01*
X112066820Y-130771498D01*
X111956506Y-130830463D01*
X111859815Y-130909815D01*
X111780463Y-131006506D01*
X111721498Y-131116820D01*
X111685188Y-131236518D01*
X111672928Y-131361000D01*
X111672928Y-133561000D01*
X111685188Y-133685482D01*
X111721498Y-133805180D01*
X111780463Y-133915494D01*
X111859815Y-134012185D01*
X111956506Y-134091537D01*
X112066820Y-134150502D01*
X112186518Y-134186812D01*
X112311000Y-134199072D01*
X114511000Y-134199072D01*
X114635482Y-134186812D01*
X114755180Y-134150502D01*
X114865494Y-134091537D01*
X114962185Y-134012185D01*
X115041537Y-133915494D01*
X115100502Y-133805180D01*
X115136812Y-133685482D01*
X115149072Y-133561000D01*
X115149072Y-132303453D01*
X117119400Y-130333126D01*
X117119400Y-130882104D01*
X117113993Y-130937000D01*
X117119400Y-130991896D01*
X117119400Y-130991898D01*
X117135571Y-131156087D01*
X117199477Y-131366755D01*
X117303254Y-131560909D01*
X117442914Y-131731086D01*
X117485563Y-131766087D01*
X118022928Y-132303452D01*
X118022928Y-133561000D01*
X118035188Y-133685482D01*
X118071498Y-133805180D01*
X118130463Y-133915494D01*
X118209815Y-134012185D01*
X118306506Y-134091537D01*
X118416820Y-134150502D01*
X118536518Y-134186812D01*
X118661000Y-134199072D01*
X120861000Y-134199072D01*
X120985482Y-134186812D01*
X121105180Y-134150502D01*
X121215494Y-134091537D01*
X121312185Y-134012185D01*
X121391537Y-133915494D01*
X121450502Y-133805180D01*
X121486812Y-133685482D01*
X121499072Y-133561000D01*
X121499072Y-131361000D01*
X124372928Y-131361000D01*
X124372928Y-133561000D01*
X124385188Y-133685482D01*
X124421498Y-133805180D01*
X124480463Y-133915494D01*
X124559815Y-134012185D01*
X124656506Y-134091537D01*
X124766820Y-134150502D01*
X124886518Y-134186812D01*
X125011000Y-134199072D01*
X127211000Y-134199072D01*
X127335482Y-134186812D01*
X127455180Y-134150502D01*
X127565494Y-134091537D01*
X127662185Y-134012185D01*
X127741537Y-133915494D01*
X127800502Y-133805180D01*
X127836812Y-133685482D01*
X127849072Y-133561000D01*
X127849072Y-131361000D01*
X127836812Y-131236518D01*
X127800502Y-131116820D01*
X127741537Y-131006506D01*
X127662185Y-130909815D01*
X127565494Y-130830463D01*
X127455180Y-130771498D01*
X127335482Y-130735188D01*
X127228600Y-130724661D01*
X127228600Y-127834101D01*
X127212429Y-127669912D01*
X127148523Y-127459244D01*
X127044746Y-127265091D01*
X126905086Y-127094914D01*
X126734909Y-126955254D01*
X126540756Y-126851477D01*
X126330088Y-126787571D01*
X126111000Y-126765993D01*
X125891913Y-126787571D01*
X125681245Y-126851477D01*
X125487092Y-126955254D01*
X125316915Y-127094914D01*
X125177255Y-127265091D01*
X125073478Y-127459244D01*
X125009572Y-127669912D01*
X124993401Y-127834101D01*
X124993400Y-130724661D01*
X124886518Y-130735188D01*
X124766820Y-130771498D01*
X124656506Y-130830463D01*
X124559815Y-130909815D01*
X124480463Y-131006506D01*
X124421498Y-131116820D01*
X124385188Y-131236518D01*
X124372928Y-131361000D01*
X121499072Y-131361000D01*
X121486812Y-131236518D01*
X121450502Y-131116820D01*
X121391537Y-131006506D01*
X121312185Y-130909815D01*
X121215494Y-130830463D01*
X121105180Y-130771498D01*
X120985482Y-130735188D01*
X120861000Y-130722928D01*
X119603452Y-130722928D01*
X119354600Y-130474076D01*
X119354600Y-126223665D01*
X119596000Y-126223665D01*
X119596000Y-126506335D01*
X119651147Y-126783574D01*
X119759320Y-127044727D01*
X119916363Y-127279759D01*
X120116241Y-127479637D01*
X120351273Y-127636680D01*
X120612426Y-127744853D01*
X120889665Y-127800000D01*
X121172335Y-127800000D01*
X121449574Y-127744853D01*
X121710727Y-127636680D01*
X121945759Y-127479637D01*
X122145637Y-127279759D01*
X122302680Y-127044727D01*
X122410853Y-126783574D01*
X122466000Y-126506335D01*
X122466000Y-126223665D01*
X122410853Y-125946426D01*
X122302680Y-125685273D01*
X122145637Y-125450241D01*
X121945759Y-125250363D01*
X121710727Y-125093320D01*
X121449574Y-124985147D01*
X121172335Y-124930000D01*
X120889665Y-124930000D01*
X120612426Y-124985147D01*
X120351273Y-125093320D01*
X120116241Y-125250363D01*
X119916363Y-125450241D01*
X119759320Y-125685273D01*
X119651147Y-125946426D01*
X119596000Y-126223665D01*
X119354600Y-126223665D01*
X119354600Y-117668331D01*
X119393663Y-117715929D01*
X119567707Y-117858764D01*
X119766273Y-117964899D01*
X119981729Y-118030257D01*
X120149650Y-118046796D01*
X124558351Y-118046796D01*
X125850477Y-119338923D01*
X125980910Y-119445967D01*
X126179476Y-119552102D01*
X126394932Y-119617461D01*
X126618999Y-119639529D01*
X126843066Y-119617461D01*
X127058523Y-119552102D01*
X127257088Y-119445967D01*
X127431133Y-119303133D01*
X127573967Y-119129088D01*
X127680102Y-118930523D01*
X127745461Y-118715066D01*
X127767529Y-118490999D01*
X127745461Y-118266932D01*
X127680102Y-118051476D01*
X127573967Y-117852910D01*
X127466923Y-117722477D01*
X125879723Y-116135278D01*
X125843929Y-116091663D01*
X125669885Y-115948828D01*
X125499024Y-115857501D01*
X125557925Y-115798600D01*
X143936076Y-115798600D01*
X144839918Y-116702442D01*
X144874914Y-116745086D01*
X144917556Y-116780081D01*
X145045090Y-116884746D01*
X145085954Y-116906588D01*
X145239244Y-116988523D01*
X145449912Y-117052429D01*
X145614101Y-117068600D01*
X145614103Y-117068600D01*
X145668999Y-117074007D01*
X145723895Y-117068600D01*
X149330675Y-117068600D01*
X149561273Y-117222680D01*
X149822426Y-117330853D01*
X150099665Y-117386000D01*
X150382335Y-117386000D01*
X150659574Y-117330853D01*
X150920727Y-117222680D01*
X151155759Y-117065637D01*
X151355637Y-116865759D01*
X151512680Y-116630727D01*
X151620853Y-116369574D01*
X151676000Y-116092335D01*
X151676000Y-115809665D01*
X151620853Y-115532426D01*
X151512680Y-115271273D01*
X151355637Y-115036241D01*
X151155759Y-114836363D01*
X150920727Y-114679320D01*
X150659574Y-114571147D01*
X150382335Y-114516000D01*
X150099665Y-114516000D01*
X149822426Y-114571147D01*
X149561273Y-114679320D01*
X149330675Y-114833400D01*
X146131925Y-114833400D01*
X145228087Y-113929562D01*
X145193086Y-113886914D01*
X145022909Y-113747254D01*
X144828756Y-113643477D01*
X144618088Y-113579571D01*
X144453899Y-113563400D01*
X144453896Y-113563400D01*
X144399000Y-113557993D01*
X144344104Y-113563400D01*
X131562520Y-113563400D01*
X131577530Y-113411000D01*
X131555461Y-113186933D01*
X131490103Y-112971477D01*
X131383968Y-112772911D01*
X131241133Y-112598867D01*
X131067089Y-112456032D01*
X130868523Y-112349897D01*
X130653067Y-112284539D01*
X130485146Y-112268000D01*
X125822446Y-112268000D01*
X125101521Y-111547076D01*
X124971088Y-111440033D01*
X124772523Y-111333898D01*
X124557067Y-111268539D01*
X124333000Y-111246471D01*
X124108933Y-111268539D01*
X123893477Y-111333898D01*
X123694912Y-111440033D01*
X123520867Y-111582867D01*
X123378033Y-111756912D01*
X123271898Y-111955477D01*
X123206539Y-112170933D01*
X123184471Y-112395000D01*
X123206539Y-112619067D01*
X123271898Y-112834523D01*
X123378033Y-113033088D01*
X123485076Y-113163521D01*
X124258514Y-113936960D01*
X123327562Y-114867914D01*
X123284914Y-114902914D01*
X123145254Y-115073091D01*
X123041477Y-115267244D01*
X122977571Y-115477912D01*
X122955993Y-115697000D01*
X122962276Y-115760796D01*
X120149650Y-115760796D01*
X119981729Y-115777335D01*
X119766273Y-115842693D01*
X119567707Y-115948828D01*
X119393663Y-116091663D01*
X119354600Y-116139261D01*
X119354600Y-100582529D01*
X119421076Y-100663531D01*
X121550876Y-102793332D01*
X121586666Y-102836942D01*
X121760710Y-102979777D01*
X121881767Y-103044483D01*
X121959275Y-103085912D01*
X122174731Y-103151270D01*
X122195316Y-103153297D01*
X122342653Y-103167809D01*
X122342660Y-103167809D01*
X122398799Y-103173338D01*
X122454938Y-103167809D01*
X126748664Y-103167809D01*
X126740471Y-103251000D01*
X126762539Y-103475067D01*
X126827898Y-103690523D01*
X126934033Y-103889088D01*
X127076867Y-104063133D01*
X127250912Y-104205967D01*
X127449477Y-104312102D01*
X127664933Y-104377461D01*
X127889000Y-104399529D01*
X128048511Y-104383819D01*
X134549146Y-104383819D01*
X134717067Y-104367280D01*
X134932523Y-104301922D01*
X135131089Y-104195787D01*
X135305133Y-104052952D01*
X135447968Y-103878908D01*
X135554103Y-103680342D01*
X135619461Y-103464886D01*
X135641530Y-103240819D01*
X135619461Y-103016752D01*
X135554103Y-102801296D01*
X135447968Y-102602730D01*
X135305133Y-102428686D01*
X135131089Y-102285851D01*
X135104548Y-102271665D01*
X135111461Y-102248876D01*
X135133530Y-102024809D01*
X135111461Y-101800742D01*
X135046103Y-101585286D01*
X135003297Y-101505201D01*
X135041945Y-101458108D01*
X135145722Y-101263955D01*
X135209628Y-101053287D01*
X135231206Y-100834199D01*
X135209628Y-100615111D01*
X135145722Y-100404443D01*
X135041945Y-100210290D01*
X134902285Y-100040113D01*
X134732108Y-99900453D01*
X134537955Y-99796676D01*
X134327287Y-99732770D01*
X134163098Y-99716599D01*
X123649124Y-99716599D01*
X123291600Y-99359076D01*
X123291600Y-98421810D01*
X133650748Y-98421810D01*
X133705644Y-98427217D01*
X133760540Y-98421810D01*
X133760543Y-98421810D01*
X133924732Y-98405639D01*
X134135400Y-98341733D01*
X134329553Y-98237956D01*
X134499730Y-98098296D01*
X134534731Y-98055647D01*
X153786443Y-78803936D01*
X153829086Y-78768940D01*
X153913995Y-78665478D01*
X153968746Y-78598764D01*
X154032513Y-78479463D01*
X154072523Y-78404610D01*
X154136429Y-78193942D01*
X154152600Y-78029753D01*
X154152600Y-78029744D01*
X154158006Y-77974855D01*
X154152600Y-77919966D01*
X154152600Y-77491325D01*
X154306680Y-77260727D01*
X154414853Y-76999574D01*
X154470000Y-76722335D01*
X154470000Y-76439665D01*
X154414853Y-76162426D01*
X154306680Y-75901273D01*
X154149637Y-75666241D01*
X153949759Y-75466363D01*
X153714727Y-75309320D01*
X153453574Y-75201147D01*
X153176335Y-75146000D01*
X152893665Y-75146000D01*
X152616426Y-75201147D01*
X152355273Y-75309320D01*
X152120241Y-75466363D01*
X151920363Y-75666241D01*
X151763320Y-75901273D01*
X151655147Y-76162426D01*
X151600000Y-76439665D01*
X151600000Y-76722335D01*
X151655147Y-76999574D01*
X151763320Y-77260727D01*
X151917400Y-77491325D01*
X151917400Y-77511929D01*
X146532600Y-82896729D01*
X146532600Y-77491325D01*
X146686680Y-77260727D01*
X146794853Y-76999574D01*
X146850000Y-76722335D01*
X146850000Y-76439665D01*
X146794853Y-76162426D01*
X146686680Y-75901273D01*
X146529637Y-75666241D01*
X146329759Y-75466363D01*
X146094727Y-75309320D01*
X145833574Y-75201147D01*
X145556335Y-75146000D01*
X145273665Y-75146000D01*
X144996426Y-75201147D01*
X144735273Y-75309320D01*
X144500241Y-75466363D01*
X144300363Y-75666241D01*
X144143320Y-75901273D01*
X144035147Y-76162426D01*
X143980000Y-76439665D01*
X143980000Y-76722335D01*
X144035147Y-76999574D01*
X144143320Y-77260727D01*
X144297400Y-77491325D01*
X144297401Y-83484074D01*
X132760076Y-95021400D01*
X123284311Y-95021400D01*
X123120122Y-95037571D01*
X122909454Y-95101477D01*
X122715301Y-95205254D01*
X122703480Y-95214955D01*
X121274443Y-93785919D01*
X121146909Y-93681254D01*
X120952756Y-93577478D01*
X120742087Y-93513572D01*
X120523000Y-93491993D01*
X120303913Y-93513572D01*
X120093244Y-93577478D01*
X119899091Y-93681254D01*
X119728915Y-93820915D01*
X119589254Y-93991091D01*
X119485478Y-94185244D01*
X119421572Y-94395913D01*
X119399993Y-94615000D01*
X119421572Y-94834087D01*
X119485478Y-95044756D01*
X119589254Y-95238909D01*
X119693919Y-95366443D01*
X121056400Y-96728925D01*
X121056401Y-99065966D01*
X121037521Y-99047086D01*
X120907088Y-98940043D01*
X120708523Y-98833908D01*
X120493067Y-98768549D01*
X120269000Y-98746481D01*
X120044933Y-98768549D01*
X119829477Y-98833908D01*
X119630912Y-98940043D01*
X119456867Y-99082877D01*
X119354600Y-99207491D01*
X119354600Y-87199679D01*
X119397147Y-87413574D01*
X119505320Y-87674727D01*
X119662363Y-87909759D01*
X119862241Y-88109637D01*
X120097273Y-88266680D01*
X120358426Y-88374853D01*
X120635665Y-88430000D01*
X120918335Y-88430000D01*
X121195574Y-88374853D01*
X121456727Y-88266680D01*
X121691759Y-88109637D01*
X121891637Y-87909759D01*
X122048680Y-87674727D01*
X122156853Y-87413574D01*
X122212000Y-87136335D01*
X122212000Y-86853665D01*
X122156853Y-86576426D01*
X122048680Y-86315273D01*
X121891637Y-86080241D01*
X121691759Y-85880363D01*
X121456727Y-85723320D01*
X121195574Y-85615147D01*
X120918335Y-85560000D01*
X120635665Y-85560000D01*
X120358426Y-85615147D01*
X120097273Y-85723320D01*
X119862241Y-85880363D01*
X119662363Y-86080241D01*
X119505320Y-86315273D01*
X119397147Y-86576426D01*
X119354600Y-86790321D01*
X119354600Y-78558101D01*
X119338429Y-78393912D01*
X119278686Y-78196969D01*
X119345088Y-78190429D01*
X119555756Y-78126523D01*
X119749909Y-78022746D01*
X119920086Y-77883086D01*
X119955087Y-77840437D01*
X122671443Y-75124082D01*
X122714086Y-75089086D01*
X122754137Y-75040283D01*
X122853746Y-74918910D01*
X122957523Y-74724756D01*
X122959853Y-74717076D01*
X123021429Y-74514088D01*
X123037600Y-74349899D01*
X123037600Y-74349896D01*
X123043007Y-74295000D01*
X123037600Y-74240104D01*
X123037600Y-72237600D01*
X136056510Y-72237600D01*
X136111406Y-72243007D01*
X136166302Y-72237600D01*
X136166305Y-72237600D01*
X136330494Y-72221429D01*
X136541162Y-72157523D01*
X136735315Y-72053746D01*
X136905492Y-71914086D01*
X136940493Y-71871437D01*
X138526941Y-70284990D01*
X153226266Y-70284990D01*
X153171494Y-70387461D01*
G37*
%TD.AperFunction*%
D38*
X172446222Y-47078096D02*
X173034164Y-47255606D01*
X173576436Y-47543937D01*
X174052364Y-47932094D01*
X174443845Y-48405314D01*
X174735951Y-48945552D01*
X174917563Y-49532244D01*
X174985000Y-50173879D01*
X174985000Y-85738555D01*
X174202927Y-84956482D01*
X174167133Y-84912867D01*
X173993089Y-84770032D01*
X173794523Y-84663897D01*
X173579067Y-84598539D01*
X173411146Y-84582000D01*
X173411139Y-84582000D01*
X173355000Y-84576471D01*
X173298861Y-84582000D01*
X172562469Y-84582000D01*
X172602483Y-84560612D01*
X172892557Y-84322555D01*
X172952220Y-84249855D01*
X173752210Y-83449866D01*
X173930612Y-83232482D01*
X174107505Y-82901540D01*
X174216435Y-82542446D01*
X174253216Y-82169001D01*
X174216435Y-81795556D01*
X174107505Y-81436462D01*
X173930612Y-81105519D01*
X173692555Y-80815445D01*
X173402481Y-80577388D01*
X173071538Y-80400495D01*
X172712444Y-80291565D01*
X172338999Y-80254784D01*
X171965554Y-80291565D01*
X171606460Y-80400495D01*
X171275518Y-80577388D01*
X171058134Y-80755790D01*
X170749925Y-81063999D01*
X164528601Y-81063999D01*
X164528601Y-80550517D01*
X170001044Y-75078075D01*
X170043687Y-75043079D01*
X170127386Y-74941091D01*
X170183347Y-74872903D01*
X170287123Y-74678750D01*
X170287124Y-74678749D01*
X170351030Y-74468081D01*
X170367201Y-74303892D01*
X170367201Y-74303883D01*
X170372607Y-74248994D01*
X170367201Y-74194105D01*
X170367201Y-66434497D01*
X170372608Y-66379601D01*
X170364921Y-66301555D01*
X170351030Y-66160513D01*
X170287124Y-65949845D01*
X170195509Y-65778445D01*
X170183347Y-65755691D01*
X170157749Y-65724500D01*
X170180000Y-65498581D01*
X170180000Y-63593582D01*
X170189217Y-63500000D01*
X170152436Y-63126555D01*
X170043506Y-62767461D01*
X169866613Y-62436518D01*
X169628556Y-62146444D01*
X169338482Y-61908387D01*
X169007539Y-61731494D01*
X168648445Y-61622564D01*
X168368582Y-61595000D01*
X168275000Y-61585783D01*
X168181418Y-61595000D01*
X163984076Y-61595000D01*
X154648230Y-52259155D01*
X154588566Y-52186454D01*
X154298492Y-51948397D01*
X153967549Y-51771504D01*
X153608455Y-51662574D01*
X153328592Y-51635010D01*
X153328590Y-51635010D01*
X153235010Y-51625793D01*
X153141430Y-51635010D01*
X136314437Y-51635010D01*
X136432561Y-51349834D01*
X136505000Y-50985656D01*
X136505000Y-50614344D01*
X136495205Y-50565098D01*
X169065000Y-50565098D01*
X169065000Y-51034902D01*
X169156654Y-51495679D01*
X169336440Y-51929721D01*
X169597450Y-52320349D01*
X169929651Y-52652550D01*
X170320279Y-52913560D01*
X170754321Y-53093346D01*
X171215098Y-53185000D01*
X171684902Y-53185000D01*
X172145679Y-53093346D01*
X172579721Y-52913560D01*
X172970349Y-52652550D01*
X173302550Y-52320349D01*
X173563560Y-51929721D01*
X173743346Y-51495679D01*
X173835000Y-51034902D01*
X173835000Y-50565098D01*
X173743346Y-50104321D01*
X173563560Y-49670279D01*
X173302550Y-49279651D01*
X172970349Y-48947450D01*
X172579721Y-48686440D01*
X172145679Y-48506654D01*
X171684902Y-48415000D01*
X171215098Y-48415000D01*
X170754321Y-48506654D01*
X170320279Y-48686440D01*
X169929651Y-48947450D01*
X169597450Y-49279651D01*
X169336440Y-49670279D01*
X169156654Y-50104321D01*
X169065000Y-50565098D01*
X136495205Y-50565098D01*
X136432561Y-50250166D01*
X136290466Y-49907118D01*
X136084175Y-49598382D01*
X135821618Y-49335825D01*
X135512882Y-49129534D01*
X135169834Y-48987439D01*
X134805656Y-48915000D01*
X134434344Y-48915000D01*
X134070166Y-48987439D01*
X133727118Y-49129534D01*
X133418382Y-49335825D01*
X133155825Y-49598382D01*
X132949534Y-49907118D01*
X132807439Y-50250166D01*
X132735000Y-50614344D01*
X132735000Y-50985656D01*
X132807439Y-51349834D01*
X132925563Y-51635010D01*
X127227086Y-51635010D01*
X126381219Y-50789144D01*
X126321556Y-50716444D01*
X126031482Y-50478387D01*
X125700539Y-50301494D01*
X125341445Y-50192564D01*
X125061582Y-50165000D01*
X125061580Y-50165000D01*
X124968000Y-50155783D01*
X124874420Y-50165000D01*
X87088582Y-50165000D01*
X86995000Y-50155783D01*
X86831290Y-50171907D01*
X86621555Y-50192564D01*
X86262461Y-50301494D01*
X85931518Y-50478387D01*
X85641444Y-50716444D01*
X85581789Y-50789134D01*
X80723997Y-55646928D01*
X79780000Y-55646928D01*
X79655518Y-55659188D01*
X79535820Y-55695498D01*
X79425506Y-55754463D01*
X79328815Y-55833815D01*
X79249463Y-55930506D01*
X79190498Y-56040820D01*
X79154188Y-56160518D01*
X79141928Y-56285000D01*
X79141928Y-59285000D01*
X79154188Y-59409482D01*
X79190498Y-59529180D01*
X79249463Y-59639494D01*
X79328815Y-59736185D01*
X79425506Y-59815537D01*
X79535820Y-59874502D01*
X79655518Y-59910812D01*
X79780000Y-59923072D01*
X82780000Y-59923072D01*
X82904482Y-59910812D01*
X83024180Y-59874502D01*
X83134494Y-59815537D01*
X83231185Y-59736185D01*
X83310537Y-59639494D01*
X83369502Y-59529180D01*
X83405812Y-59409482D01*
X83418072Y-59285000D01*
X83418072Y-58341003D01*
X87784077Y-53975000D01*
X89901928Y-53975000D01*
X89901928Y-53992827D01*
X89812889Y-54286348D01*
X89789000Y-54528897D01*
X89789001Y-63581104D01*
X89812890Y-63823653D01*
X89907296Y-64134867D01*
X90060603Y-64421684D01*
X90266919Y-64673082D01*
X90518317Y-64879398D01*
X90805134Y-65032705D01*
X91116348Y-65127111D01*
X91440000Y-65158988D01*
X91569999Y-65146184D01*
X91534636Y-65175206D01*
X91356444Y-65321444D01*
X91296788Y-65394135D01*
X89599753Y-67091171D01*
X89463809Y-67163835D01*
X89286916Y-67258386D01*
X89188718Y-67338976D01*
X88996843Y-67496443D01*
X88937183Y-67569139D01*
X85649441Y-70856882D01*
X85576746Y-70916541D01*
X85454826Y-71065101D01*
X85338688Y-71206615D01*
X85161796Y-71537558D01*
X85052866Y-71896652D01*
X85016084Y-72270097D01*
X85025302Y-72363686D01*
X85025301Y-75475623D01*
X84585923Y-75915001D01*
X83136132Y-75915001D01*
X83172012Y-75861302D01*
X83332953Y-75472756D01*
X83415000Y-75060279D01*
X83415000Y-74639721D01*
X83332953Y-74227244D01*
X83172012Y-73838698D01*
X82938363Y-73489017D01*
X82640983Y-73191637D01*
X82291302Y-72957988D01*
X81902756Y-72797047D01*
X81490279Y-72715000D01*
X81069721Y-72715000D01*
X80657244Y-72797047D01*
X80268698Y-72957988D01*
X79919017Y-73191637D01*
X79621637Y-73489017D01*
X79387988Y-73838698D01*
X79227047Y-74227244D01*
X79145000Y-74639721D01*
X79145000Y-75060279D01*
X79227047Y-75472756D01*
X79387988Y-75861302D01*
X79423868Y-75915001D01*
X77312576Y-75915001D01*
X77218996Y-75905784D01*
X77125416Y-75915001D01*
X77125415Y-75915001D01*
X76845552Y-75942565D01*
X76486458Y-76051495D01*
X76350160Y-76124348D01*
X76155514Y-76228388D01*
X76074451Y-76294915D01*
X75865441Y-76466445D01*
X75805781Y-76539141D01*
X73869139Y-78475784D01*
X73796444Y-78535443D01*
X73685000Y-78671238D01*
X73685000Y-50197279D01*
X73711197Y-49930098D01*
X74450000Y-49930098D01*
X74450000Y-50399902D01*
X74541654Y-50860679D01*
X74721440Y-51294721D01*
X74982450Y-51685349D01*
X75314651Y-52017550D01*
X75705279Y-52278560D01*
X76139321Y-52458346D01*
X76600098Y-52550000D01*
X77069902Y-52550000D01*
X77530679Y-52458346D01*
X77964721Y-52278560D01*
X78355349Y-52017550D01*
X78687550Y-51685349D01*
X78948560Y-51294721D01*
X79128346Y-50860679D01*
X79220000Y-50399902D01*
X79220000Y-49930098D01*
X79128346Y-49469321D01*
X78948560Y-49035279D01*
X78687550Y-48644651D01*
X78355349Y-48312450D01*
X77964721Y-48051440D01*
X77530679Y-47871654D01*
X77069902Y-47780000D01*
X76600098Y-47780000D01*
X76139321Y-47871654D01*
X75705279Y-48051440D01*
X75314651Y-48312450D01*
X74982450Y-48644651D01*
X74721440Y-49035279D01*
X74541654Y-49469321D01*
X74450000Y-49930098D01*
X73711197Y-49930098D01*
X73748096Y-49553778D01*
X73925606Y-48965836D01*
X74213937Y-48423564D01*
X74602094Y-47947636D01*
X75075314Y-47556155D01*
X75615552Y-47264049D01*
X76202244Y-47082437D01*
X76843879Y-47015000D01*
X171802721Y-47015000D01*
X172446222Y-47078096D01*
%TA.AperFunction,Conductor*%
D39*
G36*
X172446222Y-47078096D02*
G01*
X173034164Y-47255606D01*
X173576436Y-47543937D01*
X174052364Y-47932094D01*
X174443845Y-48405314D01*
X174735951Y-48945552D01*
X174917563Y-49532244D01*
X174985000Y-50173879D01*
X174985000Y-85738555D01*
X174202927Y-84956482D01*
X174167133Y-84912867D01*
X173993089Y-84770032D01*
X173794523Y-84663897D01*
X173579067Y-84598539D01*
X173411146Y-84582000D01*
X173411139Y-84582000D01*
X173355000Y-84576471D01*
X173298861Y-84582000D01*
X172562469Y-84582000D01*
X172602483Y-84560612D01*
X172892557Y-84322555D01*
X172952220Y-84249855D01*
X173752210Y-83449866D01*
X173930612Y-83232482D01*
X174107505Y-82901540D01*
X174216435Y-82542446D01*
X174253216Y-82169001D01*
X174216435Y-81795556D01*
X174107505Y-81436462D01*
X173930612Y-81105519D01*
X173692555Y-80815445D01*
X173402481Y-80577388D01*
X173071538Y-80400495D01*
X172712444Y-80291565D01*
X172338999Y-80254784D01*
X171965554Y-80291565D01*
X171606460Y-80400495D01*
X171275518Y-80577388D01*
X171058134Y-80755790D01*
X170749925Y-81063999D01*
X164528601Y-81063999D01*
X164528601Y-80550517D01*
X170001044Y-75078075D01*
X170043687Y-75043079D01*
X170127386Y-74941091D01*
X170183347Y-74872903D01*
X170287123Y-74678750D01*
X170287124Y-74678749D01*
X170351030Y-74468081D01*
X170367201Y-74303892D01*
X170367201Y-74303883D01*
X170372607Y-74248994D01*
X170367201Y-74194105D01*
X170367201Y-66434497D01*
X170372608Y-66379601D01*
X170364921Y-66301555D01*
X170351030Y-66160513D01*
X170287124Y-65949845D01*
X170195509Y-65778445D01*
X170183347Y-65755691D01*
X170157749Y-65724500D01*
X170180000Y-65498581D01*
X170180000Y-63593582D01*
X170189217Y-63500000D01*
X170152436Y-63126555D01*
X170043506Y-62767461D01*
X169866613Y-62436518D01*
X169628556Y-62146444D01*
X169338482Y-61908387D01*
X169007539Y-61731494D01*
X168648445Y-61622564D01*
X168368582Y-61595000D01*
X168275000Y-61585783D01*
X168181418Y-61595000D01*
X163984076Y-61595000D01*
X154648230Y-52259155D01*
X154588566Y-52186454D01*
X154298492Y-51948397D01*
X153967549Y-51771504D01*
X153608455Y-51662574D01*
X153328592Y-51635010D01*
X153328590Y-51635010D01*
X153235010Y-51625793D01*
X153141430Y-51635010D01*
X136314437Y-51635010D01*
X136432561Y-51349834D01*
X136505000Y-50985656D01*
X136505000Y-50614344D01*
X136495205Y-50565098D01*
X169065000Y-50565098D01*
X169065000Y-51034902D01*
X169156654Y-51495679D01*
X169336440Y-51929721D01*
X169597450Y-52320349D01*
X169929651Y-52652550D01*
X170320279Y-52913560D01*
X170754321Y-53093346D01*
X171215098Y-53185000D01*
X171684902Y-53185000D01*
X172145679Y-53093346D01*
X172579721Y-52913560D01*
X172970349Y-52652550D01*
X173302550Y-52320349D01*
X173563560Y-51929721D01*
X173743346Y-51495679D01*
X173835000Y-51034902D01*
X173835000Y-50565098D01*
X173743346Y-50104321D01*
X173563560Y-49670279D01*
X173302550Y-49279651D01*
X172970349Y-48947450D01*
X172579721Y-48686440D01*
X172145679Y-48506654D01*
X171684902Y-48415000D01*
X171215098Y-48415000D01*
X170754321Y-48506654D01*
X170320279Y-48686440D01*
X169929651Y-48947450D01*
X169597450Y-49279651D01*
X169336440Y-49670279D01*
X169156654Y-50104321D01*
X169065000Y-50565098D01*
X136495205Y-50565098D01*
X136432561Y-50250166D01*
X136290466Y-49907118D01*
X136084175Y-49598382D01*
X135821618Y-49335825D01*
X135512882Y-49129534D01*
X135169834Y-48987439D01*
X134805656Y-48915000D01*
X134434344Y-48915000D01*
X134070166Y-48987439D01*
X133727118Y-49129534D01*
X133418382Y-49335825D01*
X133155825Y-49598382D01*
X132949534Y-49907118D01*
X132807439Y-50250166D01*
X132735000Y-50614344D01*
X132735000Y-50985656D01*
X132807439Y-51349834D01*
X132925563Y-51635010D01*
X127227086Y-51635010D01*
X126381219Y-50789144D01*
X126321556Y-50716444D01*
X126031482Y-50478387D01*
X125700539Y-50301494D01*
X125341445Y-50192564D01*
X125061582Y-50165000D01*
X125061580Y-50165000D01*
X124968000Y-50155783D01*
X124874420Y-50165000D01*
X87088582Y-50165000D01*
X86995000Y-50155783D01*
X86831290Y-50171907D01*
X86621555Y-50192564D01*
X86262461Y-50301494D01*
X85931518Y-50478387D01*
X85641444Y-50716444D01*
X85581789Y-50789134D01*
X80723997Y-55646928D01*
X79780000Y-55646928D01*
X79655518Y-55659188D01*
X79535820Y-55695498D01*
X79425506Y-55754463D01*
X79328815Y-55833815D01*
X79249463Y-55930506D01*
X79190498Y-56040820D01*
X79154188Y-56160518D01*
X79141928Y-56285000D01*
X79141928Y-59285000D01*
X79154188Y-59409482D01*
X79190498Y-59529180D01*
X79249463Y-59639494D01*
X79328815Y-59736185D01*
X79425506Y-59815537D01*
X79535820Y-59874502D01*
X79655518Y-59910812D01*
X79780000Y-59923072D01*
X82780000Y-59923072D01*
X82904482Y-59910812D01*
X83024180Y-59874502D01*
X83134494Y-59815537D01*
X83231185Y-59736185D01*
X83310537Y-59639494D01*
X83369502Y-59529180D01*
X83405812Y-59409482D01*
X83418072Y-59285000D01*
X83418072Y-58341003D01*
X87784077Y-53975000D01*
X89901928Y-53975000D01*
X89901928Y-53992827D01*
X89812889Y-54286348D01*
X89789000Y-54528897D01*
X89789001Y-63581104D01*
X89812890Y-63823653D01*
X89907296Y-64134867D01*
X90060603Y-64421684D01*
X90266919Y-64673082D01*
X90518317Y-64879398D01*
X90805134Y-65032705D01*
X91116348Y-65127111D01*
X91440000Y-65158988D01*
X91569999Y-65146184D01*
X91534636Y-65175206D01*
X91356444Y-65321444D01*
X91296788Y-65394135D01*
X89599753Y-67091171D01*
X89463809Y-67163835D01*
X89286916Y-67258386D01*
X89188718Y-67338976D01*
X88996843Y-67496443D01*
X88937183Y-67569139D01*
X85649441Y-70856882D01*
X85576746Y-70916541D01*
X85454826Y-71065101D01*
X85338688Y-71206615D01*
X85161796Y-71537558D01*
X85052866Y-71896652D01*
X85016084Y-72270097D01*
X85025302Y-72363686D01*
X85025301Y-75475623D01*
X84585923Y-75915001D01*
X83136132Y-75915001D01*
X83172012Y-75861302D01*
X83332953Y-75472756D01*
X83415000Y-75060279D01*
X83415000Y-74639721D01*
X83332953Y-74227244D01*
X83172012Y-73838698D01*
X82938363Y-73489017D01*
X82640983Y-73191637D01*
X82291302Y-72957988D01*
X81902756Y-72797047D01*
X81490279Y-72715000D01*
X81069721Y-72715000D01*
X80657244Y-72797047D01*
X80268698Y-72957988D01*
X79919017Y-73191637D01*
X79621637Y-73489017D01*
X79387988Y-73838698D01*
X79227047Y-74227244D01*
X79145000Y-74639721D01*
X79145000Y-75060279D01*
X79227047Y-75472756D01*
X79387988Y-75861302D01*
X79423868Y-75915001D01*
X77312576Y-75915001D01*
X77218996Y-75905784D01*
X77125416Y-75915001D01*
X77125415Y-75915001D01*
X76845552Y-75942565D01*
X76486458Y-76051495D01*
X76350160Y-76124348D01*
X76155514Y-76228388D01*
X76074451Y-76294915D01*
X75865441Y-76466445D01*
X75805781Y-76539141D01*
X73869139Y-78475784D01*
X73796444Y-78535443D01*
X73685000Y-78671238D01*
X73685000Y-50197279D01*
X73711197Y-49930098D01*
X74450000Y-49930098D01*
X74450000Y-50399902D01*
X74541654Y-50860679D01*
X74721440Y-51294721D01*
X74982450Y-51685349D01*
X75314651Y-52017550D01*
X75705279Y-52278560D01*
X76139321Y-52458346D01*
X76600098Y-52550000D01*
X77069902Y-52550000D01*
X77530679Y-52458346D01*
X77964721Y-52278560D01*
X78355349Y-52017550D01*
X78687550Y-51685349D01*
X78948560Y-51294721D01*
X79128346Y-50860679D01*
X79220000Y-50399902D01*
X79220000Y-49930098D01*
X79128346Y-49469321D01*
X78948560Y-49035279D01*
X78687550Y-48644651D01*
X78355349Y-48312450D01*
X77964721Y-48051440D01*
X77530679Y-47871654D01*
X77069902Y-47780000D01*
X76600098Y-47780000D01*
X76139321Y-47871654D01*
X75705279Y-48051440D01*
X75314651Y-48312450D01*
X74982450Y-48644651D01*
X74721440Y-49035279D01*
X74541654Y-49469321D01*
X74450000Y-49930098D01*
X73711197Y-49930098D01*
X73748096Y-49553778D01*
X73925606Y-48965836D01*
X74213937Y-48423564D01*
X74602094Y-47947636D01*
X75075314Y-47556155D01*
X75615552Y-47264049D01*
X76202244Y-47082437D01*
X76843879Y-47015000D01*
X171802721Y-47015000D01*
X172446222Y-47078096D01*
G37*
%TD.AperFunction*%
%TD*%
D40*
X165354000Y-139860420D02*
X165344783Y-139954000D01*
X165354000Y-140047580D01*
X165354000Y-140047581D01*
X165381564Y-140327444D01*
X165490494Y-140686538D01*
X165667387Y-141017482D01*
X165905444Y-141307556D01*
X165978144Y-141367219D01*
X166267055Y-141656130D01*
X166131091Y-153315000D01*
X131068175Y-153315000D01*
X131095197Y-147235098D01*
X157635000Y-147235098D01*
X157635000Y-147704902D01*
X157726654Y-148165679D01*
X157906440Y-148599721D01*
X158167450Y-148990349D01*
X158499651Y-149322550D01*
X158890279Y-149583560D01*
X159324321Y-149763346D01*
X159785098Y-149855000D01*
X160254902Y-149855000D01*
X160715679Y-149763346D01*
X161149721Y-149583560D01*
X161540349Y-149322550D01*
X161872550Y-148990349D01*
X162133560Y-148599721D01*
X162313346Y-148165679D01*
X162405000Y-147704902D01*
X162405000Y-147235098D01*
X162313346Y-146774321D01*
X162133560Y-146340279D01*
X161872550Y-145949651D01*
X161540349Y-145617450D01*
X161149721Y-145356440D01*
X160715679Y-145176654D01*
X160254902Y-145085000D01*
X159785098Y-145085000D01*
X159324321Y-145176654D01*
X158890279Y-145356440D01*
X158499651Y-145617450D01*
X158167450Y-145949651D01*
X157906440Y-146340279D01*
X157726654Y-146774321D01*
X157635000Y-147235098D01*
X131095197Y-147235098D01*
X131114237Y-142951200D01*
X140284200Y-142951200D01*
X140308976Y-142948760D01*
X140332801Y-142941533D01*
X140354757Y-142929797D01*
X140374003Y-142914003D01*
X140389797Y-142894757D01*
X140401533Y-142872801D01*
X140408760Y-142848976D01*
X140411195Y-142825365D01*
X140446033Y-139028043D01*
X141401577Y-138072500D01*
X158108920Y-138072500D01*
X158202500Y-138081717D01*
X158296080Y-138072500D01*
X158296082Y-138072500D01*
X158575945Y-138044936D01*
X158935039Y-137936006D01*
X159265982Y-137759113D01*
X159556056Y-137521056D01*
X159615720Y-137448356D01*
X159725525Y-137338551D01*
X165354001Y-137316651D01*
X165354000Y-139860420D01*
%TA.AperFunction,NonConductor*%
D41*
G36*
X165354000Y-139860420D02*
G01*
X165344783Y-139954000D01*
X165354000Y-140047580D01*
X165354000Y-140047581D01*
X165381564Y-140327444D01*
X165490494Y-140686538D01*
X165667387Y-141017482D01*
X165905444Y-141307556D01*
X165978144Y-141367219D01*
X166267055Y-141656130D01*
X166131091Y-153315000D01*
X131068175Y-153315000D01*
X131095197Y-147235098D01*
X157635000Y-147235098D01*
X157635000Y-147704902D01*
X157726654Y-148165679D01*
X157906440Y-148599721D01*
X158167450Y-148990349D01*
X158499651Y-149322550D01*
X158890279Y-149583560D01*
X159324321Y-149763346D01*
X159785098Y-149855000D01*
X160254902Y-149855000D01*
X160715679Y-149763346D01*
X161149721Y-149583560D01*
X161540349Y-149322550D01*
X161872550Y-148990349D01*
X162133560Y-148599721D01*
X162313346Y-148165679D01*
X162405000Y-147704902D01*
X162405000Y-147235098D01*
X162313346Y-146774321D01*
X162133560Y-146340279D01*
X161872550Y-145949651D01*
X161540349Y-145617450D01*
X161149721Y-145356440D01*
X160715679Y-145176654D01*
X160254902Y-145085000D01*
X159785098Y-145085000D01*
X159324321Y-145176654D01*
X158890279Y-145356440D01*
X158499651Y-145617450D01*
X158167450Y-145949651D01*
X157906440Y-146340279D01*
X157726654Y-146774321D01*
X157635000Y-147235098D01*
X131095197Y-147235098D01*
X131114237Y-142951200D01*
X140284200Y-142951200D01*
X140308976Y-142948760D01*
X140332801Y-142941533D01*
X140354757Y-142929797D01*
X140374003Y-142914003D01*
X140389797Y-142894757D01*
X140401533Y-142872801D01*
X140408760Y-142848976D01*
X140411195Y-142825365D01*
X140446033Y-139028043D01*
X141401577Y-138072500D01*
X158108920Y-138072500D01*
X158202500Y-138081717D01*
X158296080Y-138072500D01*
X158296082Y-138072500D01*
X158575945Y-138044936D01*
X158935039Y-137936006D01*
X159265982Y-137759113D01*
X159556056Y-137521056D01*
X159615720Y-137448356D01*
X159725525Y-137338551D01*
X165354001Y-137316651D01*
X165354000Y-139860420D01*
G37*
%TD.AperFunction*%
M02*
