M48
; DRILL file {KiCad (5.1.10)-1} date 11/21/21 12:31:27
; FORMAT={-:-/ absolute / metric / decimal}
; #@! TF.CreationDate,2021-11-21T12:31:27+02:00
; #@! TF.GenerationSoftware,Kicad,Pcbnew,(5.1.10)-1
; #@! TF.FileFunction,Plated,1,2,PTH
FMAT,2
METRIC
T1C0.400
T2C0.600
T3C0.750
T4C0.800
T5C0.900
T6C0.950
T7C1.000
T8C1.100
T9C1.250
T10C1.500
%
G90
G05
T1
X85.979Y-102.997
X98.933Y-80.619
X116.713Y-135.509
X118.228Y-78.368
X120.206Y-116.904
X120.269Y-99.895
X120.523Y-94.615
X123.317Y-96.139
X123.317Y-97.304
X124.079Y-115.697
X124.333Y-112.395
X126.111Y-127.889
X126.619Y-118.491
X127.889Y-103.251
X130.429Y-113.411
X133.985Y-102.025
X134.108Y-100.834
X134.493Y-103.241
X153.289Y-128.651
X155.305Y-76.851
X156.591Y-113.411
X156.845Y-106.553
X158.115Y-111.887
X165.163Y-116.268
X173.863Y-92.837
T2
X84.455Y-145.415
X85.705Y-145.415
X86.955Y-145.415
X88.205Y-145.415
X89.455Y-145.415
X90.705Y-145.415
T3
X93.599Y-82.677
X94.869Y-82.677
X95.631Y-132.461
X95.631Y-133.731
X95.631Y-135.001
X96.139Y-82.677
X101.219Y-130.429
X102.489Y-130.429
X103.759Y-130.429
X104.775Y-103.505
X104.775Y-104.775
X104.775Y-106.045
X105.41Y-116.205
X105.41Y-117.475
X105.41Y-118.745
X162.56Y-116.205
X163.83Y-116.205
X165.1Y-116.205
T4
X83.82Y-87.63
X83.82Y-95.25
X90.043Y-125.857
X90.043Y-133.477
X90.551Y-75.565
X91.44Y-63.5
X91.44Y-71.12
X92.075Y-92.075
X92.075Y-99.695
X92.075Y-108.077
X92.075Y-112.141
X92.075Y-116.84
X92.71Y-123.19
X96.52Y-63.5
X96.52Y-71.12
X98.171Y-75.565
X99.187Y-87.249
X99.695Y-92.075
X99.695Y-99.695
X99.695Y-108.077
X99.695Y-112.141
X99.695Y-116.84
X100.33Y-123.19
X100.711Y-74.549
X101.6Y-63.5
X101.6Y-71.12
X101.727Y-77.597
X101.727Y-82.597
X104.267Y-92.329
X104.267Y-99.949
X105.711Y-74.549
X106.807Y-87.249
X108.839Y-77.089
X108.839Y-123.905
X108.839Y-128.905
X113.157Y-86.995
X113.411Y-126.365
X116.459Y-77.089
X120.777Y-86.995
X121.031Y-126.365
X121.92Y-63.5
X121.92Y-71.12
X125.73Y-144.185
X125.73Y-146.685
X137.795Y-133.985
X137.795Y-138.985
X145.415Y-76.581
X150.241Y-115.951
X153.035Y-76.581
X154.559Y-101.045
X154.559Y-106.045
X157.861Y-115.951
X158.115Y-88.265
X158.115Y-93.98
X158.115Y-101.981
X158.115Y-108.585
X158.115Y-120.777
X158.115Y-124.841
X163.115Y-120.777
X165.735Y-88.265
X165.735Y-93.98
X165.735Y-101.981
X165.735Y-108.585
X165.735Y-124.841
X167.259Y-131.017
X167.259Y-136.017
X167.767Y-70.485
X168.275Y-65.405
X171.323Y-133.985
X171.323Y-141.605
X172.339Y-77.169
X172.339Y-82.169
X172.767Y-70.485
X173.275Y-65.405
T5
X91.44Y-52.07
X91.44Y-54.61
X100.33Y-52.07
X100.33Y-54.61
X109.22Y-52.07
X109.22Y-54.61
X118.11Y-52.07
X118.11Y-54.61
X171.45Y-85.725
X171.45Y-88.265
X171.45Y-93.98
X171.45Y-96.52
X171.45Y-102.87
X171.45Y-105.41
X171.45Y-110.49
X171.45Y-113.03
X171.45Y-118.745
X171.45Y-121.285
X171.45Y-127.0
X171.45Y-129.54
T6
X104.34Y-146.05
X106.84Y-146.05
X109.34Y-146.05
X111.84Y-146.05
X114.34Y-146.05
X116.84Y-146.05
T7
X77.47Y-97.155
X77.47Y-101.6
X77.47Y-106.045
X77.47Y-110.49
X77.47Y-114.935
X77.47Y-119.38
X80.01Y-82.55
X80.01Y-85.09
X80.01Y-87.63
X80.01Y-90.17
X80.01Y-92.71
X83.82Y-99.695
X83.82Y-102.235
X83.82Y-104.775
X83.82Y-112.395
X83.82Y-114.935
X83.82Y-117.475
X88.265Y-94.615
X88.265Y-97.155
X88.265Y-99.695
X88.265Y-105.41
X88.265Y-107.95
X88.265Y-110.49
X88.265Y-116.84
X88.265Y-119.38
X88.265Y-121.92
X89.535Y-83.185
X89.535Y-85.725
X89.535Y-88.265
X110.871Y-64.977
X110.871Y-69.977
X158.75Y-80.01
X166.25Y-80.01
T8
X107.061Y-132.461
X107.061Y-140.081
X113.411Y-132.461
X113.411Y-140.081
X119.761Y-132.461
X119.761Y-140.081
X126.111Y-132.461
X126.111Y-140.081
X132.461Y-132.461
X132.461Y-140.081
X157.48Y-130.81
X160.02Y-130.81
X162.56Y-130.81
T9
X134.62Y-50.8
X134.62Y-58.42
X134.62Y-63.5
X154.94Y-50.8
X154.94Y-60.96
X154.94Y-71.12
T10
X81.28Y-57.785
X81.28Y-62.785
X81.28Y-69.85
X81.28Y-74.85
X81.28Y-128.27
X81.28Y-133.27
T0
M30
