M48
; DRILL file {KiCad (5.1.8)-1} date 07/18/21 22:50:59
; FORMAT={-:-/ absolute / inch / decimal}
; #@! TF.CreationDate,2021-07-18T22:50:59-07:00
; #@! TF.GenerationSoftware,Kicad,Pcbnew,(5.1.8)-1
; #@! TF.FileFunction,Plated,1,2,PTH
FMAT,2
INCH
T1C0.0295
T2C0.0315
T3C0.0354
T4C0.0433
T5C0.0591
%
G90
G05
T1
X5.6217Y-3.625
X5.6717Y-3.625
X5.7217Y-3.625
T2
X4.3467Y-4.1262
X4.3467Y-4.2262
X4.3467Y-4.3262
X5.0467Y-3.45
X5.0467Y-3.75
X4.6217Y-3.975
X4.6217Y-4.275
X5.1967Y-3.45
X5.1967Y-3.75
X5.5217Y-4.25
X5.8217Y-4.25
X5.1467Y-4.0
X5.1467Y-4.3
X4.8717Y-3.325
X4.8717Y-3.625
X5.3717Y-3.325
X5.3717Y-3.625
X5.2717Y-3.95
X5.5717Y-3.95
X6.0217Y-3.625
X6.0217Y-3.925
X4.7217Y-4.275
X5.0217Y-4.275
T3
X5.4717Y-4.425
X5.4717Y-4.525
X5.1467Y-4.425
X5.1467Y-4.525
X4.5967Y-4.475
X4.6967Y-4.475
X5.7217Y-4.475
X5.8217Y-4.475
T4
X4.3217Y-3.8
X4.7217Y-3.8
X4.3217Y-3.575
X4.7217Y-3.575
T5
X4.4748Y-3.2
X4.6717Y-3.2
X5.5998Y-3.2
X5.7967Y-3.2
T0
M30
