M48
; DRILL file {KiCad (5.1.8)-1} date 07/24/21 17:40:33
; FORMAT={-:-/ absolute / metric / decimal}
; #@! TF.CreationDate,2021-07-24T17:40:33+02:00
; #@! TF.GenerationSoftware,Kicad,Pcbnew,(5.1.8)-1
; #@! TF.FileFunction,Plated,1,2,PTH
FMAT,2
METRIC
T1C0.800
T2C0.900
T3C0.950
T4C1.100
T5C1.500
T6C2.300
%
G90
G05
T1
X132.07Y-97.79
X119.37Y-90.17
X139.69Y-86.36
X141.69Y-86.36
X101.59Y-67.31
X103.59Y-67.31
X124.45Y-97.79
X119.37Y-97.79
T2
X138.42Y-93.98
X140.96Y-93.98
T3
X100.32Y-76.2
X100.32Y-78.7
X100.32Y-80.7
X100.32Y-83.2
T4
X124.45Y-69.85
X134.61Y-69.85
X114.29Y-82.55
X116.83Y-82.55
X119.37Y-82.55
X124.45Y-74.93
X134.61Y-74.93
X124.45Y-80.01
X134.61Y-80.01
X109.21Y-83.82
X109.21Y-93.98
X124.45Y-83.82
X134.61Y-83.82
T5
X143.5Y-69.93
X143.5Y-74.93
T6
X97.61Y-73.13
X97.61Y-86.27
T0
M30
