M48
; DRILL file {KiCad (5.1.8)-1} date 07/18/21 21:15:41
; FORMAT={-:-/ absolute / inch / decimal}
; #@! TF.CreationDate,2021-07-18T21:15:41-07:00
; #@! TF.GenerationSoftware,Kicad,Pcbnew,(5.1.8)-1
; #@! TF.FileFunction,Plated,1,2,PTH
FMAT,2
INCH
T1C0.0295
T2C0.0315
T3C0.0354
T4C0.0591
%
G90
G05
T1
X5.0748Y-4.275
X5.1248Y-4.275
X5.1748Y-4.275
X4.4748Y-4.325
X4.4748Y-4.375
X4.4748Y-4.425
X4.4748Y-4.125
X4.5248Y-4.125
X4.5748Y-4.125
T2
X5.2248Y-3.675
X5.2248Y-3.975
X4.7748Y-4.125
X4.7748Y-4.425
X5.0748Y-3.675
X5.0748Y-3.975
X4.2248Y-4.375
X4.2248Y-4.675
X3.9748Y-3.975
X3.9748Y-4.275
X4.2248Y-3.975
X4.2248Y-4.275
T3
X4.3748Y-4.825
X4.4748Y-4.825
X4.0248Y-4.825
X4.1248Y-4.825
X4.6748Y-4.825
X4.7748Y-4.825
T4
X4.9748Y-4.675
X5.1717Y-4.675
X4.0343Y-3.675
X4.2311Y-3.675
X4.428Y-3.675
X4.6248Y-3.675
T0
M30
