M48
; DRILL file {KiCad (5.1.8)-1} date 07/18/21 16:24:07
; FORMAT={-:-/ absolute / inch / decimal}
; #@! TF.CreationDate,2021-07-18T16:24:07-07:00
; #@! TF.GenerationSoftware,Kicad,Pcbnew,(5.1.8)-1
; #@! TF.FileFunction,Plated,1,2,PTH
FMAT,2
INCH
T1C0.0295
T2C0.0315
T3C0.0354
T4C0.0591
%
G90
G05
T1
X4.1311Y-3.225
X4.1811Y-3.225
X4.2311Y-3.225
X4.3061Y-3.625
X4.3561Y-3.625
X4.4061Y-3.625
T2
X4.8811Y-3.375
X4.8811Y-3.675
X3.9311Y-3.05
X4.2311Y-3.05
X4.6811Y-3.45
X4.6811Y-3.75
X3.7673Y-3.8992
X4.0673Y-3.8992
X4.3327Y-3.9
X4.4311Y-3.9
X4.3827Y-3.125
X4.4811Y-3.125
T3
X4.5811Y-4.15
X4.6811Y-4.15
X4.6061Y-3.025
X4.7061Y-3.025
T4
X3.9311Y-3.425
X3.9311Y-3.6219
T0
M30
