%TF.GenerationSoftware,KiCad,Pcbnew,(5.1.8)-1*%
%TF.CreationDate,2021-07-18T16:23:35-07:00*%
%TF.ProjectId,Astable_Multivibrator,41737461-626c-4655-9f4d-756c74697669,rev?*%
%TF.SameCoordinates,Original*%
%TF.FileFunction,Legend,Top*%
%TF.FilePolarity,Positive*%
%FSLAX46Y46*%
G04 Gerber Fmt 4.6, Leading zero omitted, Abs format (unit mm)*
G04 Created by KiCad (PCBNEW (5.1.8)-1) date 2021-07-18 16:23:35*
%MOMM*%
%LPD*%
G01*
G04 APERTURE LIST*
%ADD10C,0.100000*%
%ADD11C,0.150000*%
%ADD12C,0.300000*%
%ADD13C,0.400000*%
%ADD14C,0.120000*%
G04 APERTURE END LIST*
D10*
D11*
X177002200Y-166007200D02*
X177002200Y-198007200D01*
X285002200Y-198007200D01*
X285002200Y-166007200D01*
X177002200Y-166007200D01*
D10*
D11*
X10000000Y-10000000D02*
X10000000Y-200007200D01*
X287002200Y-200007200D01*
X287002200Y-10000000D01*
X10000000Y-10000000D01*
D10*
D11*
X12000000Y-12000000D02*
X12000000Y-198007200D01*
X285002200Y-198007200D01*
X285002200Y-12000000D01*
X12000000Y-12000000D01*
D10*
D11*
X60000000Y-12000000D02*
X60000000Y-10000000D01*
D10*
D11*
X110000000Y-12000000D02*
X110000000Y-10000000D01*
D10*
D11*
X160000000Y-12000000D02*
X160000000Y-10000000D01*
D10*
D11*
X210000000Y-12000000D02*
X210000000Y-10000000D01*
D10*
D11*
X260000000Y-12000000D02*
X260000000Y-10000000D01*
D10*
D11*
X36065476Y-11588095D02*
X35322619Y-11588095D01*
X35694047Y-11588095D02*
X35694047Y-10288095D01*
X35570238Y-10473809D01*
X35446428Y-10597619D01*
X35322619Y-10659523D01*
D10*
D11*
X85322619Y-10411904D02*
X85384523Y-10350000D01*
X85508333Y-10288095D01*
X85817857Y-10288095D01*
X85941666Y-10350000D01*
X86003571Y-10411904D01*
X86065476Y-10535714D01*
X86065476Y-10659523D01*
X86003571Y-10845238D01*
X85260714Y-11588095D01*
X86065476Y-11588095D01*
D10*
D11*
X135260714Y-10288095D02*
X136065476Y-10288095D01*
X135632142Y-10783333D01*
X135817857Y-10783333D01*
X135941666Y-10845238D01*
X136003571Y-10907142D01*
X136065476Y-11030952D01*
X136065476Y-11340476D01*
X136003571Y-11464285D01*
X135941666Y-11526190D01*
X135817857Y-11588095D01*
X135446428Y-11588095D01*
X135322619Y-11526190D01*
X135260714Y-11464285D01*
D10*
D11*
X185941666Y-10721428D02*
X185941666Y-11588095D01*
X185632142Y-10226190D02*
X185322619Y-11154761D01*
X186127380Y-11154761D01*
D10*
D11*
X236003571Y-10288095D02*
X235384523Y-10288095D01*
X235322619Y-10907142D01*
X235384523Y-10845238D01*
X235508333Y-10783333D01*
X235817857Y-10783333D01*
X235941666Y-10845238D01*
X236003571Y-10907142D01*
X236065476Y-11030952D01*
X236065476Y-11340476D01*
X236003571Y-11464285D01*
X235941666Y-11526190D01*
X235817857Y-11588095D01*
X235508333Y-11588095D01*
X235384523Y-11526190D01*
X235322619Y-11464285D01*
D10*
D11*
X285941666Y-10288095D02*
X285694047Y-10288095D01*
X285570238Y-10350000D01*
X285508333Y-10411904D01*
X285384523Y-10597619D01*
X285322619Y-10845238D01*
X285322619Y-11340476D01*
X285384523Y-11464285D01*
X285446428Y-11526190D01*
X285570238Y-11588095D01*
X285817857Y-11588095D01*
X285941666Y-11526190D01*
X286003571Y-11464285D01*
X286065476Y-11340476D01*
X286065476Y-11030952D01*
X286003571Y-10907142D01*
X285941666Y-10845238D01*
X285817857Y-10783333D01*
X285570238Y-10783333D01*
X285446428Y-10845238D01*
X285384523Y-10907142D01*
X285322619Y-11030952D01*
D10*
D11*
X60000000Y-198007200D02*
X60000000Y-200007200D01*
D10*
D11*
X110000000Y-198007200D02*
X110000000Y-200007200D01*
D10*
D11*
X160000000Y-198007200D02*
X160000000Y-200007200D01*
D10*
D11*
X210000000Y-198007200D02*
X210000000Y-200007200D01*
D10*
D11*
X260000000Y-198007200D02*
X260000000Y-200007200D01*
D10*
D11*
X36065476Y-199595295D02*
X35322619Y-199595295D01*
X35694047Y-199595295D02*
X35694047Y-198295295D01*
X35570238Y-198481009D01*
X35446428Y-198604819D01*
X35322619Y-198666723D01*
D10*
D11*
X85322619Y-198419104D02*
X85384523Y-198357200D01*
X85508333Y-198295295D01*
X85817857Y-198295295D01*
X85941666Y-198357200D01*
X86003571Y-198419104D01*
X86065476Y-198542914D01*
X86065476Y-198666723D01*
X86003571Y-198852438D01*
X85260714Y-199595295D01*
X86065476Y-199595295D01*
D10*
D11*
X135260714Y-198295295D02*
X136065476Y-198295295D01*
X135632142Y-198790533D01*
X135817857Y-198790533D01*
X135941666Y-198852438D01*
X136003571Y-198914342D01*
X136065476Y-199038152D01*
X136065476Y-199347676D01*
X136003571Y-199471485D01*
X135941666Y-199533390D01*
X135817857Y-199595295D01*
X135446428Y-199595295D01*
X135322619Y-199533390D01*
X135260714Y-199471485D01*
D10*
D11*
X185941666Y-198728628D02*
X185941666Y-199595295D01*
X185632142Y-198233390D02*
X185322619Y-199161961D01*
X186127380Y-199161961D01*
D10*
D11*
X236003571Y-198295295D02*
X235384523Y-198295295D01*
X235322619Y-198914342D01*
X235384523Y-198852438D01*
X235508333Y-198790533D01*
X235817857Y-198790533D01*
X235941666Y-198852438D01*
X236003571Y-198914342D01*
X236065476Y-199038152D01*
X236065476Y-199347676D01*
X236003571Y-199471485D01*
X235941666Y-199533390D01*
X235817857Y-199595295D01*
X235508333Y-199595295D01*
X235384523Y-199533390D01*
X235322619Y-199471485D01*
D10*
D11*
X285941666Y-198295295D02*
X285694047Y-198295295D01*
X285570238Y-198357200D01*
X285508333Y-198419104D01*
X285384523Y-198604819D01*
X285322619Y-198852438D01*
X285322619Y-199347676D01*
X285384523Y-199471485D01*
X285446428Y-199533390D01*
X285570238Y-199595295D01*
X285817857Y-199595295D01*
X285941666Y-199533390D01*
X286003571Y-199471485D01*
X286065476Y-199347676D01*
X286065476Y-199038152D01*
X286003571Y-198914342D01*
X285941666Y-198852438D01*
X285817857Y-198790533D01*
X285570238Y-198790533D01*
X285446428Y-198852438D01*
X285384523Y-198914342D01*
X285322619Y-199038152D01*
D10*
D11*
X10000000Y-60000000D02*
X12000000Y-60000000D01*
D10*
D11*
X10000000Y-110000000D02*
X12000000Y-110000000D01*
D10*
D11*
X10000000Y-160000000D02*
X12000000Y-160000000D01*
D10*
D11*
X10690476Y-35216666D02*
X11309523Y-35216666D01*
X10566666Y-35588095D02*
X11000000Y-34288095D01*
X11433333Y-35588095D01*
D10*
D11*
X11092857Y-84907142D02*
X11278571Y-84969047D01*
X11340476Y-85030952D01*
X11402380Y-85154761D01*
X11402380Y-85340476D01*
X11340476Y-85464285D01*
X11278571Y-85526190D01*
X11154761Y-85588095D01*
X10659523Y-85588095D01*
X10659523Y-84288095D01*
X11092857Y-84288095D01*
X11216666Y-84350000D01*
X11278571Y-84411904D01*
X11340476Y-84535714D01*
X11340476Y-84659523D01*
X11278571Y-84783333D01*
X11216666Y-84845238D01*
X11092857Y-84907142D01*
X10659523Y-84907142D01*
D10*
D11*
X11402380Y-135464285D02*
X11340476Y-135526190D01*
X11154761Y-135588095D01*
X11030952Y-135588095D01*
X10845238Y-135526190D01*
X10721428Y-135402380D01*
X10659523Y-135278571D01*
X10597619Y-135030952D01*
X10597619Y-134845238D01*
X10659523Y-134597619D01*
X10721428Y-134473809D01*
X10845238Y-134350000D01*
X11030952Y-134288095D01*
X11154761Y-134288095D01*
X11340476Y-134350000D01*
X11402380Y-134411904D01*
D10*
D11*
X10659523Y-185588095D02*
X10659523Y-184288095D01*
X10969047Y-184288095D01*
X11154761Y-184350000D01*
X11278571Y-184473809D01*
X11340476Y-184597619D01*
X11402380Y-184845238D01*
X11402380Y-185030952D01*
X11340476Y-185278571D01*
X11278571Y-185402380D01*
X11154761Y-185526190D01*
X10969047Y-185588095D01*
X10659523Y-185588095D01*
D10*
D11*
X287002200Y-60000000D02*
X285002200Y-60000000D01*
D10*
D11*
X287002200Y-110000000D02*
X285002200Y-110000000D01*
D10*
D11*
X287002200Y-160000000D02*
X285002200Y-160000000D01*
D10*
D11*
X285692676Y-35216666D02*
X286311723Y-35216666D01*
X285568866Y-35588095D02*
X286002200Y-34288095D01*
X286435533Y-35588095D01*
D10*
D11*
X286095057Y-84907142D02*
X286280771Y-84969047D01*
X286342676Y-85030952D01*
X286404580Y-85154761D01*
X286404580Y-85340476D01*
X286342676Y-85464285D01*
X286280771Y-85526190D01*
X286156961Y-85588095D01*
X285661723Y-85588095D01*
X285661723Y-84288095D01*
X286095057Y-84288095D01*
X286218866Y-84350000D01*
X286280771Y-84411904D01*
X286342676Y-84535714D01*
X286342676Y-84659523D01*
X286280771Y-84783333D01*
X286218866Y-84845238D01*
X286095057Y-84907142D01*
X285661723Y-84907142D01*
D10*
D11*
X286404580Y-135464285D02*
X286342676Y-135526190D01*
X286156961Y-135588095D01*
X286033152Y-135588095D01*
X285847438Y-135526190D01*
X285723628Y-135402380D01*
X285661723Y-135278571D01*
X285599819Y-135030952D01*
X285599819Y-134845238D01*
X285661723Y-134597619D01*
X285723628Y-134473809D01*
X285847438Y-134350000D01*
X286033152Y-134288095D01*
X286156961Y-134288095D01*
X286342676Y-134350000D01*
X286404580Y-134411904D01*
D10*
D11*
X285661723Y-185588095D02*
X285661723Y-184288095D01*
X285971247Y-184288095D01*
X286156961Y-184350000D01*
X286280771Y-184473809D01*
X286342676Y-184597619D01*
X286404580Y-184845238D01*
X286404580Y-185030952D01*
X286342676Y-185278571D01*
X286280771Y-185402380D01*
X286156961Y-185526190D01*
X285971247Y-185588095D01*
X285661723Y-185588095D01*
D10*
D11*
X200434342Y-193785771D02*
X200434342Y-192285771D01*
X200791485Y-192285771D01*
X201005771Y-192357200D01*
X201148628Y-192500057D01*
X201220057Y-192642914D01*
X201291485Y-192928628D01*
X201291485Y-193142914D01*
X201220057Y-193428628D01*
X201148628Y-193571485D01*
X201005771Y-193714342D01*
X200791485Y-193785771D01*
X200434342Y-193785771D01*
X202577200Y-193785771D02*
X202577200Y-193000057D01*
X202505771Y-192857200D01*
X202362914Y-192785771D01*
X202077200Y-192785771D01*
X201934342Y-192857200D01*
X202577200Y-193714342D02*
X202434342Y-193785771D01*
X202077200Y-193785771D01*
X201934342Y-193714342D01*
X201862914Y-193571485D01*
X201862914Y-193428628D01*
X201934342Y-193285771D01*
X202077200Y-193214342D01*
X202434342Y-193214342D01*
X202577200Y-193142914D01*
X203077200Y-192785771D02*
X203648628Y-192785771D01*
X203291485Y-192285771D02*
X203291485Y-193571485D01*
X203362914Y-193714342D01*
X203505771Y-193785771D01*
X203648628Y-193785771D01*
X204720057Y-193714342D02*
X204577200Y-193785771D01*
X204291485Y-193785771D01*
X204148628Y-193714342D01*
X204077200Y-193571485D01*
X204077200Y-193000057D01*
X204148628Y-192857200D01*
X204291485Y-192785771D01*
X204577200Y-192785771D01*
X204720057Y-192857200D01*
X204791485Y-193000057D01*
X204791485Y-193142914D01*
X204077200Y-193285771D01*
X205434342Y-193642914D02*
X205505771Y-193714342D01*
X205434342Y-193785771D01*
X205362914Y-193714342D01*
X205434342Y-193642914D01*
X205434342Y-193785771D01*
X205434342Y-192857200D02*
X205505771Y-192928628D01*
X205434342Y-193000057D01*
X205362914Y-192928628D01*
X205434342Y-192857200D01*
X205434342Y-193000057D01*
D10*
D11*
X177002200Y-194507200D02*
X285002200Y-194507200D01*
D10*
D11*
X178434342Y-196585771D02*
X178434342Y-195085771D01*
X179291485Y-196585771D02*
X178648628Y-195728628D01*
X179291485Y-195085771D02*
X178434342Y-195942914D01*
X179934342Y-196585771D02*
X179934342Y-195585771D01*
X179934342Y-195085771D02*
X179862914Y-195157200D01*
X179934342Y-195228628D01*
X180005771Y-195157200D01*
X179934342Y-195085771D01*
X179934342Y-195228628D01*
X181505771Y-196442914D02*
X181434342Y-196514342D01*
X181220057Y-196585771D01*
X181077200Y-196585771D01*
X180862914Y-196514342D01*
X180720057Y-196371485D01*
X180648628Y-196228628D01*
X180577200Y-195942914D01*
X180577200Y-195728628D01*
X180648628Y-195442914D01*
X180720057Y-195300057D01*
X180862914Y-195157200D01*
X181077200Y-195085771D01*
X181220057Y-195085771D01*
X181434342Y-195157200D01*
X181505771Y-195228628D01*
X182791485Y-196585771D02*
X182791485Y-195800057D01*
X182720057Y-195657200D01*
X182577200Y-195585771D01*
X182291485Y-195585771D01*
X182148628Y-195657200D01*
X182791485Y-196514342D02*
X182648628Y-196585771D01*
X182291485Y-196585771D01*
X182148628Y-196514342D01*
X182077200Y-196371485D01*
X182077200Y-196228628D01*
X182148628Y-196085771D01*
X182291485Y-196014342D01*
X182648628Y-196014342D01*
X182791485Y-195942914D01*
X184148628Y-196585771D02*
X184148628Y-195085771D01*
X184148628Y-196514342D02*
X184005771Y-196585771D01*
X183720057Y-196585771D01*
X183577200Y-196514342D01*
X183505771Y-196442914D01*
X183434342Y-196300057D01*
X183434342Y-195871485D01*
X183505771Y-195728628D01*
X183577200Y-195657200D01*
X183720057Y-195585771D01*
X184005771Y-195585771D01*
X184148628Y-195657200D01*
X186005771Y-195800057D02*
X186505771Y-195800057D01*
X186720057Y-196585771D02*
X186005771Y-196585771D01*
X186005771Y-195085771D01*
X186720057Y-195085771D01*
X187362914Y-196442914D02*
X187434342Y-196514342D01*
X187362914Y-196585771D01*
X187291485Y-196514342D01*
X187362914Y-196442914D01*
X187362914Y-196585771D01*
X188077200Y-196585771D02*
X188077200Y-195085771D01*
X188434342Y-195085771D01*
X188648628Y-195157200D01*
X188791485Y-195300057D01*
X188862914Y-195442914D01*
X188934342Y-195728628D01*
X188934342Y-195942914D01*
X188862914Y-196228628D01*
X188791485Y-196371485D01*
X188648628Y-196514342D01*
X188434342Y-196585771D01*
X188077200Y-196585771D01*
X189577200Y-196442914D02*
X189648628Y-196514342D01*
X189577200Y-196585771D01*
X189505771Y-196514342D01*
X189577200Y-196442914D01*
X189577200Y-196585771D01*
X190220057Y-196157200D02*
X190934342Y-196157200D01*
X190077200Y-196585771D02*
X190577200Y-195085771D01*
X191077200Y-196585771D01*
X191577200Y-196442914D02*
X191648628Y-196514342D01*
X191577200Y-196585771D01*
X191505771Y-196514342D01*
X191577200Y-196442914D01*
X191577200Y-196585771D01*
X194577200Y-196585771D02*
X194577200Y-195085771D01*
X194720057Y-196014342D02*
X195148628Y-196585771D01*
X195148628Y-195585771D02*
X194577200Y-196157200D01*
X195791485Y-196585771D02*
X195791485Y-195585771D01*
X195791485Y-195085771D02*
X195720057Y-195157200D01*
X195791485Y-195228628D01*
X195862914Y-195157200D01*
X195791485Y-195085771D01*
X195791485Y-195228628D01*
X197148628Y-196514342D02*
X197005771Y-196585771D01*
X196720057Y-196585771D01*
X196577200Y-196514342D01*
X196505771Y-196442914D01*
X196434342Y-196300057D01*
X196434342Y-195871485D01*
X196505771Y-195728628D01*
X196577200Y-195657200D01*
X196720057Y-195585771D01*
X197005771Y-195585771D01*
X197148628Y-195657200D01*
X198434342Y-196585771D02*
X198434342Y-195800057D01*
X198362914Y-195657200D01*
X198220057Y-195585771D01*
X197934342Y-195585771D01*
X197791485Y-195657200D01*
X198434342Y-196514342D02*
X198291485Y-196585771D01*
X197934342Y-196585771D01*
X197791485Y-196514342D01*
X197720057Y-196371485D01*
X197720057Y-196228628D01*
X197791485Y-196085771D01*
X197934342Y-196014342D01*
X198291485Y-196014342D01*
X198434342Y-195942914D01*
X199791485Y-196585771D02*
X199791485Y-195085771D01*
X199791485Y-196514342D02*
X199648628Y-196585771D01*
X199362914Y-196585771D01*
X199220057Y-196514342D01*
X199148628Y-196442914D01*
X199077200Y-196300057D01*
X199077200Y-195871485D01*
X199148628Y-195728628D01*
X199220057Y-195657200D01*
X199362914Y-195585771D01*
X199648628Y-195585771D01*
X199791485Y-195657200D01*
X202077200Y-197157200D02*
X202005771Y-197085771D01*
X201862914Y-196871485D01*
X201791485Y-196728628D01*
X201720057Y-196514342D01*
X201648628Y-196157200D01*
X201648628Y-195871485D01*
X201720057Y-195514342D01*
X201791485Y-195300057D01*
X201862914Y-195157200D01*
X202005771Y-194942914D01*
X202077200Y-194871485D01*
X203362914Y-195085771D02*
X202648628Y-195085771D01*
X202577200Y-195800057D01*
X202648628Y-195728628D01*
X202791485Y-195657200D01*
X203148628Y-195657200D01*
X203291485Y-195728628D01*
X203362914Y-195800057D01*
X203434342Y-195942914D01*
X203434342Y-196300057D01*
X203362914Y-196442914D01*
X203291485Y-196514342D01*
X203148628Y-196585771D01*
X202791485Y-196585771D01*
X202648628Y-196514342D01*
X202577200Y-196442914D01*
X204077200Y-196442914D02*
X204148628Y-196514342D01*
X204077200Y-196585771D01*
X204005771Y-196514342D01*
X204077200Y-196442914D01*
X204077200Y-196585771D01*
X205577200Y-196585771D02*
X204720057Y-196585771D01*
X205148628Y-196585771D02*
X205148628Y-195085771D01*
X205005771Y-195300057D01*
X204862914Y-195442914D01*
X204720057Y-195514342D01*
X206220057Y-196442914D02*
X206291485Y-196514342D01*
X206220057Y-196585771D01*
X206148628Y-196514342D01*
X206220057Y-196442914D01*
X206220057Y-196585771D01*
X207148628Y-195728628D02*
X207005771Y-195657200D01*
X206934342Y-195585771D01*
X206862914Y-195442914D01*
X206862914Y-195371485D01*
X206934342Y-195228628D01*
X207005771Y-195157200D01*
X207148628Y-195085771D01*
X207434342Y-195085771D01*
X207577200Y-195157200D01*
X207648628Y-195228628D01*
X207720057Y-195371485D01*
X207720057Y-195442914D01*
X207648628Y-195585771D01*
X207577200Y-195657200D01*
X207434342Y-195728628D01*
X207148628Y-195728628D01*
X207005771Y-195800057D01*
X206934342Y-195871485D01*
X206862914Y-196014342D01*
X206862914Y-196300057D01*
X206934342Y-196442914D01*
X207005771Y-196514342D01*
X207148628Y-196585771D01*
X207434342Y-196585771D01*
X207577200Y-196514342D01*
X207648628Y-196442914D01*
X207720057Y-196300057D01*
X207720057Y-196014342D01*
X207648628Y-195871485D01*
X207577200Y-195800057D01*
X207434342Y-195728628D01*
X208220057Y-197157200D02*
X208291485Y-197085771D01*
X208434342Y-196871485D01*
X208505771Y-196728628D01*
X208577200Y-196514342D01*
X208648628Y-196157200D01*
X208648628Y-195871485D01*
X208577200Y-195514342D01*
X208505771Y-195300057D01*
X208434342Y-195157200D01*
X208291485Y-194942914D01*
X208220057Y-194871485D01*
X209362914Y-196014342D02*
X210505771Y-196014342D01*
X212005771Y-196585771D02*
X211148628Y-196585771D01*
X211577200Y-196585771D02*
X211577200Y-195085771D01*
X211434342Y-195300057D01*
X211291485Y-195442914D01*
X211148628Y-195514342D01*
D10*
D11*
X177002200Y-191507200D02*
X285002200Y-191507200D01*
D10*
D12*
X264411485Y-193785771D02*
X263911485Y-193071485D01*
X263554342Y-193785771D02*
X263554342Y-192285771D01*
X264125771Y-192285771D01*
X264268628Y-192357200D01*
X264340057Y-192428628D01*
X264411485Y-192571485D01*
X264411485Y-192785771D01*
X264340057Y-192928628D01*
X264268628Y-193000057D01*
X264125771Y-193071485D01*
X263554342Y-193071485D01*
X265625771Y-193714342D02*
X265482914Y-193785771D01*
X265197200Y-193785771D01*
X265054342Y-193714342D01*
X264982914Y-193571485D01*
X264982914Y-193000057D01*
X265054342Y-192857200D01*
X265197200Y-192785771D01*
X265482914Y-192785771D01*
X265625771Y-192857200D01*
X265697200Y-193000057D01*
X265697200Y-193142914D01*
X264982914Y-193285771D01*
X266197200Y-192785771D02*
X266554342Y-193785771D01*
X266911485Y-192785771D01*
X267482914Y-193642914D02*
X267554342Y-193714342D01*
X267482914Y-193785771D01*
X267411485Y-193714342D01*
X267482914Y-193642914D01*
X267482914Y-193785771D01*
X267482914Y-192857200D02*
X267554342Y-192928628D01*
X267482914Y-193000057D01*
X267411485Y-192928628D01*
X267482914Y-192857200D01*
X267482914Y-193000057D01*
D10*
D11*
X178362914Y-193714342D02*
X178577200Y-193785771D01*
X178934342Y-193785771D01*
X179077200Y-193714342D01*
X179148628Y-193642914D01*
X179220057Y-193500057D01*
X179220057Y-193357200D01*
X179148628Y-193214342D01*
X179077200Y-193142914D01*
X178934342Y-193071485D01*
X178648628Y-193000057D01*
X178505771Y-192928628D01*
X178434342Y-192857200D01*
X178362914Y-192714342D01*
X178362914Y-192571485D01*
X178434342Y-192428628D01*
X178505771Y-192357200D01*
X178648628Y-192285771D01*
X179005771Y-192285771D01*
X179220057Y-192357200D01*
X179862914Y-193785771D02*
X179862914Y-192785771D01*
X179862914Y-192285771D02*
X179791485Y-192357200D01*
X179862914Y-192428628D01*
X179934342Y-192357200D01*
X179862914Y-192285771D01*
X179862914Y-192428628D01*
X180434342Y-192785771D02*
X181220057Y-192785771D01*
X180434342Y-193785771D01*
X181220057Y-193785771D01*
X182362914Y-193714342D02*
X182220057Y-193785771D01*
X181934342Y-193785771D01*
X181791485Y-193714342D01*
X181720057Y-193571485D01*
X181720057Y-193000057D01*
X181791485Y-192857200D01*
X181934342Y-192785771D01*
X182220057Y-192785771D01*
X182362914Y-192857200D01*
X182434342Y-193000057D01*
X182434342Y-193142914D01*
X181720057Y-193285771D01*
X183077200Y-193642914D02*
X183148628Y-193714342D01*
X183077200Y-193785771D01*
X183005771Y-193714342D01*
X183077200Y-193642914D01*
X183077200Y-193785771D01*
X183077200Y-192857200D02*
X183148628Y-192928628D01*
X183077200Y-193000057D01*
X183005771Y-192928628D01*
X183077200Y-192857200D01*
X183077200Y-193000057D01*
X184862914Y-193357200D02*
X185577200Y-193357200D01*
X184720057Y-193785771D02*
X185220057Y-192285771D01*
X185720057Y-193785771D01*
X186862914Y-192785771D02*
X186862914Y-193785771D01*
X186505771Y-192214342D02*
X186148628Y-193285771D01*
X187077200Y-193285771D01*
D10*
D11*
X263434342Y-196585771D02*
X263434342Y-195085771D01*
X264791485Y-196585771D02*
X264791485Y-195085771D01*
X264791485Y-196514342D02*
X264648628Y-196585771D01*
X264362914Y-196585771D01*
X264220057Y-196514342D01*
X264148628Y-196442914D01*
X264077200Y-196300057D01*
X264077200Y-195871485D01*
X264148628Y-195728628D01*
X264220057Y-195657200D01*
X264362914Y-195585771D01*
X264648628Y-195585771D01*
X264791485Y-195657200D01*
X265505771Y-196442914D02*
X265577200Y-196514342D01*
X265505771Y-196585771D01*
X265434342Y-196514342D01*
X265505771Y-196442914D01*
X265505771Y-196585771D01*
X265505771Y-195657200D02*
X265577200Y-195728628D01*
X265505771Y-195800057D01*
X265434342Y-195728628D01*
X265505771Y-195657200D01*
X265505771Y-195800057D01*
X268148628Y-196585771D02*
X267291485Y-196585771D01*
X267720057Y-196585771D02*
X267720057Y-195085771D01*
X267577200Y-195300057D01*
X267434342Y-195442914D01*
X267291485Y-195514342D01*
X269862914Y-195014342D02*
X268577200Y-196942914D01*
X271148628Y-196585771D02*
X270291485Y-196585771D01*
X270720057Y-196585771D02*
X270720057Y-195085771D01*
X270577200Y-195300057D01*
X270434342Y-195442914D01*
X270291485Y-195514342D01*
D10*
D11*
X177002200Y-187507200D02*
X285002200Y-187507200D01*
D10*
D13*
X178714580Y-188211961D02*
X179857438Y-188211961D01*
X179036009Y-190211961D02*
X179286009Y-188211961D01*
X180274104Y-190211961D02*
X180440771Y-188878628D01*
X180524104Y-188211961D02*
X180416961Y-188307200D01*
X180500295Y-188402438D01*
X180607438Y-188307200D01*
X180524104Y-188211961D01*
X180500295Y-188402438D01*
X181107438Y-188878628D02*
X181869342Y-188878628D01*
X181476485Y-188211961D02*
X181262200Y-189926247D01*
X181333628Y-190116723D01*
X181512200Y-190211961D01*
X181702676Y-190211961D01*
X182655057Y-190211961D02*
X182476485Y-190116723D01*
X182405057Y-189926247D01*
X182619342Y-188211961D01*
X184190771Y-190116723D02*
X183988390Y-190211961D01*
X183607438Y-190211961D01*
X183428866Y-190116723D01*
X183357438Y-189926247D01*
X183452676Y-189164342D01*
X183571723Y-188973866D01*
X183774104Y-188878628D01*
X184155057Y-188878628D01*
X184333628Y-188973866D01*
X184405057Y-189164342D01*
X184381247Y-189354819D01*
X183405057Y-189545295D01*
X185155057Y-190021485D02*
X185238390Y-190116723D01*
X185131247Y-190211961D01*
X185047914Y-190116723D01*
X185155057Y-190021485D01*
X185131247Y-190211961D01*
X185286009Y-188973866D02*
X185369342Y-189069104D01*
X185262200Y-189164342D01*
X185178866Y-189069104D01*
X185286009Y-188973866D01*
X185262200Y-189164342D01*
D10*
D11*
X178934342Y-185600057D02*
X178434342Y-185600057D01*
X178434342Y-186385771D02*
X178434342Y-184885771D01*
X179148628Y-184885771D01*
X179720057Y-186385771D02*
X179720057Y-185385771D01*
X179720057Y-184885771D02*
X179648628Y-184957200D01*
X179720057Y-185028628D01*
X179791485Y-184957200D01*
X179720057Y-184885771D01*
X179720057Y-185028628D01*
X180648628Y-186385771D02*
X180505771Y-186314342D01*
X180434342Y-186171485D01*
X180434342Y-184885771D01*
X181791485Y-186314342D02*
X181648628Y-186385771D01*
X181362914Y-186385771D01*
X181220057Y-186314342D01*
X181148628Y-186171485D01*
X181148628Y-185600057D01*
X181220057Y-185457200D01*
X181362914Y-185385771D01*
X181648628Y-185385771D01*
X181791485Y-185457200D01*
X181862914Y-185600057D01*
X181862914Y-185742914D01*
X181148628Y-185885771D01*
X182505771Y-186242914D02*
X182577200Y-186314342D01*
X182505771Y-186385771D01*
X182434342Y-186314342D01*
X182505771Y-186242914D01*
X182505771Y-186385771D01*
X182505771Y-185457200D02*
X182577200Y-185528628D01*
X182505771Y-185600057D01*
X182434342Y-185528628D01*
X182505771Y-185457200D01*
X182505771Y-185600057D01*
X184291485Y-185957200D02*
X185005771Y-185957200D01*
X184148628Y-186385771D02*
X184648628Y-184885771D01*
X185148628Y-186385771D01*
X185577200Y-186314342D02*
X185720057Y-186385771D01*
X186005771Y-186385771D01*
X186148628Y-186314342D01*
X186220057Y-186171485D01*
X186220057Y-186100057D01*
X186148628Y-185957200D01*
X186005771Y-185885771D01*
X185791485Y-185885771D01*
X185648628Y-185814342D01*
X185577200Y-185671485D01*
X185577200Y-185600057D01*
X185648628Y-185457200D01*
X185791485Y-185385771D01*
X186005771Y-185385771D01*
X186148628Y-185457200D01*
X186648628Y-185385771D02*
X187220057Y-185385771D01*
X186862914Y-184885771D02*
X186862914Y-186171485D01*
X186934342Y-186314342D01*
X187077200Y-186385771D01*
X187220057Y-186385771D01*
X188362914Y-186385771D02*
X188362914Y-185600057D01*
X188291485Y-185457200D01*
X188148628Y-185385771D01*
X187862914Y-185385771D01*
X187720057Y-185457200D01*
X188362914Y-186314342D02*
X188220057Y-186385771D01*
X187862914Y-186385771D01*
X187720057Y-186314342D01*
X187648628Y-186171485D01*
X187648628Y-186028628D01*
X187720057Y-185885771D01*
X187862914Y-185814342D01*
X188220057Y-185814342D01*
X188362914Y-185742914D01*
X189077200Y-186385771D02*
X189077200Y-184885771D01*
X189077200Y-185457200D02*
X189220057Y-185385771D01*
X189505771Y-185385771D01*
X189648628Y-185457200D01*
X189720057Y-185528628D01*
X189791485Y-185671485D01*
X189791485Y-186100057D01*
X189720057Y-186242914D01*
X189648628Y-186314342D01*
X189505771Y-186385771D01*
X189220057Y-186385771D01*
X189077200Y-186314342D01*
X190648628Y-186385771D02*
X190505771Y-186314342D01*
X190434342Y-186171485D01*
X190434342Y-184885771D01*
X191791485Y-186314342D02*
X191648628Y-186385771D01*
X191362914Y-186385771D01*
X191220057Y-186314342D01*
X191148628Y-186171485D01*
X191148628Y-185600057D01*
X191220057Y-185457200D01*
X191362914Y-185385771D01*
X191648628Y-185385771D01*
X191791485Y-185457200D01*
X191862914Y-185600057D01*
X191862914Y-185742914D01*
X191148628Y-185885771D01*
X192148628Y-186528628D02*
X193291485Y-186528628D01*
X193648628Y-186385771D02*
X193648628Y-184885771D01*
X194148628Y-185957200D01*
X194648628Y-184885771D01*
X194648628Y-186385771D01*
X196005771Y-185385771D02*
X196005771Y-186385771D01*
X195362914Y-185385771D02*
X195362914Y-186171485D01*
X195434342Y-186314342D01*
X195577200Y-186385771D01*
X195791485Y-186385771D01*
X195934342Y-186314342D01*
X196005771Y-186242914D01*
X196934342Y-186385771D02*
X196791485Y-186314342D01*
X196720057Y-186171485D01*
X196720057Y-184885771D01*
X197291485Y-185385771D02*
X197862914Y-185385771D01*
X197505771Y-184885771D02*
X197505771Y-186171485D01*
X197577200Y-186314342D01*
X197720057Y-186385771D01*
X197862914Y-186385771D01*
X198362914Y-186385771D02*
X198362914Y-185385771D01*
X198362914Y-184885771D02*
X198291485Y-184957200D01*
X198362914Y-185028628D01*
X198434342Y-184957200D01*
X198362914Y-184885771D01*
X198362914Y-185028628D01*
X198934342Y-185385771D02*
X199291485Y-186385771D01*
X199648628Y-185385771D01*
X200220057Y-186385771D02*
X200220057Y-185385771D01*
X200220057Y-184885771D02*
X200148628Y-184957200D01*
X200220057Y-185028628D01*
X200291485Y-184957200D01*
X200220057Y-184885771D01*
X200220057Y-185028628D01*
X200934342Y-186385771D02*
X200934342Y-184885771D01*
X200934342Y-185457200D02*
X201077200Y-185385771D01*
X201362914Y-185385771D01*
X201505771Y-185457200D01*
X201577200Y-185528628D01*
X201648628Y-185671485D01*
X201648628Y-186100057D01*
X201577200Y-186242914D01*
X201505771Y-186314342D01*
X201362914Y-186385771D01*
X201077200Y-186385771D01*
X200934342Y-186314342D01*
X202291485Y-186385771D02*
X202291485Y-185385771D01*
X202291485Y-185671485D02*
X202362914Y-185528628D01*
X202434342Y-185457200D01*
X202577200Y-185385771D01*
X202720057Y-185385771D01*
X203862914Y-186385771D02*
X203862914Y-185600057D01*
X203791485Y-185457200D01*
X203648628Y-185385771D01*
X203362914Y-185385771D01*
X203220057Y-185457200D01*
X203862914Y-186314342D02*
X203720057Y-186385771D01*
X203362914Y-186385771D01*
X203220057Y-186314342D01*
X203148628Y-186171485D01*
X203148628Y-186028628D01*
X203220057Y-185885771D01*
X203362914Y-185814342D01*
X203720057Y-185814342D01*
X203862914Y-185742914D01*
X204362914Y-185385771D02*
X204934342Y-185385771D01*
X204577200Y-184885771D02*
X204577200Y-186171485D01*
X204648628Y-186314342D01*
X204791485Y-186385771D01*
X204934342Y-186385771D01*
X205648628Y-186385771D02*
X205505771Y-186314342D01*
X205434342Y-186242914D01*
X205362914Y-186100057D01*
X205362914Y-185671485D01*
X205434342Y-185528628D01*
X205505771Y-185457200D01*
X205648628Y-185385771D01*
X205862914Y-185385771D01*
X206005771Y-185457200D01*
X206077200Y-185528628D01*
X206148628Y-185671485D01*
X206148628Y-186100057D01*
X206077200Y-186242914D01*
X206005771Y-186314342D01*
X205862914Y-186385771D01*
X205648628Y-186385771D01*
X206791485Y-186385771D02*
X206791485Y-185385771D01*
X206791485Y-185671485D02*
X206862914Y-185528628D01*
X206934342Y-185457200D01*
X207077200Y-185385771D01*
X207220057Y-185385771D01*
X207720057Y-186242914D02*
X207791485Y-186314342D01*
X207720057Y-186385771D01*
X207648628Y-186314342D01*
X207720057Y-186242914D01*
X207720057Y-186385771D01*
X208434342Y-186385771D02*
X208434342Y-184885771D01*
X208577200Y-185814342D02*
X209005771Y-186385771D01*
X209005771Y-185385771D02*
X208434342Y-185957200D01*
X209648628Y-186385771D02*
X209648628Y-185385771D01*
X209648628Y-184885771D02*
X209577200Y-184957200D01*
X209648628Y-185028628D01*
X209720057Y-184957200D01*
X209648628Y-184885771D01*
X209648628Y-185028628D01*
X211005771Y-186314342D02*
X210862914Y-186385771D01*
X210577200Y-186385771D01*
X210434342Y-186314342D01*
X210362914Y-186242914D01*
X210291485Y-186100057D01*
X210291485Y-185671485D01*
X210362914Y-185528628D01*
X210434342Y-185457200D01*
X210577200Y-185385771D01*
X210862914Y-185385771D01*
X211005771Y-185457200D01*
X212291485Y-186385771D02*
X212291485Y-185600057D01*
X212220057Y-185457200D01*
X212077200Y-185385771D01*
X211791485Y-185385771D01*
X211648628Y-185457200D01*
X212291485Y-186314342D02*
X212148628Y-186385771D01*
X211791485Y-186385771D01*
X211648628Y-186314342D01*
X211577200Y-186171485D01*
X211577200Y-186028628D01*
X211648628Y-185885771D01*
X211791485Y-185814342D01*
X212148628Y-185814342D01*
X212291485Y-185742914D01*
X213648628Y-186385771D02*
X213648628Y-184885771D01*
X213648628Y-186314342D02*
X213505771Y-186385771D01*
X213220057Y-186385771D01*
X213077200Y-186314342D01*
X213005771Y-186242914D01*
X212934342Y-186100057D01*
X212934342Y-185671485D01*
X213005771Y-185528628D01*
X213077200Y-185457200D01*
X213220057Y-185385771D01*
X213505771Y-185385771D01*
X213648628Y-185457200D01*
X214005771Y-186528628D02*
X215148628Y-186528628D01*
X215505771Y-185385771D02*
X215505771Y-186885771D01*
X215505771Y-185457200D02*
X215648628Y-185385771D01*
X215934342Y-185385771D01*
X216077200Y-185457200D01*
X216148628Y-185528628D01*
X216220057Y-185671485D01*
X216220057Y-186100057D01*
X216148628Y-186242914D01*
X216077200Y-186314342D01*
X215934342Y-186385771D01*
X215648628Y-186385771D01*
X215505771Y-186314342D01*
X217505771Y-186314342D02*
X217362914Y-186385771D01*
X217077200Y-186385771D01*
X216934342Y-186314342D01*
X216862914Y-186242914D01*
X216791485Y-186100057D01*
X216791485Y-185671485D01*
X216862914Y-185528628D01*
X216934342Y-185457200D01*
X217077200Y-185385771D01*
X217362914Y-185385771D01*
X217505771Y-185457200D01*
X218148628Y-186385771D02*
X218148628Y-184885771D01*
X218148628Y-185457200D02*
X218291485Y-185385771D01*
X218577200Y-185385771D01*
X218720057Y-185457200D01*
X218791485Y-185528628D01*
X218862914Y-185671485D01*
X218862914Y-186100057D01*
X218791485Y-186242914D01*
X218720057Y-186314342D01*
X218577200Y-186385771D01*
X218291485Y-186385771D01*
X218148628Y-186314342D01*
D10*
D11*
X177002200Y-181507200D02*
X285002200Y-181507200D01*
D10*
D11*
X178362914Y-183614342D02*
X178577200Y-183685771D01*
X178934342Y-183685771D01*
X179077200Y-183614342D01*
X179148628Y-183542914D01*
X179220057Y-183400057D01*
X179220057Y-183257200D01*
X179148628Y-183114342D01*
X179077200Y-183042914D01*
X178934342Y-182971485D01*
X178648628Y-182900057D01*
X178505771Y-182828628D01*
X178434342Y-182757200D01*
X178362914Y-182614342D01*
X178362914Y-182471485D01*
X178434342Y-182328628D01*
X178505771Y-182257200D01*
X178648628Y-182185771D01*
X179005771Y-182185771D01*
X179220057Y-182257200D01*
X179862914Y-183685771D02*
X179862914Y-182185771D01*
X180505771Y-183685771D02*
X180505771Y-182900057D01*
X180434342Y-182757200D01*
X180291485Y-182685771D01*
X180077200Y-182685771D01*
X179934342Y-182757200D01*
X179862914Y-182828628D01*
X181791485Y-183614342D02*
X181648628Y-183685771D01*
X181362914Y-183685771D01*
X181220057Y-183614342D01*
X181148628Y-183471485D01*
X181148628Y-182900057D01*
X181220057Y-182757200D01*
X181362914Y-182685771D01*
X181648628Y-182685771D01*
X181791485Y-182757200D01*
X181862914Y-182900057D01*
X181862914Y-183042914D01*
X181148628Y-183185771D01*
X183077200Y-183614342D02*
X182934342Y-183685771D01*
X182648628Y-183685771D01*
X182505771Y-183614342D01*
X182434342Y-183471485D01*
X182434342Y-182900057D01*
X182505771Y-182757200D01*
X182648628Y-182685771D01*
X182934342Y-182685771D01*
X183077200Y-182757200D01*
X183148628Y-182900057D01*
X183148628Y-183042914D01*
X182434342Y-183185771D01*
X183577200Y-182685771D02*
X184148628Y-182685771D01*
X183791485Y-182185771D02*
X183791485Y-183471485D01*
X183862914Y-183614342D01*
X184005771Y-183685771D01*
X184148628Y-183685771D01*
X184648628Y-183542914D02*
X184720057Y-183614342D01*
X184648628Y-183685771D01*
X184577200Y-183614342D01*
X184648628Y-183542914D01*
X184648628Y-183685771D01*
X184648628Y-182757200D02*
X184720057Y-182828628D01*
X184648628Y-182900057D01*
X184577200Y-182828628D01*
X184648628Y-182757200D01*
X184648628Y-182900057D01*
D10*
D11*
X197002200Y-191507200D02*
X197002200Y-194507200D01*
D10*
D11*
X261002200Y-191507200D02*
X261002200Y-198007200D01*
D14*
%TO.C,D2*%
X119825000Y-75755000D02*
X119825000Y-75599000D01*
X119825000Y-78071000D02*
X119825000Y-77915000D01*
X117223870Y-75755163D02*
G75*
G02*
X119305961Y-75755000I1041130J-1079837D01*
G01*
X117223870Y-77914837D02*
G75*
G03*
X119305961Y-77915000I1041130J1079837D01*
G01*
X116592665Y-75756392D02*
G75*
G02*
X119825000Y-75599484I1672335J-1078608D01*
G01*
X116592665Y-77913608D02*
G75*
G03*
X119825000Y-78070516I1672335J1078608D01*
G01*
%TO.C,D1*%
X116070000Y-106490000D02*
X116070000Y-106646000D01*
X116070000Y-104174000D02*
X116070000Y-104330000D01*
X118671130Y-106489837D02*
G75*
G02*
X116589039Y-106490000I-1041130J1079837D01*
G01*
X118671130Y-104330163D02*
G75*
G03*
X116589039Y-104330000I-1041130J-1079837D01*
G01*
X119302335Y-106488608D02*
G75*
G02*
X116070000Y-106645516I-1672335J1078608D01*
G01*
X119302335Y-104331392D02*
G75*
G03*
X116070000Y-104174484I-1672335J-1078608D01*
G01*
%TO.C,C1*%
X113920000Y-99060000D02*
G75*
G03*
X113920000Y-99060000I-2620000J0D01*
G01*
X111300000Y-101640000D02*
X111300000Y-96480000D01*
X111260000Y-101640000D02*
X111260000Y-96480000D01*
X111220000Y-101639000D02*
X111220000Y-96481000D01*
X111180000Y-101638000D02*
X111180000Y-96482000D01*
X111140000Y-101636000D02*
X111140000Y-96484000D01*
X111100000Y-101633000D02*
X111100000Y-96487000D01*
X111060000Y-101629000D02*
X111060000Y-100100000D01*
X111060000Y-98020000D02*
X111060000Y-96491000D01*
X111020000Y-101625000D02*
X111020000Y-100100000D01*
X111020000Y-98020000D02*
X111020000Y-96495000D01*
X110980000Y-101621000D02*
X110980000Y-100100000D01*
X110980000Y-98020000D02*
X110980000Y-96499000D01*
X110940000Y-101616000D02*
X110940000Y-100100000D01*
X110940000Y-98020000D02*
X110940000Y-96504000D01*
X110900000Y-101610000D02*
X110900000Y-100100000D01*
X110900000Y-98020000D02*
X110900000Y-96510000D01*
X110860000Y-101603000D02*
X110860000Y-100100000D01*
X110860000Y-98020000D02*
X110860000Y-96517000D01*
X110820000Y-101596000D02*
X110820000Y-100100000D01*
X110820000Y-98020000D02*
X110820000Y-96524000D01*
X110780000Y-101588000D02*
X110780000Y-100100000D01*
X110780000Y-98020000D02*
X110780000Y-96532000D01*
X110740000Y-101580000D02*
X110740000Y-100100000D01*
X110740000Y-98020000D02*
X110740000Y-96540000D01*
X110700000Y-101571000D02*
X110700000Y-100100000D01*
X110700000Y-98020000D02*
X110700000Y-96549000D01*
X110660000Y-101561000D02*
X110660000Y-100100000D01*
X110660000Y-98020000D02*
X110660000Y-96559000D01*
X110620000Y-101551000D02*
X110620000Y-100100000D01*
X110620000Y-98020000D02*
X110620000Y-96569000D01*
X110579000Y-101540000D02*
X110579000Y-100100000D01*
X110579000Y-98020000D02*
X110579000Y-96580000D01*
X110539000Y-101528000D02*
X110539000Y-100100000D01*
X110539000Y-98020000D02*
X110539000Y-96592000D01*
X110499000Y-101515000D02*
X110499000Y-100100000D01*
X110499000Y-98020000D02*
X110499000Y-96605000D01*
X110459000Y-101502000D02*
X110459000Y-100100000D01*
X110459000Y-98020000D02*
X110459000Y-96618000D01*
X110419000Y-101488000D02*
X110419000Y-100100000D01*
X110419000Y-98020000D02*
X110419000Y-96632000D01*
X110379000Y-101474000D02*
X110379000Y-100100000D01*
X110379000Y-98020000D02*
X110379000Y-96646000D01*
X110339000Y-101458000D02*
X110339000Y-100100000D01*
X110339000Y-98020000D02*
X110339000Y-96662000D01*
X110299000Y-101442000D02*
X110299000Y-100100000D01*
X110299000Y-98020000D02*
X110299000Y-96678000D01*
X110259000Y-101425000D02*
X110259000Y-100100000D01*
X110259000Y-98020000D02*
X110259000Y-96695000D01*
X110219000Y-101408000D02*
X110219000Y-100100000D01*
X110219000Y-98020000D02*
X110219000Y-96712000D01*
X110179000Y-101389000D02*
X110179000Y-100100000D01*
X110179000Y-98020000D02*
X110179000Y-96731000D01*
X110139000Y-101370000D02*
X110139000Y-100100000D01*
X110139000Y-98020000D02*
X110139000Y-96750000D01*
X110099000Y-101350000D02*
X110099000Y-100100000D01*
X110099000Y-98020000D02*
X110099000Y-96770000D01*
X110059000Y-101328000D02*
X110059000Y-100100000D01*
X110059000Y-98020000D02*
X110059000Y-96792000D01*
X110019000Y-101307000D02*
X110019000Y-100100000D01*
X110019000Y-98020000D02*
X110019000Y-96813000D01*
X109979000Y-101284000D02*
X109979000Y-100100000D01*
X109979000Y-98020000D02*
X109979000Y-96836000D01*
X109939000Y-101260000D02*
X109939000Y-100100000D01*
X109939000Y-98020000D02*
X109939000Y-96860000D01*
X109899000Y-101235000D02*
X109899000Y-100100000D01*
X109899000Y-98020000D02*
X109899000Y-96885000D01*
X109859000Y-101209000D02*
X109859000Y-100100000D01*
X109859000Y-98020000D02*
X109859000Y-96911000D01*
X109819000Y-101182000D02*
X109819000Y-100100000D01*
X109819000Y-98020000D02*
X109819000Y-96938000D01*
X109779000Y-101155000D02*
X109779000Y-100100000D01*
X109779000Y-98020000D02*
X109779000Y-96965000D01*
X109739000Y-101125000D02*
X109739000Y-100100000D01*
X109739000Y-98020000D02*
X109739000Y-96995000D01*
X109699000Y-101095000D02*
X109699000Y-100100000D01*
X109699000Y-98020000D02*
X109699000Y-97025000D01*
X109659000Y-101064000D02*
X109659000Y-100100000D01*
X109659000Y-98020000D02*
X109659000Y-97056000D01*
X109619000Y-101031000D02*
X109619000Y-100100000D01*
X109619000Y-98020000D02*
X109619000Y-97089000D01*
X109579000Y-100997000D02*
X109579000Y-100100000D01*
X109579000Y-98020000D02*
X109579000Y-97123000D01*
X109539000Y-100961000D02*
X109539000Y-100100000D01*
X109539000Y-98020000D02*
X109539000Y-97159000D01*
X109499000Y-100924000D02*
X109499000Y-100100000D01*
X109499000Y-98020000D02*
X109499000Y-97196000D01*
X109459000Y-100886000D02*
X109459000Y-100100000D01*
X109459000Y-98020000D02*
X109459000Y-97234000D01*
X109419000Y-100845000D02*
X109419000Y-100100000D01*
X109419000Y-98020000D02*
X109419000Y-97275000D01*
X109379000Y-100803000D02*
X109379000Y-100100000D01*
X109379000Y-98020000D02*
X109379000Y-97317000D01*
X109339000Y-100759000D02*
X109339000Y-100100000D01*
X109339000Y-98020000D02*
X109339000Y-97361000D01*
X109299000Y-100713000D02*
X109299000Y-100100000D01*
X109299000Y-98020000D02*
X109299000Y-97407000D01*
X109259000Y-100665000D02*
X109259000Y-100100000D01*
X109259000Y-98020000D02*
X109259000Y-97455000D01*
X109219000Y-100614000D02*
X109219000Y-100100000D01*
X109219000Y-98020000D02*
X109219000Y-97506000D01*
X109179000Y-100560000D02*
X109179000Y-100100000D01*
X109179000Y-98020000D02*
X109179000Y-97560000D01*
X109139000Y-100503000D02*
X109139000Y-100100000D01*
X109139000Y-98020000D02*
X109139000Y-97617000D01*
X109099000Y-100443000D02*
X109099000Y-100100000D01*
X109099000Y-98020000D02*
X109099000Y-97677000D01*
X109059000Y-100379000D02*
X109059000Y-100100000D01*
X109059000Y-98020000D02*
X109059000Y-97741000D01*
X109019000Y-100311000D02*
X109019000Y-100100000D01*
X109019000Y-98020000D02*
X109019000Y-97809000D01*
X108979000Y-100238000D02*
X108979000Y-97882000D01*
X108939000Y-100158000D02*
X108939000Y-97962000D01*
X108899000Y-100071000D02*
X108899000Y-98049000D01*
X108859000Y-99975000D02*
X108859000Y-98145000D01*
X108819000Y-99865000D02*
X108819000Y-98255000D01*
X108779000Y-99737000D02*
X108779000Y-98383000D01*
X108739000Y-99578000D02*
X108739000Y-98542000D01*
X108699000Y-99344000D02*
X108699000Y-98776000D01*
X114104775Y-100535000D02*
X113604775Y-100535000D01*
X113854775Y-100785000D02*
X113854775Y-100285000D01*
%TO.C,C2*%
X115124775Y-81100000D02*
X115124775Y-80600000D01*
X115374775Y-80850000D02*
X114874775Y-80850000D01*
X109969000Y-79659000D02*
X109969000Y-79091000D01*
X110009000Y-79893000D02*
X110009000Y-78857000D01*
X110049000Y-80052000D02*
X110049000Y-78698000D01*
X110089000Y-80180000D02*
X110089000Y-78570000D01*
X110129000Y-80290000D02*
X110129000Y-78460000D01*
X110169000Y-80386000D02*
X110169000Y-78364000D01*
X110209000Y-80473000D02*
X110209000Y-78277000D01*
X110249000Y-80553000D02*
X110249000Y-78197000D01*
X110289000Y-78335000D02*
X110289000Y-78124000D01*
X110289000Y-80626000D02*
X110289000Y-80415000D01*
X110329000Y-78335000D02*
X110329000Y-78056000D01*
X110329000Y-80694000D02*
X110329000Y-80415000D01*
X110369000Y-78335000D02*
X110369000Y-77992000D01*
X110369000Y-80758000D02*
X110369000Y-80415000D01*
X110409000Y-78335000D02*
X110409000Y-77932000D01*
X110409000Y-80818000D02*
X110409000Y-80415000D01*
X110449000Y-78335000D02*
X110449000Y-77875000D01*
X110449000Y-80875000D02*
X110449000Y-80415000D01*
X110489000Y-78335000D02*
X110489000Y-77821000D01*
X110489000Y-80929000D02*
X110489000Y-80415000D01*
X110529000Y-78335000D02*
X110529000Y-77770000D01*
X110529000Y-80980000D02*
X110529000Y-80415000D01*
X110569000Y-78335000D02*
X110569000Y-77722000D01*
X110569000Y-81028000D02*
X110569000Y-80415000D01*
X110609000Y-78335000D02*
X110609000Y-77676000D01*
X110609000Y-81074000D02*
X110609000Y-80415000D01*
X110649000Y-78335000D02*
X110649000Y-77632000D01*
X110649000Y-81118000D02*
X110649000Y-80415000D01*
X110689000Y-78335000D02*
X110689000Y-77590000D01*
X110689000Y-81160000D02*
X110689000Y-80415000D01*
X110729000Y-78335000D02*
X110729000Y-77549000D01*
X110729000Y-81201000D02*
X110729000Y-80415000D01*
X110769000Y-78335000D02*
X110769000Y-77511000D01*
X110769000Y-81239000D02*
X110769000Y-80415000D01*
X110809000Y-78335000D02*
X110809000Y-77474000D01*
X110809000Y-81276000D02*
X110809000Y-80415000D01*
X110849000Y-78335000D02*
X110849000Y-77438000D01*
X110849000Y-81312000D02*
X110849000Y-80415000D01*
X110889000Y-78335000D02*
X110889000Y-77404000D01*
X110889000Y-81346000D02*
X110889000Y-80415000D01*
X110929000Y-78335000D02*
X110929000Y-77371000D01*
X110929000Y-81379000D02*
X110929000Y-80415000D01*
X110969000Y-78335000D02*
X110969000Y-77340000D01*
X110969000Y-81410000D02*
X110969000Y-80415000D01*
X111009000Y-78335000D02*
X111009000Y-77310000D01*
X111009000Y-81440000D02*
X111009000Y-80415000D01*
X111049000Y-78335000D02*
X111049000Y-77280000D01*
X111049000Y-81470000D02*
X111049000Y-80415000D01*
X111089000Y-78335000D02*
X111089000Y-77253000D01*
X111089000Y-81497000D02*
X111089000Y-80415000D01*
X111129000Y-78335000D02*
X111129000Y-77226000D01*
X111129000Y-81524000D02*
X111129000Y-80415000D01*
X111169000Y-78335000D02*
X111169000Y-77200000D01*
X111169000Y-81550000D02*
X111169000Y-80415000D01*
X111209000Y-78335000D02*
X111209000Y-77175000D01*
X111209000Y-81575000D02*
X111209000Y-80415000D01*
X111249000Y-78335000D02*
X111249000Y-77151000D01*
X111249000Y-81599000D02*
X111249000Y-80415000D01*
X111289000Y-78335000D02*
X111289000Y-77128000D01*
X111289000Y-81622000D02*
X111289000Y-80415000D01*
X111329000Y-78335000D02*
X111329000Y-77107000D01*
X111329000Y-81643000D02*
X111329000Y-80415000D01*
X111369000Y-78335000D02*
X111369000Y-77085000D01*
X111369000Y-81665000D02*
X111369000Y-80415000D01*
X111409000Y-78335000D02*
X111409000Y-77065000D01*
X111409000Y-81685000D02*
X111409000Y-80415000D01*
X111449000Y-78335000D02*
X111449000Y-77046000D01*
X111449000Y-81704000D02*
X111449000Y-80415000D01*
X111489000Y-78335000D02*
X111489000Y-77027000D01*
X111489000Y-81723000D02*
X111489000Y-80415000D01*
X111529000Y-78335000D02*
X111529000Y-77010000D01*
X111529000Y-81740000D02*
X111529000Y-80415000D01*
X111569000Y-78335000D02*
X111569000Y-76993000D01*
X111569000Y-81757000D02*
X111569000Y-80415000D01*
X111609000Y-78335000D02*
X111609000Y-76977000D01*
X111609000Y-81773000D02*
X111609000Y-80415000D01*
X111649000Y-78335000D02*
X111649000Y-76961000D01*
X111649000Y-81789000D02*
X111649000Y-80415000D01*
X111689000Y-78335000D02*
X111689000Y-76947000D01*
X111689000Y-81803000D02*
X111689000Y-80415000D01*
X111729000Y-78335000D02*
X111729000Y-76933000D01*
X111729000Y-81817000D02*
X111729000Y-80415000D01*
X111769000Y-78335000D02*
X111769000Y-76920000D01*
X111769000Y-81830000D02*
X111769000Y-80415000D01*
X111809000Y-78335000D02*
X111809000Y-76907000D01*
X111809000Y-81843000D02*
X111809000Y-80415000D01*
X111849000Y-78335000D02*
X111849000Y-76895000D01*
X111849000Y-81855000D02*
X111849000Y-80415000D01*
X111890000Y-78335000D02*
X111890000Y-76884000D01*
X111890000Y-81866000D02*
X111890000Y-80415000D01*
X111930000Y-78335000D02*
X111930000Y-76874000D01*
X111930000Y-81876000D02*
X111930000Y-80415000D01*
X111970000Y-78335000D02*
X111970000Y-76864000D01*
X111970000Y-81886000D02*
X111970000Y-80415000D01*
X112010000Y-78335000D02*
X112010000Y-76855000D01*
X112010000Y-81895000D02*
X112010000Y-80415000D01*
X112050000Y-78335000D02*
X112050000Y-76847000D01*
X112050000Y-81903000D02*
X112050000Y-80415000D01*
X112090000Y-78335000D02*
X112090000Y-76839000D01*
X112090000Y-81911000D02*
X112090000Y-80415000D01*
X112130000Y-78335000D02*
X112130000Y-76832000D01*
X112130000Y-81918000D02*
X112130000Y-80415000D01*
X112170000Y-78335000D02*
X112170000Y-76825000D01*
X112170000Y-81925000D02*
X112170000Y-80415000D01*
X112210000Y-78335000D02*
X112210000Y-76819000D01*
X112210000Y-81931000D02*
X112210000Y-80415000D01*
X112250000Y-78335000D02*
X112250000Y-76814000D01*
X112250000Y-81936000D02*
X112250000Y-80415000D01*
X112290000Y-78335000D02*
X112290000Y-76810000D01*
X112290000Y-81940000D02*
X112290000Y-80415000D01*
X112330000Y-78335000D02*
X112330000Y-76806000D01*
X112330000Y-81944000D02*
X112330000Y-80415000D01*
X112370000Y-81948000D02*
X112370000Y-76802000D01*
X112410000Y-81951000D02*
X112410000Y-76799000D01*
X112450000Y-81953000D02*
X112450000Y-76797000D01*
X112490000Y-81954000D02*
X112490000Y-76796000D01*
X112530000Y-81955000D02*
X112530000Y-76795000D01*
X112570000Y-81955000D02*
X112570000Y-76795000D01*
X115190000Y-79375000D02*
G75*
G03*
X115190000Y-79375000I-2620000J0D01*
G01*
%TO.C,J1*%
X103350000Y-83995000D02*
X106350000Y-83995000D01*
X106350000Y-83995000D02*
X106350000Y-86995000D01*
X105970000Y-84375000D02*
X105970000Y-94615000D01*
X105970000Y-94615000D02*
X93230000Y-94615000D01*
X93230000Y-84375000D02*
X93230000Y-94615000D01*
X105970000Y-84375000D02*
X93230000Y-84375000D01*
X105970000Y-84375000D02*
X105970000Y-94615000D01*
X105970000Y-94615000D02*
X93230000Y-94615000D01*
X93230000Y-84375000D02*
X93230000Y-94615000D01*
X105970000Y-84375000D02*
X93230000Y-84375000D01*
%TO.C,Q1*%
X108845000Y-93925000D02*
X112445000Y-93925000D01*
X108806522Y-93913478D02*
G75*
G02*
X110645000Y-89475000I1838478J1838478D01*
G01*
X112483478Y-93913478D02*
G75*
G03*
X110645000Y-89475000I-1838478J1838478D01*
G01*
%TO.C,Q2*%
X104400000Y-83765000D02*
X108000000Y-83765000D01*
X108038478Y-83753478D02*
G75*
G03*
X106200000Y-79315000I-1838478J1838478D01*
G01*
X104361522Y-83753478D02*
G75*
G02*
X106200000Y-79315000I1838478J1838478D01*
G01*
%TO.C,R1*%
X96230001Y-98000001D02*
X96230001Y-97670001D01*
X96230001Y-97670001D02*
X102770001Y-97670001D01*
X102770001Y-97670001D02*
X102770001Y-98000001D01*
X96230001Y-100080001D02*
X96230001Y-100410001D01*
X96230001Y-100410001D02*
X102770001Y-100410001D01*
X102770001Y-100410001D02*
X102770001Y-100080001D01*
%TO.C,R2*%
X120270000Y-88170000D02*
X119940000Y-88170000D01*
X120270000Y-94710000D02*
X120270000Y-88170000D01*
X119940000Y-94710000D02*
X120270000Y-94710000D01*
X117530000Y-88170000D02*
X117860000Y-88170000D01*
X117530000Y-94710000D02*
X117530000Y-88170000D01*
X117860000Y-94710000D02*
X117530000Y-94710000D01*
%TO.C,R3*%
X100390000Y-76430000D02*
X100390000Y-76100000D01*
X100390000Y-76100000D02*
X106930000Y-76100000D01*
X106930000Y-76100000D02*
X106930000Y-76430000D01*
X100390000Y-78510000D02*
X100390000Y-78840000D01*
X100390000Y-78840000D02*
X106930000Y-78840000D01*
X106930000Y-78840000D02*
X106930000Y-78510000D01*
%TO.C,R4*%
X125350000Y-86265000D02*
X125020000Y-86265000D01*
X125350000Y-92805000D02*
X125350000Y-86265000D01*
X125020000Y-92805000D02*
X125350000Y-92805000D01*
X122610000Y-86265000D02*
X122940000Y-86265000D01*
X122610000Y-92805000D02*
X122610000Y-86265000D01*
X122940000Y-92805000D02*
X122610000Y-92805000D01*
%TD*%
M02*
