M48
; DRILL file {KiCad (5.1.8)-1} date 07/18/21 20:21:31
; FORMAT={-:-/ absolute / inch / decimal}
; #@! TF.CreationDate,2021-07-18T20:21:31-07:00
; #@! TF.GenerationSoftware,Kicad,Pcbnew,(5.1.8)-1
; #@! TF.FileFunction,Plated,1,2,PTH
FMAT,2
INCH
T1C0.0295
T2C0.0315
T3C0.0433
T4C0.0472
T5C0.0591
%
G90
G05
T1
X5.7404Y-3.75
X5.7904Y-3.75
X5.8404Y-3.75
T2
X4.6077Y-4.2016
X4.9077Y-4.2016
X6.3154Y-4.325
X6.3154Y-4.4628
X4.7154Y-3.9
X4.8154Y-3.9
X4.9154Y-3.9
T3
X5.5904Y-4.45
X5.9904Y-4.45
X5.5904Y-4.0
X5.9904Y-4.0
X5.5904Y-4.225
X5.9904Y-4.225
X6.1904Y-4.0
X6.5904Y-4.0
X4.4904Y-3.375
X4.4904Y-3.475
X4.4904Y-3.575
X5.5904Y-4.65
X5.9904Y-4.65
T4
X6.1904Y-3.35
X6.3404Y-3.35
X5.6185Y-3.325
X5.8154Y-3.325
T5
X4.9654Y-4.475
X5.1622Y-4.475
T0
M30
